<svg viewBox="0 0 149 24" version="1.1" xmlns="http://www.w3.org/2000/svg" xmlns:xlink="http://www.w3.org/1999/xlink">
	<path d="M3.42571369,16.4998185 L3.42571369,21.7656452 C3.42571369,22.7027434 2.6660455,23.4624116 1.72894731,23.4624116 C0.791849109,23.4624116 0.0321809232,22.7027434 0.0321809232,21.7656452 L8.7108456e-07,9.70397661 C8.7108456e-07,9.58110732 8.7108456e-07,9.45823803 8.7108456e-07,9.33536874 C-0.00208640665,4.48270878 3.74719711,0.453873841 8.58748636,0.107589236 C13.4277756,-0.238695369 17.7124022,3.21537652 18.4011397,8.01891207 C18.9862844,8.25374772 19.5419882,8.55614487 20.0569497,8.91995353 L20.0569497,1.76720559 C20.0310862,1.14473315 20.3484335,0.558150197 20.8836122,0.239207227 C21.4187909,-0.0797357424 22.0857158,-0.0797357424 22.6208945,0.239207227 C23.1560732,0.558150197 23.4734205,1.14473315 23.447557,1.76720559 L23.447557,15.1511818 C23.447557,15.2623492 23.447557,15.3735167 23.447557,15.4846842 C23.4327415,19.3216663 20.7093424,22.613757 16.9431144,23.3473639 C13.1768865,24.0809707 9.41697008,22.0517363 7.96310103,18.5008327 C6.29236119,18.268502 4.71764555,17.5813349 3.41108639,16.5144458 L3.42571369,16.4998185 Z M18.1758794,11.7488726 C17.3202749,14.9098868 14.8585709,17.383827 11.701838,18.2550941 C12.676426,19.6752583 14.3567632,20.4396485 16.0676928,20.2411339 C17.7786224,20.0426192 19.2392939,18.9137862 19.862812,17.308198 C20.48633,15.7026098 20.1703435,13.8838251 19.0418153,12.5826285 C18.7858769,12.2685547 18.4909551,11.988379 18.1641775,11.7488726 L18.1758794,11.7488726 Z M13.3781262,5.20462024 C11.4062857,3.22778879 8.31239698,2.919695 5.98943445,4.46884392 C3.66647191,6.01799285 2.76180822,8.99266138 3.8289556,11.5728191 C4.89610298,14.1529768 7.63766447,15.6195748 10.3762346,15.0752853 C13.1148047,14.5309958 15.0871876,12.1275036 15.0865944,9.33536874 C15.0881925,7.78621948 14.4735189,6.30005654 13.3781262,5.20462024 Z"
		  fill="#64FFDA" fill-rule="evenodd"></path>
	<path d="M36.0054833,18.267586 C36.0054833,19.364249 36.5263983,19.8933889 37.609353,19.8933889 C38.6923077,19.8933889 39.2159643,19.372474 39.2159643,18.267586 L39.2159643,14.5032901 L42.0042301,14.5032901 C44.9131287,14.5032901 47.161288,12.3099641 47.161288,9.42574032 C47.161288,6.37701711 44.9679619,4.2906157 41.8835971,4.2906157 L37.6861194,4.2906157 C36.5894564,4.2906157 36,4.81153064 36,5.95480184 L36,18.2730693 L36.0054833,18.267586 Z M113.010419,5.85610217 L113.010419,18.6459347 C113.010492,18.7630305 113.056804,18.8753601 113.139277,18.9584837 C113.223734,19.0406267 113.336754,19.0868175 113.454568,19.0873416 L116.835032,19.0873416 C118.400547,19.1104983 119.891633,18.4204427 120.887202,17.2120478 L120.914618,17.1818896 C121.44442,16.530416 121.84964,15.7868931 122.109981,14.9885635 C122.39172,14.1284151 122.534254,13.2287845 122.532196,12.3236724 C122.535553,11.3955821 122.403476,10.4719678 122.140139,9.5820148 C121.905753,8.77965465 121.529704,8.02570102 121.029768,7.35578886 C120.573823,6.74643558 119.983761,6.25018368 119.305265,5.90545201 C118.630185,5.57294286 117.886356,5.40389082 117.133872,5.41195365 L113.454568,5.41195365 C113.336296,5.41195139 113.222907,5.45912164 113.139534,5.54300956 C113.056161,5.62689748 113.009689,5.74057401 113.010419,5.85884383 L113.010419,5.85610217 Z M122.847487,15.2380544 C122.535205,16.1348582 122.05924,16.9659371 121.443758,17.6890962 C120.883033,18.3444077 120.189667,18.8733097 119.409448,19.2408744 C118.635561,19.595932 117.793393,19.777466 116.941956,19.772756 L112.766412,19.772756 C112.654004,19.772756 112.566271,19.772756 112.492246,19.772756 C112.443542,19.7744109 112.395278,19.7630545 112.352422,19.7398561 C112.33323,19.7234061 112.322263,19.6795396 112.31678,19.6082565 C112.31678,19.5479401 112.31678,19.460207 112.31678,19.3340908 L112.31678,5.31599563 C112.31678,4.92668026 112.590946,4.72928091 113.120086,4.72928091 L117.375138,4.72928091 C118.181599,4.72201037 118.978937,4.9002388 119.705547,5.25019585 C120.437553,5.61047111 121.078632,6.13158232 121.580841,6.77455746 C122.163516,7.52180311 122.60485,8.36916346 122.883128,9.27494916 C123.190743,10.2590463 123.346071,11.2843951 123.343727,12.3154474 C123.34529,13.3107454 123.177482,14.299053 122.847487,15.2380544 Z M122.699437,19.1805579 L127.560396,5.41195365 C127.599004,5.30340717 127.649579,5.1994977 127.711187,5.10214634 C127.764362,5.02022499 127.830044,4.94714162 127.905845,4.88555539 C127.971294,4.8347167 128.045688,4.7965897 128.125178,4.77314743 C128.298777,4.72196427 128.483459,4.72196427 128.657059,4.77314743 C128.735444,4.79724863 128.808823,4.83533114 128.87365,4.88555539 C128.949451,4.94714162 129.015133,5.02022499 129.068308,5.10214634 C129.129916,5.1994977 129.180491,5.30340717 129.219099,5.41195365 L134.252782,19.1778163 L134.26649,19.2134578 C134.274999,19.2318801 134.281435,19.25119 134.285682,19.2710326 C134.292771,19.2916 134.298271,19.3126813 134.302132,19.3340908 C134.30346,19.3587478 134.30346,19.3834585 134.302132,19.4081155 C134.302132,19.4382738 134.302132,19.4656903 134.302132,19.4903652 C134.302965,19.5329889 134.29742,19.5754975 134.285682,19.6164815 C134.277473,19.6507069 134.261529,19.6825955 134.239074,19.7096979 C134.212543,19.7335777 134.180521,19.7505303 134.145858,19.7590477 C134.104841,19.7706285 134.062356,19.7761701 134.019741,19.7754976 C133.976921,19.7802736 133.933703,19.7802736 133.890883,19.7754976 C133.853696,19.7691047 133.818228,19.7551043 133.7867,19.7343728 C133.763075,19.7171816 133.741866,19.6968947 133.723642,19.6740563 C133.705419,19.6467933 133.688936,19.6184063 133.674292,19.5890649 L133.674292,19.5534234 L132.577629,16.8117658 C132.547069,16.7240119 132.490681,16.6475534 132.415872,16.5924332 C132.339764,16.5385067 132.248689,16.5097464 132.155414,16.5101835 L124.752939,16.5101835 C124.661749,16.5095393 124.572626,16.5373305 124.497965,16.5896915 C124.422284,16.642193 124.364797,16.716925 124.333465,16.8035408 L123.450651,19.2710326 C123.422171,19.3584189 123.383523,19.4421565 123.335502,19.5205235 C123.297492,19.5853309 123.249362,19.6436422 123.192936,19.6932479 C123.153876,19.7277539 123.108153,19.7538811 123.058594,19.7700143 C123.008227,19.7868304 122.955418,19.7951687 122.90232,19.7946892 C122.868594,19.7981353 122.834605,19.7981353 122.800879,19.7946892 C122.773376,19.7868405 122.748048,19.7727693 122.726854,19.7535644 C122.700913,19.7217365 122.683043,19.6841146 122.674762,19.6438981 C122.663098,19.5954323 122.657572,19.5456927 122.658312,19.4958486 C122.656947,19.4739365 122.656947,19.4519608 122.658312,19.4300488 C122.658312,19.4081155 122.658312,19.3889239 122.658312,19.3697323 L122.693954,19.2436161 L122.693954,19.2216828 L122.699437,19.1805579 Z M127.99632,6.32492562 L124.780355,15.1201631 C124.765851,15.1486501 124.755685,15.1791453 124.750197,15.2106378 C124.746002,15.2424862 124.746002,15.2747474 124.750197,15.3065958 C124.750856,15.4235745 124.79708,15.535691 124.879055,15.6191448 C124.962852,15.70229 125.076301,15.7486561 125.194346,15.7480027 L131.565958,15.7480027 L131.642724,15.7480027 L131.714007,15.7288111 C131.825791,15.6897357 131.917496,15.6078916 131.968981,15.5012535 C132.019692,15.3946873 132.025616,15.2722522 131.985431,15.161288 L128.835267,6.32492562 C128.812931,6.26235388 128.7774,6.20531736 128.731084,6.1576845 C128.6839,6.11213932 128.627927,6.07669003 128.566584,6.05350152 C128.45562,6.01331705 128.333185,6.01924133 128.226619,6.06995146 C128.120196,6.11982042 128.037529,6.20937625 127.99632,6.3194423 L127.99632,6.32492562 Z M135.607161,19.3121575 C135.591621,19.4367614 135.617642,19.5630106 135.681186,19.6713146 C135.738761,19.7480811 135.831977,19.772756 135.980026,19.772756 C136.082547,19.7919534 136.187432,19.7541947 136.254192,19.6740563 C136.310525,19.5622792 136.333374,19.4366101 136.319992,19.3121575 L136.319992,5.83416891 C136.319936,5.71624038 136.366212,5.60301022 136.44885,5.51887829 C136.533307,5.43673531 136.646327,5.39054449 136.764141,5.39002039 L139.952688,5.39002039 C140.05603,5.40304558 140.160688,5.37978816 140.248787,5.3242206 C140.309104,5.27212911 140.325554,5.18987938 140.325554,5.05005485 C140.338942,4.95241795 140.312239,4.85351949 140.251529,4.77588909 C140.164514,4.7151917 140.057732,4.68972071 139.952688,4.70460599 L132.001881,4.70460599 L131.689332,4.77040578 C131.667281,4.77454124 131.651904,4.79464936 131.653691,4.81701395 L131.653691,5.27212911 C131.65322,5.28518009 131.659418,5.29757494 131.670141,5.305029 C131.710372,5.33525948 131.757472,5.35504146 131.807224,5.36260381 C131.876808,5.37580293 131.947507,5.38223014 132.018331,5.38179541 L135.182204,5.38179541 C135.423196,5.39217268 135.611851,5.59299958 135.607161,5.83416891 L135.607161,19.3121575 Z M141.350934,19.2490994 L141.350934,5.2666458 C141.335429,5.12633096 141.36624,4.98479543 141.438667,4.86362213 C141.528476,4.76959888 141.65813,4.72467945 141.786857,4.7429892 L148.331194,4.7429892 C148.389065,4.74231045 148.446878,4.7468988 148.503918,4.75669749 C148.545484,4.76333094 148.584396,4.78136313 148.616326,4.80878898 C148.622971,4.81567674 148.627697,4.82418358 148.630034,4.8334639 L148.682126,5.08021308 L148.682126,5.09392137 C148.682126,5.22826259 148.682126,5.31051232 148.616326,5.36808713 C148.550526,5.42566193 148.476502,5.43114525 148.34216,5.43114525 L142.461305,5.43114525 C142.343047,5.43211276 142.229869,5.47935203 142.146014,5.56274481 C142.062869,5.6465416 142.016503,5.75999053 142.017156,5.87803543 L142.017156,11.1529846 C142.016503,11.2710295 142.062869,11.3844784 142.146014,11.4682752 C142.229869,11.551668 142.343047,11.5989073 142.461305,11.5998748 L147.283881,11.5998748 C147.426447,11.5998748 147.511438,11.5998748 147.558046,11.6738995 C147.617354,11.7604515 147.64183,11.8661897 147.626588,11.9699985 C147.626588,12.0933731 147.626588,12.1673979 147.56353,12.2167477 C147.481612,12.2673294 147.384946,12.2885958 147.289364,12.2770642 L142.461305,12.2770642 C142.34306,12.2755767 142.229222,12.3218929 142.145604,12.4055115 C142.061985,12.4891302 142.015669,12.6029675 142.017156,12.7212127 L142.017156,18.6431931 C142.016201,18.7599561 142.061549,18.872341 142.143273,18.955742 C142.227127,19.0391348 142.340305,19.0863741 142.458563,19.0873416 L148.49021,19.0873416 C148.621224,19.0719562 148.753857,19.095811 148.8713,19.155883 C148.950808,19.2107162 148.97,19.2984492 148.97,19.4300488 C148.97,19.5616483 148.948067,19.6438981 148.8713,19.7042145 C148.752849,19.7611218 148.620886,19.7839068 148.49021,19.7700143 L141.638808,19.7700143 C141.498983,19.7700143 141.424958,19.7700143 141.37835,19.7179228 C141.331742,19.6658313 141.337225,19.5753566 141.337225,19.3889239 C141.337225,19.3587657 141.337225,19.3231241 141.337225,19.2463577 L141.350934,19.2490994 Z M97.4844126,18.1332448 C97.4844126,19.3176408 98.0327441,19.8988722 99.1102155,19.8988722 C100.187687,19.8988722 100.694894,19.3176408 100.694894,18.1332448 L100.694894,13.9001255 L103.022561,13.9001255 L105.550369,19.0352501 C105.807072,19.6055586 106.390221,19.9571957 107.014414,19.9180638 C108.058986,19.9180638 108.541518,19.276516 108.541518,18.3745106 C108.517908,18.0119688 108.424831,17.6573446 108.267352,17.3299391 L106.323517,13.0776282 C107.946578,12.0357983 108.689567,10.4895035 108.689567,8.96514185 C108.689567,6.57715811 106.82524,4.30432399 103.453001,4.30432399 L99.4556644,4.30432399 C98.1506354,4.30432399 97.4679626,4.82523893 97.4679626,5.96851013 L97.4679626,18.1332448 L97.4844126,18.1332448 Z M103.603792,7.50109671 C104.867696,7.50109671 105.410545,8.22215265 105.410545,8.96514185 C105.403397,9.43950013 105.206534,9.89122871 104.863939,10.2193987 C104.521344,10.5475686 104.061569,10.72483 103.587342,10.7115777 L100.678444,10.7115777 L100.678444,7.50109671 L103.603792,7.50109671 Z M86.1833001,18.1332448 C86.1833001,19.5369734 86.3834411,19.8988722 87.8694195,19.8988722 L93.6598003,19.8988722 C94.8222631,19.8988722 95.3843029,19.3505407 95.3843029,18.2950025 C95.3843029,17.2394644 94.830488,16.6883912 93.6598003,16.6883912 L89.3937811,16.6883912 L89.3937811,13.4532353 L92.6234537,13.4532353 C93.7201167,13.4532353 94.230065,12.9049038 94.230065,11.8685572 C94.230065,10.7718942 93.7091501,10.2427543 92.6234537,10.2427543 L89.3937811,10.2427543 L89.3937811,7.52028831 L93.5282007,7.52028831 C94.6248637,7.52028831 95.1320704,6.9719568 95.1320704,5.91641864 C95.1320704,4.81975561 94.6111554,4.3098073 93.5282007,4.3098073 L87.8694195,4.3098073 C86.7727565,4.3098073 86.1833001,4.89103871 86.1833001,6.05624317 L86.1833001,18.1332448 Z M77.3332295,18.1935612 C77.3332295,19.3368324 77.881561,19.8988722 78.978224,19.8988722 C80.0227955,19.8988722 80.5437105,19.3368324 80.5437105,18.1935612 L80.5437105,7.50109671 L82.388846,7.50109671 C83.4526091,7.50109671 84.014649,6.9527652 84.014649,5.91641864 C84.014649,4.81975561 83.4526091,4.2906157 82.388846,4.2906157 L75.5072855,4.2906157 C74.4106225,4.2906157 73.8430994,4.81153064 73.8430994,5.91641864 C73.8430994,6.95824851 74.3914309,7.50109671 75.5072855,7.50109671 L77.3332295,7.50109671 L77.3332295,18.1935612 Z M69.3138811,7.86847883 C69.6498317,8.17590433 70.0868144,8.34952694 70.5421437,8.35649387 C71.4414074,8.35649387 72.0856969,7.51754666 72.0856969,6.71149933 C72.0662583,6.08802283 71.735846,5.51571997 71.2056248,5.18713773 C70.2275192,4.44856136 69.0343414,4.05083542 67.8087111,4.05483315 C65.3143183,4.01805054 63.2569237,5.9995627 63.1999847,8.49357675 C63.1999847,11.1310513 65.5441019,12.2441643 67.5153537,13.1543946 C69.0780985,13.8754506 69.6044968,14.3250824 69.6044968,14.9885635 C69.6044968,16.1016765 68.6668499,16.6691996 67.5948618,16.6691996 C66.9442944,16.6555421 66.3095512,16.4660665 65.7579512,16.1208681 C65.4100123,15.9108553 65.0127969,15.7964194 64.606455,15.7891275 C63.5920417,15.7891275 63.0820934,16.257951 63.0820934,17.2942975 C63.0777159,17.9336537 63.4225269,18.5244578 63.9813571,18.8351091 C65.0525478,19.5439406 66.310407,19.9180535 67.5948618,19.9098389 C70.6106851,19.9098389 72.9246441,18.0345451 72.9246441,14.8706722 C72.9246441,12.4689802 71.2467497,11.3942505 68.8834408,10.2427543 C67.6716282,9.65603956 66.4817488,9.36542386 66.4817488,8.40858537 C66.4817488,7.54770489 66.9889555,7.29547239 67.7895195,7.29547239 C68.3464034,7.30848102 68.8829569,7.50727603 69.3138811,7.86025385 L69.3138811,7.86847883 Z M55.1120949,4 C50.6541597,4 48.4224504,7.96992016 48.4224504,11.9179071 C48.4224504,15.8658939 50.6623847,19.8933889 55.1011283,19.8933889 C59.6193799,19.8933889 61.8785058,15.945402 61.8785058,11.9754819 C61.8785058,8.0055617 59.6193799,4 55.1011283,4 L55.1120949,4 Z M55.1120949,7.18306443 C57.5110453,7.18306443 58.6762497,9.57927315 58.6762497,12.0166067 C58.6762497,14.4539403 57.5302369,16.7706409 55.1532198,16.7706409 C52.7762026,16.7706409 51.6548647,14.3333074 51.6548647,11.8795238 C51.6548647,9.50250673 52.7762026,7.18306443 55.1120949,7.18306443 Z M41.6176564,7.50109671 C43.0817015,7.50109671 43.8850072,8.20296105 43.8850072,9.42025701 C43.8850072,10.637553 43.1008931,11.3065174 41.9192387,11.3065174 L39.210481,11.3065174 L39.210481,7.50109671 L41.6176564,7.50109671 Z"
		  fill="#FFFFFF" fill-rule="evenodd"></path>
</svg>