<?xml version="1.0" encoding="UTF-8"?>
<svg width="580px" height="580px" viewBox="0 0 580 580" version="1.1" xmlns="http://www.w3.org/2000/svg" xmlns:xlink="http://www.w3.org/1999/xlink">
    <!-- Generator: Sketch 54.1 (76490) - https://sketchapp.com -->
    <title>Rectangle 2</title>
    <desc>Created with Sketch.</desc>
    <g id="Page-1" stroke="none" stroke-width="1" fill="none" fill-rule="evenodd">
        <path d="M545,9.18485099e-16 C564.329966,2.10210416e-15 580,15.6700338 580,35 L580,78 C580,79.1045695 579.104569,80 578,80 L577,80 C575.895431,80 575,79.1045695 575,78 L575,35 C575,18.4314575 561.568542,5 545,5 L502,5 C500.895431,5 500,4.1045695 500,3 L500,2 C500,0.8954305 500.895431,-7.04812213e-15 502,-6.98048676e-15 L545,9.18485099e-16 Z M580,545 C580,564.329966 564.329966,580 545,580 L502,580 C500.895431,580 500,579.104569 500,578 L500,577 C500,575.895431 500.895431,575 502,575 L545,575 C561.568542,575 575,561.568542 575,545 L575,502 C575,500.895431 575.895431,500 577,500 L578,500 C579.104569,500 580,500.895431 580,502 L580,545 Z M35,580 C15.6700338,580 4.51037003e-15,564.329966 2.1431319e-15,545 L4.77612252e-15,502 C4.64085177e-15,500.895431 0.8954305,500 2,500 L3,500 C4.1045695,500 5,500.895431 5,502 L5,545 C5,561.568542 18.4314575,575 35,575 L78,575 C79.1045695,575 80,575.895431 80,577 L80,578 C80,579.104569 79.1045695,580 78,580 L35,580 Z M0,35 C-2.36723813e-15,15.6700338 15.6700338,3.55085719e-15 35,0 L78,0 C79.1045695,-2.02906125e-16 80,0.8954305 80,2 L80,3 C80,4.1045695 79.1045695,5 78,5 L35,5 C18.4314575,5 5,18.4314575 5,35 L5,78 C5,79.1045695 4.1045695,80 3,80 L2,80 C0.8954305,80 1.3527075e-16,79.1045695 0,78 L0,35 Z" id="Rectangle-2" fill="#FFFFFF"></path>
    </g>
</svg>