<svg xmlns="http://www.w3.org/2000/svg" xmlns:xlink="http://www.w3.org/1999/xlink" viewBox="0 0 1002.95 951.71"><defs><style>.cls-1{fill:#e8e9ea;}.cls-2{fill:#e6eaea;}.cls-3{fill:#dfe2e2;}.cls-4{fill:#d7dbdb;}.cls-5{fill:#e2e6e6;}.cls-6{fill:#edf1f2;}.cls-7{fill:#cacdcd;}.cls-8{fill:#e6eaeb;}.cls-9{fill:#d1d7d7;}.cls-10{opacity:0.4;fill:url(#Безымянный_градиент_9);}.cls-11{fill:#c5c8c8;}.cls-12{fill:#a5a7a7;}.cls-13{fill:#b8babb;}.cls-14{fill:#b6baba;}.cls-15{clip-path:url(#clip-path);}</style><linearGradient id="Безымянный_градиент_9" x1="568.22" y1="37.26" x2="568.22" y2="684.44" gradientUnits="userSpaceOnUse"><stop offset="0" stop-color="#e6eaeb"/><stop offset="0.09" stop-color="#e6eaeb" stop-opacity="0.87"/><stop offset="0.27" stop-color="#e6eaeb" stop-opacity="0.61"/><stop offset="0.45" stop-color="#e6eaeb" stop-opacity="0.39"/><stop offset="0.62" stop-color="#e6eaeb" stop-opacity="0.22"/><stop offset="0.77" stop-color="#e6eaeb" stop-opacity="0.1"/><stop offset="0.9" stop-color="#e6eaeb" stop-opacity="0.03"/><stop offset="1" stop-color="#e6eaeb" stop-opacity="0"/></linearGradient><clipPath id="clip-path"><path class="cls-1" d="M613.24,549.38c-5.78,1.35-19.29-1.9-17.36-14.58l0-.91c-3.71,0-9.08-.57-17-1.91-23.64-4-94.1-8.7-120.81-11.74-10.59-1.21-19.35-1.58-25.82-3C452.46,604,538.52,629.75,601.07,635.61c35.4,3.33,63.26.29,67.38-1.61,7.61-3.53,4.48-11,4.6-15s3.42-7.72,3.74-11.74c.41-5.06-1.68-5.09-1.12-10.91.3-3.08,4.81-4.32,5.19-12.54.28-6-3.46-6-3.53-11.24-.09-6.13,3.25-5.73,3.1-12.67-.19-8.6-5.89-12.69-14.49-11.94-13.67,1.2-9.87-2.39-17.63-7.45C637.24,533.31,630.85,545.27,613.24,549.38Z"/></clipPath></defs><g id="Слой_2" data-name="Слой 2"><g id="Слой_4" data-name="Слой 4"><rect class="cls-2" x="62.81" y="411.33" width="233.35" height="142.39" rx="12"/><rect class="cls-3" x="329.1" y="376.4" width="172.91" height="177.33" rx="12"/><path class="cls-4" d="M255.67,803.73H73.75a12.87,12.87,0,0,1-12.86-12.25L52.21,614.37h225l-8.68,177.11A12.88,12.88,0,0,1,255.67,803.73Z"/><rect class="cls-5" x="311.36" y="649.11" width="201.05" height="154.62" rx="10.37"/><rect class="cls-4" x="538" y="209.54" width="23.97" height="679.91"/><rect class="cls-4" x="269.78" y="545.93" width="23.97" height="539.56" transform="translate(-533.95 1097.48) rotate(-90)"/><rect class="cls-4" x="269.78" y="295.93" width="23.97" height="539.56" transform="translate(-283.95 847.48) rotate(-90)"/><rect class="cls-4" x="269.78" y="75.93" width="23.97" height="539.56" transform="translate(-63.95 627.48) rotate(-90)"/><rect class="cls-4" y="209.54" width="23.97" height="679.91"/><rect class="cls-6" x="133.38" y="677.72" width="62.66" height="62.66" rx="7.19"/><path class="cls-7" d="M155.21,685.17a3.09,3.09,0,0,1,3.08,3.08v11.3a3.09,3.09,0,0,1-3.08,3.08h-11.3a3.09,3.09,0,0,1-3.09-3.08v-11.3a3.09,3.09,0,0,1,3.09-3.08h11.3m0-3.08h-11.3a6.16,6.16,0,0,0-6.17,6.16v11.3a6.16,6.16,0,0,0,6.17,6.16h11.3a6.16,6.16,0,0,0,6.16-6.16v-11.3a6.16,6.16,0,0,0-6.16-6.16Z"/><path class="cls-7" d="M185.51,685.17a3.08,3.08,0,0,1,3.08,3.08v11.3a3.08,3.08,0,0,1-3.08,3.08h-11.3a3.08,3.08,0,0,1-3.08-3.08v-11.3a3.08,3.08,0,0,1,3.08-3.08h11.3m0-3.08h-11.3a6.16,6.16,0,0,0-6.16,6.16v11.3a6.16,6.16,0,0,0,6.16,6.16h11.3a6.16,6.16,0,0,0,6.16-6.16v-11.3a6.16,6.16,0,0,0-6.16-6.16Z"/><path class="cls-7" d="M155.21,715.47a3.09,3.09,0,0,1,3.08,3.08v11.3a3.09,3.09,0,0,1-3.08,3.08h-11.3a3.09,3.09,0,0,1-3.09-3.08v-11.3a3.09,3.09,0,0,1,3.09-3.08h11.3m0-3.08h-11.3a6.16,6.16,0,0,0-6.17,6.16v11.3a6.16,6.16,0,0,0,6.17,6.16h11.3a6.16,6.16,0,0,0,6.16-6.16v-11.3a6.16,6.16,0,0,0-6.16-6.16Z"/><rect class="cls-7" x="144.42" y="688.76" width="10.27" height="10.27" rx="2.05"/><rect class="cls-7" x="144.42" y="719.07" width="10.27" height="10.27" rx="2.05"/><rect class="cls-7" x="168.05" y="712.39" width="6.16" height="6.16" rx="2.05"/><rect class="cls-7" x="185.51" y="712.39" width="6.16" height="6.16" rx="2.05"/><rect class="cls-7" x="176.78" y="721.12" width="6.16" height="6.16" rx="2.05"/><rect class="cls-7" x="185.51" y="729.85" width="6.16" height="6.16" rx="2.05"/><rect class="cls-7" x="168.05" y="729.85" width="6.16" height="6.16" rx="2.05"/><rect class="cls-7" x="174.72" y="688.76" width="10.27" height="10.27" rx="2.05"/><rect class="cls-6" x="380.56" y="695.09" width="62.66" height="62.66" rx="7.19"/><rect class="cls-6" x="380.56" y="695.09" width="62.66" height="62.66" rx="7.19"/><path class="cls-7" d="M402.38,702.53a3.1,3.1,0,0,1,3.09,3.09v11.29a3.1,3.1,0,0,1-3.09,3.09h-11.3a3.09,3.09,0,0,1-3.08-3.09V705.62a3.09,3.09,0,0,1,3.08-3.09h11.3m0-3.08h-11.3a6.16,6.16,0,0,0-6.16,6.17v11.29a6.16,6.16,0,0,0,6.16,6.17h11.3a6.17,6.17,0,0,0,6.17-6.17V705.62a6.17,6.17,0,0,0-6.17-6.17Z"/><path class="cls-7" d="M432.69,702.53a3.09,3.09,0,0,1,3.08,3.09v11.29a3.09,3.09,0,0,1-3.08,3.09h-11.3a3.09,3.09,0,0,1-3.08-3.09V705.62a3.09,3.09,0,0,1,3.08-3.09h11.3m0-3.08h-11.3a6.17,6.17,0,0,0-6.17,6.17v11.29a6.17,6.17,0,0,0,6.17,6.17h11.3a6.16,6.16,0,0,0,6.16-6.17V705.62a6.16,6.16,0,0,0-6.16-6.17Z"/><path class="cls-7" d="M402.38,732.84a3.09,3.09,0,0,1,3.09,3.08v11.3a3.09,3.09,0,0,1-3.09,3.08h-11.3a3.08,3.08,0,0,1-3.08-3.08v-11.3a3.08,3.08,0,0,1,3.08-3.08h11.3m0-3.09h-11.3a6.16,6.16,0,0,0-6.16,6.17v11.3a6.16,6.16,0,0,0,6.16,6.16h11.3a6.16,6.16,0,0,0,6.17-6.16v-11.3a6.17,6.17,0,0,0-6.17-6.17Z"/><rect class="cls-7" x="391.6" y="706.13" width="10.27" height="10.27" rx="2.05"/><rect class="cls-7" x="391.6" y="736.43" width="10.27" height="10.27" rx="2.05"/><rect class="cls-7" x="415.22" y="729.75" width="6.16" height="6.16" rx="2.05"/><rect class="cls-7" x="432.69" y="729.75" width="6.16" height="6.16" rx="2.05"/><rect class="cls-7" x="423.96" y="738.49" width="6.16" height="6.16" rx="2.05"/><rect class="cls-7" x="432.69" y="747.22" width="6.16" height="6.16" rx="2.05"/><rect class="cls-7" x="415.22" y="747.22" width="6.16" height="6.16" rx="2.05"/><rect class="cls-7" x="421.9" y="706.13" width="10.27" height="10.27" rx="2.05"/><rect class="cls-2" x="284.42" y="200.28" width="215.78" height="133.45" rx="10"/><rect class="cls-5" x="46.41" y="141.39" width="140.25" height="192.34" rx="10"/><rect class="cls-4" x="43.47" y="602.42" width="242.48" height="27.59" rx="9.2"/><rect class="cls-8" x="398.5" width="11.45" height="18.51" rx="5.72"/><rect class="cls-8" x="726.5" width="11.45" height="18.51" rx="5.72"/><rect class="cls-9" x="119.74" y="244" width="200.37" height="89.73" rx="6"/><rect class="cls-4" x="243.66" y="465.06" width="120.65" height="88.4" rx="6"/><rect class="cls-6" x="148.15" y="451.2" width="62.66" height="62.66" rx="7.19"/><path class="cls-7" d="M170,458.65a3.08,3.08,0,0,1,3.08,3.08V473a3.08,3.08,0,0,1-3.08,3.08h-11.3A3.08,3.08,0,0,1,155.6,473v-11.3a3.08,3.08,0,0,1,3.08-3.08H170m0-3.08h-11.3a6.16,6.16,0,0,0-6.16,6.16V473a6.16,6.16,0,0,0,6.16,6.16H170a6.16,6.16,0,0,0,6.16-6.16v-11.3a6.16,6.16,0,0,0-6.16-6.16Z"/><path class="cls-7" d="M200.28,458.65a3.08,3.08,0,0,1,3.08,3.08V473a3.08,3.08,0,0,1-3.08,3.08H189A3.08,3.08,0,0,1,185.9,473v-11.3a3.08,3.08,0,0,1,3.08-3.08h11.3m0-3.08H189a6.16,6.16,0,0,0-6.16,6.16V473a6.16,6.16,0,0,0,6.16,6.16h11.3a6.16,6.16,0,0,0,6.17-6.16v-11.3a6.16,6.16,0,0,0-6.17-6.16Z"/><path class="cls-7" d="M170,489a3.08,3.08,0,0,1,3.08,3.08v11.3a3.08,3.08,0,0,1-3.08,3.08h-11.3a3.08,3.08,0,0,1-3.08-3.08V492a3.08,3.08,0,0,1,3.08-3.08H170m0-3.08h-11.3a6.16,6.16,0,0,0-6.16,6.16v11.3a6.16,6.16,0,0,0,6.16,6.16H170a6.16,6.16,0,0,0,6.16-6.16V492a6.16,6.16,0,0,0-6.16-6.16Z"/><rect class="cls-7" x="159.19" y="462.24" width="10.27" height="10.27" rx="2.05"/><rect class="cls-7" x="159.19" y="492.55" width="10.27" height="10.27" rx="2.05"/><rect class="cls-7" x="182.82" y="485.87" width="6.16" height="6.16" rx="2.05"/><rect class="cls-7" x="200.28" y="485.87" width="6.16" height="6.16" rx="2.05"/><rect class="cls-7" x="191.55" y="494.6" width="6.16" height="6.16" rx="2.05"/><rect class="cls-7" x="200.28" y="503.33" width="6.16" height="6.16" rx="2.05"/><rect class="cls-7" x="182.82" y="503.33" width="6.16" height="6.16" rx="2.05"/><rect class="cls-7" x="189.5" y="462.24" width="10.27" height="10.27" rx="2.05"/><rect class="cls-6" x="360.98" y="236.69" width="62.66" height="62.66" rx="7.19"/><path class="cls-7" d="M382.81,244.13a3.09,3.09,0,0,1,3.08,3.09v11.3a3.08,3.08,0,0,1-3.08,3.08h-11.3a3.09,3.09,0,0,1-3.09-3.08v-11.3a3.1,3.1,0,0,1,3.09-3.09h11.3m0-3.08h-11.3a6.17,6.17,0,0,0-6.17,6.17v11.3a6.16,6.16,0,0,0,6.17,6.16h11.3a6.16,6.16,0,0,0,6.16-6.16v-11.3a6.16,6.16,0,0,0-6.16-6.17Z"/><path class="cls-7" d="M413.11,244.13a3.09,3.09,0,0,1,3.08,3.09v11.3a3.08,3.08,0,0,1-3.08,3.08h-11.3a3.08,3.08,0,0,1-3.08-3.08v-11.3a3.09,3.09,0,0,1,3.08-3.09h11.3m0-3.08h-11.3a6.16,6.16,0,0,0-6.16,6.17v11.3a6.16,6.16,0,0,0,6.16,6.16h11.3a6.16,6.16,0,0,0,6.16-6.16v-11.3a6.16,6.16,0,0,0-6.16-6.17Z"/><path class="cls-7" d="M382.81,274.44a3.08,3.08,0,0,1,3.08,3.08v11.3a3.08,3.08,0,0,1-3.08,3.08h-11.3a3.09,3.09,0,0,1-3.09-3.08v-11.3a3.09,3.09,0,0,1,3.09-3.08h11.3m0-3.08h-11.3a6.16,6.16,0,0,0-6.17,6.16v11.3a6.16,6.16,0,0,0,6.17,6.16h11.3a6.16,6.16,0,0,0,6.16-6.16v-11.3a6.16,6.16,0,0,0-6.16-6.16Z"/><rect class="cls-7" x="372.02" y="247.73" width="10.27" height="10.27" rx="2.05"/><rect class="cls-7" x="372.02" y="278.03" width="10.27" height="10.27" rx="2.05"/><rect class="cls-7" x="395.65" y="271.36" width="6.16" height="6.16" rx="2.05"/><rect class="cls-7" x="413.11" y="271.36" width="6.16" height="6.16" rx="2.05"/><rect class="cls-7" x="404.38" y="280.09" width="6.16" height="6.16" rx="2.05"/><rect class="cls-7" x="413.11" y="288.82" width="6.16" height="6.16" rx="2.05"/><rect class="cls-7" x="395.65" y="288.82" width="6.16" height="6.16" rx="2.05"/><rect class="cls-7" x="402.32" y="247.73" width="10.27" height="10.27" rx="2.05"/><rect class="cls-5" x="309.37" y="10.62" width="524" height="30" rx="15"/><polygon class="cls-10" points="336.16 25.62 195.21 682.09 941.24 677.72 804.4 25.62 336.16 25.62"/><path class="cls-11" d="M788.35,239v4.87A27.31,27.31,0,0,1,773.71,268l-.71.36-.73.34c-.25.12-.49.22-.75.32s-.53.22-.8.32l-.71.26c-.57.2-1.16.39-1.76.54l-.59.16-.8.19-.76.15c-.38.08-.76.14-1.14.2l-.86.1-.46.05h-.07c-.38,0-.76.06-1.14.08s-.94,0-1.41,0H663.43c-.85,0-1.7,0-2.54-.12l-.52-.06c-.28,0-.57,0-.85-.1l-.51-.08c-.39-.06-.78-.13-1.17-.22a8.27,8.27,0,0,1-.83-.19,6.7,6.7,0,0,1-.74-.19c-.29-.07-.57-.15-.86-.24l-.22-.07-1.08-.36-.33-.13c-.3-.1-.6-.23-.9-.36s-.78-.33-1.16-.5a27.84,27.84,0,0,1-7.61-5.38,27.32,27.32,0,0,1,19.32-46.63h54.65a13.66,13.66,0,0,0,13.67-13.66v-11.7a28.3,28.3,0,0,1,56.6,0V239Z"/><path class="cls-1" d="M773.71,268v38l-1-.39c-.35-.12-.7-.24-1.06-.34s-.71-.21-1.07-.29a9.76,9.76,0,0,0-1.1-.24,11.94,11.94,0,0,0-1.22-.21,20.65,20.65,0,0,0-2.11-.21c-.39,0-.8,0-1.2,0a23.42,23.42,0,0,0-23.42,23.41v13.66a29.28,29.28,0,0,1-58.56,0V327.72a23.42,23.42,0,0,0-23.42-23.41l-1.14,0-1,.07c-.21,0-.43,0-.64.06l-.56.07-.61.1-.23.05a7.37,7.37,0,0,0-.77.14l-.29.07a4.86,4.86,0,0,0-.73.18,19.23,19.23,0,0,0-1.87.56V268.52c.38.17.76.35,1.16.5s.6.26.9.36l.33.13,1.08.36.22.07c.29.09.57.17.86.24a6.7,6.7,0,0,0,.74.19,8.27,8.27,0,0,0,.83.19c.39.09.78.16,1.17.22l.51.08c.28.05.57.07.85.1s.34,0,.52.06c.84.08,1.69.12,2.54.12H761c.47,0,1,0,1.41,0s.76,0,1.14-.08h.07l.46-.05.86-.1c.38-.06.76-.12,1.14-.2s.51-.09.76-.15l.8-.19c.19,0,.4-.1.59-.16.6-.15,1.19-.34,1.76-.54a5.44,5.44,0,0,0,.71-.26c.27-.1.54-.2.8-.32s.5-.2.75-.32.48-.21.73-.34Z"/><path class="cls-12" d="M777.77,342.74s-63.22,222.8,25.71,210.86c167.51-22.48,185.34-49.23,189.6-89.7C984.74,345.28,849.53,333,777.77,342.74Z"/><path class="cls-13" d="M614.56,710.12c-.44,3.06-.62,8.81-2.27,11.43-3.91,6.23.24,14.27.05,21.63-.16,6.38-3.67,12.23-4.48,18.57-1.19,9.31,3.53,18.51,3,27.88-.4,6.81-3.56,13.61-1.91,20.22.69,2.77,2.19,5.27,3,8,1.06,3.65.84,7.53.61,11.32l-.84,13.76c-.34,5.52-.62,11.32,1.84,16.27,3.07,6.17,9.83,9.69,16.55,11.22s13.7,1.45,20.49,2.6c6,1,11.87,3,17.95,3,7.05,0,13.81-2.63,20.36-5.23l24.26-9.62a4.55,4.55,0,0,0,3.65-4.7l2.34-18.06c1.6-12.32,3.19-24.84,1.23-37.11-.9-5.63-2.55-11.27-1.84-16.93.75-6,4.14-11.5,4.82-17.55.83-7.41-2.5-14.6-3.65-22-2.61-16.62,5.84-33.84,1.68-50.14-1.63-6.36-5.13-12.3-5.41-18.86-.39-9.24,5.73-18.14,4.12-27.25-1.66-9.48-11.34-15.71-20.84-17.22s-19.17.5-28.77,1.14c-5.82.4-11.72.3-17.39,1.66-15.16,3.62-23.86,6.19-34.23,17.81-2,2.18-5.24,31.61-5.16,34.87a107.75,107.75,0,0,0,.84,10.77A70,70,0,0,1,614.56,710.12Z"/><path class="cls-12" d="M645.74,346.47S713,568.09,623.85,557.76C456,538.31,437.65,511.89,432.66,471.5,438.85,352.75,573.82,338,645.74,346.47Z"/><path class="cls-4" d="M605.67,917.34v5.06a7.18,7.18,0,0,0,7.19,7.17h96.88a7.17,7.17,0,0,0,7.18-7.17v-7.11a7.15,7.15,0,0,0-2.92-5.78,7.07,7.07,0,0,0-4.26-1.4H612.86a7.19,7.19,0,0,0-7.19,7.18Z"/><path class="cls-4" d="M607.65,870.26v16.9a7.3,7.3,0,0,0,5.1,7h0a30.81,30.81,0,0,1,27.67-17.24h43.74A30.82,30.82,0,0,1,712,894.44h0a7.3,7.3,0,0,0,6.9-7.28V860.77a7.26,7.26,0,0,0-3.55-6.25,7.17,7.17,0,0,0-3.74-1H614.94a7.19,7.19,0,0,0-3.07.68,7.28,7.28,0,0,0-4.22,6.61Z"/><path class="cls-12" d="M608.6,907.72v1.79a7.07,7.07,0,0,1,4.26-1.4h96.88a7.07,7.07,0,0,1,4.26,1.4v-1.79a30.84,30.84,0,0,0-30.83-30.83H639.43a30.81,30.81,0,0,0-27.67,17.24A30.49,30.49,0,0,0,608.6,907.72Z"/><path class="cls-12" d="M607.66,571.94c15.6,46.12,4.54,93.38,4.29,117-.18,16.11,15.86-5.52,36.48-17.33,24.1-13.8,57.22-19.55,73-19.55s53.58,3.4,77.79,29.41,23.62,33.42,20.44-10.29-6.24-111.43-6.24-111.43L610.87,544.86Z"/><path class="cls-11" d="M773.71,306l-1-.39-1.06-.34-1.07-.29a9.76,9.76,0,0,0-1.1-.24,11.94,11.94,0,0,0-1.22-.21,20.93,20.93,0,0,0-2.11-.21c-.39,0-.8,0-1.2,0a23.42,23.42,0,0,0-23.42,23.41v13.66a29.28,29.28,0,0,1-58.56,0V327.72a23.42,23.42,0,0,0-23.42-23.41l-1.14,0-1,.07c-.21,0-.43,0-.64.06l-.56.07-.61.1-.23.05-.77.14-.29.07c-.24.05-.49.11-.73.18-.64.16-1.26.36-1.87.57a23.41,23.41,0,0,0-15,17,22.52,22.52,0,0,0-.57,5.1V449.65c0,.19,0,.38,0,.57V574.53c0,1.3,0,2.59.1,3.87a2.83,2.83,0,0,0,0,.29c.06,1.08.13,2.16.23,3.23a76.12,76.12,0,0,0,1.19,7.91v0a75.79,75.79,0,0,0,10.88,26.38,76.87,76.87,0,0,0,18.11,19.23l.08.06q2.87,2.15,5.93,4l.17.1c1,.62,2,1.21,3.09,1.78l.09.05c1,.56,2.07,1.09,3.13,1.6l.13.07c1,.5,2.1,1,3.17,1.43l.39.16q3.17,1.34,6.48,2.38l.55.17c1.09.33,2.18.65,3.29.93l.22.06q1.57.39,3.15.72l.6.13c1.09.22,2.2.42,3.31.59l.6.09c1,.15,2,.28,3.08.39l.47,0c1.12.11,2.25.2,3.39.26l.76,0c1.16.05,2.33.08,3.5.08h0c1.18,0,2.36,0,3.53-.09l.66,0c1.15-.06,2.3-.14,3.43-.26l.45,0c1.17-.12,2.33-.26,3.47-.44h.07c1.19-.18,2.38-.39,3.56-.63l.33-.07c1.08-.22,2.15-.46,3.22-.73a73.53,73.53,0,0,0,7.39-2.28l.14-.06q3.39-1.25,6.61-2.79l.23-.11c.89-.43,1.78-.87,2.65-1.33v0a76.09,76.09,0,0,0,40.39-67.22V327.72A23.41,23.41,0,0,0,773.71,306Z"/><path class="cls-4" d="M831.3,794.76v5.36a7.62,7.62,0,0,1-7.62,7.61H720.9a7.61,7.61,0,0,1-7.62-7.61v-7.54A7.63,7.63,0,0,1,720.9,785H823.68a7.64,7.64,0,0,1,7.62,7.62Z"/><path class="cls-13" d="M723.9,622.45c35.52-29.65,97.35-18.73,105.93,13.93,1.86,7.08-.9,15.52.65,19.54,4.53,11.77-2.16,20.07,0,32.38.89,5.05,3,10,2.6,15.11-.6,6.81-5.74,12.48-7.56,19.09-1.29,4.63-.89,9.52-.7,14.32.36,9.43-.73,20-8.49,26-5.13,4-12.1,5-18.56,6.64-9.11,2.3-17.9,6-27.34,6.7a68.7,68.7,0,0,1-17.61-1.51c-12-2.28-24.47-6.38-31.71-15.57-5.4-6.87-7.08-15.73-6.64-24.18s2.82-16.67,4.85-24.9a10.57,10.57,0,0,0,.44-4.59,15.18,15.18,0,0,0-2.12-4.41c-6.52-11.36-2.3-24-2.9-36-.25-4.92-1.87-9.68-1.58-14.64C713.53,644.06,715,632,723.9,622.45Z"/><rect class="cls-4" x="709.9" y="727" width="118.37" height="44.29" rx="8.28"/><path class="cls-12" d="M828.19,784.54v1.91a7.51,7.51,0,0,0-4.51-1.49H720.9a7.54,7.54,0,0,0-4.52,1.49v-1.91a32.71,32.71,0,0,1,32.71-32.7h46.4a32.71,32.71,0,0,1,32.7,32.7Z"/><rect class="cls-7" x="670.55" y="807.71" width="195.93" height="144" rx="9.96"/><path class="cls-14" d="M670.55,678c-10-51.43-8.83-53.93-10.72-56.33-2.55-3.23-16.47-.27-16.47-.27l-19.26,54.8,15.56-5.73,7.66,7.53,11.06-8.23Z"/><path class="cls-1" d="M813.79,545c5.81,1.25,19.25-2.24,17.1-14.89v-.91c3.72,0,9.08-.73,16.94-2.22,23.56-4.47,93.93-10.39,120.57-13.92,10.57-1.4,19.33-1.93,25.77-3.52C975.53,596.78,890,624,827.52,631c-35.34,4-63.25,1.43-67.4-.4-7.68-3.39-4.68-10.94-4.87-14.9s-3.56-7.66-4-11.67c-.5-5,1.59-5.12.92-10.93-.35-3.07-4.88-4.23-5.41-12.44-.39-6,3.35-6,3.33-11.31,0-6.13-3.35-5.67-3.33-12.61,0-8.6,5.66-12.79,14.27-12.19,13.69.95,9.83-2.57,17.5-7.77C789.5,529.4,796.11,541.24,813.79,545Z"/><path class="cls-11" d="M1000.47,446.89c3.95,16.43-3.82,20.85,1.56,46.18,3,14-1.5,19-11.27,21.66h0a122.32,122.32,0,0,1-18.68,4.06c-26.57,4.09-101.83,8.73-120,10.8-38.32,4.37-23.67-6-25.16-9.41-2.5-5.78-9.23-9,24.51-23.6,87.94-38.06,117-62,134.19-61.38C992.27,435.43,998.4,438.26,1000.47,446.89Z"/><path class="cls-1" d="M613.24,549.38c-5.78,1.35-19.29-1.9-17.36-14.58l0-.91c-3.71,0-9.08-.57-17-1.91-23.64-4-94.1-8.7-120.81-11.74-10.59-1.21-19.35-1.58-25.82-3C452.46,604,538.52,629.75,601.07,635.61c35.4,3.33,63.26.29,67.38-1.61,7.61-3.53,4.48-11,4.6-15s3.42-7.72,3.74-11.74c.41-5.06-1.68-5.09-1.12-10.91.3-3.08,4.81-4.32,5.19-12.54.28-6-3.46-6-3.53-11.24-.09-6.13,3.25-5.73,3.1-12.67-.19-8.6-5.89-12.69-14.49-11.94-13.67,1.2-9.87-2.39-17.63-7.45C637.24,533.31,630.85,545.27,613.24,549.38Z"/><g class="cls-15"><path class="cls-9" d="M502.47,522.3c-7.86,7.5-7.58,20.69-7.1,24.6l-15.17-6.58c-.24-2.71.49-14.21,6-18h0l-2.12-.33c-5.4,3.76-6.09,14-5.9,17.3l-11.34-6.18c-.83-2.1-.5-8.79,2.67-12.82l-1.95-.29c-2.39,3.29-3.25,8.52-3.2,11.87l-11-6c-1.07-3.5-.57-6.13,2.36-8l-2-.27c-3,1-3.3,4.34-3,6.93,0,0-23.9-12.12-25.35-12.68.29.91,18.14,21.22,18.14,21.22a23.33,23.33,0,0,0-8.48,2.68c.28.59.55,1.19.83,1.78a22.14,22.14,0,0,1,9.58-2.64l8.53,8.11c-4.4.37-11.1,2.33-13.28,4.47.34.59.68,1.19,1,1.77,3.6-3,11.12-4.24,14.17-4.42l9.2,8.75c-5.52.91-13.17,4.69-16,7.94l1.19,1.59s.05,0,.07-.06c3-3.52,10.64-7.31,16.57-7.72l12.8,12a34,34,0,0,0-20.1,11.09c.46.46.92.92,1.39,1.37,4.77-5.3,13.27-9.24,21.36-10.62,0,0,.06,0,.1-.06a.38.38,0,0,0,.1,0s.05,0,.08-.06a.39.39,0,0,0,.1-.08.65.65,0,0,0,.15-.18l.06-.09a.81.81,0,0,0,.1-.31v0a.76.76,0,0,0,0-.3c-1.06-5.28,5.81-15.86,14-18.62l0,0a.93.93,0,0,0,.41-.55h0l0-.1h0a1,1,0,0,0,0-.39c-.1-.54-2.48-17.33,7.07-25.77Zm-57,10-13-14.88,18.34,9.41C448,527.4,445.93,531.15,445.46,532.25Zm10.16,9.67L447,533.7c.54-1.49,2.56-5.85,5.85-5.84h.07l10.44,5.72C458.65,534.81,456.09,540.5,455.62,541.92ZM467,552.74l-9.76-9.29c.08-.87,3.07-8.07,8.58-8.64l12,6.48C473.86,542.33,469.75,547.19,467,552.74Zm14,13.15-12.53-11.74c3.5-7.44,8.56-11.23,11.24-11.76.05,0,.07,0,.11-.06l14.75,6.38C486.84,551.7,481.4,560.69,481,565.89Z"/><path class="cls-9" d="M578.53,607.53a1,1,0,0,0-.92-.75A56.8,56.8,0,0,1,567,605.61c6.61-2.37,11.7-9.16,11.94-9.49a1,1,0,0,0-1.3-1.41,18.61,18.61,0,0,1-7.93,3.13c2.57-3.37,3.76-6.62,3.43-9.48-.92-8-7-12.1-12.46-13.29-5.73-1.25-11.36.42-14.68,4.21-2.28-6.86-7.39-12.19-13.43-13.85l-.16,0a13.69,13.69,0,0,0-13.71,4,14.76,14.76,0,0,0-3.9,8.87v0c-10.64,3.38-17.66,13.38-17.76,13.53a1,1,0,0,0,.16,1.28,1,1,0,0,0,1.29,0,21.75,21.75,0,0,1,12.66-5.31c-5.6,4.63-5.48,14.07-5.47,14.54a1,1,0,0,0,.73.92h0a1,1,0,0,0,1.09-.53,13.12,13.12,0,0,1,11-7.71,58.22,58.22,0,0,0,17,19.82,3.06,3.06,0,0,0,1.06.52,3.82,3.82,0,0,0,1,.12c3.93,0,9.19-1.49,14.84-4.31.74.33,1.47.62,2.17.88,9.65,3.52,22.84-3.14,23.4-3.42A1,1,0,0,0,578.53,607.53ZM520.1,570.76a11.84,11.84,0,0,1,12-3.44c5.92,1.62,10.87,7.26,12.6,14.36a1,1,0,0,0,1.78.28c3-4.88,9.08-6,13.83-5s10.13,4.64,10.94,11.61c.3,2.67-1.11,5.88-4.06,9.3-2.91-.19-6.17-1.2-10.57-2.89-5.28-2-10-5.48-14.64-8.82-4.15-3-8.06-5.85-12-7.41a22,22,0,0,0-13.06-1A12.51,12.51,0,0,1,520.1,570.76Zm17.54,42.76a1.31,1.31,0,0,1-.93-.24,56.68,56.68,0,0,1-16-18.33,17.87,17.87,0,0,1,5.88,1.18c2.21.89,5.77,3.17,9.88,5.8a154.25,154.25,0,0,0,13.73,8.16C545.4,612.31,540.9,613.55,537.64,613.52Zm17.66-3.31c-5.35-2-12-6.18-17.78-9.92-4.2-2.69-7.83-5-10.21-6-4.52-1.81-13.63-2.87-19.34,4.1.61-3.74,2.36-9.1,7.28-10.71a1,1,0,0,0-.06-1.87l-.12,0a24.36,24.36,0,0,0-11.87,1.95c5.32-5.1,14.83-11.56,26-7.18,3.75,1.47,7.56,4.24,11.6,7.17,4.71,3.41,9.57,6.94,15.09,9.06,4.8,1.84,8.38,2.92,11.64,3.06h.09a15.41,15.41,0,0,0,6.2-1c-2.48,2.33-6,4.94-9.75,5.5a1,1,0,0,0-.69.46,1.18,1.18,0,0,0,0,1.18c.76,1.39,5.88,2.14,10,2.49C568.88,610.19,561.19,612.35,555.3,610.21Z"/><path class="cls-9" d="M563.34,559.23,569.4,557a1,1,0,1,0-.68-1.83l-5.65,2.08.91-7.34a1,1,0,1,0-1.93-.24l-.94,7.55-5.79-2.91a1,1,0,1,0-.88,1.74l5.62,2.83-4.38,3.26a1,1,0,0,0-.2,1.36,1,1,0,0,0,.46.34,1,1,0,0,0,.91-.14l4.77-3.55,3.33,5.62a.91.91,0,0,0,.51.42,1,1,0,0,0,.82-.07,1,1,0,0,0,.35-1.34Z"/><path class="cls-9" d="M482.93,589.2,489,587a1,1,0,1,0-.68-1.83l-5.65,2.08.91-7.34a1,1,0,1,0-1.93-.24l-.94,7.55-5.79-2.92A1,1,0,0,0,474,586l5.62,2.82-4.38,3.26a1,1,0,0,0-.2,1.37,1,1,0,0,0,.46.34,1,1,0,0,0,.91-.14l4.77-3.56,3.33,5.63a1,1,0,0,0,.51.42.92.92,0,0,0,.82-.08,1,1,0,0,0,.35-1.33Z"/><path class="cls-9" d="M593.87,623.25,588,620.93l4.08-3.63a1,1,0,0,0-1.3-1.46l-4.44,4-3.81-5.32a1,1,0,1,0-1.58,1.14l3.75,5.24-5.83,2.75a1,1,0,0,0-.47,1.3,1,1,0,0,0,.55.5,1,1,0,0,0,.75,0l5.44-2.56-.26,7.39a1,1,0,0,0,.64,1,1,1,0,0,0,.3.05,1,1,0,0,0,1-.94l.27-7.6,6,2.4h0a1,1,0,0,0,.69-1.83Z"/><path class="cls-9" d="M582.84,570.91l-.16-.21a1,1,0,0,1,.05-1.06l7.06-10.26-4.46-11.63a1,1,0,0,1,.2-1,1,1,0,0,1,1-.28L598.49,550l9.68-7.83a1,1,0,0,1,1.05-.13,1,1,0,0,1,.58.88l.33,12.45,10.44,6.79a1,1,0,0,1,.45,1,1,1,0,0,1-.66.83l-11.74,4.16-3.23,12a1,1,0,0,1-.77.73,1,1,0,0,1-1-.38l-7.58-9.88-12.44.65A1,1,0,0,1,582.84,570.91Zm5.08-22,3.92,10.22a1,1,0,0,1-.11.93l-6.2,9,10.94-.57a1,1,0,0,1,.84.39l6.67,8.69L606.82,567a1,1,0,0,1,.63-.68l10.33-3.66-9.18-6a1,1,0,0,1-.46-.81L607.85,545l-8.51,6.89a1,1,0,0,1-.91.18Z"/><path class="cls-9" d="M541.63,539.16v0a1.81,1.81,0,0,0,0-.23.9.9,0,0,0,0-.16l-.1-.18a1.7,1.7,0,0,0-.1-.14.81.81,0,0,0-.14-.12,1.77,1.77,0,0,0-.17-.12l0,0a.66.66,0,0,0-.15,0,.83.83,0,0,0-.15,0h-.05l-.17,0-.21,0a.57.57,0,0,0-.13.08.62.62,0,0,0-.19.12l-.11.13a1.13,1.13,0,0,0-.12.18l0,0c-.51,1.22-1.63,1.79-2.92,2.44a7.56,7.56,0,0,0-3.78,3.21,1,1,0,0,0,.45,1.34.84.84,0,0,0,.2.08,1,1,0,0,0,1.14-.53,5.7,5.7,0,0,1,2.89-2.31c.45-.23.91-.47,1.36-.74a17.26,17.26,0,0,1-11.29,11.77l-5.91-22.58,5.07-1.33a1,1,0,0,0-.51-1.93l-5.06,1.32-1.3-4.95a5.45,5.45,0,0,0,3-6.31h0a5.46,5.46,0,0,0-6.66-3.89,5.45,5.45,0,0,0,.08,10.57,5.28,5.28,0,0,0,1.69.14l1.29,4.95-5.06,1.32a1,1,0,0,0,0,1.94,1,1,0,0,0,.49,0l5.07-1.33,5.91,22.59a17.3,17.3,0,0,1-15.61-4.74c.52,0,1,0,1.54,0a5.73,5.73,0,0,1,3.66.6,1,1,0,1,0,1.13-1.65,7.47,7.47,0,0,0-4.87-.95c-1.45.06-2.7.11-3.75-.7l0,0-.17-.08-.19-.08h-.37l-.16.05a1.21,1.21,0,0,0-.2.09h0c-.05,0-.07.08-.11.12a.58.58,0,0,0-.12.1s0,0,0,0a1.51,1.51,0,0,0-.09.18.61.61,0,0,0-.07.17,3.62,3.62,0,0,0,0,.38.84.84,0,0,0,.05.17c0,.07.05.13.08.19s0,0,0,0a19.26,19.26,0,0,0,35.14-9.18Zm-27.24-18.74a3.47,3.47,0,0,1,2.47-4.22,3.38,3.38,0,0,1,1.7,0,3.46,3.46,0,0,1,.05,6.7h0A3.46,3.46,0,0,1,514.39,520.42Z"/></g><path class="cls-9" d="M895.47,528.91c-33,6.4-37.12,15.35-45.43,33.18-.67,1.43-1.36,2.92-2.1,4.47-3.19,6.69-14.47,12.54-22.08,9.57-3.77-1.47-5-4.87-3.43-9.84,1.31-4.26,4.27-5,8.35-6.12,6.88-1.81,16.3-4.29,21.91-26.11a1,1,0,0,0-1.8-.7,27.93,27.93,0,0,1-25.54,15.4,16.23,16.23,0,0,1-10.07-3.53,10.54,10.54,0,0,1-1.49-.2c-.58-.12-1.14-.26-1.69-.4,2.58,3.6,7.3,5.83,13.17,6.08a29.62,29.62,0,0,0,23.62-10.82c-5.29,14.89-12.6,16.82-18.6,18.4-4.16,1.09-8.09,2.13-9.73,7.43-1.82,5.92-.15,10.38,4.59,12.23,8.72,3.39,21-3.07,24.55-10.55.74-1.55,1.44-3,2.11-4.48,6.45-13.86,10.32-22.17,28.22-28.12-11.86,6.91-15.61,16.92-19.27,26.69-4.22,11.23-8.2,21.85-24,28-11.12,4.32-13.36,10.14-13.71,13.22a9.89,9.89,0,0,0,4.58,9.31c4.51,3.07,10.88,3.08,16.61,0,6-3.21,8.26-8.71,10.43-14,3-7.21,6-14.65,18.59-17.47-8.58,5.61-10.46,12.68-12.29,19.55s-3.53,13.25-11.83,18a40.46,40.46,0,0,1-7,3c-5.1,1.79-9.92,3.51-10.13,9.39l2-.25c.3-4.08,3.5-5.43,8.81-7.3a42.29,42.29,0,0,0,7.32-3.11c9-5.21,10.89-12.34,12.73-19.24,2.12-8,4.12-15.46,16.2-21a1,1,0,0,0-.5-1.85c-18.45,1.84-22.29,11.24-25.68,19.53-2.14,5.23-4.16,10.17-9.55,13.05-6.08,3.24-11.53,2.16-14.6.08a8,8,0,0,1-3.73-7.48c.51-4.5,5.06-8.73,12.47-11.62,16.62-6.46,20.95-18,25.12-29.13,5-13.22,9.64-25.7,33.31-31.36a1,1,0,0,0-.42-1.9Z"/><path class="cls-9" d="M977.14,552.56c.39-.65.77-1.32,1.15-2-5.21-9.26-15.29-16.51-28.11-20.08-16.54-4.61-34.65-2.16-47.26,6.41-27.75,18.86-18.51,36-13.55,45.27,1.06,2,2.37,4.38,2,5-.07.12-.49.33-1.58.33-4.29,0-9.08,2.77-11.66,6.74a11.43,11.43,0,0,0-.94,11.21c1.43,3.24,3.59,5.27,6.42,6.06a11.53,11.53,0,0,0,6-.11,7.75,7.75,0,0,0-1.56,4.16,5.92,5.92,0,0,0,.38,2.35l1.86-.63a4,4,0,0,1-.29-1.64c.09-2.16,1.9-4.53,5.23-6.86a1,1,0,1,0-1.12-1.6c-2.46,1.73-6.55,3.4-10,2.45-2.23-.62-4-2.3-5.16-5a9.47,9.47,0,0,1,.79-9.36c2.24-3.44,6.37-5.85,10-5.85,1.07,0,2.57-.13,3.26-1.28.91-1.53-.24-3.66-2-6.89-4.67-8.68-13.37-24.85,12.93-42.73,12.14-8.25,29.63-10.6,45.64-6.14C962.45,535.94,972.37,543.26,977.14,552.56Z"/><path class="cls-9" d="M908.77,581.84a4.57,4.57,0,0,1-1.62-.28c-1.75-.63-3.21-2.35-4.57-5.4-3.34-7.49-5.32-18.54.09-25,4.3-5.16,12.2-6.38,23.48-3.63,11.49,2.8,16.15,12.5,14.7,20.21-1.19,6.3-5.94,9.84-12.13,9s-10.52,1.36-14.06,3.11C912.52,580.9,910.6,581.84,908.77,581.84ZM915.64,548c-5.2,0-9,1.45-11.47,4.36-4.84,5.8-2.92,16,.19,23,1.12,2.51,2.25,3.93,3.45,4.37,1.54.55,3.5-.42,6-1.64,3.58-1.77,8.48-4.19,15.18-3.3,6.16.83,9.18-3.31,10-7.44,1.28-6.83-2.92-15.44-13.24-18A43,43,0,0,0,915.64,548Z"/><path class="cls-9" d="M921.64,591.14c-7.09.52-11.38,2.27-12.75,5.2s.26,6.65,5,11.22l1.86-.91c-4.3-4.06-6.05-7.32-5-9.48,2-4.37,14.62-5,27-3.47l2.33-1.64A89.54,89.54,0,0,0,921.64,591.14Z"/><rect class="cls-5" x="301.89" y="642.94" width="220" height="22" rx="10.1"/><rect class="cls-2" x="54.48" y="400.66" width="250" height="24" rx="9.47"/><rect class="cls-2" x="277.31" y="186.33" width="230" height="24" rx="10.05"/><path class="cls-5" d="M227.66,922.91l-37.44,11.47a15.86,15.86,0,0,1-13.08-1.74L148,914.34a3.19,3.19,0,0,1,.63-5.7L184,896.08a10.71,10.71,0,0,1,8.88.79L228.3,917.1A3.18,3.18,0,0,1,227.66,922.91Z"/><path class="cls-5" d="M532.23,937.47,494.52,949a11.77,11.77,0,0,1-9.71-1.29l-29.49-18.55a3.87,3.87,0,0,1,.76-6.92l32.86-11.68a13.29,13.29,0,0,1,11,1l33,18.86A3.87,3.87,0,0,1,532.23,937.47Z"/><path class="cls-2" d="M382,897l-40.42,4.89a12.64,12.64,0,0,1-9.48-2.74l-15.74-12.83a2.29,2.29,0,0,1,1.11-4l38-5.66a10.4,10.4,0,0,1,7.6,1.84l20,14.41A2.28,2.28,0,0,1,382,897Z"/><path class="cls-11" d="M424.81,454.62c-3.65,16.5,4.21,20.79-.72,46.21-2.73,14.09,1.84,19,11.66,21.45h0A122.61,122.61,0,0,0,454.5,526c26.64,3.6,102,6.88,120.15,8.62,38.39,3.68,23.55-6.38,25-9.86,2.39-5.82,9.07-9.17-24.93-23.16-88.62-36.46-118.15-59.83-135.28-58.94C432.81,443,426.73,446,424.81,454.62Z"/><rect class="cls-6" x="692.14" y="828.09" width="62.66" height="62.66" rx="7.19"/><path class="cls-7" d="M714,835.54a3.08,3.08,0,0,1,3.08,3.08v11.3A3.08,3.08,0,0,1,714,853h-11.3a3.08,3.08,0,0,1-3.08-3.08v-11.3a3.08,3.08,0,0,1,3.08-3.08H714m0-3.08h-11.3a6.16,6.16,0,0,0-6.17,6.16v11.3a6.16,6.16,0,0,0,6.17,6.16H714a6.16,6.16,0,0,0,6.16-6.16v-11.3a6.16,6.16,0,0,0-6.16-6.16Z"/><path class="cls-7" d="M744.27,835.54a3.08,3.08,0,0,1,3.08,3.08v11.3a3.08,3.08,0,0,1-3.08,3.08H733a3.08,3.08,0,0,1-3.08-3.08v-11.3a3.08,3.08,0,0,1,3.08-3.08h11.3m0-3.08H733a6.16,6.16,0,0,0-6.16,6.16v11.3a6.16,6.16,0,0,0,6.16,6.16h11.3a6.16,6.16,0,0,0,6.16-6.16v-11.3a6.16,6.16,0,0,0-6.16-6.16Z"/><path class="cls-7" d="M714,865.84a3.09,3.09,0,0,1,3.08,3.09v11.29a3.09,3.09,0,0,1-3.08,3.09h-11.3a3.09,3.09,0,0,1-3.08-3.09V868.93a3.09,3.09,0,0,1,3.08-3.09H714m0-3.08h-11.3a6.17,6.17,0,0,0-6.17,6.17v11.29a6.17,6.17,0,0,0,6.17,6.17H714a6.16,6.16,0,0,0,6.16-6.17V868.93a6.16,6.16,0,0,0-6.16-6.17Z"/><rect class="cls-7" x="703.18" y="839.14" width="10.27" height="10.27" rx="2.05"/><rect class="cls-7" x="703.18" y="869.44" width="10.27" height="10.27" rx="2.05"/><rect class="cls-7" x="726.81" y="862.76" width="6.16" height="6.16" rx="2.05"/><rect class="cls-7" x="744.27" y="862.76" width="6.16" height="6.16" rx="2.05"/><rect class="cls-7" x="735.54" y="871.49" width="6.16" height="6.16" rx="2.05"/><rect class="cls-7" x="744.27" y="880.22" width="6.16" height="6.16" rx="2.05"/><rect class="cls-7" x="726.81" y="880.22" width="6.16" height="6.16" rx="2.05"/><rect class="cls-7" x="733.48" y="839.14" width="10.27" height="10.27" rx="2.05"/><path class="cls-4" d="M638.75,491.37c10,51.43,8.82,53.93,10.72,56.33,2.55,3.23,16.47.27,16.47.27l19.26-54.8-16.46,6-7.59-8.75-8.26,8.67Z"/></g></g></svg>