<svg xmlns="http://www.w3.org/2000/svg" viewBox="0 0 1224.92 398.44"><defs><style>.cls-1,.cls-2,.cls-3{fill:#c9d1d5;}.cls-1,.cls-2{stroke:#c9d1d5;stroke-miterlimit:10;}.cls-1{stroke-width:0.75px;}.cls-2{stroke-width:0.5px;}.cls-4{fill:#dfe3e4;}</style></defs><g id="Слой_2" data-name="Слой 2"><g id="Слой_1-2" data-name="Слой 1"><path class="cls-1" d="M869,199.12c-.15-6.08-6.4-18.49-14.88-26a68.28,68.28,0,0,0-6.25,7,87.9,87.9,0,0,0-11.67-12.42c-11,10.7-18.6,24.47-18.39,32.66.36,14.54,12.12,26,26.26,25.68h.28c.22,0,.43-.05.64-.07C858.67,225.18,869.35,213.34,869,199.12Zm-47.53,1.2c-.15-5.74,5-17,14.86-27.49a83.66,83.66,0,0,1,8.64,9.56l2.88,3.77,2.91-3.75q1.63-2.11,3.44-4.08c6.65,7.08,11,16.79,11.15,20.89a23,23,0,0,1-6,16.18,16,16,0,0,0-1.24-12.78q-.62-1.1-1.29-2.16l-2.7-4.21-3.2,3.84L848,203.54c-2.94-3.56-7-8.46-7.51-9l-2.89-3.17-2.67,3.37c-4.77,6-7.88,10.34-7.74,15.62a16.68,16.68,0,0,0,1.26,6A23,23,0,0,1,821.46,200.32Zm22.68,22.1c-7.16.13-13.09-4.48-13.29-12.18-.09-3.86,2.25-7.33,6.95-13.26.72.78,10.2,12.29,10.2,12.29l5.69-6.84c.42.65.81,1.3,1.18,2,2.87,5.15,1.88,11.86-3,15.42a13.39,13.39,0,0,1-7.07,2.55C844.61,222.39,844.38,222.42,844.14,222.42Z"/><path class="cls-2" d="M216.24,136.21l-1.73-1.33,1.39-7a4.35,4.35,0,0,0-1.6-4.31L184,100.26a4.36,4.36,0,0,0-4.58-.44L173,103l-1.73-1.33a2.19,2.19,0,0,0-3.07.41l-5.38,7a2.19,2.19,0,0,0,.38,3.08l2,1.55L141,151.11a4.39,4.39,0,0,0,1,5.86l28.21,21.72a4.38,4.38,0,0,0,5.91-.56l30-33,2,1.55a2.2,2.2,0,0,0,3.08-.41l5.38-7A2.2,2.2,0,0,0,216.24,136.21Zm-43.33,39L144.7,153.48l4.8-7.44,29.36,22.61-6,6.54Zm8.93-9.81-29.94-23,9.61-14.86,32.24,24.82ZM196.73,149l-32.82-25.27,4.81-7.43,34,26.15-6,6.55Zm12.4-7.15-41.48-31.94,2.69-3.49,2.13,1.64,8.84-4.32,30.3,23.32-1.92,9.65,2.13,1.65Z"/><path class="cls-3" d="M485.79,224.62a14.17,14.17,0,0,0,2.71-8.86A13,13,0,0,0,475.67,203H463.3c1.54-3.06,3.65-6.86,3.65-12.31,0-10.3-4.11-16.42-14.62-16.42-5.3,0-7.26,6.69-8.26,11.86-.61,3.09-1.17,6-2.92,7.75-4.16,4.16-10.5,14.26-14.32,16.31a7.28,7.28,0,0,1-1.41.39,5.63,5.63,0,0,0-4.65-2.44H403.84a5.64,5.64,0,0,0-5.65,5.64v45.15a5.65,5.65,0,0,0,5.65,5.65h16.93a5.64,5.64,0,0,0,5.64-5.65v-1.54c5.74,0,17.76,7.19,31.3,7.18,1,0,6.64,0,7.24,0,10.45,0,16.27-6.33,15.93-15.83a14.65,14.65,0,0,0,3.21-11.84A16.47,16.47,0,0,0,485.79,224.62Zm-82,34.27V213.74h16.93v45.15ZM478.62,223c2.82,2.06,2.82,10.52-1,12.47,2.38,4,.23,9.38-2.65,10.93,1.46,9.27-3.35,12.45-10.09,12.52h-7.19c-12.86,0-23.76-7.18-31.3-7.18V215.79c6.65,0,12.76-12,18.73-18,5.39-5.39,3.59-14.36,7.19-18,9,0,9,6.27,9,10.78,0,7.44-5.38,10.77-5.38,18h19.75a7.41,7.41,0,0,1,7.18,7.18c0,3.59-1.41,6.42-4.23,7.18Zm-62.08,27.46a4.24,4.24,0,1,1-4.24-4.24A4.24,4.24,0,0,1,416.54,250.43Z"/><path class="cls-1" d="M673.56,70.82l-47.4-9.08a3.72,3.72,0,0,0-4.35,2.95l-4.89,25.52a11.16,11.16,0,0,0,8.85,13l21.88,4.19a11.13,11.13,0,0,0,13-8.84l1.4-7.3,7.29,1.4a11.14,11.14,0,1,0,4.19-21.88ZM657,97.9a7.43,7.43,0,0,1-8.69,5.89L626.47,99.6a7.43,7.43,0,0,1-5.9-8.69l4.89-25.52,10.94,2.09-.7,3.65-5.24,3.56a3.7,3.7,0,0,0-1.57,2.37l-1.45,7.61A3.7,3.7,0,0,0,630.38,89l7.3,1.4a3.71,3.71,0,0,0,4.34-3l1.46-7.61a3.71,3.71,0,0,0-.57-2.78l-3.56-5.24.7-3.65,21.88,4.19ZM636.89,74.81l2.94,4.35-1.45,7.6-7.3-1.39,1.46-7.61Zm33.18,14.24-7.29-1.39,2.79-14.59,7.29,1.4a7.42,7.42,0,1,1-2.79,14.58Z"/><path class="cls-4" d="M59.32,352.1H30.69A30.73,30.73,0,0,1,0,321.41V30.69A30.73,30.73,0,0,1,30.69,0H410.93a30.73,30.73,0,0,1,30.69,30.69V58.1a3,3,0,1,1-6,0V30.69A24.72,24.72,0,0,0,410.93,6H30.69A24.72,24.72,0,0,0,6,30.69V321.41A24.72,24.72,0,0,0,30.69,346.1H59.32a3,3,0,0,1,0,6Z"/><path class="cls-4" d="M410.93,352.1H52.52a3,3,0,1,1,0-6H410.93a24.72,24.72,0,0,0,24.69-24.69V294.86a3,3,0,0,1,6,0v26.55A30.73,30.73,0,0,1,410.93,352.1Z"/><path class="cls-4" d="M410,58.49a3,3,0,0,1-3-3V39a5.29,5.29,0,0,0-5.29-5.29H316.07a3,3,0,0,1,0-6h85.65A11.3,11.3,0,0,1,413,39V55.49A3,3,0,0,1,410,58.49Z"/><path class="cls-4" d="M326.35,33.69H125.1a3,3,0,0,1,0-6H326.35a3,3,0,1,1,0,6Z"/><path class="cls-4" d="M108,33.69H90.5a3,3,0,0,1,0-6H108a3,3,0,1,1,0,6Z"/><path class="cls-4" d="M31.61,293a3,3,0,0,1-3-3V39A11.3,11.3,0,0,1,39.9,27.69H74a3,3,0,1,1,0,6H39.9A5.29,5.29,0,0,0,34.61,39V290A3,3,0,0,1,31.61,293Z"/><path class="cls-4" d="M338.27,398.43H143.48a8.73,8.73,0,1,1,0-17.45H303.87a3,3,0,0,1,0,6H143.48a2.73,2.73,0,1,0,0,5.45H338.27a3,3,0,0,1,0,6Z"/><path class="cls-4" d="M147,386.71a2.88,2.88,0,0,1-.71-.09,3,3,0,0,1-2.21-3.62l8.3-34.15a3,3,0,1,1,5.83,1.42l-8.3,34.14A3,3,0,0,1,147,386.71Z"/><path class="cls-4" d="M294.64,386.71a3,3,0,0,1-2.91-2.3l-8.29-34.14a3,3,0,1,1,5.83-1.42L297.56,383a3,3,0,0,1-2.21,3.62A2.88,2.88,0,0,1,294.64,386.71Z"/><path class="cls-4" d="M528.8,73.59c-14.85,0-37.1-3.8-58.62-7.47-21-3.59-42.75-7.3-56.74-7.3-7.05,0-16.35.88-29.26,2.77a3,3,0,0,1-.87-5.94c13.21-1.93,22.78-2.83,30.13-2.83,14.5,0,36.49,3.76,57.75,7.39s43.27,7.38,57.61,7.38c13.94,0,35.72-3.69,56.78-7.25,5.92-1,12-2,17.94-3a3,3,0,0,1,1,5.93c-5.87.94-12,2-17.88,3C564.3,70,543.25,73.59,528.8,73.59Z"/><path class="cls-4" d="M297.15,73.59c-14.82,0-37-3.78-58.38-7.44-21.05-3.6-42.82-7.32-57-7.33h0c-15.32,0-40.53,4.12-64.92,8.11-21,3.42-40.79,6.66-51.34,6.66a3,3,0,0,1,0-6c10.07,0,29.65-3.2,50.38-6.59,24.61-4,50.07-8.18,65.88-8.18h0c14.67,0,36.7,3.77,58,7.41s43.06,7.36,57.37,7.36c14.58,0,36.71-3.76,58.12-7.39L362.54,59a3,3,0,1,1,1,5.92l-7.27,1.23C334.62,69.79,312.23,73.59,297.15,73.59Z"/><path class="cls-4" d="M990.27,73.59c-14.85,0-37.11-3.8-58.63-7.47-21-3.59-42.74-7.3-56.74-7.3-14.19,0-36,3.71-57.16,7.3-21.65,3.67-44,7.47-59.13,7.47-14.82,0-37-3.78-58.37-7.44-4.1-.71-8.21-1.41-12.27-2.08a3,3,0,0,1,1-5.92l12.29,2.08c21.17,3.62,43,7.36,57.36,7.36,14.58,0,36.72-3.76,58.13-7.39s43.47-7.38,58.16-7.38c14.5,0,36.49,3.76,57.75,7.39s43.28,7.38,57.62,7.38c13.94,0,35.71-3.69,56.78-7.25,21.81-3.7,44.37-7.52,59.51-7.52,13.49,0,32.47,3,54.06,6.73a3,3,0,0,1-1,5.91c-21.32-3.63-40-6.64-53-6.64-14.64,0-36.94,3.78-58.51,7.43C1025.76,70,1004.71,73.59,990.27,73.59Z"/><path class="cls-4" d="M527,73.59a3,3,0,0,1,0-6c10.07,0,29.65-3.2,50.38-6.59,8.77-1.43,17.83-2.91,26.52-4.2a3,3,0,0,1,.89,5.93c-8.65,1.29-17.7,2.77-26.44,4.2C557.33,70.35,537.52,73.59,527,73.59Z"/><path class="cls-4" d="M990.27,101.28c-12.2,0-29.19-2.54-45.73-5.29a3,3,0,0,1,1-5.92c16.29,2.7,33,5.21,44.75,5.21,13.94,0,35.71-3.69,56.78-7.26,21.81-3.69,44.37-7.51,59.51-7.51,14.7,0,36.81,3.78,58.19,7.43,11.12,1.9,22.63,3.86,32.88,5.26a3,3,0,1,1-.81,5.94c-10.35-1.41-21.91-3.38-33.08-5.29-21.14-3.61-43-7.34-57.18-7.34-14.64,0-36.94,3.78-58.51,7.43C1025.76,97.71,1004.71,101.28,990.27,101.28Z"/><path class="cls-4" d="M758.61,101.28a3,3,0,0,1,0-6c14.58,0,36.72-3.76,58.13-7.39s43.47-7.38,58.16-7.38c13.16,0,31.83,3,51.42,6.3a3,3,0,0,1-1,5.92c-18.55-3.15-37.72-6.22-50.41-6.22-14.19,0-36,3.71-57.16,7.29C796.09,97.48,773.7,101.28,758.61,101.28Z"/><path class="cls-4" d="M990.27,129c-14.85,0-37.11-3.8-58.63-7.47-21-3.59-42.74-7.3-56.74-7.3-14.19,0-36,3.71-57.16,7.29-21.65,3.68-44,7.48-59.13,7.48-14.82,0-37-3.79-58.38-7.45-6.23-1.06-12.68-2.17-18.83-3.16a3,3,0,1,1,1-5.92c6.18,1,12.64,2.1,18.89,3.17,21.17,3.61,43.06,7.36,57.37,7.36,14.58,0,36.72-3.76,58.13-7.39s43.47-7.38,58.16-7.38c14.5,0,36.49,3.75,57.75,7.38S975.93,123,990.27,123c13.94,0,35.72-3.69,56.78-7.26,21.81-3.69,44.37-7.51,59.51-7.51a196.63,196.63,0,0,1,25.62,2.2,3,3,0,0,1-.82,5.95,189.83,189.83,0,0,0-24.8-2.15c-14.64,0-36.94,3.78-58.51,7.43C1025.76,125.4,1004.71,129,990.27,129Z"/><path class="cls-4" d="M1177.66,151.54a2.77,2.77,0,0,1-.49,0c-4.44-.74-8.93-1.5-13.43-2.27-21.14-3.61-43-7.34-57.18-7.34-3.61,0-7.75.22-12.65.67a3,3,0,1,1-.55-6c5.08-.47,9.4-.7,13.2-.7,14.7,0,36.81,3.77,58.19,7.42,4.49.77,9,1.54,13.4,2.27a3,3,0,0,1-.49,6Z"/><path class="cls-4" d="M990.27,156.65c-14.85,0-37.11-3.79-58.63-7.47-21-3.58-42.74-7.29-56.74-7.29-14.19,0-36,3.7-57.16,7.29-21.65,3.67-44,7.47-59.13,7.47-14.82,0-37-3.78-58.37-7.44-21.06-3.6-42.82-7.32-57-7.32h0c-15.33,0-40.54,4.12-64.92,8.1-21,3.43-40.79,6.66-51.35,6.66a3,3,0,0,1,0-6c10.07,0,29.65-3.2,50.38-6.58,24.62-4,50.07-8.18,65.89-8.18h0c14.68,0,36.7,3.76,58,7.4s43,7.36,57.36,7.36c14.58,0,36.72-3.75,58.13-7.39s43.47-7.37,58.16-7.37c14.5,0,36.49,3.75,57.75,7.38s43.28,7.38,57.62,7.38c13.94,0,35.71-3.68,56.77-7.25,5-.84,10-1.69,14.89-2.49a3,3,0,1,1,1,5.92c-4.91.8-9.89,1.65-14.86,2.49C1025.76,153.09,1004.71,156.65,990.27,156.65Z"/><path class="cls-4" d="M1221.92,184.34c-14.7,0-36.81-3.77-58.19-7.42-21.13-3.61-43-7.35-57.17-7.35-14.64,0-36.94,3.78-58.51,7.43-22.29,3.78-43.34,7.34-57.78,7.34-14.85,0-37.11-3.8-58.63-7.47-21-3.59-42.74-7.3-56.74-7.3a3,3,0,0,1,0-6c14.5,0,36.49,3.76,57.75,7.39s43.28,7.38,57.62,7.38c13.94,0,35.71-3.69,56.78-7.25,21.81-3.7,44.37-7.52,59.51-7.52,14.7,0,36.81,3.78,58.18,7.43,21.14,3.61,43,7.34,57.18,7.34a3,3,0,0,1,0,6Z"/><path class="cls-4" d="M758.61,184.34c-14.82,0-37-3.78-58.37-7.44-15.44-2.64-31.4-5.37-44.26-6.61a3,3,0,0,1,.58-6c13.08,1.26,29.15,4,44.69,6.66,21.17,3.62,43,7.36,57.36,7.36,13,0,32.06-3,48.92-5.83a3,3,0,0,1,1,5.92C791.42,181.29,772.05,184.34,758.61,184.34Z"/><path class="cls-4" d="M990.27,212c-14.85,0-37.11-3.8-58.63-7.47-16.55-2.83-33.66-5.75-46.9-6.84a3,3,0,1,1,.5-6c13.49,1.11,30.74,4.06,47.41,6.9,21.28,3.63,43.27,7.39,57.62,7.39,13.94,0,35.71-3.69,56.78-7.25,21.81-3.7,44.37-7.52,59.51-7.52,14.7,0,36.81,3.78,58.19,7.43,13.94,2.38,28.35,4.84,40.44,6.21a3,3,0,0,1-.67,6c-12.27-1.39-26.76-3.86-40.78-6.26-21.14-3.61-43-7.34-57.18-7.34-14.64,0-36.94,3.78-58.51,7.43C1025.76,208.46,1004.71,212,990.27,212Z"/><path class="cls-4" d="M758.61,212c-14.82,0-37-3.79-58.37-7.45-21.06-3.59-42.82-7.31-57-7.32h0c-15.33,0-40.54,4.12-64.92,8.1-21,3.43-40.79,6.67-51.35,6.67a3,3,0,0,1,0-6c10.07,0,29.65-3.2,50.38-6.59,24.62-4,50.07-8.18,65.89-8.18h0c14.68,0,36.7,3.77,58,7.41s43,7.36,57.36,7.36c11.78,0,28.6-2.5,43.49-4.94a3,3,0,1,1,1,5.93C787.18,209.62,770.79,212,758.61,212Z"/><path class="cls-4" d="M1152.27,230.31a2.72,2.72,0,0,1-.49-.05c-6.62-1.1-11.88-1.93-16.56-2.61a3,3,0,1,1,.86-5.94c4.73.69,10,1.53,16.68,2.64a3,3,0,0,1-.49,6Z"/><path class="cls-4" d="M990.27,239.72c-14.85,0-37.11-3.8-58.63-7.47-20.13-3.44-41-7-54.95-7.28a3,3,0,0,1,.06-6h.06c14.44.3,35.49,3.89,55.84,7.36,21.28,3.63,43.28,7.39,57.62,7.39,13.94,0,35.71-3.69,56.78-7.26,21.81-3.69,44.37-7.51,59.51-7.51,3,0,6.58.16,10.49.49a3,3,0,0,1-.49,6c-3.75-.31-7.11-.47-10-.47-14.64,0-36.94,3.78-58.51,7.43C1025.76,236.15,1004.71,239.72,990.27,239.72Z"/><path class="cls-4" d="M758.61,239.72c-14.82,0-37-3.79-58.37-7.45-21-3.6-42.82-7.32-57-7.32h0c-15.32,0-40.53,4.12-64.91,8.1-21,3.43-40.79,6.67-51.35,6.67a3,3,0,0,1,0-6c10.07,0,29.65-3.2,50.38-6.59,24.62-4,50.07-8.18,65.88-8.18h0c14.68,0,36.7,3.77,58,7.41s43,7.36,57.36,7.36c14.58,0,36.57-3.74,57.84-7.34a3,3,0,1,1,1,5.91C795.94,235.94,773.69,239.72,758.61,239.72Z"/><path class="cls-4" d="M990.27,267.4c-14.85,0-37.11-3.79-58.63-7.47-21-3.58-42.74-7.29-56.74-7.29-14.19,0-36,3.71-57.16,7.29-21.65,3.67-44,7.47-59.13,7.47-14.82,0-37-3.78-58.37-7.44-21-3.6-42.82-7.32-57-7.32h0c-15.32,0-40.53,4.12-64.91,8.1-21,3.43-40.79,6.66-51.35,6.66a3,3,0,0,1,0-6c10.07,0,29.65-3.19,50.38-6.58,24.62-4,50.07-8.18,65.88-8.18h0c14.68,0,36.7,3.77,58,7.41s43,7.35,57.36,7.35c14.58,0,36.72-3.75,58.13-7.38s43.47-7.38,58.16-7.38c14.5,0,36.49,3.75,57.75,7.38s43.27,7.38,57.62,7.38c13.94,0,35.71-3.68,56.78-7.25,21.81-3.69,44.37-7.51,59.51-7.51,14.7,0,36.81,3.77,58.2,7.43,6,1,12.25,2.09,18.2,3.05a3,3,0,1,1-1,5.92c-6-1-12.23-2-18.26-3.06-21.14-3.61-43-7.34-57.19-7.34-14.64,0-36.94,3.77-58.51,7.43C1025.76,263.84,1004.71,267.4,990.27,267.4Z"/><path class="cls-4" d="M760.46,101.28c-14.7,0-36.8-3.78-58.17-7.43l-9.13-1.55a3,3,0,0,1,1-5.91l9.15,1.55c21.12,3.61,43,7.34,57.16,7.34a3,3,0,0,1,0,6Z"/><path class="cls-4" d="M528.8,101.28c-14.85,0-37.1-3.8-58.62-7.47-21-3.59-42.75-7.3-56.74-7.3-14.19,0-36,3.71-57.16,7.29-21.65,3.68-44,7.48-59.13,7.48-14.82,0-37-3.79-58.37-7.45-8.11-1.38-16.48-2.81-24.31-4a3,3,0,1,1,.91-5.93c7.88,1.2,16.28,2.64,24.41,4,21.16,3.62,43,7.36,57.36,7.36,14.58,0,36.72-3.76,58.13-7.39s43.46-7.38,58.16-7.38c14.5,0,36.49,3.75,57.75,7.38s43.27,7.39,57.61,7.39c13.94,0,35.72-3.69,56.78-7.25,4.09-.7,8.2-1.39,12.26-2.06a3,3,0,0,1,1,5.92l-12.24,2C564.29,97.71,543.25,101.28,528.8,101.28Z"/><path class="cls-4" d="M75.47,100.66a3,3,0,0,1-.3-6c10.7-1.08,25.27-3.47,40.7-6,8.52-1.39,17.32-2.83,25.78-4.09a3,3,0,1,1,.89,5.93c-8.42,1.26-17.21,2.7-25.7,4.08-15.52,2.54-30.19,4.94-41.07,6Z"/><path class="cls-4" d="M528.8,129c-14.85,0-37.1-3.8-58.62-7.47-21-3.59-42.75-7.3-56.74-7.3-14.19,0-36,3.71-57.16,7.29-21.65,3.68-44,7.48-59.13,7.48-14.82,0-37-3.79-58.38-7.45l-.4-.07a3,3,0,0,1,1-5.91l.4.07C261,119.22,282.84,123,297.15,123c14.58,0,36.72-3.76,58.13-7.39s43.46-7.38,58.16-7.38c14.5,0,36.49,3.75,57.75,7.38S514.46,123,528.8,123c13.94,0,35.72-3.69,56.78-7.26,7.83-1.32,15.94-2.7,23.6-3.87a3,3,0,0,1,.91,5.93c-7.62,1.17-15.7,2.54-23.51,3.86C564.3,125.4,543.25,129,528.8,129Z"/><path class="cls-4" d="M85.23,127.17a3,3,0,0,1-.4-6c9.18-1.25,19.84-3,31.13-4.83l2.58-.42a3,3,0,1,1,1,5.92l-2.58.42c-11.32,1.85-22,3.6-31.28,4.85A2.83,2.83,0,0,1,85.23,127.17Z"/><path class="cls-4" d="M760.46,156.65c-14.7,0-36.81-3.77-58.19-7.42-21.13-3.61-43-7.34-57.18-7.34-14.63,0-36.93,3.77-58.51,7.43-22.28,3.77-43.33,7.33-57.78,7.33-14.85,0-37.1-3.79-58.62-7.47-21-3.58-42.75-7.29-56.74-7.29-14.19,0-36,3.7-57.16,7.29-21.65,3.67-44,7.47-59.13,7.47-13.69,0-32.6-3-55.89-7a3,3,0,1,1,1-5.91c23,3.93,41.66,6.93,54.88,6.93,14.58,0,36.72-3.75,58.13-7.39s43.46-7.37,58.16-7.37c14.5,0,36.49,3.75,57.75,7.38s43.27,7.38,57.61,7.38c13.94,0,35.72-3.68,56.78-7.25,21.82-3.69,44.38-7.51,59.51-7.51,14.71,0,36.81,3.77,58.19,7.42,21.13,3.61,43,7.34,57.18,7.34a3,3,0,0,1,0,6Z"/><path class="cls-4" d="M94.92,153.46a3,3,0,0,1-.45-6c6.77-1,14.19-2.24,21.36-3.42a3,3,0,1,1,1,5.93c-7.19,1.17-14.63,2.39-21.43,3.42A2.28,2.28,0,0,1,94.92,153.46Z"/><path class="cls-4" d="M528.8,184.34c-11.2,0-26.37-2.18-38.33-4.08a3,3,0,1,1,.94-5.93c11.74,1.87,26.61,4,37.39,4,13.94,0,35.72-3.69,56.78-7.25,17.49-3,35.58-6,49.74-7.1a3,3,0,1,1,.46,6c-13.89,1.06-31.84,4.1-49.2,7C564.3,180.78,543.25,184.34,528.8,184.34Z"/><path class="cls-4" d="M297.15,184.34c-14.82,0-37-3.78-58.38-7.44l-6.87-1.18a3,3,0,1,1,1-5.91l6.89,1.17c21.16,3.62,43,7.36,57.36,7.36,14.58,0,36.72-3.76,58.12-7.39,18.67-3.17,38-6.44,52.25-7.2a3,3,0,0,1,.32,6c-13.93.74-33.06,4-51.56,7.13C334.62,180.54,312.23,184.34,297.15,184.34Z"/><path class="cls-4" d="M104.56,179.63a3,3,0,0,1-.47-6l11.82-1.92,9.5-1.55a3,3,0,0,1,1,5.93l-9.49,1.54c-4,.66-8,1.31-11.84,1.92A2.59,2.59,0,0,1,104.56,179.63Z"/><path class="cls-4" d="M760.46,212c-14.7,0-36.81-3.78-58.19-7.43-21.13-3.61-43-7.34-57.18-7.34-14.63,0-36.93,3.78-58.51,7.43C564.3,208.46,543.25,212,528.8,212a172.38,172.38,0,0,1-20.43-1.52,3,3,0,1,1,.73-5.95A166.49,166.49,0,0,0,528.8,206c13.94,0,35.72-3.69,56.78-7.25,21.82-3.7,44.38-7.52,59.51-7.52,14.71,0,36.81,3.78,58.19,7.43,21.13,3.61,43,7.34,57.18,7.34a3,3,0,0,1,0,6Z"/><path class="cls-4" d="M297.15,212c-14.82,0-37-3.78-58.37-7.45-11.38-1.94-23.14-4-33.57-5.35a3,3,0,0,1,.8-5.95c10.53,1.42,22.35,3.44,33.78,5.39,21.16,3.62,43,7.36,57.36,7.36,14.58,0,36.72-3.76,58.12-7.39,8.06-1.37,16.38-2.78,24.18-4a3,3,0,0,1,.91,5.93c-7.75,1.18-16.05,2.59-24.08,4C334.62,208.23,312.23,212,297.15,212Z"/><path class="cls-4" d="M114.19,205.76a3,3,0,0,1-.48-6l2.18-.36c12.47-2,25.36-4.14,37.12-5.71a3,3,0,1,1,.79,6c-11.66,1.55-24.51,3.65-36.94,5.68l-2.19.36A2.59,2.59,0,0,1,114.19,205.76Z"/><path class="cls-4" d="M760.46,239.72c-14.7,0-36.81-3.78-58.19-7.43-21.13-3.61-43-7.34-57.18-7.34-14.63,0-36.93,3.78-58.51,7.43-22.28,3.77-43.33,7.34-57.78,7.34a162.67,162.67,0,0,1-18.51-1.29,3,3,0,0,1,.69-6,157.66,157.66,0,0,0,17.82,1.25c13.94,0,35.72-3.69,56.78-7.26C607.4,222.77,630,219,645.09,219c14.71,0,36.81,3.78,58.19,7.43,21.13,3.61,43,7.34,57.18,7.34a3,3,0,0,1,0,6Z"/><path class="cls-4" d="M297.15,239.72c-14.82,0-37-3.79-58.38-7.45-21.05-3.6-42.82-7.32-57-7.32h0c-13.86,0-36,3.4-57.47,6.89a3,3,0,0,1-1-5.92c21.72-3.53,44.13-7,58.43-7h0c14.67,0,36.7,3.77,58,7.41s43,7.36,57.36,7.36c14.58,0,36.71-3.76,58.12-7.39,6-1,12.11-2.06,18-3a3,3,0,1,1,1,5.92c-5.87.94-12,2-18,3C334.62,235.92,312.23,239.72,297.15,239.72Z"/><path class="cls-4" d="M760.46,267.4c-14.7,0-36.81-3.77-58.19-7.42-21.13-3.61-43-7.34-57.18-7.34-14.63,0-36.93,3.77-58.51,7.43-22.28,3.77-43.33,7.33-57.78,7.33-7,0-15.89-.8-28-2.52a3,3,0,1,1,.84-5.94c11.66,1.66,20.55,2.46,27.16,2.46,13.94,0,35.72-3.68,56.78-7.25,21.82-3.69,44.38-7.51,59.51-7.51,14.71,0,36.81,3.77,58.19,7.42,21.13,3.61,43,7.34,57.18,7.34a3,3,0,0,1,0,6Z"/><path class="cls-4" d="M297.15,267.4c-13.46,0-32.31-3-52.08-6.37a3,3,0,1,1,1-5.91c18.73,3.18,38.1,6.28,51.08,6.28,14.58,0,36.72-3.75,58.13-7.39,7.83-1.32,15.92-2.7,23.53-3.87a3,3,0,0,1,.91,5.93c-7.56,1.17-15.63,2.53-23.44,3.86C334.63,263.6,312.24,267.4,297.15,267.4Z"/><path class="cls-4" d="M133.44,258a3,3,0,0,1-.46-6c17-2.68,36.1-5.42,48.78-5.42h0c11.92,0,28.25,2.43,44.12,5.06a3,3,0,0,1-1,5.92c-15.62-2.59-31.66-5-43.15-5h0c-12.26,0-31.07,2.7-47.85,5.35A3.71,3.71,0,0,1,133.44,258Z"/><path class="cls-4" d="M843.52,241.56A44.54,44.54,0,1,1,888.05,197,44.58,44.58,0,0,1,843.52,241.56Zm0-83.06a38.51,38.51,0,1,0,26.2,10.27A38.31,38.31,0,0,0,843.52,158.5Z"/><path class="cls-4" d="M442.51,297.86a71.76,71.76,0,1,1,71.76-71.76A71.84,71.84,0,0,1,442.51,297.86Zm0-137.51a65.76,65.76,0,1,0,65.76,65.75A65.83,65.83,0,0,0,442.51,160.35Z"/><path class="cls-4" d="M646,134.5a51,51,0,1,1,51-51A51.05,51.05,0,0,1,646,134.5Zm0-96a45,45,0,1,0,45,45A45,45,0,0,0,646,38.52Z"/><path class="cls-4" d="M179,205.11a66.22,66.22,0,1,1,66.22-66.22A66.29,66.29,0,0,1,179,205.11Zm0-126.44a60.22,60.22,0,1,0,60.22,60.22A60.28,60.28,0,0,0,179,78.67Z"/><path class="cls-4" d="M1078,160.35a18.69,18.69,0,1,1,18.69-18.69A18.71,18.71,0,0,1,1078,160.35Zm0-31.38a12.69,12.69,0,1,0,12.69,12.69A12.7,12.7,0,0,0,1078,129Z"/><path class="cls-4" d="M417,293.23H4a3,3,0,0,1,0-6H417a3,3,0,0,1,0,6Z"/><path class="cls-4" d="M59.32,352.1H30.69A30.73,30.73,0,0,1,0,321.41V30.69A30.73,30.73,0,0,1,30.69,0H410.93a30.73,30.73,0,0,1,30.69,30.69V58.1a3,3,0,1,1-6,0V30.69A24.72,24.72,0,0,0,410.93,6H30.69A24.72,24.72,0,0,0,6,30.69V321.41A24.72,24.72,0,0,0,30.69,346.1H59.32a3,3,0,0,1,0,6Z"/><path class="cls-4" d="M410.93,352.1H52.52a3,3,0,1,1,0-6H410.93a24.72,24.72,0,0,0,24.69-24.69V294.86a3,3,0,0,1,6,0v26.55A30.73,30.73,0,0,1,410.93,352.1Z"/><path class="cls-4" d="M410,58.49a3,3,0,0,1-3-3V39a5.29,5.29,0,0,0-5.29-5.29H316.07a3,3,0,0,1,0-6h85.65A11.3,11.3,0,0,1,413,39V55.49A3,3,0,0,1,410,58.49Z"/><path class="cls-4" d="M326.35,33.69H125.1a3,3,0,0,1,0-6H326.35a3,3,0,1,1,0,6Z"/><path class="cls-4" d="M108,33.69H90.5a3,3,0,0,1,0-6H108a3,3,0,1,1,0,6Z"/><path class="cls-4" d="M31.61,293a3,3,0,0,1-3-3V39A11.3,11.3,0,0,1,39.9,27.69H74a3,3,0,1,1,0,6H39.9A5.29,5.29,0,0,0,34.61,39V290A3,3,0,0,1,31.61,293Z"/><path class="cls-4" d="M338.27,398.43H143.48a8.73,8.73,0,1,1,0-17.45H303.87a3,3,0,0,1,0,6H143.48a2.73,2.73,0,1,0,0,5.45H338.27a3,3,0,0,1,0,6Z"/><path class="cls-4" d="M704.14,398.43H361.91a3,3,0,0,1,0-6H704.14a3,3,0,0,1,0,6Z"/><path class="cls-4" d="M1040.88,398.43H697.48a3,3,0,0,1,0-6h343.4a3,3,0,0,1,0,6Z"/><path class="cls-4" d="M1074.47,398.43h-15.84a3,3,0,0,1,0-6h15.84a3,3,0,0,1,0,6Z"/><path class="cls-4" d="M147,386.71a2.88,2.88,0,0,1-.71-.09,3,3,0,0,1-2.21-3.62l8.3-34.15a3,3,0,1,1,5.83,1.42l-8.3,34.14A3,3,0,0,1,147,386.71Z"/><path class="cls-4" d="M294.64,386.71a3,3,0,0,1-2.91-2.3l-8.29-34.14a3,3,0,1,1,5.83-1.42L297.56,383a3,3,0,0,1-2.21,3.62A2.88,2.88,0,0,1,294.64,386.71Z"/><path class="cls-4" d="M528.8,73.59c-14.85,0-37.1-3.8-58.62-7.47-21-3.59-42.75-7.3-56.74-7.3-7.05,0-16.35.88-29.26,2.77a3,3,0,0,1-.87-5.94c13.21-1.93,22.78-2.83,30.13-2.83,14.5,0,36.49,3.76,57.75,7.39s43.27,7.38,57.61,7.38c13.94,0,35.72-3.69,56.78-7.25,5.92-1,12-2,17.94-3a3,3,0,0,1,1,5.93c-5.87.94-12,2-17.88,3C564.3,70,543.25,73.59,528.8,73.59Z"/><path class="cls-4" d="M297.15,73.59c-14.82,0-37-3.78-58.38-7.44-21.05-3.6-42.82-7.32-57-7.33h0c-15.32,0-40.53,4.12-64.92,8.11-21,3.42-40.79,6.66-51.34,6.66a3,3,0,0,1,0-6c10.07,0,29.65-3.2,50.38-6.59,24.61-4,50.07-8.18,65.88-8.18h0c14.67,0,36.7,3.77,58,7.41s43.06,7.36,57.37,7.36c14.58,0,36.71-3.76,58.12-7.39L362.54,59a3,3,0,1,1,1,5.92l-7.27,1.23C334.62,69.79,312.23,73.59,297.15,73.59Z"/><path class="cls-4" d="M990.27,73.59c-14.85,0-37.11-3.8-58.63-7.47-21-3.59-42.74-7.3-56.74-7.3-14.19,0-36,3.71-57.16,7.3-21.65,3.67-44,7.47-59.13,7.47-14.82,0-37-3.78-58.37-7.44-4.1-.71-8.21-1.41-12.27-2.08a3,3,0,0,1,1-5.92l12.29,2.08c21.17,3.62,43,7.36,57.36,7.36,14.58,0,36.72-3.76,58.13-7.39s43.47-7.38,58.16-7.38c14.5,0,36.49,3.76,57.75,7.39s43.28,7.38,57.62,7.38c13.94,0,35.71-3.69,56.78-7.25,21.81-3.7,44.37-7.52,59.51-7.52,13.49,0,32.47,3,54.06,6.73a3,3,0,0,1-1,5.91c-21.32-3.63-40-6.64-53-6.64-14.64,0-36.94,3.78-58.51,7.43C1025.76,70,1004.71,73.59,990.27,73.59Z"/><path class="cls-4" d="M527,73.59a3,3,0,0,1,0-6c10.07,0,29.65-3.2,50.38-6.59,8.77-1.43,17.83-2.91,26.52-4.2a3,3,0,0,1,.89,5.93c-8.65,1.29-17.7,2.77-26.44,4.2C557.33,70.35,537.52,73.59,527,73.59Z"/><path class="cls-4" d="M990.27,101.28c-12.2,0-29.19-2.54-45.73-5.29a3,3,0,0,1,1-5.92c16.29,2.7,33,5.21,44.75,5.21,13.94,0,35.71-3.69,56.78-7.26,21.81-3.69,44.37-7.51,59.51-7.51,14.7,0,36.81,3.78,58.19,7.43,11.12,1.9,22.63,3.86,32.88,5.26a3,3,0,1,1-.81,5.94c-10.35-1.41-21.91-3.38-33.08-5.29-21.14-3.61-43-7.34-57.18-7.34-14.64,0-36.94,3.78-58.51,7.43C1025.76,97.71,1004.71,101.28,990.27,101.28Z"/><path class="cls-4" d="M758.61,101.28a3,3,0,0,1,0-6c14.58,0,36.72-3.76,58.13-7.39s43.47-7.38,58.16-7.38c13.16,0,31.83,3,51.42,6.3a3,3,0,0,1-1,5.92c-18.55-3.15-37.72-6.22-50.41-6.22-14.19,0-36,3.71-57.16,7.29C796.09,97.48,773.7,101.28,758.61,101.28Z"/><path class="cls-4" d="M990.27,129c-14.85,0-37.11-3.8-58.63-7.47-21-3.59-42.74-7.3-56.74-7.3-14.19,0-36,3.71-57.16,7.29-21.65,3.68-44,7.48-59.13,7.48-14.82,0-37-3.79-58.38-7.45-6.23-1.06-12.68-2.17-18.83-3.16a3,3,0,1,1,1-5.92c6.18,1,12.64,2.1,18.89,3.17,21.17,3.61,43.06,7.36,57.37,7.36,14.58,0,36.72-3.76,58.13-7.39s43.47-7.38,58.16-7.38c14.5,0,36.49,3.75,57.75,7.38S975.93,123,990.27,123c13.94,0,35.72-3.69,56.78-7.26,21.81-3.69,44.37-7.51,59.51-7.51a196.63,196.63,0,0,1,25.62,2.2,3,3,0,0,1-.82,5.95,189.83,189.83,0,0,0-24.8-2.15c-14.64,0-36.94,3.78-58.51,7.43C1025.76,125.4,1004.71,129,990.27,129Z"/><path class="cls-4" d="M1177.66,151.54a2.77,2.77,0,0,1-.49,0c-4.44-.74-8.93-1.5-13.43-2.27-21.14-3.61-43-7.34-57.18-7.34-3.61,0-7.75.22-12.65.67a3,3,0,1,1-.55-6c5.08-.47,9.4-.7,13.2-.7,14.7,0,36.81,3.77,58.19,7.42,4.49.77,9,1.54,13.4,2.27a3,3,0,0,1-.49,6Z"/><path class="cls-4" d="M990.27,156.65c-14.85,0-37.11-3.79-58.63-7.47-21-3.58-42.74-7.29-56.74-7.29-14.19,0-36,3.7-57.16,7.29-21.65,3.67-44,7.47-59.13,7.47-14.82,0-37-3.78-58.37-7.44-21.06-3.6-42.82-7.32-57-7.32h0c-15.33,0-40.54,4.12-64.92,8.1-21,3.43-40.79,6.66-51.35,6.66a3,3,0,0,1,0-6c10.07,0,29.65-3.2,50.38-6.58,24.62-4,50.07-8.18,65.89-8.18h0c14.68,0,36.7,3.76,58,7.4s43,7.36,57.36,7.36c14.58,0,36.72-3.75,58.13-7.39s43.47-7.37,58.16-7.37c14.5,0,36.49,3.75,57.75,7.38s43.28,7.38,57.62,7.38c13.94,0,35.71-3.68,56.77-7.25,5-.84,10-1.69,14.89-2.49a3,3,0,1,1,1,5.92c-4.91.8-9.89,1.65-14.86,2.49C1025.76,153.09,1004.71,156.65,990.27,156.65Z"/><path class="cls-4" d="M1221.92,184.34c-14.7,0-36.81-3.77-58.19-7.42-21.13-3.61-43-7.35-57.17-7.35-14.64,0-36.94,3.78-58.51,7.43-22.29,3.78-43.34,7.34-57.78,7.34-14.85,0-37.11-3.8-58.63-7.47-21-3.59-42.74-7.3-56.74-7.3a3,3,0,0,1,0-6c14.5,0,36.49,3.76,57.75,7.39s43.28,7.38,57.62,7.38c13.94,0,35.71-3.69,56.78-7.25,21.81-3.7,44.37-7.52,59.51-7.52,14.7,0,36.81,3.78,58.18,7.43,21.14,3.61,43,7.34,57.18,7.34a3,3,0,0,1,0,6Z"/><path class="cls-4" d="M758.61,184.34c-14.82,0-37-3.78-58.37-7.44-15.44-2.64-31.4-5.37-44.26-6.61a3,3,0,0,1,.58-6c13.08,1.26,29.15,4,44.69,6.66,21.17,3.62,43,7.36,57.36,7.36,13,0,32.06-3,48.92-5.83a3,3,0,0,1,1,5.92C791.42,181.29,772.05,184.34,758.61,184.34Z"/><path class="cls-4" d="M990.27,212c-14.85,0-37.11-3.8-58.63-7.47-16.55-2.83-33.66-5.75-46.9-6.84a3,3,0,1,1,.5-6c13.49,1.11,30.74,4.06,47.41,6.9,21.28,3.63,43.27,7.39,57.62,7.39,13.94,0,35.71-3.69,56.78-7.25,21.81-3.7,44.37-7.52,59.51-7.52,14.7,0,36.81,3.78,58.19,7.43,13.94,2.38,28.35,4.84,40.44,6.21a3,3,0,0,1-.67,6c-12.27-1.39-26.76-3.86-40.78-6.26-21.14-3.61-43-7.34-57.18-7.34-14.64,0-36.94,3.78-58.51,7.43C1025.76,208.46,1004.71,212,990.27,212Z"/><path class="cls-4" d="M758.61,212c-14.82,0-37-3.79-58.37-7.45-21.06-3.59-42.82-7.31-57-7.32h0c-15.33,0-40.54,4.12-64.92,8.1-21,3.43-40.79,6.67-51.35,6.67a3,3,0,0,1,0-6c10.07,0,29.65-3.2,50.38-6.59,24.62-4,50.07-8.18,65.89-8.18h0c14.68,0,36.7,3.77,58,7.41s43,7.36,57.36,7.36c11.78,0,28.6-2.5,43.49-4.94a3,3,0,1,1,1,5.93C787.18,209.62,770.79,212,758.61,212Z"/><path class="cls-4" d="M1152.27,230.31a2.72,2.72,0,0,1-.49-.05c-6.62-1.1-11.88-1.93-16.56-2.61a3,3,0,1,1,.86-5.94c4.73.69,10,1.53,16.68,2.64a3,3,0,0,1-.49,6Z"/><path class="cls-4" d="M990.27,239.72c-14.85,0-37.11-3.8-58.63-7.47-20.13-3.44-41-7-54.95-7.28a3,3,0,0,1,.06-6h.06c14.44.3,35.49,3.89,55.84,7.36,21.28,3.63,43.28,7.39,57.62,7.39,13.94,0,35.71-3.69,56.78-7.26,21.81-3.69,44.37-7.51,59.51-7.51,3,0,6.58.16,10.49.49a3,3,0,0,1-.49,6c-3.75-.31-7.11-.47-10-.47-14.64,0-36.94,3.78-58.51,7.43C1025.76,236.15,1004.71,239.72,990.27,239.72Z"/><path class="cls-4" d="M758.61,239.72c-14.82,0-37-3.79-58.37-7.45-21-3.6-42.82-7.32-57-7.32h0c-15.32,0-40.53,4.12-64.91,8.1-21,3.43-40.79,6.67-51.35,6.67a3,3,0,0,1,0-6c10.07,0,29.65-3.2,50.38-6.59,24.62-4,50.07-8.18,65.88-8.18h0c14.68,0,36.7,3.77,58,7.41s43,7.36,57.36,7.36c14.58,0,36.57-3.74,57.84-7.34a3,3,0,1,1,1,5.91C795.94,235.94,773.69,239.72,758.61,239.72Z"/><path class="cls-4" d="M990.27,267.4c-14.85,0-37.11-3.79-58.63-7.47-21-3.58-42.74-7.29-56.74-7.29-14.19,0-36,3.71-57.16,7.29-21.65,3.67-44,7.47-59.13,7.47-14.82,0-37-3.78-58.37-7.44-21-3.6-42.82-7.32-57-7.32h0c-15.32,0-40.53,4.12-64.91,8.1-21,3.43-40.79,6.66-51.35,6.66a3,3,0,0,1,0-6c10.07,0,29.65-3.19,50.38-6.58,24.62-4,50.07-8.18,65.88-8.18h0c14.68,0,36.7,3.77,58,7.41s43,7.35,57.36,7.35c14.58,0,36.72-3.75,58.13-7.38s43.47-7.38,58.16-7.38c14.5,0,36.49,3.75,57.75,7.38s43.27,7.38,57.62,7.38c13.94,0,35.71-3.68,56.78-7.25,21.81-3.69,44.37-7.51,59.51-7.51,14.7,0,36.81,3.77,58.2,7.43,6,1,12.25,2.09,18.2,3.05a3,3,0,1,1-1,5.92c-6-1-12.23-2-18.26-3.06-21.14-3.61-43-7.34-57.19-7.34-14.64,0-36.94,3.77-58.51,7.43C1025.76,263.84,1004.71,267.4,990.27,267.4Z"/><path class="cls-4" d="M760.46,101.28c-14.7,0-36.8-3.78-58.17-7.43l-9.13-1.55a3,3,0,0,1,1-5.91l9.15,1.55c21.12,3.61,43,7.34,57.16,7.34a3,3,0,0,1,0,6Z"/><path class="cls-4" d="M528.8,101.28c-14.85,0-37.1-3.8-58.62-7.47-21-3.59-42.75-7.3-56.74-7.3-14.19,0-36,3.71-57.16,7.29-21.65,3.68-44,7.48-59.13,7.48-14.82,0-37-3.79-58.37-7.45-8.11-1.38-16.48-2.81-24.31-4a3,3,0,1,1,.91-5.93c7.88,1.2,16.28,2.64,24.41,4,21.16,3.62,43,7.36,57.36,7.36,14.58,0,36.72-3.76,58.13-7.39s43.46-7.38,58.16-7.38c14.5,0,36.49,3.75,57.75,7.38s43.27,7.39,57.61,7.39c13.94,0,35.72-3.69,56.78-7.25,4.09-.7,8.2-1.39,12.26-2.06a3,3,0,0,1,1,5.92l-12.24,2C564.29,97.71,543.25,101.28,528.8,101.28Z"/><path class="cls-4" d="M75.47,100.66a3,3,0,0,1-.3-6c10.7-1.08,25.27-3.47,40.7-6,8.52-1.39,17.32-2.83,25.78-4.09a3,3,0,1,1,.89,5.93c-8.42,1.26-17.21,2.7-25.7,4.08-15.52,2.54-30.19,4.94-41.07,6Z"/><path class="cls-4" d="M528.8,129c-14.85,0-37.1-3.8-58.62-7.47-21-3.59-42.75-7.3-56.74-7.3-14.19,0-36,3.71-57.16,7.29-21.65,3.68-44,7.48-59.13,7.48-14.82,0-37-3.79-58.38-7.45l-.4-.07a3,3,0,0,1,1-5.91l.4.07C261,119.22,282.84,123,297.15,123c14.58,0,36.72-3.76,58.13-7.39s43.46-7.38,58.16-7.38c14.5,0,36.49,3.75,57.75,7.38S514.46,123,528.8,123c13.94,0,35.72-3.69,56.78-7.26,7.83-1.32,15.94-2.7,23.6-3.87a3,3,0,0,1,.91,5.93c-7.62,1.17-15.7,2.54-23.51,3.86C564.3,125.4,543.25,129,528.8,129Z"/><path class="cls-4" d="M85.23,127.17a3,3,0,0,1-.4-6c9.18-1.25,19.84-3,31.13-4.83l2.58-.42a3,3,0,1,1,1,5.92l-2.58.42c-11.32,1.85-22,3.6-31.28,4.85A2.83,2.83,0,0,1,85.23,127.17Z"/><path class="cls-4" d="M760.46,156.65c-14.7,0-36.81-3.77-58.19-7.42-21.13-3.61-43-7.34-57.18-7.34-14.63,0-36.93,3.77-58.51,7.43-22.28,3.77-43.33,7.33-57.78,7.33-14.85,0-37.1-3.79-58.62-7.47-21-3.58-42.75-7.29-56.74-7.29-14.19,0-36,3.7-57.16,7.29-21.65,3.67-44,7.47-59.13,7.47-13.69,0-32.6-3-55.89-7a3,3,0,1,1,1-5.91c23,3.93,41.66,6.93,54.88,6.93,14.58,0,36.72-3.75,58.13-7.39s43.46-7.37,58.16-7.37c14.5,0,36.49,3.75,57.75,7.38s43.27,7.38,57.61,7.38c13.94,0,35.72-3.68,56.78-7.25,21.82-3.69,44.38-7.51,59.51-7.51,14.71,0,36.81,3.77,58.19,7.42,21.13,3.61,43,7.34,57.18,7.34a3,3,0,0,1,0,6Z"/><path class="cls-4" d="M94.92,153.46a3,3,0,0,1-.45-6c6.77-1,14.19-2.24,21.36-3.42a3,3,0,1,1,1,5.93c-7.19,1.17-14.63,2.39-21.43,3.42A2.28,2.28,0,0,1,94.92,153.46Z"/><path class="cls-4" d="M528.8,184.34c-11.2,0-26.37-2.18-38.33-4.08a3,3,0,1,1,.94-5.93c11.74,1.87,26.61,4,37.39,4,13.94,0,35.72-3.69,56.78-7.25,17.49-3,35.58-6,49.74-7.1a3,3,0,1,1,.46,6c-13.89,1.06-31.84,4.1-49.2,7C564.3,180.78,543.25,184.34,528.8,184.34Z"/><path class="cls-4" d="M297.15,184.34c-14.82,0-37-3.78-58.38-7.44l-6.87-1.18a3,3,0,1,1,1-5.91l6.89,1.17c21.16,3.62,43,7.36,57.36,7.36,14.58,0,36.72-3.76,58.12-7.39,18.67-3.17,38-6.44,52.25-7.2a3,3,0,0,1,.32,6c-13.93.74-33.06,4-51.56,7.13C334.62,180.54,312.23,184.34,297.15,184.34Z"/><path class="cls-4" d="M104.56,179.63a3,3,0,0,1-.47-6l11.82-1.92,9.5-1.55a3,3,0,0,1,1,5.93l-9.49,1.54c-4,.66-8,1.31-11.84,1.92A2.59,2.59,0,0,1,104.56,179.63Z"/><path class="cls-4" d="M760.46,212c-14.7,0-36.81-3.78-58.19-7.43-21.13-3.61-43-7.34-57.18-7.34-14.63,0-36.93,3.78-58.51,7.43C564.3,208.46,543.25,212,528.8,212a172.38,172.38,0,0,1-20.43-1.52,3,3,0,1,1,.73-5.95A166.49,166.49,0,0,0,528.8,206c13.94,0,35.72-3.69,56.78-7.25,21.82-3.7,44.38-7.52,59.51-7.52,14.71,0,36.81,3.78,58.19,7.43,21.13,3.61,43,7.34,57.18,7.34a3,3,0,0,1,0,6Z"/><path class="cls-4" d="M297.15,212c-14.82,0-37-3.78-58.37-7.45-11.38-1.94-23.14-4-33.57-5.35a3,3,0,0,1,.8-5.95c10.53,1.42,22.35,3.44,33.78,5.39,21.16,3.62,43,7.36,57.36,7.36,14.58,0,36.72-3.76,58.12-7.39,8.06-1.37,16.38-2.78,24.18-4a3,3,0,0,1,.91,5.93c-7.75,1.18-16.05,2.59-24.08,4C334.62,208.23,312.23,212,297.15,212Z"/><path class="cls-4" d="M114.19,205.76a3,3,0,0,1-.48-6l2.18-.36c12.47-2,25.36-4.14,37.12-5.71a3,3,0,1,1,.79,6c-11.66,1.55-24.51,3.65-36.94,5.68l-2.19.36A2.59,2.59,0,0,1,114.19,205.76Z"/><path class="cls-4" d="M760.46,239.72c-14.7,0-36.81-3.78-58.19-7.43-21.13-3.61-43-7.34-57.18-7.34-14.63,0-36.93,3.78-58.51,7.43-22.28,3.77-43.33,7.34-57.78,7.34a162.67,162.67,0,0,1-18.51-1.29,3,3,0,0,1,.69-6,157.66,157.66,0,0,0,17.82,1.25c13.94,0,35.72-3.69,56.78-7.26C607.4,222.77,630,219,645.09,219c14.71,0,36.81,3.78,58.19,7.43,21.13,3.61,43,7.34,57.18,7.34a3,3,0,0,1,0,6Z"/><path class="cls-4" d="M297.15,239.72c-14.82,0-37-3.79-58.38-7.45-21.05-3.6-42.82-7.32-57-7.32h0c-13.86,0-36,3.4-57.47,6.89a3,3,0,0,1-1-5.92c21.72-3.53,44.13-7,58.43-7h0c14.67,0,36.7,3.77,58,7.41s43,7.36,57.36,7.36c14.58,0,36.71-3.76,58.12-7.39,6-1,12.11-2.06,18-3a3,3,0,1,1,1,5.92c-5.87.94-12,2-18,3C334.62,235.92,312.23,239.72,297.15,239.72Z"/><path class="cls-4" d="M760.46,267.4c-14.7,0-36.81-3.77-58.19-7.42-21.13-3.61-43-7.34-57.18-7.34-14.63,0-36.93,3.77-58.51,7.43-22.28,3.77-43.33,7.33-57.78,7.33-7,0-15.89-.8-28-2.52a3,3,0,1,1,.84-5.94c11.66,1.66,20.55,2.46,27.16,2.46,13.94,0,35.72-3.68,56.78-7.25,21.82-3.69,44.38-7.51,59.51-7.51,14.71,0,36.81,3.77,58.19,7.42,21.13,3.61,43,7.34,57.18,7.34a3,3,0,0,1,0,6Z"/><path class="cls-4" d="M297.15,267.4c-13.46,0-32.31-3-52.08-6.37a3,3,0,1,1,1-5.91c18.73,3.18,38.1,6.28,51.08,6.28,14.58,0,36.72-3.75,58.13-7.39,7.83-1.32,15.92-2.7,23.53-3.87a3,3,0,0,1,.91,5.93c-7.56,1.17-15.63,2.53-23.44,3.86C334.63,263.6,312.24,267.4,297.15,267.4Z"/><path class="cls-4" d="M133.44,258a3,3,0,0,1-.46-6c17-2.68,36.1-5.42,48.78-5.42h0c11.92,0,28.25,2.43,44.12,5.06a3,3,0,0,1-1,5.92c-15.62-2.59-31.66-5-43.15-5h0c-12.26,0-31.07,2.7-47.85,5.35A3.71,3.71,0,0,1,133.44,258Z"/><path class="cls-3" d="M843.52,241.56A44.54,44.54,0,1,1,888.05,197,44.58,44.58,0,0,1,843.52,241.56Zm0-83.06a38.51,38.51,0,1,0,26.2,10.27A38.31,38.31,0,0,0,843.52,158.5Z"/><path class="cls-3" d="M646,134.5a51,51,0,1,1,51-51A51.05,51.05,0,0,1,646,134.5Zm0-96a45,45,0,1,0,45,45A45,45,0,0,0,646,38.52Z"/><path class="cls-3" d="M179,205.11a66.22,66.22,0,1,1,66.22-66.22A66.29,66.29,0,0,1,179,205.11Zm0-126.44a60.22,60.22,0,1,0,60.22,60.22A60.28,60.28,0,0,0,179,78.67Z"/><path class="cls-3" d="M1078,160.35a18.69,18.69,0,1,1,18.69-18.69A18.71,18.71,0,0,1,1078,160.35Zm0-31.38a12.69,12.69,0,1,0,12.69,12.69A12.7,12.7,0,0,0,1078,129Z"/><path class="cls-4" d="M417,293.23H4a3,3,0,0,1,0-6H417a3,3,0,0,1,0,6Z"/><path class="cls-4" d="M750.94,398.44a3,3,0,0,1-2.87-3.89c.52-1.69,1.87-6.64,1.87-9.26s-1.35-7.59-1.87-9.25a3,3,0,0,1,.45-2.67,3,3,0,0,1,2.42-1.22H885.48a12.13,12.13,0,0,1,12.12,12.12v2.05a12.13,12.13,0,0,1-12.12,12.11,3,3,0,0,1,0-6,6.12,6.12,0,0,0,6.12-6.11v-2.05a6.13,6.13,0,0,0-6.12-6.12H754.87a34,34,0,0,1,1.07,7.14c0,4-1.92,10.32-2.13,11A3,3,0,0,1,750.94,398.44Z"/><path class="cls-4" d="M905.76,378.15H771.27a3,3,0,0,1-2.41-1.21,3,3,0,0,1-.46-2.66c.52-1.72,1.87-6.8,1.87-9.65a39.46,39.46,0,0,0-1.86-9.6,3,3,0,0,1,2.86-3.92H905.76a13.52,13.52,0,0,1,0,27Zm-130.59-6H905.76a7.52,7.52,0,0,0,0-15H775.2a26.6,26.6,0,0,1,0,15Z"/><path class="cls-4" d="M531.06,398.43h-21a3,3,0,0,1-3-3V323.35a3,3,0,0,1,3-3h55.37a3,3,0,0,1,3,3v42.49a3,3,0,0,1-6,0V326.35H513.09v66.08h18a3,3,0,0,1,0,6Z"/><path class="cls-4" d="M523.06,326.34a3,3,0,0,1-3-2.77l-1-12.74a3,3,0,0,1,6-.47l1,12.74a3,3,0,0,1-2.75,3.23Z"/><path class="cls-4" d="M513.88,326.26a3,3,0,0,1-3-2.59l-2.19-15.81a3,3,0,1,1,5.94-.83l2.19,15.81a3,3,0,0,1-2.56,3.39Z"/><path class="cls-4" d="M532.43,326.35a3,3,0,0,1-3-3V297.84a3,3,0,0,1,6,0v25.51A3,3,0,0,1,532.43,326.35Z"/><path class="cls-4" d="M542.43,326.35a3,3,0,0,1-3-3V302.23a3,3,0,0,1,6,0v21.12A3,3,0,0,1,542.43,326.35Z"/><path class="cls-4" d="M551.81,326.34h-.18a3,3,0,0,1-2.82-3.17l.94-15.82a3,3,0,1,1,6,.36l-.93,15.81A3,3,0,0,1,551.81,326.34Z"/><path class="cls-4" d="M561.35,326.3a1.67,1.67,0,0,1-.31,0,3,3,0,0,1-2.67-3.29l2.15-21a3,3,0,1,1,6,.61l-2.16,21A3,3,0,0,1,561.35,326.3Z"/><path class="cls-4" d="M607.27,398.43H552.09a8.33,8.33,0,0,1-8.32-8.32v-7.54a19.75,19.75,0,0,1,19.73-19.73h32.36a19.76,19.76,0,0,1,19.74,19.73v7.54A8.33,8.33,0,0,1,607.27,398.43ZM563.5,368.84a13.75,13.75,0,0,0-13.73,13.73v7.54a2.32,2.32,0,0,0,2.32,2.32h55.18a2.33,2.33,0,0,0,2.33-2.32v-7.54a13.75,13.75,0,0,0-13.74-13.73Z"/><path class="cls-3" d="M442.51,297.86a71.76,71.76,0,1,1,71.76-71.76A71.84,71.84,0,0,1,442.51,297.86Zm0-137.51a65.76,65.76,0,1,0,65.76,65.75A65.83,65.83,0,0,0,442.51,160.35Z"/></g></g></svg>