<svg xmlns="http://www.w3.org/2000/svg" viewBox="0 0 998.78 1064.53"><defs><style>.cls-1{fill:#e2e6e9}.cls-2{fill:#f5f7f8}.cls-3{fill:#d0d5da}.cls-15,.cls-4{fill:none;stroke:#c5cdd0}.cls-4{stroke-miterlimit:10;stroke-width:8px}.cls-5{fill:#97a4ac}.cls-6{fill:#e6eaed}.cls-7{fill:#dee2e5}.cls-8{fill:#e8e9ea}.cls-9{fill:#c5cdd0}.cls-14{fill:#d0d5d9}.cls-15{stroke-linecap:round;stroke-linejoin:round;stroke-width:2px}</style></defs><g><g><rect width="201.05" height="154.62" x="9.47" y="730.8" class="cls-1" rx="10.37"/><rect width="220" height="22" y="724.63" class="cls-1" rx="10.1"/><rect width="62.66" height="62.66" x="68.67" y="777.48" class="cls-2" rx="7.19"/><path d="M90.5 784.93a3.08 3.08 0 013.08 3.07v11.3a3.08 3.08 0 01-3.08 3.08H79.2a3.08 3.08 0 01-3.08-3.08V788a3.08 3.08 0 013.08-3.08h11.3m0-3.08H79.2A6.16 6.16 0 0073 788v11.3a6.16 6.16 0 006.16 6.16H90.5a6.16 6.16 0 006.16-6.16V788a6.16 6.16 0 00-6.16-6.16zM120.8 784.93a3.08 3.08 0 013.08 3.08v11.3a3.08 3.08 0 01-3.08 3.08h-11.3a3.08 3.08 0 01-3.08-3.08V788a3.08 3.08 0 013.08-3.08h11.3m0-3.08h-11.3a6.16 6.16 0 00-6.16 6.16v11.3a6.16 6.16 0 006.16 6.16h11.3a6.16 6.16 0 006.16-6.16V788a6.16 6.16 0 00-6.16-6.16zM90.5 815.23a3.09 3.09 0 013.08 3.08v11.3a3.09 3.09 0 01-3.08 3.09H79.2a3.09 3.09 0 01-3.08-3.09v-11.3a3.09 3.09 0 013.08-3.08h11.3m0-3.08H79.2a6.16 6.16 0 00-6.2 6.16v11.3a6.16 6.16 0 006.16 6.17H90.5a6.16 6.16 0 006.16-6.17v-11.3a6.16 6.16 0 00-6.16-6.16z" class="cls-3"/><rect width="10.27" height="10.27" x="79.71" y="788.53" class="cls-3" rx="2.05"/><rect width="10.27" height="10.27" x="79.71" y="818.83" class="cls-3" rx="2.05"/><rect width="6.16" height="6.16" x="103.34" y="812.15" class="cls-3" rx="2.05"/><rect width="6.16" height="6.16" x="120.8" y="812.15" class="cls-3" rx="2.05"/><rect width="6.16" height="6.16" x="112.07" y="820.88" class="cls-3" rx="2.05"/><rect width="6.16" height="6.16" x="120.8" y="829.61" class="cls-3" rx="2.05"/><rect width="6.16" height="6.16" x="103.34" y="829.61" class="cls-3" rx="2.05"/><rect width="10.27" height="10.27" x="110.02" y="788.53" class="cls-3" rx="2.05"/><path d="M800.73 702.58c11.22 3.36 19.93-6.24 19.62-21v-.91c3.71 0 9.08-.57 17-1.91 23.64-4 94.1-8.71 120.81-11.76 10.59-1.21 19.35-1.59 25.82-3.06-20.2 86.86-106.64 113.42-169.33 117.48-20.68 1.34-74.41-1.7-84.26-2.66C711 776.88 694 777 692.76 771.1c-4-19.46 48.45-4.5 49-9.23.3-2.78-3.72-4.14-3.83-11-.08-5.08 3.35-5.77 3.23-10.31-.09-3.09-4.87-5.72-5-11.21-.1-7.12 3.5-6.48 3.66-10.15.46-10.58-63.36-18.15-61.18-31.77 4-24.85 69.3 36.3 82.52 20.44 17.01-20.4 24.53-9.79 39.57-5.29z" class="cls-4"/><path d="M779.43 436.38l-.32 193.32c-23.62 94.3 29.64 96.3 64.79 85.51C936.15 687 969.32 584 986.43 585.29c-16.11-108.29-105.37-129.18-207-148.91z" class="cls-5"/><rect width="532.46" height="683.01" x="114.92" y="243.74" class="cls-6" rx="50.97" transform="rotate(-13.43 381.27016897 585.36851148)"/><rect width="446.03" height="143.17" x="105.8" y="294.53" class="cls-2" rx="32.09" transform="rotate(-13.43 328.9275263 366.20915983)"/><rect width="135.67" height="108.53" x="156.09" y="540.69" class="cls-7" rx="36.66" transform="rotate(-13.43 224.00475173 595.0968771)"/><rect width="135.67" height="108.53" x="305.64" y="504.97" class="cls-7" rx="36.66" transform="rotate(-13.43 373.6108808 559.36523839)"/><rect width="135.67" height="108.53" x="455.19" y="469.25" class="cls-7" rx="36.66" transform="rotate(-13.43 523.17454286 523.62859968)"/><rect width="135.67" height="108.53" x="187.61" y="672.64" class="cls-7" rx="36.66" transform="rotate(-13.43 255.5262054 727.07113191)"/><rect width="135.67" height="108.53" x="337.16" y="636.92" class="cls-7" rx="36.66" transform="rotate(-13.43 405.13233448 691.3394932)"/><rect width="135.67" height="108.53" x="486.7" y="601.2" class="cls-7" rx="36.66" transform="matrix(.97 -.23 .23 .97 -137.1 146.76)"/><rect width="135.67" height="108.53" x="219.13" y="804.59" class="cls-7" rx="36.66" transform="rotate(-13.43 287.04265909 859.08785375)"/><rect width="135.67" height="108.53" x="368.68" y="768.87" class="cls-7" rx="36.66" transform="rotate(-13.43 436.64878816 823.35621504)"/><rect width="135.67" height="108.53" x="518.22" y="733.15" class="cls-7" rx="36.66" transform="rotate(-13.43 586.25491724 787.62457633)"/><path d="M59.53 199.15H340c-8.85-23.51-33.21-40.41-61.89-40.41a70.3 70.3 0 00-27.77 5.66c-4.13-17.22-24-30.28-47.84-30.28-26.85 0-48.63 16.54-48.63 36.94 0 .79 0 1.57.1 2.35-10.05-6-22.93-9.61-37-9.61-28.89 0-52.88 15.29-57.44 35.35z" class="cls-7"/><path d="M912.38 124.47H455.64c14.41-45 54.09-77.34 100.79-77.34A99.89 99.89 0 01601.66 58c6.72-33 39.05-58 77.9-58 43.74 0 79.2 31.65 79.2 70.7 0 1.51-.07 3-.17 4.5 16.41-11.5 37.35-18.4 60.22-18.4 47.08 0 86.19 29.28 93.57 67.67z" class="cls-6"/><path d="M543.56 670.54c-30.8-3.11-72.79-6.23-92-8.47-10.59-1.23-19.36-1.63-25.83-3.11 13.69 59.41 58.4 90.71 105.35 105.9 21.68 7.02 24.39-93.12 12.48-94.32z" class="cls-4"/><path d="M543.56 670.54c-30.8-3.11-72.79-6.23-92-8.47-10.59-1.23-19.36-1.63-25.83-3.11 13.69 59.41 58.4 90.71 105.35 105.9 21.68 7.02 24.39-93.12 12.48-94.32z" class="cls-8"/><path d="M497.34 664.69c-7.85 7.5-7.58 20.69-7.1 24.6l-15.17-6.58c-.24-2.71.49-14.21 6-18l-2.13-.33c-5.4 3.75-6.09 14.05-5.89 17.3l-11.35-6.18c-.82-2.1-.49-8.79 2.68-12.82l-1.95-.29c-2.4 3.29-3.26 8.52-3.21 11.87l-11-6c-1.07-3.5-.58-6.13 2.36-7.95l-2-.28c-3 1.05-3.3 4.35-3 6.94 0 0-23.91-12.12-25.35-12.69.28.92 18.13 21.23 18.13 21.23a23.28 23.28 0 00-8.47 2.68c.27.59.54 1.19.82 1.78a22.08 22.08 0 019.59-2.64l8.52 8.11c-4.4.37-11.1 2.33-13.28 4.47.35.59.68 1.18 1 1.77 3.6-3 11.12-4.24 14.17-4.42L460 696c-5.52.91-13.16 4.69-16 7.94.4.53.79 1.06 1.19 1.58h.07c3-3.52 10.64-7.31 16.57-7.72l12.81 12a34.06 34.06 0 00-20.11 11.09l1.39 1.37c4.78-5.3 13.28-9.24 21.36-10.62a.33.33 0 00.1-.06.29.29 0 00.1 0s.06 0 .09-.06l.09-.08a.65.65 0 00.15-.18s.05-.05.06-.09a1.15 1.15 0 00.11-.31 1 1 0 000-.3c-1.06-5.28 5.8-15.86 14-18.62a1 1 0 00.42-.55.3.3 0 000-.1.86.86 0 000-.39c-.11-.54-2.49-17.33 7.06-25.77zm-57 9.95l-13-14.88 18.34 9.41c-2.86.62-4.88 4.37-5.35 5.47zm10.17 9.67l-8.64-8.22c.54-1.49 2.57-5.85 5.85-5.84h.07l10.43 5.75c-4.69 1.2-7.22 6.89-7.72 8.31zm11.39 10.82l-9.77-9.29c.09-.87 3.08-8.07 8.58-8.64l12 6.48c-3.98 1.04-8.08 5.9-10.82 11.45zm14 13.15l-12.53-11.74c3.5-7.44 8.57-11.23 11.25-11.76 0 0 .06 0 .1-.06l14.76 6.38c-7.77 2.99-13.21 11.98-13.57 17.18zM572.45 742.67a1 1 0 00-1-.65 56.73 56.73 0 01-10.67 0c6.3-3.1 10.59-10.43 10.79-10.77a1 1 0 00-1.45-1.26 18.69 18.69 0 01-7.52 4c2.17-3.65 3-7 2.34-9.81-1.82-7.83-8.35-11.23-13.88-11.8-5.84-.6-11.25 1.7-14.12 5.84-3-6.56-8.72-11.28-14.9-12.24h-.17a13.71 13.71 0 00-13.17 5.53 14.77 14.77 0 00-2.87 9.26c-10.19 4.55-16 15.29-16.12 15.44a1 1 0 001.59 1.11 21.75 21.75 0 0112-6.72c-5 5.24-3.87 14.6-3.8 15.07a1 1 0 00.82.83 1 1 0 001-.64 13.15 13.15 0 0110-8.91 58.3 58.3 0 0019.15 17.78 2.85 2.85 0 001.11.39 3.62 3.62 0 001 0c3.91-.4 9-2.52 14.26-5.95.77.24 1.53.45 2.26.63 10 2.4 22.33-5.7 22.86-6a1 1 0 00.49-1.13zm-62.22-29.94a11.86 11.86 0 0111.5-4.78c6.07.95 11.62 6 14.14 12.86a1 1 0 001.8.07c2.4-5.19 8.35-7 13.18-6.51s10.59 3.47 12.18 10.3c.6 2.62-.43 6-3 9.71-2.91.13-6.27-.51-10.83-1.69-5.47-1.42-10.59-4.31-15.55-7.11-4.45-2.52-8.66-4.9-12.79-6a22 22 0 00-13.09.44 12.59 12.59 0 012.46-7.29zm22.26 40.5a1.39 1.39 0 01-1-.13 56.77 56.77 0 01-18-16.41 18 18 0 016 .51c2.3.64 6.09 2.5 10.47 4.65a154.32 154.32 0 0014.56 6.56c-4.46 2.74-8.79 4.49-12.03 4.82zm17.17-5.23c-5.53-1.33-12.57-4.79-18.79-7.85-4.47-2.2-8.34-4.1-10.81-4.78-4.7-1.28-13.87-1.31-18.76 6.26.19-3.79 1.32-9.31 6-11.46a1 1 0 00-.27-1.85h-.12a24.25 24.25 0 00-11.58 3.28c4.71-5.67 13.44-13.16 25-10.07 3.88 1 8 3.35 12.33 5.81 5.06 2.86 10.3 5.82 16 7.3 5 1.29 8.66 2 11.91 1.73h.09a15.52 15.52 0 006-1.72c-2.19 2.59-5.39 5.58-9.06 6.56a1 1 0 00-.63.53 1.17 1.17 0 00.11 1.18c.91 1.3 6.08 1.46 10.25 1.34-4.17 2.14-11.58 5.15-17.67 3.74zM547.92 696.82l6.08-2.22a1 1 0 00.58-1.26 1 1 0 00-1.25-.57l-5.65 2.07.91-7.33a1 1 0 00-1.94-.24l-.93 7.55-5.79-2.92a1 1 0 00-.88 1.74l5.62 2.83-4.38 3.26a1 1 0 00-.2 1.37 1 1 0 00.45.33 1 1 0 00.92-.13l4.77-3.56 3.32 5.63a1 1 0 00.51.42 1 1 0 00.83-.08 1 1 0 00.34-1.34zM476.42 732.22l6.06-2.22a1 1 0 00-.68-1.84l-5.65 2.08.91-7.34a1 1 0 00-1.93-.24l-.94 7.56-5.79-2.92a1 1 0 10-.88 1.74l5.62 2.83-4.38 3.26a1 1 0 00-.2 1.37.94.94 0 00.46.33 1 1 0 00.91-.13l4.77-3.56 3.33 5.63a1 1 0 00.51.42 1 1 0 00.82-.08 1 1 0 00.35-1.34zM539.02 693.64l5.62 2.83M510 700.32l-5.8-2.32 4.08-3.63a1 1 0 10-1.3-1.45l-4.44 4-3.81-5.31a1 1 0 00-1.36-.23 1 1 0 00-.23 1.37l3.76 5.24-5.84 2.75a1 1 0 00-.46 1.29 1 1 0 001.29.47l5.45-2.56-.26 7.39a1 1 0 00.64 1 1.33 1.33 0 00.3.06 1 1 0 001-.94l.27-7.61 6 2.4a1 1 0 00.68-1.83zM599.27 742.5l-5.85-2.33 4.08-3.63a1 1 0 10-1.3-1.45l-4.44 3.91-3.76-5.27a1 1 0 00-1.58 1.14l3.75 5.24-5.83 2.75a1 1 0 00-.47 1.3 1 1 0 00.55.5 1 1 0 00.75 0l5.44-2.56-.26 7.39a1 1 0 00.64.95.77.77 0 00.3.06 1 1 0 001-.94l.27-7.61 6 2.4a1 1 0 00.69-1.83zM561.17 771.63l-6.25-4.35 5.27-3.76a1 1 0 00-1.13-1.59l-5.12 3.65-.85-5.39a1 1 0 00-1.93.3l.93 5.88-6.53.32a1 1 0 10.1 1.95l6.44-.32-.85 6.4a1 1 0 00.64 1 .73.73 0 00.2 0 1 1 0 001.1-.84l.79-6 6.07 4.22a1 1 0 00.23.12 1 1 0 001.13-.36 1 1 0 00-.24-1.23zM520.39 690.1h-.26a1 1 0 01-.72-.77L517 677.09l-11.45-4.9a1 1 0 01-.09-1.79l10.85-6.11 1.12-12.4a1 1 0 01.64-.84 1 1 0 011 .19l9.17 8.44 12.14-2.77a1 1 0 011.13 1.39l-5.19 11.32 6.39 10.7a1 1 0 010 1 1 1 0 01-1 .45l-12.37-1.44-8.2 9.38a1 1 0 01-.75.39zm-12.24-19l10.08 4.31a1 1 0 01.58.72l2.19 10.79 7.21-8.25a1 1 0 01.87-.33l10.88 1.26-5.61-9.4a1 1 0 01-.06-.93l4.57-10-10.68 2.43a1 1 0 01-.9-.24l-8.06-7.41-1 10.9a1 1 0 01-.51.79zM598 693.34a1.8 1.8 0 00-.08-.21.61.61 0 00-.07-.14.75.75 0 00-.15-.16.63.63 0 00-.12-.11.53.53 0 00-.17-.08.62.62 0 00-.19-.07.76.76 0 00-.15 0 .92.92 0 00-.16 0 .76.76 0 00-.16.06 1.21 1.21 0 00-.2.09l-.11.11a1.14 1.14 0 00-.15.16 1 1 0 00-.07.15 1.31 1.31 0 00-.08.21c-.21 1.3-1.16 2.12-2.26 3.07a7.48 7.48 0 00-2.89 4 1 1 0 00.76 1.2h.21a1 1 0 001-.79 5.74 5.74 0 012.25-2.94c.38-.33.77-.67 1.15-1a17.28 17.28 0 01-8.31 14.11l-11.17-20.5 4.6-2.5a1 1 0 10-1-1.76l-4.6 2.51-2.44-4.5a5.47 5.47 0 001.35-6.83 5.46 5.46 0 00-9.59 5.22 5.49 5.49 0 004.81 2.85 5.37 5.37 0 001.67-.28l2.45 4.49-4.6 2.51a1 1 0 00.48 1.88 1 1 0 00.48-.13l4.59-2.5L586.29 712a17.29 17.29 0 01-16.29-.84c.52-.11 1-.26 1.5-.4 1.34-.39 2.51-.74 3.69-.29a1 1 0 00.7-1.88 7.57 7.57 0 00-5 .25c-1.39.41-2.59.76-3.8.23h-.19a1.38 1.38 0 00-.2 0h-.16a.8.8 0 00-.21 0 1.1 1.1 0 00-.14.09l-.18.13-.08.13a.6.6 0 00-.09.13.71.71 0 000 .2 1.13 1.13 0 000 .18 1.08 1.08 0 000 .19v.18a.54.54 0 00.1.16 1.67 1.67 0 00.12.16A19.26 19.26 0 00598 693.34zm-31-11.63a3.45 3.45 0 013-5.11 3.63 3.63 0 011 .14 3.43 3.43 0 012.06 1.67 3.47 3.47 0 01-1.38 4.69 3.46 3.46 0 01-4.68-1.39z" class="cls-9"/><path fill="#b4bdc2" d="M816.17 828.1a44 44 0 01-1.08 13 11.08 11.08 0 00-.55 4.14c.42 3.07 2.37 5.06 4 7.69 3.87 6.26-.34 14.27-.21 21.63.11 6.39 3.58 12.27 4.34 18.61 1.12 9.32-3.67 18.48-3.2 27.85.35 6.81 3.46 13.64 1.76 20.24-.72 2.76-2.23 5.25-3.05 8-1.09 3.63.1 7.51.3 11.31l.73 13.77c.3 5.51.53 11.32-2 16.25-3.12 6.14-9.9 9.62-16.63 11.09s-13.71 1.34-20.51 2.45c-6 1-11.9 2.91-18 2.87-7 0-13.78-2.73-20.32-5.38l-24.19-9.81a4.56 4.56 0 01-3.61-4.72L711.8 969c-1.5-12.33 4.73-20.37 6.79-32.62.95-5.62-5.09-15.75-5.76-21.41-.71-6-4.05-11.54-4.68-17.59-.78-7.42 2.6-14.58 3.81-22 2.74-16.6-5.58-33.89-1.29-50.15 1.67-6.35 5.22-12.26 5.55-18.82.47-9.24-5.59-18.18-3.91-27.28 1.73-9.47 11.46-15.62 21-17.06s19.16.64 28.76 1.36c5.81.44 11.72.39 17.38 1.79 15.13 3.74 30.2 21 30.58 24"/><path fill="#dfe3e6" d="M823.91 1042.31v5a7.18 7.18 0 01-7.18 7.17h-96.89a7.17 7.17 0 01-7.18-7.17v-7.11a7.16 7.16 0 012.92-5.78 7.09 7.09 0 014.26-1.4h96.89a7.06 7.06 0 014.25 1.4 7.14 7.14 0 012.93 5.78z"/><path fill="#d7dbdb" d="M822.93 1001.23v16.89a7.29 7.29 0 01-5.1 7 30.81 30.81 0 00-27.67-17.24h-43.75a30.83 30.83 0 00-27.82 17.55 7.29 7.29 0 01-6.9-7.28v-26.42a7.28 7.28 0 013.55-6.25 7.17 7.17 0 013.74-1h96.67a7.15 7.15 0 013.07.68 7.28 7.28 0 014.22 6.61z"/><path d="M821 1032.68v1.79a7.06 7.06 0 00-4.25-1.4h-96.91a7.09 7.09 0 00-4.26 1.4v-1.79a30.84 30.84 0 0130.83-30.83h43.74a30.84 30.84 0 0130.85 30.83zM631.91 431.38V624.7c14.18 12.83 8.81 22.34 10.27 39.13 1.2 13.48-17 23.48-34.66 27.55-5.79 1.35-19.52-1-17.57-13.65v-.91c5.42 0 7.33-1.39 8.39-3.64 1.72-3.67-3.73-8.28-1.07-14.3a10 10 0 011-1.74c5.51-8 10.19-16.39-24.94-27.22-92.2-28.41-131.51-51.2-148.62-50C441 471.67 530.25 450.94 631.91 431.38z" class="cls-5"/><path d="M780.61 313.91v4.88A27.3 27.3 0 01766 343c-.23.13-.48.24-.71.36l-.73.34a7 7 0 01-.75.32c-.26.12-.53.22-.8.33l-.71.25c-.57.2-1.16.39-1.76.55l-.59.15-.8.19c-.25.06-.51.1-.76.15s-.76.14-1.14.2l-.86.11h-.53c-.38 0-.76.06-1.14.08s-.94 0-1.41 0h-97.62c-.85 0-1.7 0-2.54-.12-.18 0-.34 0-.52-.05s-.57-.06-.85-.11l-.51-.08q-.59-.09-1.17-.21c-.28-.06-.55-.12-.83-.2s-.49-.11-.74-.18-.57-.16-.86-.25l-.22-.07c-.36-.1-.71-.23-1.08-.36l-.33-.12c-.3-.11-.6-.24-.9-.37s-.78-.33-1.16-.5a27.63 27.63 0 01-7.61-5.38 27.32 27.32 0 0119.32-46.63h54.65A13.66 13.66 0 00724 277.81v-11.7a28.3 28.3 0 0156.6 0v47.8z" class="cls-9"/><path fill="#e7e8ea" d="M766 343v38a10.65 10.65 0 00-1-.39 30 30 0 00-2.13-.64c-.36-.1-.72-.17-1.1-.24a11.94 11.94 0 00-1.22-.21c-.69-.1-1.39-.17-2.11-.21h-1.2a23.42 23.42 0 00-23.42 23.41v13.66a29.28 29.28 0 01-58.56 0v-13.7a23.42 23.42 0 00-23.42-23.41h-1.14l-1 .07-.64.07-.56.06-.61.1h-.23a5.5 5.5 0 00-.77.15l-.29.06a4.86 4.86 0 00-.73.18 19.27 19.27 0 00-1.87.57v-37.05c.38.17.76.35 1.16.5s.6.26.9.37l.33.12q.54.19 1.08.36l.22.07c.29.09.57.18.86.25s.49.13.74.18.55.14.83.2.78.15 1.17.21l.51.08c.28.05.57.08.85.11s.34 0 .52.05c.84.08 1.69.12 2.54.12h99c.41 0 .76 0 1.14-.08h.53l.86-.11c.38-.06.76-.12 1.14-.2a6.38 6.38 0 00.76-.15l.8-.19.59-.15c.6-.16 1.19-.35 1.76-.55a7.41 7.41 0 00.71-.25c.27-.11.54-.21.8-.33a7 7 0 00.75-.32c.24-.11.48-.21.73-.34s.46-.32.72-.43z"/><path d="M591.92 676.9c15.6 46.12-7.78 117.74-8 141.38-.17 16.11 19 .2 45.77-4.61 27.33-4.92 85-21.49 144.49 2.38 42.71 17.14 48.68 39.16 42.92-28.38-3.63-42.57-7.41-124.14-7.41-124.14l-214.56-13.71z" class="cls-5"/><path d="M766 381l-1-.39c-.36-.13-.71-.24-1.06-.34s-.71-.21-1.07-.3-.72-.17-1.1-.24a11.94 11.94 0 00-1.22-.21c-.69-.1-1.4-.17-2.11-.21h-1.2a23.42 23.42 0 00-23.42 23.41v13.66a29.28 29.28 0 01-58.56 0v-13.7a23.42 23.42 0 00-23.42-23.41h-1.14l-1 .07-.64.07-.56.06-.61.1h-.23l-.77.15-.29.06c-.24.05-.49.11-.73.18-.64.17-1.26.36-1.87.58a23.36 23.36 0 00-15 17 22.59 22.59 0 00-.57 5.1V649.49c0 1.3 0 2.59.1 3.87a2.83 2.83 0 000 .29c.06 1.08.13 2.16.23 3.23a76.72 76.72 0 001.19 7.92 75.71 75.71 0 0010.85 26.4 76.53 76.53 0 0018.11 19.23l.08.06q2.87 2.14 5.93 4l.17.11q1.51.92 3.09 1.77h.09c1 .56 2.07 1.09 3.13 1.6l.13.07c1 .5 2.1 1 3.17 1.43l.39.16q3.17 1.34 6.48 2.38l.55.17c1.09.33 2.18.65 3.29.93l.22.06c1 .26 2.1.5 3.15.73l.6.12c1.09.22 2.2.42 3.31.59l.6.09c1 .15 2 .28 3.08.39l.47.05c1.12.11 2.25.2 3.39.26h.76c1.16 0 2.33.09 3.5.09 1.18 0 2.36 0 3.53-.09h.66c1.15-.07 2.3-.15 3.43-.26l.45-.05c1.17-.13 2.33-.27 3.47-.45h.07c1.19-.19 2.38-.4 3.56-.64h.34c1.08-.22 2.15-.46 3.22-.73a73.53 73.53 0 007.38-2.27h.14c2.26-.83 4.46-1.77 6.61-2.8l.23-.11c.89-.43 1.78-.87 2.65-1.33a76.09 76.09 0 0040.39-67.21V402.68A23.39 23.39 0 00766 381z" class="cls-9"/><path d="M800.73 702.58c11.22 3.36 19.93-6.24 19.62-21v-.91c3.71 0 9.08-.57 17-1.91 23.64-4 94.1-8.71 120.81-11.76 10.59-1.21 19.35-1.59 25.82-3.06-20.2 86.86-106.64 113.42-169.33 117.48-20.68 1.34-74.41-1.7-84.26-2.66C711 776.88 694 777 692.76 771.1c-4-19.46 48.45-4.5 49-9.23.3-2.78-3.72-4.14-3.83-11-.08-5.08 3.35-5.77 3.23-10.31-.09-3.09-4.87-5.72-5-11.21-.1-7.12 3.5-6.48 3.66-10.15.46-10.58-63.36-18.15-61.18-31.77 4-24.85 69.3 36.3 82.52 20.44 17.01-20.4 24.53-9.79 39.57-5.29z" class="cls-8"/><path d="M413 593.18c-3.33 16.56 6 16.86 1.26 45.41-2.35 14.15 2.22 18.95 12.07 21.21 6.47 1.49 15.24 1.88 25.82 3.11 26.7 3.09 97.15 7.87 120.79 12 7.88 1.35 13.25 2 17 1.94 5.42 0 7.33-1.39 8.39-3.64 1.72-3.67-3.73-8.28-1.07-14.3a10 10 0 011-1.74c5.51-8 10.19-16.39-24.94-27.22-92.2-28.41-131.51-51.2-148.62-50-6.63.47-9.93 4.52-11.7 13.23z" class="cls-9"/><path d="M372.37 1017.13H137.91a16.6 16.6 0 01-16.58-15.78l-11.18-228.26h290L389 1001.35a16.59 16.59 0 01-16.63 15.78z" class="cls-14"/><rect width="312.51" height="35.56" x="98.88" y="757.68" class="cls-14" rx="11.85"/><rect width="80.76" height="80.76" x="212.99" y="852.71" class="cls-2" rx="9.27"/><path d="M241.12 862.31a4 4 0 014 4v14.56a4 4 0 01-4 4h-14.56a4 4 0 01-4-4v-14.59a4 4 0 014-4h14.56m0-4h-14.56a8 8 0 00-7.95 7.95v14.56a7.94 7.94 0 007.95 7.94h14.56a7.93 7.93 0 007.94-7.94v-14.51a7.94 7.94 0 00-7.94-7.95zM280.17 862.31a4 4 0 014 4v14.56a4 4 0 01-4 4h-14.56a4 4 0 01-4-4v-14.59a4 4 0 014-4h14.56m0-4h-14.56a7.94 7.94 0 00-7.94 7.95v14.56a7.93 7.93 0 007.94 7.94h14.56a7.94 7.94 0 007.95-7.94v-14.51a8 8 0 00-7.95-7.95zM241.12 901.36a4 4 0 014 4v14.54a4 4 0 01-4 4h-14.56a4 4 0 01-4-4v-14.57a4 4 0 014-4h14.56m0-4h-14.56a8 8 0 00-7.95 7.94v14.63a8 8 0 007.95 7.94h14.56a7.94 7.94 0 007.94-7.94v-14.57a7.94 7.94 0 00-7.94-7.94z" class="cls-3"/><rect width="13.24" height="13.24" x="227.22" y="866.94" class="cls-3" rx="2.65"/><rect width="13.24" height="13.24" x="227.22" y="905.99" class="cls-3" rx="2.65"/><rect width="7.94" height="7.94" x="257.67" y="897.39" class="cls-3" rx="2.65"/><rect width="7.94" height="7.94" x="280.17" y="897.39" class="cls-3" rx="2.65"/><rect width="7.94" height="7.94" x="268.92" y="908.64" class="cls-3" rx="2.65"/><rect width="7.94" height="7.94" x="280.17" y="919.9" class="cls-3" rx="2.65"/><rect width="7.94" height="7.94" x="257.67" y="919.9" class="cls-3" rx="2.65"/><rect width="13.24" height="13.24" x="266.27" y="866.94" class="cls-3" rx="2.65"/><path d="M738.17 930.06v1h7.7c0-.33-.05-.66-.05-1a11.2 11.2 0 1122.4 0v1h7.7c0-.33-.05-.66-.05-1a11.2 11.2 0 0111.16-11.19V687.06a28 28 0 00-28-28 28 28 0 00-28 28V919.6a11.19 11.19 0 017.14 10.46z" class="cls-7"/><path d="M542.49 659.11a28 28 0 00-28 28v175.94h-113a38 38 0 00-38 38v163.48h329.44a38 38 0 0038-38V687.06a28 28 0 0126.46-27.95z" class="cls-2"/><path d="M654.93 1026.53V899.8a38 38 0 00-76 0v126.73a38 38 0 01-38 38h152a38 38 0 01-38-38zM502.93 1026.53v-37.6a11.08 11.08 0 01-3.66.63 11.21 11.21 0 01-11.2-11.2h-7.6a11.2 11.2 0 01-22.4 0h-7.6a11.2 11.2 0 01-22.4 0h-7.6a11.2 11.2 0 01-22.4 0h-7.6a11.2 11.2 0 01-22.4 0h-7.6a11.2 11.2 0 01-22.4 0h-7.6a11.2 11.2 0 01-22.4 0h-7.6a11.2 11.2 0 01-11.2 11.2 11.44 11.44 0 01-3-.42v37.39a38 38 0 0038 38h216.66a38 38 0 01-38-38z" class="cls-7"/><path d="M998.06 598.54c3.3 16.57-6 16.85-1.34 45.4 2.33 14.16-2.24 19-12.1 21.2-6.48 1.47-15.24 1.85-25.83 3.06-26.71 3-97.16 7.71-120.81 11.76-7.88 1.35-13.25 1.94-17 1.92-5.42 0-7.33-1.4-8.39-3.66-1.71-3.67 3.75-8.27 1.1-14.3a9.82 9.82 0 00-1-1.73c-5.5-8-10.17-16.41 25-27.18 92.24-28.27 131.59-51 148.7-49.73 6.61.49 9.93 4.55 11.67 13.26z" class="cls-9"/><path d="M800.28 714.21l-11.28-.49c-10.07-.11-25.42-1.51-35.34-4.29a10 10 0 00-11.24 14.84c.12.2.26.4.4.59a10 10 0 00-.79 19.29l1.14.34v.09a10 10 0 004 16.86c.88.26 1.8.51 2.73.75a6.49 6.49 0 00-1.57 3.15c-1.5 5.31 1.84 9.7 7 11.56 5.73 2.05 20.3 5 30.5 4.64 2.12-.06 4.13.11 5.75.13 17.07.23 8.7-67.46 8.7-67.46z" class="cls-8"/><path d="M782.35 733.85c-11.16-.55-24.22-2.06-34.12-4.85a10 10 0 115.41-19.25c9.92 2.79 25.27 4.18 35.34 4.3" class="cls-15"/><path d="M782.35 750.8c-11.88-.52-28.58-2.62-40.34-6.33a10 10 0 01.84-19.3M782.35 767.16c-11.35-.64-25-2.37-35.2-5.39a10 10 0 01-4-16.86" class="cls-15"/><path d="M786.93 783.24c-13.9-1.07-26.73-3-32-4.88-6.12-2.19-9.08-7.51-7.55-13a7.52 7.52 0 011.79-3.53l1.51 1.31a5.54 5.54 0 00-1.37 2.76c-1.25 4.45 1.2 8.73 6.34 10.57s17.61 4 31.32 5.07zM889.46 680.74c-33 6.41-37.13 15.36-45.43 33.19-.67 1.43-1.36 2.92-2.1 4.47-3.19 6.69-14.47 12.53-22.08 9.57-3.77-1.47-5-4.88-3.43-9.84 1.31-4.26 4.26-5 8.35-6.12 6.88-1.81 16.3-4.29 21.91-26.12a1 1 0 00-.59-1.15 1 1 0 00-1.22.46 28 28 0 01-25.53 15.4 20 20 0 01-5.28-.92 13.28 13.28 0 01-1.8 1.41 21.08 21.08 0 007 1.46 29.66 29.66 0 0023.63-10.82c-5.29 14.89-12.6 16.81-18.61 18.39-4.16 1.1-8.09 2.13-9.72 7.43-1.82 5.93-.15 10.39 4.59 12.23 8.72 3.4 21-3.07 24.55-10.54.74-1.56 1.44-3 2.11-4.49 6.45-13.85 10.32-22.16 28.22-28.11-11.86 6.91-15.62 16.92-19.28 26.68-4.21 11.24-8.19 21.86-24 28-11.12 4.32-13.36 10.13-13.72 13.22a9.93 9.93 0 004.58 9.31c4.52 3.07 10.89 3.08 16.61 0 6-3.2 8.27-8.7 10.44-14 3-7.22 6-14.65 18.58-17.47-8.57 5.6-10.46 12.68-12.29 19.55s-3.52 13.24-11.82 18a39.75 39.75 0 01-7 3c-4.51 1.58-8.81 3.1-9.89 7.5l2.12-.24c1.06-2.68 4-3.88 8.42-5.42a41.59 41.59 0 007.32-3.12c9-5.2 10.89-12.33 12.73-19.23 2.12-7.95 4.12-15.46 16.2-21a1 1 0 00-.5-1.86c-18.45 1.85-22.3 11.25-25.69 19.54-2.13 5.23-4.15 10.17-9.54 13-6.08 3.24-11.53 2.17-14.6.08a8 8 0 01-3.74-7.47c.52-4.5 5.06-8.74 12.48-11.62 16.62-6.46 20.94-18 25.12-29.13 4.95-13.22 9.63-25.7 33.3-31.36a1 1 0 00-.41-1.91z" class="cls-9"/><path d="M944.17 682.34c-16.55-4.62-34.66-2.16-47.26 6.4-27.75 18.87-18.51 36-13.55 45.27 1 2 2.36 4.39 2 5-.07.13-.49.33-1.58.33-4.29 0-9.09 2.78-11.67 6.75a11.48 11.48 0 00-.94 11.21c1.44 3.23 3.6 5.27 6.43 6a11.52 11.52 0 006-.1 7.72 7.72 0 00-1.56 4.15 6.07 6.07 0 00.59 2.87l1.88-.64a4 4 0 01-.52-2.15c.09-2.15 1.9-4.52 5.23-6.85a1 1 0 10-1.12-1.6c-2.46 1.72-6.55 3.39-10 2.44-2.24-.62-4-2.29-5.16-5a9.46 9.46 0 01.79-9.36c2.24-3.45 6.36-5.86 10-5.86 1.07 0 2.57-.13 3.26-1.27.91-1.53-.24-3.66-2-6.89-4.67-8.69-13.37-24.86 12.93-42.73 12.14-8.26 29.63-10.61 45.64-6.14 12.78 3.56 22.71 10.88 27.48 20.18.39-.66.77-1.32 1.15-2-5.12-9.2-15.19-16.44-28.02-20.01z" class="cls-9"/><path d="M902.76 733.68a4.76 4.76 0 01-1.62-.28c-1.76-.63-3.21-2.35-4.57-5.41-3.34-7.48-5.32-18.53.09-25 4.3-5.16 12.2-6.38 23.48-3.64 11.48 2.8 16.14 12.51 14.7 20.21-1.19 6.31-6 9.85-12.14 9s-10.51 1.37-14.05 3.11c-2.15 1.06-4.06 2.01-5.89 2.01zm6.87-33.83c-5.21 0-9 1.46-11.47 4.37-4.84 5.8-2.92 16 .19 23 1.12 2.5 2.25 3.93 3.45 4.37 1.54.55 3.5-.42 6-1.65 3.58-1.76 8.48-4.18 15.18-3.29 6.16.82 9.18-3.31 10-7.45 1.28-6.82-2.93-15.44-13.25-17.95a43 43 0 00-10.1-1.4zM915.63 743c-7.1.51-11.39 2.26-12.75 5.2s.35 6.87 5.38 11.64l1.87-.92c-4.63-4.26-6.52-7.66-5.48-9.9 2.07-4.45 15.09-5 27.74-3.37l2.27-1.64a90.06 90.06 0 00-19.03-1.01z" class="cls-9"/></g></g></svg>
