<svg xmlns="http://www.w3.org/2000/svg" viewBox="0 0 1001.52 1043.75"><defs><style>.cls-3{fill:#e6eaed}.cls-4{fill:#dee2e5}.cls-5{fill:#c5cdd0}.cls-6{fill:#97a4ac}.cls-7{fill:#e7e8ea}.cls-8{fill:#dfe3e6}.cls-9{fill:#d7dbdb}.cls-10{fill:#dadfe1}.cls-11{fill:#d1d7d7}</style></defs><g><g><path fill="#d0d5d9" d="M753.61 828.71H422.75a21.53 21.53 0 01-21.5-21.5V572.4a21.52 21.52 0 0121.5-21.5h330.86a21.52 21.52 0 0121.5 21.5v234.81a21.53 21.53 0 01-21.5 21.5zM422.75 557.9a14.52 14.52 0 00-14.5 14.5v234.81a14.52 14.52 0 0014.5 14.5h330.86a14.52 14.52 0 0014.5-14.5V572.4a14.52 14.52 0 00-14.5-14.5z"/><path fill="#b4bdc2" d="M842.39 962.63l-2.34-13.58c-.64-3.75-1.29-7.58-.63-11.32.5-2.8 1.71-5.45 2.1-8.28.92-6.75-3-13.17-4.11-19.89-1.57-9.25 2.12-18.91-.09-28-1.5-6.21-5.63-11.64-6.49-18-1-7.29 2.26-15.74-2.31-21.5-1.93-2.43-2.74-8.12-3.51-11.12a70.18 70.18 0 01-1.33-12.4 105.22 105.22 0 00-.35-10.8c-.27-3.25-6.76-32.14-8.93-34.1-11.59-10.41-20.52-12-36-14-5.79-.73-11.64 0-17.47.26-9.62.41-19.44-.52-28.72 2s-18.22 9.78-18.84 19.38c-.59 9.24 6.46 17.41 7.09 26.65a23.53 23.53 0 01-.17 4.52c-6.48-2.08-13.48-1.84-20.3-2.15a53.31 53.31 0 00-8.09-.05c2-7.52 6.84-14.53 6.33-22.29-.62-9.6-9.55-16.85-18.83-19.38s-19.11-1.61-28.72-2c-5.83-.24-11.68-1-17.47-.26-15.46 1.94-24.39 3.55-36 14-2.18 2-8.66 30.85-8.93 34.1a105.22 105.22 0 00-.35 10.8 70 70 0 01-1.34 12.4c-.77 3-1.58 8.69-3.5 11.12-4.57 5.76-1.33 14.21-2.32 21.5-.86 6.33-5 11.76-6.49 18-2.2 9.13 1.49 18.79-.08 28-1.14 6.72-5 13.14-4.11 19.89.39 2.83 1.6 5.48 2.1 8.28.65 3.74 0 7.57-.64 11.32l-2.34 13.58c-.93 5.45-1.85 11.19.06 16.38 2.37 6.46 8.7 10.71 15.21 13s13.46 2.94 20.09 4.83c5.84 1.67 11.47 4.28 17.51 5 7 .78 14-1.1 20.81-3l25.17-6.91a4.57 4.57 0 004.14-4.27q2.16-8.85 4.3-17.69c2.94-12.07 5.89-24.35 5.28-36.76-.28-5.69-1.3-11.48 0-17 1.41-5.91 5.38-11 6.71-16.91 1.64-7.28-.88-14.79-1.22-22.25 0-1-.05-1.95 0-2.92.78-2.62 1.9-5.21 2.89-8.82s4.22-10.16 7.71-11.18c2.16-.64 5.8-1.31 8-.94 5.66 1 12.48 3 15.21 8.05 3.11 5.74 2.43 15.17 2 18.91l-.21 1.59a31.73 31.73 0 00.15 10.87c1.34 5.93 5.3 11 6.71 16.91 1.33 5.55.31 11.34 0 17-.61 12.41 2.34 24.69 5.28 36.76l4.29 17.69a6.16 6.16 0 001.29 2.91 6 6 0 002.86 1.36l25.16 6.91c6.8 1.87 13.81 3.75 20.81 3 6.05-.68 11.68-3.29 17.52-5 6.63-1.89 13.57-2.58 20.08-4.83s12.85-6.5 15.22-13c2.01-5.18 1.09-10.92.15-16.37z"/><path d="M206.46 443.27h14.67v45.51h-14.67zM106.46 443.27h14.67v45.51h-14.67z" class="cls-3"/><rect width="13.39" height="44.27" y="777.67" class="cls-4" rx="6.7"/><rect width="13.39" height="44.27" y="557.67" class="cls-4" rx="6.7"/><rect width="13.39" height="44.27" x="314" y="557.67" class="cls-4" rx="6.7"/><rect width="13.39" height="44.27" x="157.1" y="454.55" class="cls-4" rx="6.7" transform="rotate(-90 163.795 476.685)"/><rect width="314.2" height="426.24" x="6.7" y="476.68" class="cls-3" rx="29.23"/><path d="M285.24 524.5q-9.48 22.68-19.18 45.28l-9.68 22.6-9.81 22.54-9.85 22.6a21.23 21.23 0 01-10.15 10.33 21.4 21.4 0 01-7.1 2c-.61.09-1.23.08-1.85.11s-1.05 0-1.58 0L213 650c-16.39.14-32.78.17-49.16.21s-32.78-.07-49.17-.2h-4.66c-.59 0-1.24 0-1.85-.12a21.4 21.4 0 01-7.1-2 21.23 21.23 0 01-10.15-10.33L81 614.92l-9.8-22.55-9.67-22.61q-9.7-22.59-19.15-45.29a1.59 1.59 0 012.89-1.3q10.62 22.19 21 44.46l10.47 22.27L87 612.23l10.3 22.26a14.58 14.58 0 002.85 4 15.22 15.22 0 004 2.76 14.13 14.13 0 004.68 1.25c.4.06.81 0 1.22.06h4.56c16.39-.14 32.78-.17 49.17-.2s32.77.07 49.16.2H217.5c.41 0 .82 0 1.22-.06a14.25 14.25 0 004.69-1.25 15.33 15.33 0 004-2.76 14.74 14.74 0 002.85-4l10.26-22.27 10.28-22.33 10.4-22.28q10.36-22.29 21-44.47a1.66 1.66 0 013 1.36zM282.22 856.46q-10.59-22.19-21-44.47l-10.4-22.28-10.28-22.33-10.26-22.26a14.58 14.58 0 00-2.85-4 15.09 15.09 0 00-4-2.76 14.26 14.26 0 00-4.69-1.26c-.4-.06-.81 0-1.22-.06s-1 0-1.48 0h-3.08c-16.39.14-32.78.17-49.16.21s-32.78-.07-49.17-.2h-4.56c-.41 0-.82 0-1.22.06a14.14 14.14 0 00-4.68 1.26 15 15 0 00-4 2.76 14.53 14.53 0 00-2.85 4L87 767.38 76.74 789.7 66.33 812Q56 834.26 45.3 856.43a1.58 1.58 0 01-2.89-1.29q9.47-22.7 19.15-45.3l9.67-22.6L81 764.69l9.84-22.61A21.23 21.23 0 01101 731.75a21.39 21.39 0 017.1-2c.61-.09 1.23-.09 1.85-.12s1 0 1.59 0h3.07c16.39-.14 32.78-.16 49.17-.2s32.77.07 49.16.2h4.66c.58 0 1.24 0 1.85.12a21.39 21.39 0 017.1 2 21.23 21.23 0 0110.15 10.33l9.85 22.6 9.81 22.55 9.68 22.6q9.72 22.57 19.18 45.28a1.65 1.65 0 01-3 1.35z" class="cls-4"/><path d="M786.77 774.28c-18.57 0-33-1.55-37-3.37-8.63-4-7.67-11.87-7.15-16.11a19.2 19.2 0 00.2-2.37 13.42 13.42 0 00-1.54-4.55 20.72 20.72 0 01-2.22-7 17.17 17.17 0 011.08-7.31 10.86 10.86 0 00.75-5.13 5.06 5.06 0 00-1.39-2.81 25.06 25.06 0 01-1.43-2.07 16.8 16.8 0 01-2.32-7.34A17.6 17.6 0 01736 711c-5.45.82-13.1 1.83-21.31 2.48-21.73 1.72-35.54.06-42.23-5.08a11.6 11.6 0 01-4.75-8.44 14.1 14.1 0 013.7-11.16c7.81-8.29 26.21-8 45.68-7.75 17.61.26 37.59.54 43.25-6.59 1.75-2.2 2.1-5.28 1.07-9.42-4-16.13-6.78-37.6 2.79-48.3 3-3.33 8.55-7 18.21-5.75a13.18 13.18 0 019.19 4.94c4.47 5.9 3.11 15.34 1.67 25.34-.48 3.33-1 6.77-1.27 10.13-1.19 13.42.93 23 15.18 26.34 2.73.63 8 .1 10.88-2.55 1.68-1.55 2.28-3.71 1.83-6.61v-.34L820 663h4.09a104.23 104.23 0 0016.12-1.88c14.73-2.55 47.39-5.36 76.2-7.84 17.8-1.53 34.62-3 44.8-4.16 3.61-.42 6.93-.73 10.15-1a130 130 0 0015.24-2l6.23-1.43-1.44 6.22c-9.23 40-32.88 71.05-70.29 92.29-34.65 19.68-74.5 26.92-101.83 29.53-11.4 1.11-22.54 1.55-32.5 1.55zm-23.62-76.36L745.7 709c-.17.15-2.41 2.06-2 6.5a9 9 0 001.2 4c.29.48.64.94 1 1.43a12.6 12.6 0 012.94 6.81 18.64 18.64 0 01-1.11 8.41 9.28 9.28 0 00-.7 4.15 14.26 14.26 0 001.51 4.3 19.7 19.7 0 012.27 7.65 25 25 0 01-.26 3.58c-.55 4.51-.47 6.49 2.56 7.88 3.23 1.41 29.94 4.54 65.33 1.15C870.13 759.85 958.94 739 982.07 655c-3.05.41-6.38.72-10 1.07-3.17.3-6.45.61-10 1-10.3 1.19-27.17 2.64-45 4.18-28.65 2.46-61.12 5.26-75.52 7.75-5.58 1-10 1.56-13.49 1.83a14.08 14.08 0 01-4.55 10.17c-4.87 4.51-13 5.67-18.13 4.47-21.46-5-22.45-22.25-21.34-34.83.32-3.58.83-7.13 1.32-10.57 1.14-7.93 2.32-16.13-.13-19.36-.48-.64-1.41-1.53-3.86-1.85-5-.67-8.71.37-11.2 3.15-5.56 6.23-5.92 21.18-1 41 1.65 6.61.78 12.1-2.56 16.32-8.11 10.22-28.28 9.94-49.63 9.62-16.1-.22-34.36-.49-39.74 5.23a6.12 6.12 0 00-1.55 5.08 3.53 3.53 0 001.65 2.69c9.12 7 44.9 3.56 65.31-.26z" class="cls-5"/><path d="M781.89 421.6v193.33c13.77 1.81 7.6 19.3 6.14 36.09-1.2 13.48.64 26.51 18.26 30.58 5.79 1.35 19.52-1 17.56-13.65v-.91c-5.41 0-7.32-1.39-8.39-3.64-1.72-3.67 3.74-8.28 1.07-14.3a9.89 9.89 0 00-1-1.74c-5.52-8-10.2-16.39 24.93-27.22 92.2-28.41 131.51-51.2 148.62-50-16.24-108.25-105.53-128.98-207.19-148.54zM646.37 415.6v193.33c-13.77 1.81-7.6 19.3-6.14 36.09 1.2 13.48-.64 26.51-18.26 30.58-5.78 1.35-19.51-1-17.56-13.65v-.91c5.41 0 7.33-1.39 8.39-3.64 1.72-3.67-3.74-8.28-1.07-14.3a9.89 9.89 0 011-1.74c5.52-8 10.2-16.39-24.93-27.22-92.2-28.41-131.51-51.2-148.62-50 16.24-108.25 105.53-128.98 207.19-148.54z" class="cls-6"/><path d="M782.35 303.13V308a27.28 27.28 0 01-14.64 24.19c-.23.13-.48.24-.71.36s-.49.24-.73.34a7 7 0 01-.75.32c-.26.12-.53.22-.8.33l-.71.25c-.57.2-1.16.39-1.75.55l-.6.15-.8.19c-.25.06-.51.11-.76.15s-.76.14-1.14.2l-.86.11-.46.05h-.07c-.38 0-.76.06-1.14.08s-.94 0-1.41 0h-97.59c-.85 0-1.7 0-2.54-.12a4.57 4.57 0 01-.52-.05c-.28 0-.57-.06-.85-.11l-.52.01-1.17-.21c-.28-.06-.55-.12-.83-.2s-.49-.11-.74-.18-.57-.16-.86-.25l-.22-.07c-.36-.1-.71-.23-1.07-.36l-.34-.12-.9-.36c-.39-.16-.78-.34-1.16-.51a27.63 27.63 0 01-7.61-5.38 27.32 27.32 0 0119.32-46.63h54.65A13.66 13.66 0 00725.75 267v-11.7a28.3 28.3 0 0156.6 0v47.8z" class="cls-5"/><path d="M767.71 332.2v38a10.65 10.65 0 00-1-.39 30 30 0 00-2.13-.64c-.36-.09-.72-.17-1.09-.24a11.94 11.94 0 00-1.22-.21c-.7-.1-1.4-.17-2.12-.21h-1.2a23.42 23.42 0 00-23.42 23.41v13.66a29.28 29.28 0 01-58.56 0V391.9a23.42 23.42 0 00-23.42-23.41h-1.14l-1 .07-.64.07-.56.06-.61.1-.23.05a5.5 5.5 0 00-.77.15l-.29.07a3.85 3.85 0 00-.73.17 19.27 19.27 0 00-1.87.57v-37.1c.38.17.77.35 1.16.51l.9.36.34.12c.35.13.71.25 1.07.36l.22.07c.29.09.57.18.86.25s.49.13.74.18.55.14.83.2l1.17.25.51.08c.28 0 .57.08.85.11a4.36 4.36 0 00.52.05c.84.08 1.69.12 2.54.12h98.99c.41 0 .76 0 1.14-.08h.07l.46-.05.92-.23c.38-.06.76-.12 1.14-.2a6.38 6.38 0 00.76-.15l.8-.19.6-.15c.59-.16 1.18-.35 1.75-.55a7.41 7.41 0 00.71-.25c.27-.11.54-.21.8-.33a7 7 0 00.75-.32c.24-.1.48-.21.73-.34s.44-.19.67-.32z" class="cls-7"/><path d="M564.67 1031.53v5a7.18 7.18 0 007.19 7.17h96.88a7.17 7.17 0 007.18-7.17v-7.11a7.16 7.16 0 00-2.92-5.78 7.07 7.07 0 00-4.26-1.4h-96.88a7.09 7.09 0 00-4.26 1.4 7.17 7.17 0 00-2.93 5.78z" class="cls-8"/><path d="M566.65 990.45v16.89a7.3 7.3 0 005.1 7 30.81 30.81 0 0127.67-17.24h43.74a30.82 30.82 0 0127.84 17.52 7.28 7.28 0 006.9-7.28V981a7.26 7.26 0 00-3.55-6.25 7.14 7.14 0 00-3.74-1h-96.67a7.11 7.11 0 00-3.06.68 7.27 7.27 0 00-4.23 6.61z" class="cls-9"/><path d="M567.6 1021.9v1.79a7.09 7.09 0 014.26-1.4h96.88a7.07 7.07 0 014.26 1.4v-1.79a30.84 30.84 0 00-30.83-30.83h-43.74a30.84 30.84 0 00-30.83 30.83z" class="cls-6"/><path d="M848.47 1031.53v5a7.18 7.18 0 01-7.18 7.17H744.4a7.17 7.17 0 01-7.18-7.17v-7.11a7.14 7.14 0 012.93-5.78 7 7 0 014.25-1.4h96.89a7.06 7.06 0 014.25 1.4 7.14 7.14 0 012.93 5.78z" class="cls-8"/><path d="M846.49 990.45v16.89a7.29 7.29 0 01-5.1 7 30.81 30.81 0 00-27.67-17.24H770a30.83 30.83 0 00-27.82 17.55 7.29 7.29 0 01-6.9-7.28V981a7.28 7.28 0 013.55-6.25 7.2 7.2 0 013.74-1h96.63a7.15 7.15 0 013.07.68 7.26 7.26 0 014.22 6.61z" class="cls-9"/><path d="M845.54 1021.9v1.79a7.06 7.06 0 00-4.25-1.4H744.4a7 7 0 00-4.25 1.4v-1.79A30.81 30.81 0 01771 991.07h43.74a30.84 30.84 0 0130.83 30.83zM599.66 666.12c15.6 46.12-7.78 117.74-8 141.38-.17 16.11 19 .2 45.77-4.61 27.33-4.92 85-21.49 144.49 2.38 42.71 17.14 55.82 46.46 40.14-21.69-9.92-43.07-4.63-130.83-4.63-130.83L602.87 639z" class="cls-6"/><path d="M767.71 370.21l-1-.39c-.36-.13-.71-.24-1.06-.34s-.71-.21-1.07-.3-.72-.17-1.09-.24-.8-.16-1.22-.21c-.7-.1-1.41-.17-2.12-.21h-1.2a23.42 23.42 0 00-23.42 23.41v13.66a29.28 29.28 0 01-58.56 0V391.9a23.42 23.42 0 00-23.42-23.41h-1.14l-1 .07-.64.07-.56.06-.61.1-.23.05-.77.15-.29.07a6.41 6.41 0 00-.73.17c-.64.17-1.26.36-1.87.58a23.45 23.45 0 00-15.61 22.06v246.84c0 1.3 0 2.59.1 3.87a2.83 2.83 0 000 .29c.06 1.08.13 2.16.23 3.23a76.72 76.72 0 001.19 7.92 75.71 75.71 0 0010.88 26.38 76.53 76.53 0 0018.11 19.23l.08.06q2.87 2.14 5.93 4l.17.1q1.51.92 3.09 1.77h.09c1 .56 2.07 1.09 3.13 1.6l.13.07c1 .5 2.1 1 3.17 1.43l.39.16c2.11.89 4.28 1.68 6.48 2.38l.55.17c1.09.33 2.18.65 3.29.93l.23.06c1 .26 2.09.5 3.14.73l.6.12c1.09.22 2.2.42 3.31.59l.6.09c1 .15 2 .28 3.08.39h.47c1.12.12 2.25.2 3.39.26h.76c1.16 0 2.33.09 3.5.09 1.18 0 2.36 0 3.53-.09h.66c1.15-.07 2.3-.15 3.43-.26h.45c1.17-.13 2.33-.27 3.47-.44h.07c1.19-.19 2.38-.4 3.56-.64l.33-.07c1.08-.22 2.15-.46 3.22-.73a73.53 73.53 0 007.39-2.28l.14-.05c2.26-.83 4.46-1.77 6.61-2.8l.24-.11c.88-.43 1.77-.87 2.64-1.33a76.09 76.09 0 0040.39-67.21V391.9a23.39 23.39 0 00-14.61-21.69z" class="cls-5"/><rect width="8" height="100.42" x="143.8" y="797.12" class="cls-10" rx="4" transform="rotate(90 147.8 847.33)"/><rect width="8" height="100.42" x="143.8" y="877.12" class="cls-10" rx="4" transform="rotate(90 147.8 927.33)"/><rect width="74.86" height="29.67" x="464.38" y="971.77" class="cls-10" rx="6.85"/><rect width="417.84" height="256.25" x="114.65" y="759.21" class="cls-10" rx="73.01"/><rect width="353.74" height="9.13" x="146.69" y="882.77" class="cls-11" rx="4.56"/><rect width="353.74" height="9.13" x="146.69" y="837.12" class="cls-11" rx="4.56"/><rect width="294.4" height="9.13" x="176.36" y="791.48" class="cls-11" rx="4.56"/><rect width="353.74" height="9.13" x="146.69" y="928.41" class="cls-11" rx="4.56"/><rect width="294.4" height="9.13" x="176.36" y="974.05" class="cls-11" rx="4.56"/><rect width="13.69" height="100.42" x="94.4" y="837.12" class="cls-11" rx="6.85"/><path d="M114.21 964l-6.4-11.74a7.63 7.63 0 00-11.71-2.1L86 958.89a7.69 7.69 0 00-2.5 4.41l-6.31 35.13a7.63 7.63 0 006.16 8.85l16.48 3a7.62 7.62 0 008.86-6.16L115 969a7.62 7.62 0 00-.79-5zm-13.54-5.63a3.44 3.44 0 114-2.78 3.44 3.44 0 01-4 2.74z" class="cls-10"/><path d="M101.36 953.1a1 1 0 01-.69-1.73c2-1.92 3.81-3.83 3.94-6.15v-.61a6.55 6.55 0 01.07-1.31 7.37 7.37 0 012.21-3.65 7.79 7.79 0 001.62-2.19 7.35 7.35 0 00.22-3.18v-.58a25.57 25.57 0 012-11.42 1 1 0 011.31-.53 1 1 0 01.52 1.32 23.75 23.75 0 00-1.87 10.53v.56a9.24 9.24 0 01-.36 4 9.35 9.35 0 01-2 2.81 5.64 5.64 0 00-1.71 2.63 5.74 5.74 0 000 1v.74c-.17 3-2.34 5.37-4.56 7.49a1 1 0 01-.7.27z" class="cls-10"/><path fill="#f5f7f8" d="M753.61 825.21H422.75a18 18 0 01-18-18V572.4a18 18 0 0118-18h330.86a18 18 0 0118 18v234.81a18 18 0 01-18 18z"/><path d="M1000.78 583.4c3.33 16.56-6 16.86-1.26 45.41 2.36 14.15-2.21 19-12.07 21.22-6.47 1.49-15.23 1.88-25.82 3.11-26.7 3.09-97.15 7.87-120.79 12-7.88 1.35-13.25 2-17 1.94-5.41 0-7.33-1.39-8.39-3.64-1.72-3.67 3.74-8.28 1.07-14.3a9.89 9.89 0 00-1-1.74c-5.51-8-10.2-16.39 24.93-27.22 92.2-28.41 131.51-51.2 148.62-50 6.67.46 9.93 4.51 11.71 13.22zM771.61 770.69c-3.65-.06-8-.2-11.7-.47-1.83-.14-3.67-.31-5.52-.57-.92-.13-1.85-.28-2.82-.51a9.34 9.34 0 01-1.55-.48 12.83 12.83 0 01-1.39-.69 9.46 9.46 0 01-4.27-4.94 15.31 15.31 0 01-.74-6.18 28.64 28.64 0 00.16-5 17.17 17.17 0 00-1.69-4.38 22.18 22.18 0 01-2.14-5.71 13.33 13.33 0 01-.14-3.38 14.31 14.31 0 01.63-3.19 21.71 21.71 0 001.25-4.75 13 13 0 000-2.25 5 5 0 00-.47-1.78 13.34 13.34 0 00-1.25-2 18.79 18.79 0 01-1.62-2.65 15.71 15.71 0 01-1.46-6.13 15.24 15.24 0 01.88-6.2 12.49 12.49 0 011.49-2.85 12.07 12.07 0 011-1.27c.19-.19.38-.39.59-.58a2.13 2.13 0 01.78-.54l1.41 3.35c-10.05 1.8-20.16 3-30.33 3.78-5.08.38-10.18.62-15.31.57a76.08 76.08 0 01-15.47-1.5 25.65 25.65 0 01-7.65-2.86 12 12 0 01-3.38-2.94 9.07 9.07 0 01-1.81-4.4 14.45 14.45 0 01.16-4.4 11.45 11.45 0 011.72-4.19 15.19 15.19 0 016.8-5.24 36 36 0 017.72-2.19 75.76 75.76 0 017.73-.93c5.14-.38 10.24-.42 15.32-.41 10.14 0 20.24.43 30.18-.19a62 62 0 0014.43-2.33 19.76 19.76 0 006.08-3 9.53 9.53 0 003.44-5 14.33 14.33 0 000-6.52c-.21-1.08-.56-2.36-.86-3.61l-.87-3.75a87.09 87.09 0 01-2.27-15.33 51.59 51.59 0 01.25-7.85 37.42 37.42 0 011.63-7.78 21.44 21.44 0 013.8-7.07 13 13 0 016.49-4.33 14.8 14.8 0 00-4.84 5.45 22.85 22.85 0 00-2.18 6.79 46.73 46.73 0 00-.59 7.2c0 2.43.12 4.87.3 7.31a144.7 144.7 0 001.85 14.7c.23 1.23.47 2.45.75 3.66s.57 2.38.85 3.78a18.72 18.72 0 01-.14 8.51 13.93 13.93 0 01-5 7.27 24.07 24.07 0 01-7.44 3.69 66.46 66.46 0 01-15.4 2.48c-10.26.59-20.4.13-30.47.06-5 0-10 0-15 .33s-9.9 1-14.19 2.75a11.32 11.32 0 00-5.11 3.8 7.72 7.72 0 00-1.15 2.77 11.46 11.46 0 00-.18 1.56 13.57 13.57 0 00.05 1.59 6.26 6.26 0 003.35 4.54 22.26 22.26 0 006.49 2.43 71.85 71.85 0 0014.67 1.47c5 .07 10-.13 15-.49 10-.75 20-2 29.88-3.77l1.35 3.18c0 .12-.15.22-.25.35l-.36.39a8.14 8.14 0 00-.64.9 8.3 8.3 0 00-.93 2 12.41 12.41 0 00.91 8.93 15.09 15.09 0 001.34 1.93 17.23 17.23 0 011.77 2.57 10.09 10.09 0 011.08 3.43 18 18 0 01.11 3.2 24.81 24.81 0 01-1.37 5.82 9.26 9.26 0 00-.38 4.22 21.21 21.21 0 001.61 4.51 19.44 19.44 0 011.78 5.92 11.13 11.13 0 010 1.73c0 .54-.1 1-.17 1.51l-.43 2.66a11.48 11.48 0 00.07 4.62 6 6 0 002.48 3.36 11.27 11.27 0 001 .61 5.69 5.69 0 001 .4 25.53 25.53 0 002.51.65c1.73.38 3.51.69 5.29 1 3.57.54 7.83 1 11.44 1.31z" class="cls-5"/><path d="M788 651c-1.2 13.48.64 26.51 18.26 30.58 5.79 1.35 19.52-1 17.56-13.65v-.91c3.72 0 9.09-.59 17-1.94 23.64-4.09 94.09-8.87 120.79-12 10.59-1.23 19.35-1.62 25.82-3.11-20.05 86.9-106.07 112.77-168.6 118.74-35.4 3.39-63.27.4-67.39-1.5-7.62-3.51-4.5-11-4.62-15s-3.44-7.72-3.77-11.74c-.42-5.06 2.39-6.68 1.82-12.5-.31-3.07-2-4.28-3.38-6.57a12.83 12.83 0 01-1.76-5.65c-.7-7.08 3.64-10.15 3.64-10.15s-70.24 13.18-71.68-6.06c-2.43-32.45 103.81 5.51 93.59-35.59-6.93-27.88-4.89-51.95 16.59-49.11 13.79 1.9 7.62 19.39 6.13 36.16z" class="cls-7"/><path d="M404.86 715.66a10.77 10.77 0 006.55-1.2 10.07 10.07 0 004.31-4.55 9.46 9.46 0 00.74-5.84 9 9 0 00-2.69-4.82 2.82 2.82 0 011.68-4.88l.88-.06a8.65 8.65 0 005.34-1.26 8.52 8.52 0 003.69-9.7 8.72 8.72 0 00-3.17-4.49 3 3 0 01-.65-4.19 2.94 2.94 0 011.95-1.19h.15a8.71 8.71 0 005.58-2.9 8.58 8.58 0 00-3-13.47c-.25-.1-.5-.2-.76-.28l-.38-.12-.51-.14-2.09-.57a3 3 0 01-.13-5.75h.15a8.91 8.91 0 006.75-6.18 9.46 9.46 0 00-2.47-9.45 9.76 9.76 0 00-2.12-1.6 13 13 0 00-2.66-1.12l-5.94-2-11.9-3.9.32-1.14 12.2 2.77 6.11 1.38a15.92 15.92 0 013.27 1 13.61 13.61 0 017.82 15.08 14.16 14.16 0 01-3.37 6.75A14.6 14.6 0 01424 656v-5.8l2.1.57.53.15.65.2c.44.14.86.3 1.28.48a14.57 14.57 0 01-4.29 27.84l1.45-5.41a14.69 14.69 0 015.39 7.61 14.51 14.51 0 01-6.28 16.53 14.63 14.63 0 01-9.08 2.13l2.57-4.95a14.37 14.37 0 012.88 8.32 13.61 13.61 0 01-2.47 8.05 12.84 12.84 0 01-6.43 4.82 12.36 12.36 0 01-7.65.11z" class="cls-5"/><path d="M425.78 653.77l-2.56-.69a11.57 11.57 0 00.09-22.35L398.5 624a11.57 11.57 0 00-7.38 21.88 11.56 11.56 0 00-8.38 8.19 11.57 11.57 0 006.82 13.76 11.56 11.56 0 00-3.13 21.17 11.56 11.56 0 00-6.48 7.09 11.57 11.57 0 007.47 14.56l16.33 5.26a11.57 11.57 0 0014.56-7.47 11.56 11.56 0 00-2.31-11.15 11.55 11.55 0 008-20.85 11.57 11.57 0 001.82-22.67zM525.46 636.91h124v84.21a53.79 53.79 0 01-53.79 53.79h-16.42a53.79 53.79 0 01-53.79-53.79v-84.21z" class="cls-7"/><path d="M635.86 572.09a22.25 22.25 0 00-22.25 22.25v4.46a9.86 9.86 0 01-9.86 9.86H564.5a47.69 47.69 0 00-47.69 47.69v56.43a8.33 8.33 0 007 8.33 8.17 8.17 0 009.38-8.07v-21.87a28.77 28.77 0 0128.77-28.77h79.87v30.07a8.33 8.33 0 007 8.33 8.17 8.17 0 009.38-8.08v-98.38a22.25 22.25 0 00-22.35-22.25zM609.13 740.19v15a11.43 11.43 0 01-11.43 11.43h-20.48a11.43 11.43 0 01-11.43-11.43v-15a8.91 8.91 0 00-8.91 8.91v23a30.58 30.58 0 0030.58 30.58A30.58 30.58 0 00618 772.13v-23a8.91 8.91 0 00-8.91-8.91z" class="cls-5"/><path d="M637.68 687.6v-.15a.4.4 0 000-.11.33.33 0 000-.14.35.35 0 000-.11.76.76 0 00-.08-.11.81.81 0 00-.09-.1l-.09-.05h-.25a.38.38 0 00-.15 0H636.78a.71.71 0 00-.09.07l-.12.1a3.66 3.66 0 01-2.35 1.12 5.11 5.11 0 00-3 1.48.68.68 0 00.07 1l.12.08a.68.68 0 00.84-.16 3.93 3.93 0 012.31-1c.33-.07.68-.15 1-.26A11.81 11.81 0 01626 695l-.08-15.94h3.57a.69.69 0 000-1.37h-3.57v-3.49a3.75 3.75 0 003-3.68 3.73 3.73 0 10-5.49 3.31 3.8 3.8 0 001.09.37v3.5h-3.57a.68.68 0 00-.32 1.28.66.66 0 00.32.08h3.58l.08 15.95a11.8 11.8 0 01-9.53-5.78c.35.1.7.18 1 .25a3.91 3.91 0 012.32 1 .67.67 0 001 .07.68.68 0 00.07-1 5.16 5.16 0 00-3.07-1.45 3.71 3.71 0 01-2.36-1.09.43.43 0 00-.1-.09l-.11-.08h-.25a.22.22 0 00-.11 0 .39.39 0 00-.15 0l-.09.06h-.1a.94.94 0 00-.1.1.86.86 0 01-.07.1.5.5 0 000 .13.53.53 0 000 .12.3.3 0 000 .13.36.36 0 000 .14 13.16 13.16 0 0024.81-.13zm-14.85-17a2.36 2.36 0 013.48-2.09 2.6 2.6 0 01.54.4 2.36 2.36 0 01-1.65 4 2.36 2.36 0 01-2.37-2.33z" class="cls-5"/><path d="M219 436.18H108.59A10.81 10.81 0 0097.79 447a10.8 10.8 0 0010.8 10.8h12.79c9.54-3.81 25-6.3 42.42-6.3s32.87 2.49 42.41 6.3H219a10.8 10.8 0 0010.8-10.8 10.81 10.81 0 00-10.8-10.82z" class="cls-4"/><path d="M890 666.09c-33 6.41-37.13 15.36-45.44 33.19q-1 2.15-2.1 4.47c-3.18 6.69-14.46 12.53-22.08 9.57-3.77-1.48-5-4.88-3.43-9.84 1.31-4.27 4.27-5 8.36-6.12 6.87-1.81 16.29-4.29 21.91-26.12a1 1 0 00-1.81-.69A28 28 0 01819.9 686c-4.5-.2-8.22-1.64-10.6-4a14.17 14.17 0 01-2.78-.3c2.55 3.7 7.34 6 13.3 6.25a29.67 29.67 0 0023.63-10.82c-5.3 14.89-12.61 16.81-18.61 18.39-4.16 1.1-8.09 2.13-9.72 7.43-1.83 5.93-.15 10.39 4.59 12.23 8.71 3.4 21-3.07 24.55-10.54.74-1.56 1.43-3.05 2.1-4.49 6.46-13.85 10.33-22.16 28.23-28.11-11.87 6.91-15.62 16.92-19.28 26.68-4.21 11.24-8.19 21.86-24 28C820.2 731 818 736.8 817.6 739.88a9.87 9.87 0 004.58 9.31c4.52 3.08 10.88 3.09 16.61 0 6-3.2 8.26-8.7 10.44-14 2.94-7.22 6-14.65 18.58-17.47-8.58 5.6-10.46 12.67-12.29 19.55s-3.53 13.24-11.82 18a41.19 41.19 0 01-7 3c-5.19 1.82-10.1 3.55-10.15 9.66l2-.23c.16-4.31 3.4-5.68 8.83-7.59a41.27 41.27 0 007.32-3.12c9-5.2 10.9-12.34 12.73-19.23 2.12-7.95 4.12-15.46 16.21-21a1 1 0 00.53-1.14 1 1 0 00-1-.72c-18.45 1.85-22.29 11.25-25.68 19.54-2.14 5.23-4.16 10.17-9.55 13-6.08 3.24-11.52 2.17-14.59.08a8 8 0 01-3.74-7.47c.51-4.5 5.06-8.74 12.48-11.62 16.62-6.46 20.94-18 25.12-29.13 5-13.22 9.63-25.7 33.3-31.36a1 1 0 00.73-1.16 1 1 0 00-1.24-.69z" class="cls-5"/><path d="M944.74 667.69c-16.55-4.62-34.66-2.16-47.26 6.4-27.76 18.87-18.52 36-13.55 45.27 1.05 2 2.36 4.39 2 5-.08.13-.49.33-1.59.33-4.28 0-9.08 2.77-11.66 6.74a11.47 11.47 0 00-.94 11.22c1.44 3.23 3.6 5.27 6.42 6a11.56 11.56 0 006-.1 7.64 7.64 0 00-1.56 4.15 5.88 5.88 0 00.59 2.86c.62-.21 1.25-.41 1.87-.63a4 4 0 01-.51-2.15c.09-2.15 1.89-4.52 5.22-6.85a1 1 0 10-1.12-1.6c-2.46 1.72-6.55 3.39-10 2.44-2.23-.62-4-2.29-5.16-5a9.46 9.46 0 01.8-9.36c2.24-3.45 6.36-5.86 10-5.86 1.07 0 2.58-.13 3.26-1.28.91-1.52-.24-3.65-2-6.88-4.68-8.69-13.38-24.86 12.92-42.73 12.14-8.26 29.63-10.61 45.64-6.14 12.79 3.56 22.71 10.88 27.49 20.18.39-.66.77-1.32 1.15-2-5.12-9.2-15.2-16.44-28.01-20.01z" class="cls-5"/><path d="M903.33 719a4.86 4.86 0 01-1.63-.28c-1.75-.63-3.2-2.35-4.57-5.41-3.34-7.49-5.32-18.53.1-25 4.3-5.15 12.2-6.38 23.47-3.63 11.49 2.8 16.15 12.51 14.7 20.21-1.18 6.31-5.94 9.85-12.13 9s-10.52 1.36-14.06 3.11c-2.14 1.08-4.06 2-5.88 2zm6.87-33.83c-5.21 0-9.05 1.46-11.47 4.36-4.84 5.81-2.93 16 .19 23 1.11 2.5 2.24 3.93 3.45 4.36 1.53.56 3.49-.41 6-1.64 3.57-1.76 8.47-4.18 15.18-3.29 6.16.82 9.18-3.31 10-7.45 1.29-6.82-2.92-15.44-13.24-17.95a43 43 0 00-10.11-1.36zM916.19 728.33c-7.09.51-11.38 2.26-12.75 5.2s.35 6.87 5.38 11.64l1.87-.92c-4.62-4.26-6.52-7.66-5.48-9.9 2.07-4.45 15.1-5.05 27.74-3.37.77-.54 1.52-1.09 2.28-1.64a90.16 90.16 0 00-19.04-1.01z" class="cls-5"/><path fill="#e2e6e9" d="M706.67 25.93L547.9 155.6l281.66-18.58-54.17-49.13-152.32 41.27 130.19-62.02-46.59-41.21z"/><path d="M361.23 0l103.11 72.79-173.8.75 31.16-32.51 95.34 18.76-82.65-32.46L361.23 0z" class="cls-3"/><path d="M281.32 198.27L410.1 357.75l-271.86-75.98 63.11-36.96 140.61 71.64-114.71-87.41 54.07-30.77z" class="cls-4"/></g></g></svg>