<svg xmlns="http://www.w3.org/2000/svg" viewBox="0 0 595.87 612.55"><defs><style>.cls-1{fill:#c5cdd0;}.cls-2{fill:#e6eaed;}.cls-3{fill:#e2e6e9;}.cls-4{fill:#dee2e5;}.cls-5{fill:#d0d5d9;}.cls-6{fill:#c6cdd0;}.cls-7{fill:#d9dee1;}.cls-8{fill:#dadfe1;}.cls-9{fill:#b4bdc2;}.cls-10,.cls-11{fill:none;}.cls-10{stroke:#a7b0b6;stroke-linecap:round;stroke-linejoin:round;stroke-width:3px;opacity:0.5;}.cls-12{fill:#dfe3e6;}.cls-13{fill:#d0d5da;}.cls-14{fill:#97a4ac;}.cls-15{fill:#e7e8ea;}</style></defs><g id="Слой_2" data-name="Слой 2"><g id="Слой_9" data-name="Слой 9"><path class="cls-1" d="M487,472.18a3,3,0,0,1-.29-6c31.65-3,86.54-16.13,98.64-70a3,3,0,1,1,5.85,1.32c-5.51,24.54-19.83,43.6-42.56,56.64-20.95,12-44.93,16.41-61.36,18Z"/><rect class="cls-2" y="400.72" width="185.86" height="185.79" rx="10.56"/><rect class="cls-3" x="55.76" y="322.83" width="83.74" height="77.89" rx="6.33"/><path class="cls-4" d="M514.33,65.1H275.43c7.54-23.53,28.29-40.45,52.72-40.45a52.37,52.37,0,0,1,23.66,5.66C355.32,13.07,372.23,0,392.55,0,415.43,0,434,16.56,434,37c0,.79,0,1.58-.09,2.36a54.8,54.8,0,0,1,31.5-9.63C490,29.71,510.45,45,514.33,65.1Z"/><path class="cls-2" d="M328.07,158.83H22.87C32.51,133,59,114.41,90.22,114.41a75.88,75.88,0,0,1,30.23,6.21c4.49-18.93,26.08-33.29,52.05-33.29,29.23,0,52.92,18.19,52.92,40.61,0,.87,0,1.73-.11,2.59,10.94-6.6,25-10.57,40.23-10.57C297,120,323.11,136.78,328.07,158.83Z"/><rect class="cls-5" x="125.08" y="451.08" width="198.53" height="160.45" rx="10.56"/><polygon class="cls-6" points="214.84 451.08 214.84 499.66 214.84 502.23 214.84 508.08 217.47 504.21 220.24 507.77 223.22 503.71 226.03 506.37 228.11 503.4 230.83 507.81 233.41 503.67 235.96 507.45 235.96 502.23 235.96 499.35 235.96 451.08 214.84 451.08"/><polygon class="cls-7" points="87.07 322.83 87.07 340.63 87.07 343.19 87.07 349.05 89.7 345.18 92.46 348.73 95.45 344.68 98.25 347.34 100.33 344.36 103.05 348.78 105.63 344.63 108.19 348.42 108.19 343.19 108.19 340.31 108.19 322.83 87.07 322.83"/><path class="cls-6" d="M174.6,598.25H144.79a3,3,0,1,1,0-5.9H174.6a3,3,0,1,1,0,5.9Z"/><path class="cls-6" d="M153.17,548.41a2.79,2.79,0,0,0-4.64,0l-5,7.73a2.64,2.64,0,0,0,2.32,4.05h2.28v27.92a2.73,2.73,0,0,0,5.45,0V560.19h2.28a2.64,2.64,0,0,0,2.32-4.05Z"/><path class="cls-6" d="M176.11,556l-5-7.76a2.83,2.83,0,0,0-4.7,0l-5,7.76a2.62,2.62,0,0,0,2.35,4H166v28.09a2.73,2.73,0,0,0,5.46,0V560h2.28A2.63,2.63,0,0,0,176.11,556Z"/><path class="cls-8" d="M47.82,432.76H41a11.67,11.67,0,0,0-.94-3.27A1.83,1.83,0,0,0,36.73,431a7.68,7.68,0,0,1,.56,1.76H31v-6.4a7.68,7.68,0,0,1,1.62.53,1.89,1.89,0,0,0,.76.16,1.83,1.83,0,0,0,.76-3.49,11.88,11.88,0,0,0-3.14-.9V412.33a1.78,1.78,0,0,0-3.56,0v10.33a11.88,11.88,0,0,0-3.14.9,1.82,1.82,0,0,0-.92,2.42,1.84,1.84,0,0,0,2.43.91,7.77,7.77,0,0,1,1.63-.53v6.4H21.1a7.71,7.71,0,0,1,.57-1.76,1.84,1.84,0,0,0-3.35-1.51,11.33,11.33,0,0,0-.93,3.27H10.57a1.63,1.63,0,1,0,0,3.25h6.82a11.48,11.48,0,0,0,.93,3.28A1.85,1.85,0,0,0,20,440.36a1.82,1.82,0,0,0,.76-.16,1.84,1.84,0,0,0,.92-2.42A8,8,0,0,1,21.1,436h6.32v6.41a7.79,7.79,0,0,1-1.63-.54,1.85,1.85,0,0,0-2.43.92,1.81,1.81,0,0,0,.92,2.41,11.43,11.43,0,0,0,3.14.91v10.33a1.78,1.78,0,0,0,3.56,0V446.12a11.64,11.64,0,0,0,3.14-.91A1.81,1.81,0,0,0,35,442.8a1.84,1.84,0,0,0-2.43-.92,7.71,7.71,0,0,1-1.62.54V436h6.31a7.92,7.92,0,0,1-.56,1.77,1.83,1.83,0,0,0,.91,2.42,1.89,1.89,0,0,0,.76.16,1.83,1.83,0,0,0,1.67-1.07A11.83,11.83,0,0,0,41,436h6.81a1.63,1.63,0,1,0,0-3.25Z"/><path class="cls-9" d="M490.68,524.05c.32-2.55,1.28-5,1.47-7.56.47-6.1-3.44-11.88-3.12-18,.16-3.18,1.4-6.67-.37-9.32a20.28,20.28,0,0,0-1.33-1.61,8.42,8.42,0,0,1-1.44-7.71,27.91,27.91,0,0,0,1.11-3.14c.43-2.23-.6-4.6.09-6.76l-.07-.78c-21.09,2-37.7.23-40.15-.89-4.54-2.1-2.68-6.57-2.76-8.93s-2.05-4.59-2.24-7c-.25-3,1.42-4,1.08-7.45-.18-1.83-1.19-2.55-2-3.91a45.43,45.43,0,0,1-59.25-15.2l-19.53,1.32h0l-2.47.16c.43,1.58.85,3.34,1.2,5.34-.3,10.25-2.13,25.13-.95,33.05a10.26,10.26,0,0,0,.76,2.85c.46,1,1.17,1.83,1.65,2.8,2.5,4.93-1.36,10.93-.22,16.34.61,2.87,2.56,5.26,3.74,7.95,1.63,3.76,1.73,8.05,3.49,11.75,1.86,3.9,5.35,6.72,8.73,9.4l13.12,10.42c2.88,2.29,5.81,4.61,9.21,6,2.32.95,4.89,1.5,6.78,3.14.82.72,2.27,2.74,3.08,3.46a91.69,91.69,0,0,0,10.48,8c1.81,1.24,3.79,2.55,6,2.53a40.53,40.53,0,0,1,1,6c.08,1.89-.27,3.85.28,5.66s2.11,3.91,1.18,5.67l.08.13a4.25,4.25,0,0,1,2.22-.62h57.61a4.26,4.26,0,0,1,1.82.41l.2-.41c-.11-1.55-.31-4.69-.49-7.55l-.32-5a18.81,18.81,0,0,0-.6-4.16,14.44,14.44,0,0,1-.85-3.12c-.08-1.76,1-3.33,1.66-5,2.15-5.38-.3-11.43,0-17.22C490.6,524.83,490.64,524.44,490.68,524.05Z"/><path class="cls-9" d="M510.72,538a3.73,3.73,0,0,0-.41.39l-19.63,21.32-.32-5a18.81,18.81,0,0,0-.6-4.16,14.44,14.44,0,0,1-.85-3.12c-.08-1.76,1-3.33,1.66-5,2.15-5.38-.3-11.43,0-17.22h0a3.54,3.54,0,0,0,3.38,1.5c.57-.07,1.18-.29,1.68,0a2.3,2.3,0,0,1,.78.93C499.56,532.75,508.12,532.66,510.72,538Z"/><path class="cls-9" d="M486.25,480.94a6.5,6.5,0,0,0-.26,2.47c.31,1.82,2.1,3,3.11,4.5,2.42,3.66,0,8.5.26,12.88.18,3.8,2.35,7.24,2.91,11,.83,5.53-1.86,11.07-1.41,16.64.33,4.06,2.3,8.06,1.4,12-.37,1.65-1.23,3.16-1.67,4.8a19.6,19.6,0,0,0-.22,6.75l.68,8.19c.28,3.28.52,6.74-.88,9.72-1.75,3.71-5.73,5.9-9.71,6.89s-8.14,1-12.17,1.83c-3.56.68-7,1.94-10.66,2-4.2.09-8.26-1.39-12.2-2.85l-14.58-5.42a3.63,3.63,0,0,1-1.62-.95,3.72,3.72,0,0,1-.61-1.8L427,558.94c-1.11-7.32-2.23-14.76-1.22-22.09.46-3.37,1.37-6.75.88-10.11-.53-3.59-2.62-6.8-3.11-10.39-.59-4.41,1.3-8.74,1.89-13.14,1.33-9.94-3.93-20.09-1.66-29.86.89-3.8,2.9-7.39,3-11.3.11-5.51-3.65-10.73-2.82-16.18.87-5.67,6.55-9.51,12.19-10.53s11.43,0,17.16.3c3.47.16,7,0,10.38.76,9.07,2,15.62,9.58,21.95,16.37,1.19,1.27,2.53,2.67,2.81,4.46.24,1.54-.56,2.59-.77,4-.28,1.91.17,4.07.16,6,0,2.14-.13,4.29-.35,6.43A65.86,65.86,0,0,1,486.25,480.94Z"/><path class="cls-10" d="M425.92,536c0-3.58.63-6.52.13-9.88-.53-3.58-2.62-6.8-3.1-10.39-.59-4.41,1.29-8.73,1.88-13.14,1.34-9.94-3.56-16.42-1.29-26.18a56.74,56.74,0,0,0,.6-14.9"/><path class="cls-11" d="M425.46,471.3c0,1.74.14,6.21-.56,8.38a11.72,11.72,0,0,0-.69,2.28c-.22,2,1.26,3.67,2.05,5.49,1.09,2.49.87,5.33.63,8q-.84,9.75-1.7,19.5a9.34,9.34,0,0,0,.06,2.94,10.78,10.78,0,0,0,1,2.42,26.27,26.27,0,0,1,2.14,17.39c-.72,3.22-2.07,6.37-2,9.68a17.77,17.77,0,0,0,.33,2.9,40.53,40.53,0,0,1,1,6c.08,1.89-.27,3.85.28,5.66s2.11,3.91,1.18,5.67"/><path class="cls-11" d="M487.09,470c-.69,2.16.34,4.53-.09,6.76a27.91,27.91,0,0,1-1.11,3.14,8.42,8.42,0,0,0,1.44,7.71,20.28,20.28,0,0,1,1.33,1.61c1.77,2.65.53,6.14.37,9.32-.32,6.11,3.59,11.89,3.12,18-.19,2.57-1.15,5-1.47,7.56,0,.39-.08.78-.1,1.18-.31,5.79,2.14,11.84,0,17.22-.66,1.63-1.74,3.2-1.66,5a14.44,14.44,0,0,0,.85,3.12,18.81,18.81,0,0,1,.6,4.16l.32,5c.18,2.86.38,6,.49,7.55"/><path class="cls-11" d="M490.68,559.66l19.63-21.32a3.73,3.73,0,0,1,.41-.39,4.34,4.34,0,0,1,5.73.13L528,548.73a4.35,4.35,0,0,1,1,5"/><path class="cls-11" d="M426.93,550.32h-.2c-2.18,0-4.16-1.29-6-2.53a91.69,91.69,0,0,1-10.48-8h0"/><path class="cls-12" d="M537,558.6a4.28,4.28,0,0,1,3.72,1l3.11,2.87a4.26,4.26,0,0,1,.25,6L505,611a4.27,4.27,0,0,1-6,.25l-3.11-2.86a4.27,4.27,0,0,1-.26-6l39.09-42.47A4.33,4.33,0,0,1,537,558.6Z"/><path class="cls-12" d="M494.07,605.27v3a4.28,4.28,0,0,1-4.28,4.27H432.06a4.27,4.27,0,0,1-4.28-4.27V604a4.25,4.25,0,0,1,1.75-3.44,4.2,4.2,0,0,1,2.53-.84h57.73a4.29,4.29,0,0,1,4.28,4.28Z"/><path class="cls-13" d="M510.72,538a4.34,4.34,0,0,1,5.73.13L528,548.73a4.35,4.35,0,0,1,1,5A18.34,18.34,0,0,0,510.3,559l-16.81,18.25v-5.65a4.32,4.32,0,0,0-2.52-3.94l.2-.41c-.11-1.55-.31-4.69-.49-7.55l19.63-21.32A3.73,3.73,0,0,1,510.72,538Z"/><path class="cls-13" d="M493.49,577.21v10.07a4.36,4.36,0,0,1-3,4.15h0A18.35,18.35,0,0,0,474,581.16H447.9a18.36,18.36,0,0,0-16.58,10.46h0a4.35,4.35,0,0,1-4.11-4.34V571.56a4.33,4.33,0,0,1,2.12-3.73,4.25,4.25,0,0,1,2.22-.62h57.61a4.26,4.26,0,0,1,1.82.41,4.32,4.32,0,0,1,2.52,3.94Z"/><path class="cls-14" d="M536.25,557.88l.79.72a4.33,4.33,0,0,0-2.33,1.3l-39.09,42.47a4.24,4.24,0,0,0-1.13,2.9h-.42V604a4.24,4.24,0,0,0-1.74-3.44v-1.07a18.18,18.18,0,0,0-1.89-8.1h0a4.36,4.36,0,0,0,3-4.15V577.21L510.3,559a18.36,18.36,0,0,1,25.95-1.08Z"/><path class="cls-14" d="M492.33,599.53v1.07a4.23,4.23,0,0,0-2.54-.84H432.06a4.2,4.2,0,0,0-2.53.84v-1.07a18.37,18.37,0,0,1,18.37-18.37H474a18.39,18.39,0,0,1,18.37,18.37Z"/><path class="cls-1" d="M595.43,358.72c2,9.87-3.57,10-.75,27.06,1.4,8.43-1.32,11.29-7.2,12.64h0c-3.85.88-9.07,1.11-15.38,1.84-15.91,1.85-57.89,4.7-72,7.13A62.79,62.79,0,0,1,490,408.56c-3.22,0-4.36-.83-5-2.17-1-2.19,2.23-4.94.64-8.52a5.48,5.48,0,0,0-.58-1c-3.28-4.77-6.08-9.76,14.86-16.21,54.94-16.94,78.36-30.52,88.55-29.78C592.42,351.12,594.39,353.53,595.43,358.72Z"/><path class="cls-14" d="M374.49,405.36c-.14-1.45-.21-2.91-.21-4.4V380.88c-2.6,1.09-4.82.39-5.23-1.43-4.07,5.23-9.89,5.82-12.21,1.17-2.48,1.33-4.52,1.6-6.08,1.24l0,.13c.4,6,.6,11.32.63,15.59a12.28,12.28,0,0,1,6.18,8.93,19.41,19.41,0,0,1-.3,7.06c-.8,3.78.18,30.53,1.28,41.85.16,1.67,1.78,2.18,2.71.78,4.66-6.95,19.54-18.49,32.33-20.23C403.24,434.65,375.21,412.87,374.49,405.36Z"/><path class="cls-14" d="M465,262.31v115.2c8.2,1.08,4.53,11.5,3.66,21.5-.72,8,.38,15.8,10.88,18.23,3.44.8,11.63-.58,10.46-8.14v-.54c-3.22,0-4.36-.83-5-2.17-1-2.19,2.23-4.94.64-8.52a5.48,5.48,0,0,0-.58-1c-3.28-4.77-6.08-9.76,14.86-16.21,54.94-16.94,78.36-30.52,88.56-29.78C578.78,286.32,525.57,274,465,262.31Z"/><path class="cls-14" d="M374.28,326.54V253.89a13.88,13.88,0,0,1,.34-3,146.42,146.42,0,0,0-48.93-18.24c-32.88-5.91-63.25.55-72.94,18.38a57.86,57.86,0,0,0-2.9,6.09,12.1,12.1,0,0,1,2.32.3c9.78,2.26,66.87,15.12,77.92,17.44s4.07,4.07,7,7.56c2.25,2.7,2.5,4.08-.29,4.78C345.53,305,363.24,311.73,374.28,326.54Z"/><path class="cls-1" d="M465,201v2.9a16.27,16.27,0,0,1-8.72,14.42c-.14.08-.29.14-.43.21l-.44.21-.44.19-.47.19-.43.15c-.34.12-.69.24-1.05.33l-.35.09-.48.11a3.58,3.58,0,0,1-.45.09c-.23.05-.45.09-.68.12s-.34.05-.51.06l-.28,0h0l-.68,0-.83,0H390.57a15.18,15.18,0,0,1-1.52-.07l-.31,0a4.43,4.43,0,0,1-.51-.06l-.3,0-.7-.12c-.16,0-.33-.07-.49-.12a3.15,3.15,0,0,1-.44-.11,3.8,3.8,0,0,1-.51-.15l-.14,0-.64-.21-.2-.08-.54-.21c-.23-.09-.46-.2-.68-.3a16.54,16.54,0,0,1-4.54-3.21,16.27,16.27,0,0,1,11.52-27.78h32.56a8.14,8.14,0,0,0,8.14-8.14v-7a16.87,16.87,0,0,1,33.73,0V201Z"/><path class="cls-15" d="M468.66,399c-.72,8,.38,15.8,10.88,18.23,3.44.8,11.63-.58,10.46-8.14v-.54a62.79,62.79,0,0,0,10.12-1.16c14.08-2.43,56.06-5.28,72-7.13,6.31-.73,11.53-1,15.38-1.84-12,51.77-63.2,67.19-100.46,70.75-21.09,2-37.7.23-40.15-.89-4.54-2.1-2.68-6.57-2.76-8.93s-2.05-4.59-2.24-7c-.25-3,1.42-4,1.08-7.45-.18-1.83-1.19-2.55-2-3.91a7.6,7.6,0,0,1-1.05-3.37c-.42-4.22,2.17-6.05,2.17-6.05s-41.86,7.85-42.71-3.61c-1.45-19.33,61.85,3.28,55.76-21.21-4.13-16.61-2.91-31,9.89-29.26C473.2,378.59,469.53,389,468.66,399Z"/><path class="cls-15" d="M456.28,218.32V241c-.21-.09-.41-.17-.62-.24l-.62-.2a5,5,0,0,0-.64-.17c-.22-.06-.43-.11-.65-.15s-.48-.09-.73-.12a10.34,10.34,0,0,0-1.26-.13l-.72,0a13.95,13.95,0,0,0-14,13.95V262a17.45,17.45,0,0,1-34.89,0v-8.14a14,14,0,0,0-14-13.95l-.68,0-.58,0-.38,0-.33,0-.37.06-.13,0a3.73,3.73,0,0,0-.46.09l-.18,0a3.34,3.34,0,0,0-.43.1c-.38.1-.75.21-1.11.34V218.62c.22.1.45.21.68.3l.54.21.2.08.64.21.14,0a3.8,3.8,0,0,0,.51.15,3.15,3.15,0,0,0,.44.11c.16.05.33.08.49.12l.7.12.3,0a4.43,4.43,0,0,0,.51.06l.31,0a15.18,15.18,0,0,0,1.52.07h58.15l.83,0,.68,0h0a1.27,1.27,0,0,0,.28,0c.17,0,.34,0,.51-.06s.45-.07.68-.12a3.26,3.26,0,0,0,.45-.09l.48-.11a3.58,3.58,0,0,0,.35-.09c.36-.09.71-.21,1.05-.33a3.12,3.12,0,0,0,.43-.15l.47-.19.44-.19c.15-.07.3-.13.44-.21S456.14,218.4,456.28,218.32Z"/><path class="cls-4" d="M351.6,451.08H175a10.55,10.55,0,0,1-10.56-10.55V281.44A10.56,10.56,0,0,1,175,270.88H277.27a10.57,10.57,0,0,1,6.69,2.39l45.35,37.12c.16.13.32.26.49.38l28,20.31a10.56,10.56,0,0,1,4.36,8.55v100.9A10.55,10.55,0,0,1,351.6,451.08Z"/><path class="cls-1" d="M361.69,386.77a8.1,8.1,0,0,1-5.86-2.44,10.22,10.22,0,0,1-5.74.45,7.64,7.64,0,0,1-5.26-4.19,7.8,7.8,0,0,1-.74-3.27,6.76,6.76,0,0,1-2.47-2.51c-1.37-2.45-1.28-5.76.25-9.33,2.18-5.08,2.56-9,1.18-11.9-2.59-5.47-11.66-8.47-22.36-11.57l-4.41-1.26c-18.43-5.23-41.36-11.75-58.92-30.41a80.85,80.85,0,0,1-5.76-6.85,3,3,0,0,1-.26-3.19,3,3,0,0,1,2.76-1.61,21.68,21.68,0,0,0,5.55-.64c12.54-2.85,66-12.84,73.7-13.43a17.63,17.63,0,0,0,2.7-.37l1.47,5.82a21.6,21.6,0,0,1-3.71.53c-7.57.58-60.4,10.48-72.84,13.3l-1.13.24c.62.71,1.25,1.4,1.88,2.08C278.16,323.68,300.2,330,317.92,335l4.44,1.27c12.12,3.5,22.45,7,26.11,14.77,2.16,4.57,1.81,10.07-1.08,16.83-.84,1.94-.87,3.42-.53,4,.05.11.23.42,1.1.54a3,3,0,0,1,2.26,4.32,1.52,1.52,0,0,0,0,1.3,1.62,1.62,0,0,0,1.17.91c.58.13,1.85.18,4-1a3,3,0,0,1,4.1,1.3,2.52,2.52,0,0,0,2.64,1.49v6Z"/><path class="cls-15" d="M374.28,380.88c-2.6,1.09-4.82.39-5.23-1.43-4.07,5.23-9.89,5.82-12.21,1.17-2.48,1.33-4.52,1.6-6.08,1.24a4.63,4.63,0,0,1-3.23-6.48c-4.07-.58-4.75-4.41-2.9-8.72,7.44-17.36-4.6-22.18-23.11-27.53s-43.55-11.27-62-30.85a77.08,77.08,0,0,1-5.54-6.59,25.11,25.11,0,0,0,6.31-.71c12.79-2.91,65.71-12.79,73.27-13.37a19.72,19.72,0,0,0,3.2-.45c8.75,17.8,26.46,24.57,37.5,39.38,4.75,6.35,8.26,14.19,9.31,25C385.43,370.52,379.17,378.84,374.28,380.88Z"/><path class="cls-1" d="M292.82,294.55c-1.23,4.52.84,9.5,1.9,11.6l-11.36-1.39c-.67-1.47-2.31-5.48-1.47-8.13h0l-1.26.24c-.53,2.64.63,5.95,1.39,7.74l-6.85-.84c-.88-1-2.55-3.37-2.6-5.32l-1.16.23a10.32,10.32,0,0,0,2.12,4.89l-6.61-.81a4.9,4.9,0,0,1-1.56-2.86l-1.16.25a5,5,0,0,0,1,2.4l-8.18-1a20.19,20.19,0,0,1-3,.15c.34.46.69.9,1,1.35l9.11,4a23.56,23.56,0,0,0-3.54,2.33c.27.28.54.56.82.83a18.71,18.71,0,0,1,4.17-2.52l5.65,2.49c-2.4,1.09-4.66,2.39-5.45,4l.92.79c.56-1.82,4.29-3.47,6-4.18l6.15,2.71a11.82,11.82,0,0,0-5.22,6.56l1,.65,0,0c1-2.58,2.34-5.15,5.59-6.56l11.47,5.05c-3.39,2.52-4.28,4-5.84,7.77l1.05.49c1.62-3.93,2.41-5.14,6.28-7.91l.05-.05s0,0,.05,0l0-.05,0-.06a1.12,1.12,0,0,0,.05-.13.64.64,0,0,1,0-.07.41.41,0,0,0,0-.19h0a.51.51,0,0,0-.07-.17c-1.65-2.75-.42-7.71,2.85-11.53l0,0a.55.55,0,0,0,.12-.39h0v-.06h0a.83.83,0,0,0-.08-.22c-.17-.28-4-6.9-2.15-12.24Zm-27.76,11.63-7.81-3.44,8.41,1A5.57,5.57,0,0,0,265.06,306.18Zm7.37.08a8.43,8.43,0,0,0-.5,2.95l-5.73-2.52c0-.94.19-2.44.84-2.73l0,0,6.25.76A5,5,0,0,0,272.43,306.26Zm7.3,6.39-6.58-2.9a6.62,6.62,0,0,1,.48-3.37A2.61,2.61,0,0,1,275,304.9l7.26.89A14,14,0,0,0,279.73,312.65Zm12,5.3-10.9-4.81c.48-4.87,2.66-7.1,2.68-7.12a.21.21,0,0,0,0-.06l11.08,1.35C292,310.78,290.92,315,291.75,318Z"/><path class="cls-1" d="M529.41,408c-19.64,3.82-22.12,9.15-27.07,19.77-.4.85-.81,1.74-1.25,2.66-1.9,4-8.62,7.47-13.16,5.71-2.25-.88-2.95-2.91-2-5.87.78-2.54,2.54-3,5-3.64,4.1-1.08,9.71-2.56,13.06-15.56a.58.58,0,0,0-1.08-.42,16.65,16.65,0,0,1-15.21,9.18,9.42,9.42,0,0,1-6.32-2.39,8.93,8.93,0,0,1-1.66-.17c1.52,2.2,4.37,3.57,7.93,3.72a17.67,17.67,0,0,0,14.08-6.45c-3.16,8.88-7.51,10-11.09,11-2.48.66-4.82,1.27-5.8,4.43-1.08,3.53-.09,6.19,2.74,7.29,5.19,2,12.5-1.83,14.63-6.29.44-.92.85-1.81,1.25-2.67,3.85-8.25,6.15-13.2,16.82-16.75-7.07,4.12-9.31,10.08-11.49,15.9-2.51,6.7-4.88,13-14.3,16.68-6.62,2.58-8,6-8.17,7.88a5.92,5.92,0,0,0,2.73,5.55c2.69,1.83,6.49,1.83,9.9,0,3.58-1.91,4.92-5.19,6.22-8.35,1.76-4.3,3.57-8.73,11.07-10.42-5.11,3.35-6.23,7.56-7.32,11.65s-2.1,7.9-7.05,10.76a24.23,24.23,0,0,1-4.16,1.76c-3.09,1.09-6,2.12-6.05,5.76l1.17-.14c.1-2.57,2-3.38,5.26-4.52a24.92,24.92,0,0,0,4.37-1.86c5.36-3.1,6.49-7.35,7.58-11.46,1.26-4.74,2.46-9.21,9.66-12.51a.58.58,0,0,0-.3-1.11c-11,1.1-13.29,6.7-15.31,11.65-1.27,3.11-2.47,6-5.69,7.77-3.62,1.93-6.86,1.29-8.69,0a4.75,4.75,0,0,1-2.23-4.45c.3-2.68,3-5.2,7.44-6.92,9.9-3.85,12.47-10.72,15-17.36,2.95-7.88,5.74-15.31,19.85-18.69a.58.58,0,0,0,.43-.68A.59.59,0,0,0,529.41,408Z"/><path class="cls-1" d="M562,408.94c-9.86-2.75-20.65-1.29-28.16,3.81-16.54,11.25-11,21.48-8.07,27,.62,1.16,1.4,2.61,1.2,3,0,.07-.29.19-.94.19a8.85,8.85,0,0,0-6.95,4,6.8,6.8,0,0,0-.56,6.68,5.93,5.93,0,0,0,3.82,3.61,7,7,0,0,0,3.58-.06,4.65,4.65,0,0,0-.93,2.47,3.67,3.67,0,0,0,.35,1.71l1.12-.38a2.45,2.45,0,0,1-.31-1.28c.06-1.28,1.13-2.7,3.12-4.08a.59.59,0,0,0,.14-.81.58.58,0,0,0-.81-.15c-1.47,1-3.9,2-6,1.46a4.86,4.86,0,0,1-3.07-3,5.64,5.64,0,0,1,.47-5.58,7.67,7.67,0,0,1,6-3.49,2.14,2.14,0,0,0,1.94-.76c.54-.91-.14-2.18-1.18-4.1-2.78-5.18-8-14.81,7.7-25.46,7.24-4.92,17.66-6.32,27.2-3.66,7.62,2.12,13.53,6.48,16.37,12,.24-.39.46-.78.69-1.18C575.65,415.38,569.65,411.07,562,408.94Z"/><path class="cls-1" d="M537.33,439.53a2.7,2.7,0,0,1-1-.17c-1-.37-1.91-1.4-2.72-3.22-2-4.46-3.18-11,.05-14.91,2.56-3.07,7.27-3.8,14-2.16s9.62,7.44,8.76,12c-.71,3.75-3.54,5.86-7.23,5.37s-6.27.81-8.38,1.86A8.55,8.55,0,0,1,537.33,439.53Zm4.1-20.16c-3.1,0-5.39.87-6.84,2.6-2.88,3.46-1.74,9.54.12,13.7.66,1.49,1.34,2.34,2,2.6.92.33,2.09-.25,3.57-1a14.88,14.88,0,0,1,9-2c3.67.49,5.47-2,5.93-4.44.77-4.06-1.74-9.2-7.89-10.7A26,26,0,0,0,541.43,419.37Z"/><path class="cls-1" d="M545,445.07c-4.22.31-6.78,1.35-7.6,3.1s.21,4.09,3.21,6.94l1.11-.55c-2.75-2.54-3.88-4.57-3.26-5.9,1.23-2.65,9-3,16.53-2l1.36-1A54.17,54.17,0,0,0,545,445.07Z"/><path class="cls-1" d="M369.05,379.45a2.3,2.3,0,0,0,.59,1.11.58.58,0,0,0,.19-.16c3.75-5,8.26-17.29,5.34-30.71a.59.59,0,1,0-1.16.25c2.77,12.76-1.53,24.76-5,29.54Z"/><path class="cls-1" d="M366.88,352.66a.59.59,0,0,0-1.18.14c1.41,12.68-3.49,24.61-9,27.86l.1,0a6.41,6.41,0,0,0,.62,1C364.55,377.28,368.06,363.22,366.88,352.66Z"/><path class="cls-1" d="M358.33,355.05a.59.59,0,0,0-.59-.59h0a.59.59,0,0,0-.59.6c.07,7.42-2.68,15.56-6.41,18.93a4.57,4.57,0,0,1-3.2,1.41,4.25,4.25,0,0,0-.37,1.16h0l.48,0a5.78,5.78,0,0,0,3.85-1.73C355.48,371.3,358.41,362.78,358.33,355.05Z"/><path class="cls-1" d="M351.69,322a.59.59,0,0,0-.65-.3,33.79,33.79,0,0,1-6.29.94c3.45-2.37,5.36-7.06,5.45-7.28a.57.57,0,0,0-.23-.7.55.55,0,0,0-.73.09,11.17,11.17,0,0,1-4.1,3c1-2.34,1.17-4.39.55-6A9.14,9.14,0,0,0,336.5,306a9,9,0,0,0-7.83,4.64c-2.35-3.61-6.1-5.91-9.83-5.95h-.11a8.17,8.17,0,0,0-7.29,4.39,8.78,8.78,0,0,0-.91,5.7h0c-5.63,3.55-8.17,10.38-8.2,10.48a.58.58,0,0,0,1,.52,12.93,12.93,0,0,1,6.49-5c-2.52,3.52-1,8.94-1,9.21a.59.59,0,0,0,.56.42h0a.57.57,0,0,0,.54-.47,7.81,7.81,0,0,1,5.17-6.1,34.72,34.72,0,0,0,12.8,8.85,1.64,1.64,0,0,0,.69.14,2.36,2.36,0,0,0,.61-.09,21,21,0,0,0,7.91-4.72c.47.08.94.14,1.38.18,6.09.57,12.69-5.26,13-5.51A.58.58,0,0,0,351.69,322Zm-39.24-12.37a7.07,7.07,0,0,1,6.37-3.79c3.66,0,7.37,2.54,9.44,6.38a.58.58,0,0,0,.57.3.59.59,0,0,0,.5-.41c1-3.27,4.32-4.85,7.21-5a8,8,0,0,1,8.06,5c.58,1.49.26,3.56-.93,6a22.39,22.39,0,0,1-6.53-.07,39.5,39.5,0,0,1-9.77-2.87,34.26,34.26,0,0,0-8.06-2.45,13.08,13.08,0,0,0-7.68,1.37A7.46,7.46,0,0,1,312.45,309.59Zm16.57,22a.81.81,0,0,1-.58,0,33.79,33.79,0,0,1-12-8.15,10.73,10.73,0,0,1,3.57-.21,47,47,0,0,1,6.57,1.86c3,1,6.22,2,9.14,2.63A19,19,0,0,1,329,331.59ZM338.7,327c-3.38-.31-7.83-1.76-11.75-3a46.57,46.57,0,0,0-6.78-1.9c-2.88-.36-8.3.41-10.54,5.29-.2-2.26,0-5.61,2.59-7.28a.58.58,0,0,0-.32-1.07h-.07a14.46,14.46,0,0,0-6.55,2.92c2.29-3.74,6.8-8.91,13.9-8.07a34,34,0,0,1,7.77,2.38A40.27,40.27,0,0,0,337,319.21a23,23,0,0,0,7.17,0h.06a9.07,9.07,0,0,0,3.41-1.52,11.69,11.69,0,0,1-4.78,4.64.58.58,0,0,0-.33.37.71.71,0,0,0,.16.68c.65.69,3.71.35,6.17-.08C346.53,325,342.41,327.36,338.7,327Z"/><path class="cls-1" d="M332.14,298.72l2.95-2.46a.58.58,0,1,0-.74-.89l-2.76,2.29-.95-4.3a.58.58,0,1,0-1.14.26l1,4.42-3.84-.48a.58.58,0,1,0-.14,1.16l3.72.46-1.81,2.71a.59.59,0,0,0,.16.8.58.58,0,0,0,.81-.16l2-2.95,3,2.49a.54.54,0,0,0,.37.14.58.58,0,0,0,.37-1Z"/><path class="cls-1" d="M308.43,304.89l-3.75-.13,1.56-2.86a.58.58,0,1,0-1-.55l-1.7,3.11-3.2-2.23a.59.59,0,0,0-.81.15.58.58,0,0,0,.15.81l3.15,2.19-2.72,2.71a.57.57,0,0,0,0,.82.54.54,0,0,0,.41.17.59.59,0,0,0,.41-.16l2.54-2.53,1.33,4.2a.58.58,0,0,0,.55.4.55.55,0,0,0,.18,0,.58.58,0,0,0,.38-.73l-1.37-4.33,3.86.15h0a.59.59,0,0,0,0-1.17Z"/><path class="cls-1" d="M348.2,337.3l-4.38-1.19,2.21-3.17a.58.58,0,1,0-.95-.66l-2.14,3.07-1.56-2.85a.58.58,0,0,0-.79-.24.59.59,0,0,0-.23.79l1.69,3.12-3.6,1.48a.59.59,0,0,0-.31.76.59.59,0,0,0,.76.32l3.55-1.47.8,3.76a.59.59,0,0,0,.57.46l.12,0a.57.57,0,0,0,.45-.69l-.75-3.5,4.25,1.15a.47.47,0,0,0,.16,0,.59.59,0,0,0,.56-.42A.6.6,0,0,0,348.2,337.3Z"/><path class="cls-1" d="M249.85,257.08a12.1,12.1,0,0,1,2.32.3c9.78,2.26,66.87,15.12,77.92,17.44s4.07,4.07,7,7.56c2.25,2.7,2.5,4.08-.29,4.78a19.72,19.72,0,0,1-3.2.45c-7.56.58-60.48,10.46-73.27,13.37a25.11,25.11,0,0,1-6.31.71c-8.42-.26-10.19-6.47-10.55-11.17-4-3.67-4.38-9.06-3.63-13.54h0a23.67,23.67,0,0,1,2.46-7.39c-2.31-6.46.52-11.45,5.56-12.36A9.42,9.42,0,0,1,249.85,257.08Z"/><path class="cls-1" d="M465,262.31v115.2c-12.8-1.7-14,12.65-9.89,29.26,6.09,24.49-57.21,1.88-55.76,21.21.85,11.46,42.71,3.61,42.71,3.61s-2.59,1.83-2.17,6.05a7.6,7.6,0,0,0,1.05,3.37,45.37,45.37,0,0,1-66.45-35.65c-.14-1.45-.21-2.91-.21-4.4V380.88c4.89-2,11.15-10.36,9.31-29.33-1-10.82-4.56-18.66-9.31-25V253.89a13.92,13.92,0,0,1,9.31-13.14c.36-.13.73-.25,1.11-.35l.43-.1.18,0a3.73,3.73,0,0,1,.46-.09l.13,0,.37-.06.33,0,.38,0,.58,0,.68,0a14,14,0,0,1,14,13.95V262a17.45,17.45,0,0,0,34.89,0v-8.14a13.95,13.95,0,0,1,14-13.95l.72,0a10.55,10.55,0,0,1,1.26.13c.25,0,.49.07.73.12s.43.09.65.15l.64.17.62.2.62.24A13.93,13.93,0,0,1,465,253.89Z"/></g></g></svg>