<svg xmlns="http://www.w3.org/2000/svg" xmlns:xlink="http://www.w3.org/1999/xlink" viewBox="0 0 1000 1054.38"><defs><style>.cls-1{fill:#e1e6e6;}.cls-2{fill:#dce0e0;}.cls-3{fill:#e1e5e5;}.cls-4{fill:#cdd1d1;}.cls-5{fill:#bcbfbf;}.cls-6{fill:#c5cccc;}.cls-7{fill:#a3a6a6;}.cls-8{fill:url(#Безымянный_градиент_3);}.cls-9{opacity:0.7;fill:url(#Безымянный_градиент_93);}.cls-10{fill:url(#Безымянный_градиент_2);}.cls-11{fill:url(#Безымянный_градиент_108);}.cls-12{fill:url(#Безымянный_градиент_102);}.cls-13{fill:none;}.cls-14{fill:url(#Безымянный_градиент_121);}.cls-15{fill:#8a8c8c;}.cls-16{fill:url(#Безымянный_градиент_114);}.cls-17{fill:url(#Безымянный_градиент_122);}.cls-18{fill:#b5b8b8;}.cls-19{fill:#e3e4e5;}.cls-20{fill:url(#Безымянный_градиент_136);}.cls-21{fill:#d7dbdb;}.cls-22{fill:url(#Безымянный_градиент_127);}.cls-23{fill:url(#Безымянный_градиент_84);}.cls-24{fill:url(#Безымянный_градиент_32);}.cls-25{fill:url(#Безымянный_градиент_33);}.cls-26{opacity:0.6;fill:url(#Безымянный_градиент_40);}.cls-27{fill:url(#Безымянный_градиент_58);}.cls-28{fill:url(#Безымянный_градиент_64);}.cls-29{fill:url(#Безымянный_градиент_78);}.cls-30{fill:url(#Безымянный_градиент_83);}.cls-31{fill:url(#Безымянный_градиент_83-2);}</style><radialGradient id="Безымянный_градиент_3" cx="651.11" cy="808.27" fx="583.5958641072727" fy="791.4264533097738" r="144.97" gradientTransform="matrix(-0.37, 0.93, -0.64, -0.25, 1406.84, 406.41)" gradientUnits="userSpaceOnUse"><stop offset="0.27" stop-color="#a3a6a6" stop-opacity="0"/><stop offset="0.33" stop-color="#9fa2a2" stop-opacity="0.14"/><stop offset="0.47" stop-color="#989a9a" stop-opacity="0.45"/><stop offset="0.61" stop-color="#929494" stop-opacity="0.69"/><stop offset="0.75" stop-color="#8e9090" stop-opacity="0.86"/><stop offset="0.87" stop-color="#8b8d8d" stop-opacity="0.96"/><stop offset="0.97" stop-color="#8a8c8c"/></radialGradient><radialGradient id="Безымянный_градиент_93" cx="726.26" cy="999.27" fx="690.4082160501487" r="175.36" gradientTransform="matrix(-1, -0.05, 0.01, -0.24, 1446.09, 1273.76)" gradientUnits="userSpaceOnUse"><stop offset="0" stop-color="#656666"/><stop offset="0.22" stop-color="#6a6b6b" stop-opacity="0.97"/><stop offset="0.41" stop-color="#7b7b7b" stop-opacity="0.86"/><stop offset="0.6" stop-color="#969696" stop-opacity="0.68"/><stop offset="0.77" stop-color="#bcbdbd" stop-opacity="0.43"/><stop offset="0.95" stop-color="#ededed" stop-opacity="0.12"/><stop offset="1" stop-color="#fff" stop-opacity="0"/></radialGradient><radialGradient id="Безымянный_градиент_2" cx="769.24" cy="789.73" fx="716.4750037774136" fy="775.9352020969956" r="189.48" gradientTransform="matrix(-0.09, 1, -0.57, -0.05, 1290.9, 64.64)" gradientUnits="userSpaceOnUse"><stop offset="0.37" stop-color="#a3a6a6" stop-opacity="0"/><stop offset="0.45" stop-color="#a1a4a4" stop-opacity="0.06"/><stop offset="0.57" stop-color="#9da0a0" stop-opacity="0.23"/><stop offset="0.73" stop-color="#979999" stop-opacity="0.49"/><stop offset="0.91" stop-color="#8d9090" stop-opacity="0.86"/><stop offset="0.97" stop-color="#8a8c8c"/></radialGradient><radialGradient id="Безымянный_градиент_108" cx="845.38" cy="733.02" r="133.91" gradientTransform="matrix(0.97, -0.24, 0.13, 0.54, -72.63, 533.84)" gradientUnits="userSpaceOnUse"><stop offset="0.58" stop-color="#8a8c8c"/><stop offset="0.66" stop-color="#8b8d8d" stop-opacity="0.98"/><stop offset="0.73" stop-color="#8d8f8f" stop-opacity="0.9"/><stop offset="0.8" stop-color="#909292" stop-opacity="0.77"/><stop offset="0.86" stop-color="#949797" stop-opacity="0.59"/><stop offset="0.92" stop-color="#9a9d9d" stop-opacity="0.35"/><stop offset="0.99" stop-color="#a1a4a4" stop-opacity="0.07"/><stop offset="1" stop-color="#a3a6a6" stop-opacity="0"/></radialGradient><radialGradient id="Безымянный_градиент_102" cx="848.01" cy="910.35" r="31.13" gradientTransform="translate(0 -684.86) scale(1 1.75)" gradientUnits="userSpaceOnUse"><stop offset="0.26" stop-color="#a3a6a6" stop-opacity="0"/><stop offset="0.41" stop-color="#9c9f9f" stop-opacity="0.29"/><stop offset="0.58" stop-color="#949797" stop-opacity="0.59"/><stop offset="0.74" stop-color="#8f9191" stop-opacity="0.82"/><stop offset="0.88" stop-color="#8b8d8d" stop-opacity="0.95"/><stop offset="0.97" stop-color="#8a8c8c"/></radialGradient><radialGradient id="Безымянный_градиент_121" cx="855.99" cy="934.9" fx="924.609540596726" fy="934.8988888388758" r="69.32" gradientUnits="userSpaceOnUse"><stop offset="0.52" stop-color="#cdd1d1" stop-opacity="0"/><stop offset="0.59" stop-color="#b9bcbc" stop-opacity="0.3"/><stop offset="0.66" stop-color="#a8abab" stop-opacity="0.55"/><stop offset="0.74" stop-color="#9b9d9d" stop-opacity="0.75"/><stop offset="0.81" stop-color="#919494" stop-opacity="0.89"/><stop offset="0.88" stop-color="#8c8e8e" stop-opacity="0.97"/><stop offset="0.96" stop-color="#8a8c8c"/></radialGradient><radialGradient id="Безымянный_градиент_114" cx="870.96" cy="951.55" fx="890.734578868241" fy="918.2142513033228" r="76.6" gradientTransform="matrix(0.85, 0.52, -0.71, 1.17, 806.36, -615.95)" gradientUnits="userSpaceOnUse"><stop offset="0.52" stop-color="#8a8c8c" stop-opacity="0"/><stop offset="0.54" stop-color="#868888" stop-opacity="0.11"/><stop offset="0.62" stop-color="#7a7c7c" stop-opacity="0.43"/><stop offset="0.7" stop-color="#717272" stop-opacity="0.68"/><stop offset="0.78" stop-color="#6a6b6b" stop-opacity="0.86"/><stop offset="0.86" stop-color="#666767" stop-opacity="0.97"/><stop offset="0.96" stop-color="#656666"/></radialGradient><radialGradient id="Безымянный_градиент_122" cx="773.54" cy="991.63" fx="712.6115899927831" fy="1006.4552072690885" r="89.29" gradientTransform="translate(1303.9 1882.93) rotate(-162.52) scale(1 0.7)" gradientUnits="userSpaceOnUse"><stop offset="0.58" stop-color="#8a8c8c" stop-opacity="0"/><stop offset="0.62" stop-color="#808282" stop-opacity="0.27"/><stop offset="0.67" stop-color="#767878" stop-opacity="0.53"/><stop offset="0.72" stop-color="#6f7070" stop-opacity="0.74"/><stop offset="0.78" stop-color="#696a6a" stop-opacity="0.89"/><stop offset="0.85" stop-color="#666767" stop-opacity="0.97"/><stop offset="0.96" stop-color="#656666"/></radialGradient><radialGradient id="Безымянный_градиент_136" cx="620.33" cy="709.29" r="50.31" gradientTransform="translate(1420.87 2023.8) rotate(172.43) scale(1 1.99)" gradientUnits="userSpaceOnUse"><stop offset="0" stop-color="#8a8c8c" stop-opacity="0"/><stop offset="0.1" stop-color="#848686" stop-opacity="0.15"/><stop offset="0.36" stop-color="#777878" stop-opacity="0.52"/><stop offset="0.61" stop-color="#6d6e6e" stop-opacity="0.78"/><stop offset="0.83" stop-color="#676868" stop-opacity="0.94"/><stop offset="1" stop-color="#656666"/></radialGradient><radialGradient id="Безымянный_градиент_127" cx="542.15" cy="514.78" r="230.58" gradientTransform="translate(286.12 -27.59) rotate(39.41) scale(1 0.5)" gradientUnits="userSpaceOnUse"><stop offset="0" stop-color="#8a8c8c"/><stop offset="0.15" stop-color="#8d8f8f" stop-opacity="0.96"/><stop offset="0.32" stop-color="#959797" stop-opacity="0.86"/><stop offset="0.51" stop-color="#a2a4a4" stop-opacity="0.69"/><stop offset="0.71" stop-color="#b4b7b7" stop-opacity="0.45"/><stop offset="0.91" stop-color="#cbcfcf" stop-opacity="0.15"/><stop offset="1" stop-color="#d7dbdb" stop-opacity="0"/></radialGradient><radialGradient id="Безымянный_градиент_84" cx="711.27" cy="321.54" r="118.59" gradientTransform="matrix(0.99, -0.15, 0.09, 0.61, -21.58, 231.33)" gradientUnits="userSpaceOnUse"><stop offset="0.31" stop-color="#b5b8b8" stop-opacity="0"/><stop offset="0.37" stop-color="#b0b3b3" stop-opacity="0.11"/><stop offset="0.67" stop-color="#9c9e9e" stop-opacity="0.59"/><stop offset="0.89" stop-color="#8f9191" stop-opacity="0.89"/><stop offset="1" stop-color="#8a8c8c"/></radialGradient><radialGradient id="Безымянный_градиент_32" cx="845.77" cy="578.76" r="143.4" gradientTransform="translate(-224.31 793.35) rotate(-50.54) scale(1 1.19)" gradientUnits="userSpaceOnUse"><stop offset="0.37" stop-color="#8a8c8c" stop-opacity="0"/><stop offset="0.77" stop-color="#717373" stop-opacity="0.66"/><stop offset="1" stop-color="#656666"/></radialGradient><radialGradient id="Безымянный_градиент_33" cx="530.63" cy="477.63" r="142.87" gradientTransform="translate(0 140.59) scale(1 0.71)" gradientUnits="userSpaceOnUse"><stop offset="0.6" stop-color="#8a8c8c" stop-opacity="0"/><stop offset="0.85" stop-color="#717373" stop-opacity="0.66"/><stop offset="1" stop-color="#656666"/></radialGradient><radialGradient id="Безымянный_градиент_40" cx="667.23" cy="535.71" r="365.55" gradientTransform="translate(592.22 -313.63) rotate(46.45) scale(1 0.99)" gradientUnits="userSpaceOnUse"><stop offset="0.75" stop-color="#e3e4e5" stop-opacity="0"/><stop offset="0.91" stop-color="#8f9091" stop-opacity="0.66"/><stop offset="1" stop-color="#656666"/></radialGradient><radialGradient id="Безымянный_градиент_58" cx="724.89" cy="451.6" r="119.96" gradientTransform="translate(966.75 1287.06) rotate(-139.69) scale(1 1.06)" gradientUnits="userSpaceOnUse"><stop offset="0.65" stop-color="#e3e4e5" stop-opacity="0"/><stop offset="0.7" stop-color="#d7d8d9" stop-opacity="0.13"/><stop offset="0.91" stop-color="#a0a2a2" stop-opacity="0.75"/><stop offset="1" stop-color="#8a8c8c"/></radialGradient><radialGradient id="Безымянный_градиент_64" cx="695.96" cy="552.3" r="99.36" gradientTransform="matrix(1, 0.08, -0.16, 2.14, 90.93, -681.46)" gradientUnits="userSpaceOnUse"><stop offset="0" stop-color="#b2b8b8" stop-opacity="0"/><stop offset="0.17" stop-color="#b1b7b7" stop-opacity="0.03"/><stop offset="0.34" stop-color="#aeb3b3" stop-opacity="0.11"/><stop offset="0.51" stop-color="#a8adad" stop-opacity="0.25"/><stop offset="0.68" stop-color="#a0a4a4" stop-opacity="0.45"/><stop offset="0.84" stop-color="#969999" stop-opacity="0.7"/><stop offset="1" stop-color="#8a8c8c"/></radialGradient><radialGradient id="Безымянный_градиент_78" cx="703.01" cy="417.98" r="45.01" gradientTransform="translate(22.37 -328.07) rotate(1.74) scale(1 1.73)" gradientUnits="userSpaceOnUse"><stop offset="0.3" stop-color="#8a8c8c"/><stop offset="0.39" stop-color="#8c8e8e" stop-opacity="0.94"/><stop offset="0.53" stop-color="#939595" stop-opacity="0.79"/><stop offset="0.7" stop-color="#9ea0a0" stop-opacity="0.55"/><stop offset="0.9" stop-color="#acafaf" stop-opacity="0.2"/><stop offset="1" stop-color="#b5b8b8" stop-opacity="0"/></radialGradient><radialGradient id="Безымянный_градиент_83" cx="958.52" cy="632.93" r="173.23" gradientTransform="matrix(0.98, -0.19, 0.05, 0.24, -11.94, 662.26)" gradientUnits="userSpaceOnUse"><stop offset="0" stop-color="#b5b8b8" stop-opacity="0"/><stop offset="0.21" stop-color="#b4b7b7" stop-opacity="0.02"/><stop offset="0.38" stop-color="#b1b4b4" stop-opacity="0.09"/><stop offset="0.53" stop-color="#acafaf" stop-opacity="0.21"/><stop offset="0.67" stop-color="#a5a7a7" stop-opacity="0.38"/><stop offset="0.81" stop-color="#9b9e9e" stop-opacity="0.6"/><stop offset="0.94" stop-color="#909292" stop-opacity="0.86"/><stop offset="1" stop-color="#8a8c8c"/></radialGradient><radialGradient id="Безымянный_градиент_83-2" cx="431.7" cy="465.94" r="148.37" gradientTransform="translate(854.59 628.03) rotate(-176.62) scale(1 0.29)" xlink:href="#Безымянный_градиент_83"/></defs><g id="Слой_2" data-name="Слой 2"><g id="градиенты"><rect class="cls-1" y="672.5" width="311.91" height="311.8" rx="17.72"/><rect class="cls-2" x="93.57" y="541.78" width="140.53" height="130.72" rx="10.63"/><path class="cls-3" d="M863.17,109.26H462.23c12.66-39.5,47.49-67.89,88.48-67.89a87.87,87.87,0,0,1,39.71,9.5C596.31,21.94,624.69,0,658.8,0c38.39,0,69.52,27.78,69.52,62.06,0,1.33-.06,2.65-.15,4C742.55,55.92,761,49.86,781,49.86,822.36,49.86,856.65,75.57,863.17,109.26Z"/><path class="cls-2" d="M550.58,266.56H38.38C54.55,223.17,99.05,192,151.41,192a127.33,127.33,0,0,1,50.73,10.42c7.53-31.77,43.78-55.87,87.36-55.87,49.05,0,88.81,30.52,88.81,68.16,0,1.46-.07,2.9-.19,4.35,18.37-11.1,41.89-17.75,67.52-17.75C498.44,201.32,542.25,229.55,550.58,266.56Z"/><rect class="cls-4" x="209.92" y="757.02" width="333.17" height="269.28" rx="17.72"/><polygon class="cls-5" points="360.56 757.02 360.56 838.54 360.56 842.85 360.56 852.68 364.97 846.18 369.61 852.15 374.62 845.35 379.33 849.81 382.82 844.82 387.38 852.23 391.71 845.27 396 851.62 396 842.85 396 838.01 396 757.02 360.56 757.02"/><polygon class="cls-6" points="146.12 541.78 146.12 571.65 146.12 575.96 146.12 585.78 150.53 579.28 155.17 585.25 160.18 578.45 164.89 582.91 168.38 577.92 172.94 585.33 177.27 578.38 181.56 584.73 181.56 575.96 181.56 571.12 181.56 541.78 146.12 541.78"/><path class="cls-5" d="M293,1004H243a4.95,4.95,0,1,1,0-9.89h50a4.95,4.95,0,1,1,0,9.89Z"/><path class="cls-5" d="M257.06,920.36a4.68,4.68,0,0,0-7.79,0l-8.4,13a4.43,4.43,0,0,0,3.89,6.79h3.83V987a4.58,4.58,0,0,0,9.15,0V940.12h3.83a4.44,4.44,0,0,0,3.9-6.79Z"/><path class="cls-5" d="M295.55,933.12l-8.41-13a4.76,4.76,0,0,0-7.9,0l-8.41,13a4.42,4.42,0,0,0,3.95,6.73h3.83V987a4.58,4.58,0,0,0,9.15,0V939.85h3.84A4.42,4.42,0,0,0,295.55,933.12Z"/><path class="cls-4" d="M80.26,726.27H68.82a19.69,19.69,0,0,0-1.57-5.49,3.08,3.08,0,0,0-5.61,2.53,14,14,0,0,1,1,3H52V715.52a13.77,13.77,0,0,1,2.72.9,3.22,3.22,0,0,0,1.27.27,3.07,3.07,0,0,0,1.28-5.86A19.88,19.88,0,0,0,52,709.31V692a3,3,0,0,0-6,0v17.33a19.88,19.88,0,0,0-5.27,1.52,3.05,3.05,0,0,0-1.53,4.06,3.09,3.09,0,0,0,4.08,1.53,13.77,13.77,0,0,1,2.72-.9v10.75H35.41a14,14,0,0,1,1-3,3.08,3.08,0,0,0-5.61-2.53,19.59,19.59,0,0,0-1.57,5.49H17.74a2.73,2.73,0,1,0,0,5.46H29.18a19.59,19.59,0,0,0,1.57,5.49,3.07,3.07,0,0,0,2.81,1.8,3,3,0,0,0,1.26-.27,3.07,3.07,0,0,0,1.54-4.06,14,14,0,0,1-1-3H46v10.75a14.08,14.08,0,0,1-2.73-.9,3.07,3.07,0,1,0-2.54,5.59A20,20,0,0,0,46,748.69V766a3,3,0,0,0,6,0V748.69a20,20,0,0,0,5.27-1.52,3.05,3.05,0,0,0,1.53-4.06,3.09,3.09,0,0,0-4.07-1.53,14.08,14.08,0,0,1-2.73.9V731.73h10.6a14,14,0,0,1-1,3,3.06,3.06,0,0,0,1.54,4.06,3,3,0,0,0,1.26.27,3.07,3.07,0,0,0,2.81-1.8,19.69,19.69,0,0,0,1.57-5.49H80.26a2.73,2.73,0,1,0,0-5.46Z"/><path class="cls-7" d="M823.48,879.47c.53-4.27,2.14-8.38,2.47-12.68.78-10.24-5.78-19.94-5.24-30.2.27-5.33,2.34-11.19-.62-15.63-.64-1-1.5-1.79-2.24-2.71a14.11,14.11,0,0,1-2.41-12.94,48.31,48.31,0,0,0,1.85-5.26c.73-3.74-1-7.73.17-11.35l-.13-1.32c-35.4,3.4-63.27.4-67.39-1.49-7.62-3.51-4.49-11-4.62-15s-3.44-7.72-3.77-11.74c-.42-5.06,2.39-6.68,1.82-12.51-.31-3.07-2-4.28-3.38-6.56a76.2,76.2,0,0,1-99.42-25.5l-32.78,2.21h0l-4.15.28c.72,2.64,1.43,5.59,2,8.95-.5,17.21-3.56,42.17-1.59,55.48a17.86,17.86,0,0,0,1.27,4.78c.77,1.65,2,3.07,2.78,4.69,4.19,8.28-2.28,18.34-.37,27.42,1,4.82,4.3,8.83,6.27,13.35,2.74,6.3,2.91,13.51,5.86,19.71,3.11,6.54,9,11.28,14.65,15.79l22,17.48c4.83,3.84,9.74,7.73,15.45,10.08,3.89,1.59,8.21,2.52,11.38,5.28,1.38,1.19,3.82,4.6,5.18,5.8,5.4,5,11.51,9.22,17.58,13.41,3,2.08,6.36,4.27,10,4.25.65,3.37,1.63,6.72,1.77,10.14.12,3.18-.46,6.46.45,9.51,1,3.21,3.56,6.55,2,9.51l.13.22a7.17,7.17,0,0,1,3.74-1H820.9a7.19,7.19,0,0,1,3.07.68l.32-.68c-.18-2.6-.52-7.86-.82-12.66-.22-3.39-.42-6.53-.54-8.35a32.73,32.73,0,0,0-1-7c-.52-1.74-1.34-3.42-1.43-5.23-.14-2.95,1.67-5.59,2.77-8.33,3.61-9-.5-19.18,0-28.9Q823.36,880.46,823.48,879.47Z"/><path class="cls-8" d="M823.48,879.47c.53-4.27,2.14-8.38,2.47-12.68.78-10.24-5.78-19.94-5.24-30.2.27-5.33,2.34-11.19-.62-15.63-.64-1-1.5-1.79-2.24-2.71a14.11,14.11,0,0,1-2.41-12.94,48.31,48.31,0,0,0,1.85-5.26c.73-3.74-1-7.73.17-11.35l-.13-1.32c-35.4,3.4-63.27.4-67.39-1.49-7.62-3.51-4.49-11-4.62-15s-3.44-7.72-3.77-11.74c-.42-5.06,2.39-6.68,1.82-12.51-.31-3.07-2-4.28-3.38-6.56a76.2,76.2,0,0,1-99.42-25.5l-32.78,2.21h0l-4.15.28c.72,2.64,1.43,5.59,2,8.95-.5,17.21-3.56,42.17-1.59,55.48a17.86,17.86,0,0,0,1.27,4.78c.77,1.65,2,3.07,2.78,4.69,4.19,8.28-2.28,18.34-.37,27.42,1,4.82,4.3,8.83,6.27,13.35,2.74,6.3,2.91,13.51,5.86,19.71,3.11,6.54,9,11.28,14.65,15.79l22,17.48c4.83,3.84,9.74,7.73,15.45,10.08,3.89,1.59,8.21,2.52,11.38,5.28,1.38,1.19,3.82,4.6,5.18,5.8,5.4,5,11.51,9.22,17.58,13.41,3,2.08,6.36,4.27,10,4.25.65,3.37,1.63,6.72,1.77,10.14.12,3.18-.46,6.46.45,9.51,1,3.21,3.56,6.55,2,9.51l.13.22a7.17,7.17,0,0,1,3.74-1H820.9a7.19,7.19,0,0,1,3.07.68l.32-.68c-.18-2.6-.52-7.86-.82-12.66-.22-3.39-.42-6.53-.54-8.35a32.73,32.73,0,0,0-1-7c-.52-1.74-1.34-3.42-1.43-5.23-.14-2.95,1.67-5.59,2.77-8.33,3.61-9-.5-19.18,0-28.9Q823.36,880.46,823.48,879.47Z"/><path class="cls-9" d="M747.16,1026.85s62.72-82,61.6-82.85S665.7,877.3,665.7,877.3L519.53,915.94l13.39,138.44Z"/><path class="cls-7" d="M816,807.12a10.93,10.93,0,0,0-.42,4.16c.51,3.05,3.51,5,5.22,7.54,4,6.14.07,14.27.42,21.62.3,6.38,3.94,12.16,4.89,18.47,1.4,9.28-3.12,18.59-2.36,27.94.54,6.8,3.86,13.53,2.35,20.18-.63,2.78-2.07,5.31-2.81,8.06-1,3.67-.68,7.54-.36,11.33l1.14,13.74c.46,5.5.87,11.31-1.49,16.31-2.93,6.23-9.6,9.9-16.29,11.57s-13.66,1.75-20.43,3.06c-6,1.15-11.8,3.26-17.88,3.41-7,.16-13.86-2.33-20.47-4.78l-24.47-9.09a6,6,0,0,1-2.72-1.6,6.06,6.06,0,0,1-1-3l-2.73-18c-1.87-12.29-3.74-24.77-2.05-37.08.78-5.65,2.3-11.33,1.47-17-.89-6-4.4-11.42-5.2-17.44-1-7.4,2.17-14.66,3.16-22.06,2.24-16.67-6.59-33.71-2.78-50.09,1.48-6.4,4.85-12.41,5-19,.19-9.26-6.13-18-4.73-27.16,1.46-9.51,11-15.95,20.47-17.67s19.17.07,28.78.51c5.83.26,11.72,0,17.43,1.27,15.23,3.28,26.21,16.08,36.84,27.47,2,2.14,4.24,4.48,4.71,7.49.4,2.58-.93,4.35-1.28,6.74-.47,3.21.28,6.84.26,10.1a102.37,102.37,0,0,1-.6,10.79A104,104,0,0,1,816,807.12Z"/><path class="cls-10" d="M816,807.12a10.93,10.93,0,0,0-.42,4.16c.51,3.05,3.51,5,5.22,7.54,4,6.14.07,14.27.42,21.62.3,6.38,3.94,12.16,4.89,18.47,1.4,9.28-3.12,18.59-2.36,27.94.54,6.8,3.86,13.53,2.35,20.18-.63,2.78-2.07,5.31-2.81,8.06-1,3.67-.68,7.54-.36,11.33l1.14,13.74c.46,5.5.87,11.31-1.49,16.31-2.93,6.23-9.6,9.9-16.29,11.57s-13.66,1.75-20.43,3.06c-6,1.15-11.8,3.26-17.88,3.41-7,.16-13.86-2.33-20.47-4.78l-24.47-9.09a6,6,0,0,1-2.72-1.6,6.06,6.06,0,0,1-1-3l-2.73-18c-1.87-12.29-3.74-24.77-2.05-37.08.78-5.65,2.3-11.33,1.47-17-.89-6-4.4-11.42-5.2-17.44-1-7.4,2.17-14.66,3.16-22.06,2.24-16.67-6.59-33.71-2.78-50.09,1.48-6.4,4.85-12.41,5-19,.19-9.26-6.13-18-4.73-27.16,1.46-9.51,11-15.95,20.47-17.67s19.17.07,28.78.51c5.83.26,11.72,0,17.43,1.27,15.23,3.28,26.21,16.08,36.84,27.47,2,2.14,4.24,4.48,4.71,7.49.4,2.58-.93,4.35-1.28,6.74-.47,3.21.28,6.84.26,10.1a102.37,102.37,0,0,1-.6,10.79A104,104,0,0,1,816,807.12Z"/><path class="cls-11" d="M816,807.12a10.93,10.93,0,0,0-.42,4.16c.51,3.05,3.51,5,5.22,7.54,4,6.14.07,14.27.42,21.62.3,6.38,3.94,12.16,4.89,18.47,1.4,9.28-3.12,18.59-2.36,27.94.54,6.8,3.86,13.53,2.35,20.18-.63,2.78-2.07,5.31-2.81,8.06-1,3.67-.68,7.54-.36,11.33l1.14,13.74c.46,5.5.87,11.31-1.49,16.31-2.93,6.23-9.6,9.9-16.29,11.57s-13.66,1.75-20.43,3.06c-6,1.15-11.8,3.26-17.88,3.41-7,.16-13.86-2.33-20.47-4.78l-24.47-9.09a6,6,0,0,1-2.72-1.6,6.06,6.06,0,0,1-1-3l-2.73-18c-1.87-12.29-3.74-24.77-2.05-37.08.78-5.65,2.3-11.33,1.47-17-.89-6-4.4-11.42-5.2-17.44-1-7.4,2.17-14.66,3.16-22.06,2.24-16.67-6.59-33.71-2.78-50.09,1.48-6.4,4.85-12.41,5-19,.19-9.26-6.13-18-4.73-27.16,1.46-9.51,11-15.95,20.47-17.67s19.17.07,28.78.51c5.83.26,11.72,0,17.43,1.27,15.23,3.28,26.21,16.08,36.84,27.47,2,2.14,4.24,4.48,4.71,7.49.4,2.58-.93,4.35-1.28,6.74-.47,3.21.28,6.84.26,10.1a102.37,102.37,0,0,1-.6,10.79A104,104,0,0,1,816,807.12Z"/><path class="cls-7" d="M857.11,902.81a5.26,5.26,0,0,0-.7.64l-32.94,35.8c-.22-3.39-.42-6.53-.54-8.35a32.11,32.11,0,0,0-1-7c-.52-1.74-1.34-3.42-1.43-5.23-.14-2.95,1.67-5.59,2.77-8.33,3.61-9-.5-19.18,0-28.9h0A6,6,0,0,0,829,884c1-.13,2-.49,2.81,0a3.87,3.87,0,0,1,1.32,1.56C838.37,894.08,852.73,893.92,857.11,902.81Z"/><path class="cls-12" d="M857.11,902.81a5.26,5.26,0,0,0-.7.64l-32.94,35.8c-.22-3.39-.42-6.53-.54-8.35a32.11,32.11,0,0,0-1-7c-.52-1.74-1.34-3.42-1.43-5.23-.14-2.95,1.67-5.59,2.77-8.33,3.61-9-.5-19.18,0-28.9h0A6,6,0,0,0,829,884c1-.13,2-.49,2.81,0a3.87,3.87,0,0,1,1.32,1.56C838.37,894.08,852.73,893.92,857.11,902.81Z"/><path class="cls-13" d="M714,790.94c0,2.93.24,10.43-.93,14.07a21.22,21.22,0,0,0-1.17,3.84c-.36,3.31,2.13,6.15,3.46,9.2,1.81,4.19,1.45,9,1,13.5q-1.41,16.35-2.85,32.73a15.67,15.67,0,0,0,.09,4.93,18.65,18.65,0,0,0,1.75,4.06A44.06,44.06,0,0,1,719,902.45c-1.21,5.41-3.48,10.69-3.4,16.24a28.71,28.71,0,0,0,.55,4.88c.65,3.37,1.63,6.72,1.77,10.14.12,3.18-.46,6.46.45,9.51,1,3.21,3.56,6.55,2,9.51"/><path class="cls-13" d="M817.46,788.7c-1.16,3.62.56,7.61-.17,11.35a48.31,48.31,0,0,1-1.85,5.26,14.11,14.11,0,0,0,2.41,12.94c.74.92,1.6,1.74,2.24,2.71,3,4.44.89,10.3.62,15.63-.54,10.26,6,20,5.24,30.2-.33,4.3-1.94,8.41-2.47,12.68q-.12,1-.18,2c-.52,9.72,3.59,19.88,0,28.9-1.1,2.74-2.91,5.38-2.77,8.33.09,1.81.91,3.49,1.43,5.23a32.11,32.11,0,0,1,1,7c.12,1.82.32,5,.54,8.35.3,4.8.64,10.06.82,12.66"/><path class="cls-13" d="M823.47,939.25l32.94-35.8a5.26,5.26,0,0,1,.7-.64,7.28,7.28,0,0,1,9.61.21l19.43,17.88a7.27,7.27,0,0,1,1.66,8.46"/><path class="cls-13" d="M716.49,923.56h-.34c-3.66,0-7-2.17-10-4.25-6.07-4.19-12.18-8.41-17.58-13.41h0"/><path class="cls-4" d="M901.28,937.46a7.16,7.16,0,0,1,6.23,1.77l5.23,4.81a7.15,7.15,0,0,1,.42,10.13l-65.6,71.28a7.18,7.18,0,0,1-10.15.42l-5.22-4.81a7.18,7.18,0,0,1-.43-10.14l65.6-71.27A7.17,7.17,0,0,1,901.28,937.46Z"/><path class="cls-4" d="M829.17,1015.78v5.05A7.18,7.18,0,0,1,822,1028H725.1a7.17,7.17,0,0,1-7.18-7.17v-7.11a7.18,7.18,0,0,1,7.18-7.18H822a7.19,7.19,0,0,1,7.19,7.18Z"/><path class="cls-4" d="M857.11,902.81a7.28,7.28,0,0,1,9.61.21l19.43,17.88a7.27,7.27,0,0,1,1.66,8.46,30.81,30.81,0,0,0-31.42,8.7l-28.2,30.64v-9.49a7.28,7.28,0,0,0-4.22-6.62l.32-.68c-.18-2.6-.52-7.86-.82-12.66l32.94-35.8A5.26,5.26,0,0,1,857.11,902.81Z"/><path class="cls-14" d="M857.11,902.81a7.28,7.28,0,0,1,9.61.21l19.43,17.88a7.27,7.27,0,0,1,1.66,8.46,30.81,30.81,0,0,0-31.42,8.7l-28.2,30.64v-9.49a7.28,7.28,0,0,0-4.22-6.62l.32-.68c-.18-2.6-.52-7.86-.82-12.66l32.94-35.8A5.26,5.26,0,0,1,857.11,902.81Z"/><path class="cls-4" d="M828.19,968.7v16.89a7.3,7.3,0,0,1-5.1,7h0a30.81,30.81,0,0,0-27.67-17.24H751.67a30.82,30.82,0,0,0-27.82,17.55h0a7.28,7.28,0,0,1-6.9-7.28V959.21a7.26,7.26,0,0,1,3.55-6.26,7.17,7.17,0,0,1,3.74-1H820.9a7.19,7.19,0,0,1,3.07.68,7.28,7.28,0,0,1,4.22,6.62Z"/><path class="cls-15" d="M900,936.25l1.32,1.21a7.17,7.17,0,0,0-3.92,2.19l-65.6,71.27a7.12,7.12,0,0,0-1.89,4.86h-.7v-2.06a7.14,7.14,0,0,0-2.93-5.78v-1.79a30.52,30.52,0,0,0-3.16-13.59h0a7.3,7.3,0,0,0,5.1-7V968.7l28.2-30.64A30.82,30.82,0,0,1,900,936.25Z"/><path class="cls-16" d="M900,936.25l1.32,1.21a7.17,7.17,0,0,0-3.92,2.19l-65.6,71.27a7.12,7.12,0,0,0-1.89,4.86h-.7v-2.06a7.14,7.14,0,0,0-2.93-5.78v-1.79a30.52,30.52,0,0,0-3.16-13.59h0a7.3,7.3,0,0,0,5.1-7V968.7l28.2-30.64A30.82,30.82,0,0,1,900,936.25Z"/><path class="cls-15" d="M826.24,1006.15v1.79a7.13,7.13,0,0,0-4.26-1.4H725.1a7.13,7.13,0,0,0-4.26,1.4v-1.79a30.84,30.84,0,0,1,30.83-30.83h43.74a30.84,30.84,0,0,1,30.83,30.83Z"/><path class="cls-17" d="M826.24,1006.15v1.79a7.13,7.13,0,0,0-4.26-1.4H725.1a7.13,7.13,0,0,0-4.26,1.4v-1.79a30.84,30.84,0,0,1,30.83-30.83h43.74a30.84,30.84,0,0,1,30.83,30.83Z"/><path class="cls-18" d="M999.26,602c3.33,16.57-6,16.87-1.25,45.41,2.35,14.16-2.22,19-12.08,21.22h0c-6.47,1.48-15.23,1.87-25.82,3.1-26.7,3.1-97.15,7.88-120.78,12-7.89,1.36-13.26,2-17,1.94-5.42,0-7.33-1.38-8.4-3.63-1.71-3.67,3.74-8.29,1.08-14.31a10.6,10.6,0,0,0-1-1.73c-5.51-8-10.2-16.39,24.93-27.22,92.21-28.42,131.52-51.21,148.62-50C994.22,589.25,997.52,593.31,999.26,602Z"/><path class="cls-15" d="M628.49,680.29q-.36-3.64-.36-7.39V639.21c-4.37,1.82-8.1.65-8.78-2.4-6.83,8.78-16.59,9.75-20.49,2-4.16,2.23-7.59,2.69-10.2,2.09l0,.21c.67,10.14,1,19,1,26.17a20.58,20.58,0,0,1,10.37,15,32.63,32.63,0,0,1-.5,11.86c-1.35,6.33.3,51.23,2.15,70.23.27,2.8,3,3.65,4.55,1.31,7.81-11.66,32.79-31,54.26-34C676.72,729.44,629.7,692.88,628.49,680.29Z"/><path class="cls-15" d="M780.37,440.22V633.54c13.77,1.82,7.6,19.31,6.14,36.1-1.2,13.48.65,26.5,18.26,30.58,5.79,1.35,19.52-1,17.57-13.66l0-.91c-5.42,0-7.33-1.38-8.4-3.63-1.71-3.67,3.74-8.29,1.08-14.31a10.6,10.6,0,0,0-1-1.73c-5.51-8-10.2-16.39,24.93-27.22,92.21-28.42,131.51-51.21,148.62-50C971.32,480.51,882,459.78,780.37,440.22Z"/><path class="cls-15" d="M628.13,548V426.09a23.17,23.17,0,0,1,.57-5.1,245.28,245.28,0,0,0-82.11-30.61c-55.19-9.92-106.15.92-122.42,30.84a100.42,100.42,0,0,0-4.86,10.22,18.81,18.81,0,0,1,3.89.51c16.41,3.79,112.22,25.36,130.77,29.26,18.36,3.88,6.83,6.83,11.71,12.68,3.78,4.54,4.19,6.86-.48,8C579.88,511.79,609.6,523.16,628.13,548Z"/><path class="cls-18" d="M780.37,440.22V633.54c-21.48-2.84-23.52,21.24-16.59,49.12,10.22,41.1-96,3.14-93.59,35.59,1.44,19.23,71.68,6.06,71.68,6.06s-4.34,3.07-3.64,10.15a12.92,12.92,0,0,0,1.76,5.65,76.11,76.11,0,0,1-111.5-59.82q-.36-3.64-.36-7.39V639.21c8.21-3.43,18.7-17.39,15.62-49.23-1.76-18.16-7.65-31.31-15.62-42V426.09A23.38,23.38,0,0,1,643.75,404c.6-.22,1.23-.41,1.86-.58a7,7,0,0,1,.73-.17l.3-.07c.25-.06.51-.11.77-.15l.22-.05.62-.1c.18,0,.37,0,.55-.06l.65-.07,1-.07c.38,0,.76,0,1.15,0A23.42,23.42,0,0,1,675,426.09v13.66a29.28,29.28,0,0,0,58.55,0V426.09A23.42,23.42,0,0,1,757,402.68c.4,0,.81,0,1.2,0,.71,0,1.43.11,2.12.21a11.94,11.94,0,0,1,1.22.21c.37.07.73.15,1.09.24s.72.19,1.08.3.7.21,1.05.34l1,.39a23.39,23.39,0,0,1,14.64,21.69Z"/><path class="cls-18" d="M780.37,337.32v4.88a27.28,27.28,0,0,1-14.64,24.19c-.23.13-.47.24-.71.36s-.49.24-.73.34a6.88,6.88,0,0,1-.74.32l-.8.33L762,368c-.58.2-1.17.39-1.76.55l-.6.15-.8.19c-.25.06-.5.1-.76.15s-.76.14-1.14.2l-.86.11a3.57,3.57,0,0,1-.46,0h-.07c-.38,0-.76.06-1.14.08s-.93,0-1.4,0H655.46q-1.29,0-2.55-.12a4.8,4.8,0,0,1-.52-.05c-.28,0-.56-.06-.84-.11l-.51-.08-1.17-.21c-.29-.06-.56-.12-.83-.2s-.5-.11-.74-.18-.58-.16-.86-.25l-.23-.07c-.36-.1-.71-.23-1.07-.36l-.33-.12c-.31-.11-.61-.24-.91-.37s-.77-.33-1.15-.5a27.48,27.48,0,0,1-7.61-5.38,27.31,27.31,0,0,1,19.32-46.63h54.65a13.66,13.66,0,0,0,13.66-13.66v-11.7a28.3,28.3,0,0,1,56.6,0v47.8Z"/><path class="cls-19" d="M786.51,669.64c-1.2,13.48.64,26.5,18.26,30.58,5.79,1.35,19.52-1,17.57-13.66l0-.91c3.71,0,9.08-.58,17-1.94,23.63-4.08,94.08-8.86,120.78-12,10.59-1.23,19.35-1.62,25.82-3.1-20,86.89-106.07,112.76-168.6,118.73-35.4,3.4-63.27.4-67.39-1.49-7.62-3.51-4.49-11-4.62-15s-3.44-7.72-3.77-11.74c-.42-5.06,2.39-6.68,1.82-12.51-.31-3.07-2-4.28-3.38-6.56a12.92,12.92,0,0,1-1.76-5.65c-.7-7.08,3.64-10.15,3.64-10.15s-70.24,13.17-71.68-6.06c-2.43-32.45,103.81,5.51,93.59-35.59-6.93-27.88-4.89-52,16.59-49.12C794.14,635.36,788,652.85,786.51,669.64Z"/><path class="cls-19" d="M765.73,366.39v38a10.65,10.65,0,0,0-1-.39,9.19,9.19,0,0,0-1.05-.34,10.87,10.87,0,0,0-1.08-.3c-.36-.09-.72-.17-1.09-.24a11.94,11.94,0,0,0-1.22-.21c-.69-.1-1.4-.17-2.12-.21-.39,0-.8,0-1.2,0a23.42,23.42,0,0,0-23.42,23.41v13.66a29.28,29.28,0,0,1-58.55,0V426.09a23.42,23.42,0,0,0-23.42-23.41c-.39,0-.77,0-1.15,0l-1,.07-.65.07c-.18,0-.37,0-.55.06l-.62.1-.22.05a5,5,0,0,0-.77.15l-.3.07a4,4,0,0,0-.73.17,19.08,19.08,0,0,0-1.86.57V366.89c.38.17.76.35,1.15.5s.6.26.91.37l.33.12c.35.13.71.25,1.07.36l.23.07c.28.09.56.18.86.25s.48.13.74.18.54.14.83.2l1.17.21.51.08c.28,0,.56.08.84.11a4.57,4.57,0,0,0,.52.05q1.26.12,2.55.12h97.59c.47,0,.94,0,1.4,0s.76,0,1.14-.08h.07a3.28,3.28,0,0,0,.46,0l.86-.11c.38-.06.76-.12,1.14-.2a6,6,0,0,0,.76-.15l.8-.19.6-.15c.59-.16,1.18-.35,1.76-.55.24-.07.47-.16.71-.25l.8-.33a6.88,6.88,0,0,0,.74-.32,8,8,0,0,0,.73-.34C765.26,366.63,765.5,366.52,765.73,366.39Z"/><path class="cls-19" d="M765.73,366.39v38a10.65,10.65,0,0,0-1-.39,9.19,9.19,0,0,0-1.05-.34,10.87,10.87,0,0,0-1.08-.3c-.36-.09-.72-.17-1.09-.24a11.94,11.94,0,0,0-1.22-.21c-.69-.1-1.4-.17-2.12-.21-.39,0-.8,0-1.2,0a23.42,23.42,0,0,0-23.42,23.41v13.66a29.28,29.28,0,0,1-58.55,0V426.09a23.42,23.42,0,0,0-23.42-23.41c-.39,0-.77,0-1.15,0l-1,.07-.65.07c-.18,0-.37,0-.55.06l-.62.1-.22.05a5,5,0,0,0-.77.15l-.3.07a4,4,0,0,0-.73.17,19.08,19.08,0,0,0-1.86.57V366.89c.38.17.76.35,1.15.5s.6.26.91.37l.33.12c.35.13.71.25,1.07.36l.23.07c.28.09.56.18.86.25s.48.13.74.18.54.14.83.2l1.17.21.51.08c.28,0,.56.08.84.11a4.57,4.57,0,0,0,.52.05q1.26.12,2.55.12h97.59c.47,0,.94,0,1.4,0s.76,0,1.14-.08h.07a3.28,3.28,0,0,0,.46,0l.86-.11c.38-.06.76-.12,1.14-.2a6,6,0,0,0,.76-.15l.8-.19.6-.15c.59-.16,1.18-.35,1.76-.55.24-.07.47-.16.71-.25l.8-.33a6.88,6.88,0,0,0,.74-.32,8,8,0,0,0,.73-.34C765.26,366.63,765.5,366.52,765.73,366.39Z"/><path class="cls-20" d="M628.49,680.29q-.36-3.64-.36-7.39V639.21c-4.37,1.82-8.1.65-8.78-2.4-6.83,8.78-16.59,9.75-20.49,2-4.16,2.23-7.59,2.69-10.2,2.09l0,.21c.67,10.14,1,19,1,26.17a20.58,20.58,0,0,1,10.37,15,32.63,32.63,0,0,1-.5,11.86c-1.35,6.33.3,51.23,2.15,70.23.27,2.8,3,3.65,4.55,1.31,7.81-11.66,32.79-31,54.26-34C676.72,729.44,629.7,692.88,628.49,680.29Z"/><path class="cls-21" d="M590.07,757H293.71A17.72,17.72,0,0,1,276,739.3v-267a17.72,17.72,0,0,1,17.72-17.72H465.33a17.76,17.76,0,0,1,11.23,4l76.09,62.3c.27.22.54.43.82.63l47,34.09A17.71,17.71,0,0,1,607.79,570V739.3A17.72,17.72,0,0,1,590.07,757Z"/><path class="cls-22" d="M590.07,757H293.71A17.72,17.72,0,0,1,276,739.3v-267a17.72,17.72,0,0,1,17.72-17.72H465.33a17.76,17.76,0,0,1,11.23,4l76.09,62.3c.27.22.54.43.82.63l47,34.09A17.71,17.71,0,0,1,607.79,570V739.3A17.72,17.72,0,0,1,590.07,757Z"/><path class="cls-19" d="M628.13,639.21c-4.37,1.82-8.1.65-8.78-2.4-6.83,8.78-16.59,9.75-20.49,2-4.16,2.23-7.59,2.69-10.2,2.09A7.76,7.76,0,0,1,583.24,630c-6.83-1-8-7.4-4.88-14.63,12.49-29.15-7.71-37.23-38.77-46.21s-73.09-18.91-104-51.78a127.44,127.44,0,0,1-9.3-11.06,41.85,41.85,0,0,0,10.59-1.19c21.47-4.88,110.28-21.46,123-22.44a33.18,33.18,0,0,0,5.38-.75c14.68,29.87,44.4,41.24,62.93,66.09,8,10.66,13.86,23.81,15.62,42C646.83,621.82,636.34,635.78,628.13,639.21Z"/><path class="cls-4" d="M491.42,494.33c-2.07,7.58,1.42,15.93,3.18,19.45l-19.05-2.32c-1.14-2.48-3.89-9.2-2.48-13.64v0l-2.11.41c-.89,4.42,1.05,10,2.33,13l-11.49-1.4c-1.48-1.7-4.28-5.66-4.37-8.93l-1.93.38c.2,3.09,2.12,6.26,3.55,8.21L448,508.09c-.83-.84-2.6-2.84-2.62-4.8l-1.95.41a8.33,8.33,0,0,0,1.7,4l-13.73-1.68a35.09,35.09,0,0,1-5.09.24c.58.77,1.16,1.52,1.75,2.27l15.29,6.74a38.72,38.72,0,0,0-5.95,3.9l1.38,1.4a30.62,30.62,0,0,1,7-4.23l9.48,4.17c-4,1.83-7.82,4-9.15,6.76.52.45,1,.9,1.56,1.33.92-3,7.19-5.82,10-7L468,526.17c-4.9,2.71-7.19,7-8.76,11l1.66,1.09,0-.08c1.65-4.32,3.94-8.63,9.39-11l19.24,8.48c-5.68,4.23-7.17,6.68-9.79,13l1.77.83c2.71-6.6,4-8.64,10.53-13.28,0,0,0-.06.08-.09l.09-.06s0-.06.05-.08l.07-.11a.83.83,0,0,0,.08-.22l0-.1a1.29,1.29,0,0,0,0-.34h0a1,1,0,0,0-.12-.29c-2.77-4.61-.71-12.93,4.78-19.34l0,0a1,1,0,0,0,.21-.65h0a.38.38,0,0,0,0-.1h0a1,1,0,0,0-.14-.37c-.28-.47-6.69-11.58-3.59-20.54Zm-46.59,19.51-13.1-5.77,14.1,1.72A9.44,9.44,0,0,0,444.83,513.84Zm12.36.13a14.47,14.47,0,0,0-.83,5l-9.61-4.24c0-1.58.32-4.08,1.4-4.57l.05,0,10.49,1.28A8.29,8.29,0,0,0,457.19,514Zm12.26,10.72-11-4.86a11.16,11.16,0,0,1,.8-5.65,4.39,4.39,0,0,1,2.23-2.48l12.17,1.49A23.63,23.63,0,0,0,469.45,524.69Zm20.18,8.9-18.3-8.07c.8-8.18,4.46-11.92,4.49-12l.08-.09,18.6,2.27C490.09,521.56,488.23,528.57,489.63,533.59Z"/><path class="cls-4" d="M888.47,684.7c-33,6.4-37.13,15.35-45.43,33.18-.67,1.43-1.36,2.92-2.1,4.47-3.19,6.69-14.47,12.54-22.08,9.57-3.77-1.47-5-4.87-3.43-9.84,1.31-4.26,4.26-5,8.35-6.12,6.88-1.81,16.3-4.29,21.91-26.11a1,1,0,0,0-1.81-.7,27.91,27.91,0,0,1-25.53,15.4c-4.5-.19-8.23-1.64-10.61-4a15.13,15.13,0,0,1-2.78-.29c2.55,3.69,7.34,6,13.31,6.24a29.62,29.62,0,0,0,23.62-10.82c-5.29,14.89-12.6,16.82-18.61,18.4-4.16,1.09-8.09,2.13-9.72,7.43-1.82,5.92-.15,10.38,4.59,12.23,8.72,3.39,21-3.07,24.55-10.55.74-1.55,1.44-3.05,2.11-4.48,6.45-13.86,10.32-22.17,28.22-28.12-11.86,6.91-15.62,16.92-19.28,26.69-4.21,11.23-8.19,21.85-24,28-11.12,4.32-13.36,10.14-13.71,13.22a9.9,9.9,0,0,0,4.57,9.31c4.52,3.07,10.89,3.08,16.61,0,6-3.21,8.27-8.71,10.44-14,3-7.21,6-14.65,18.59-17.47-8.58,5.61-10.47,12.68-12.3,19.55s-3.52,13.25-11.82,18a40.46,40.46,0,0,1-7,3c-5.18,1.82-10.09,3.55-10.14,9.67l2-.24c.17-4.31,3.4-5.68,8.84-7.59a42.29,42.29,0,0,0,7.32-3.11c9-5.21,10.89-12.34,12.73-19.24,2.12-8,4.12-15.46,16.2-21a1,1,0,0,0-.5-1.85c-18.45,1.84-22.3,11.24-25.68,19.53-2.14,5.23-4.16,10.17-9.55,13.05-6.08,3.24-11.53,2.16-14.6.08a8,8,0,0,1-3.74-7.48c.52-4.5,5.06-8.73,12.48-11.62,16.62-6.46,20.94-18,25.12-29.13,5-13.22,9.64-25.7,33.31-31.36a1,1,0,0,0-.42-1.9Z"/><path class="cls-4" d="M943.18,686.29c-16.55-4.61-34.66-2.16-47.26,6.41-27.75,18.86-18.51,36-13.55,45.27,1.06,1.95,2.36,4.38,2,5-.07.12-.49.33-1.58.33-4.29,0-9.09,2.77-11.66,6.74a11.43,11.43,0,0,0-.94,11.21c1.43,3.24,3.59,5.27,6.42,6.06a11.53,11.53,0,0,0,6-.11,7.75,7.75,0,0,0-1.56,4.16,6.05,6.05,0,0,0,.59,2.86l1.88-.63a4.1,4.1,0,0,1-.52-2.15c.09-2.16,1.9-4.53,5.23-6.86a1,1,0,1,0-1.12-1.6c-2.46,1.73-6.55,3.4-10,2.45-2.24-.62-4-2.3-5.16-5a9.47,9.47,0,0,1,.79-9.36c2.24-3.44,6.36-5.85,10-5.85,1.07,0,2.57-.13,3.26-1.28.91-1.53-.24-3.66-2-6.89-4.67-8.68-13.37-24.85,12.93-42.73,12.14-8.25,29.63-10.6,45.64-6.14,12.79,3.56,22.71,10.88,27.48,20.18.39-.65.77-1.32,1.15-2C966.08,697.11,956,689.86,943.18,686.29Z"/><path class="cls-4" d="M901.77,737.63a4.53,4.53,0,0,1-1.62-.28c-1.76-.63-3.21-2.35-4.57-5.4-3.34-7.49-5.32-18.54.09-25,4.3-5.16,12.2-6.38,23.48-3.63,11.49,2.8,16.14,12.5,14.7,20.21-1.19,6.3-6,9.84-12.14,9s-10.51,1.36-14.05,3.11C905.52,736.69,903.6,737.63,901.77,737.63Zm6.87-33.82c-5.2,0-9,1.45-11.47,4.36-4.84,5.8-2.92,16,.19,23,1.12,2.51,2.25,3.93,3.45,4.37,1.54.55,3.5-.42,6-1.64,3.58-1.77,8.48-4.19,15.18-3.3,6.16.83,9.18-3.31,10-7.44,1.28-6.83-2.92-15.44-13.24-18A43,43,0,0,0,908.64,703.81Z"/><path class="cls-4" d="M914.64,746.93c-7.1.52-11.39,2.27-12.75,5.2s.35,6.87,5.38,11.64l1.87-.92c-4.63-4.25-6.52-7.66-5.48-9.89,2.07-4.46,15.1-5.05,27.74-3.38l2.27-1.64A90.06,90.06,0,0,0,914.64,746.93Z"/><path class="cls-4" d="M619.35,636.81a4,4,0,0,0,1,1.86,1.22,1.22,0,0,0,.33-.27c6.28-8.38,13.86-29,9-51.54a1,1,0,0,0-2,.42c4.66,21.41-2.56,41.56-8.35,49.57Z"/><path class="cls-4" d="M615.71,591.85a1,1,0,0,0-2,.22c2.36,21.28-5.85,41.32-15,46.77l.17-.08a11.14,11.14,0,0,0,1,1.68C611.8,633.17,617.68,609.56,615.71,591.85Z"/><path class="cls-4" d="M601.37,595.85a1,1,0,0,0-1-1h0a1,1,0,0,0-1,1c.11,12.46-4.51,26.12-10.77,31.77a7.61,7.61,0,0,1-5.37,2.36,7,7,0,0,0-.61,2l.07,0a7,7,0,0,0,.8,0,9.7,9.7,0,0,0,6.45-2.9C596.58,623.13,601.49,608.82,601.37,595.85Z"/><path class="cls-4" d="M590.21,540.33a1,1,0,0,0-1.09-.5,57.5,57.5,0,0,1-10.55,1.56c5.79-4,9-11.83,9.14-12.21a1,1,0,0,0-1.61-1,18.59,18.59,0,0,1-6.88,5c1.63-3.92,2-7.36.92-10-2.91-7.49-9.87-9.93-15.42-9.7-5.86.23-10.89,3.29-13.14,7.79-4-6.06-10.24-9.92-16.5-10h-.17a13.68,13.68,0,0,0-12.24,7.35,14.73,14.73,0,0,0-1.53,9.57s0,0,0,0c-9.44,6-13.7,17.42-13.76,17.58a1,1,0,0,0,1.74.87A21.73,21.73,0,0,1,520,538.29c-4.24,5.9-1.74,15-1.61,15.45a1,1,0,0,0,.94.71h0a1,1,0,0,0,.92-.78A13.13,13.13,0,0,1,529,543.42a58.35,58.35,0,0,0,21.49,14.86,2.79,2.79,0,0,0,1.15.24,4.35,4.35,0,0,0,1-.15c3.81-1,8.51-3.77,13.26-7.93.8.13,1.58.23,2.32.3,10.22,1,21.3-8.82,21.77-9.24A1,1,0,0,0,590.21,540.33Zm-65.85-20.76a11.85,11.85,0,0,1,10.7-6.37c6.14.07,12.35,4.27,15.83,10.71a1,1,0,0,0,1.79-.19c1.64-5.48,7.27-8.13,12.12-8.32s11,1.92,13.52,8.46c1,2.5.43,6-1.56,10-2.87.55-6.28.4-11-.12-5.62-.62-11.1-2.76-16.4-4.82-4.77-1.86-9.28-3.61-13.52-4.11a21.88,21.88,0,0,0-12.89,2.3A12.54,12.54,0,0,1,524.36,519.57Zm27.81,36.91a1.33,1.33,0,0,1-1,0,56.85,56.85,0,0,1-20.13-13.67,17.89,17.89,0,0,1,6-.35c2.36.3,6.38,1.6,11,3.11A155.14,155.14,0,0,0,563.44,550C559.37,553.34,555.33,555.68,552.17,556.48Zm16.25-7.68c-5.68-.53-13.14-2.95-19.72-5.09-4.75-1.54-8.84-2.87-11.39-3.19-4.83-.6-13.91.69-17.67,8.88-.35-3.78,0-9.41,4.33-12.21a1,1,0,0,0-.53-1.8h-.12a24.38,24.38,0,0,0-11,4.9c3.86-6.28,11.43-14.94,23.33-13.53,4,.47,8.39,2.18,13,4,5.42,2.11,11,4.29,16.89,4.94,5.11.57,8.85.7,12,0h.1a15.45,15.45,0,0,0,5.73-2.57c-1.8,2.88-4.54,6.3-8,7.79a1,1,0,0,0-.55.62,1.16,1.16,0,0,0,.28,1.15c1.08,1.16,6.22.58,10.34-.14C581.55,545.34,574.65,549.38,568.42,548.8Z"/><path class="cls-4" d="M557.41,501.32l5-4.13a1,1,0,1,0-1.24-1.49l-4.63,3.85-1.6-7.22a1,1,0,1,0-1.91.43l1.65,7.42-6.43-.8a1,1,0,0,0-.24,1.94l6.24.78-3,4.53a1,1,0,0,0,.81,1.52,1,1,0,0,0,.81-.43l3.3-5,5,4.18a1,1,0,0,0,1.37-.12,1,1,0,0,0-.13-1.38Z"/><path class="cls-4" d="M517.61,511.68l-6.29-.23,2.62-4.79a1,1,0,1,0-1.71-.93L509.38,511,504,507.22a1,1,0,0,0-1.12,1.6l5.3,3.68-4.57,4.55a1,1,0,0,0,1.37,1.38l4.27-4.24,2.23,7a1,1,0,0,0,.93.68.79.79,0,0,0,.3,0,1,1,0,0,0,.63-1.22l-2.29-7.26,6.48.24h0a1,1,0,0,0,0-1.95Z"/><path class="cls-4" d="M584.36,566.07l-7.35-2,3.71-5.31a1,1,0,0,0-1.6-1.12l-3.6,5.16-2.61-4.8a1,1,0,1,0-1.71.94l2.85,5.22-6,2.5a1,1,0,0,0,.38,1.88,1,1,0,0,0,.37-.08l6-2.46,1.35,6.31a1,1,0,0,0,1,.77l.21,0a1,1,0,0,0,.75-1.16L576.71,566l7.14,1.94a.73.73,0,0,0,.25,0,1,1,0,0,0,.26-1.92Z"/><path class="cls-18" d="M419.31,431.44a18.81,18.81,0,0,1,3.89.51c16.41,3.79,112.22,25.36,130.77,29.26,18.36,3.88,6.83,6.83,11.71,12.68,3.78,4.54,4.19,6.86-.48,8a33.18,33.18,0,0,1-5.38.75c-12.68,1-101.49,17.56-123,22.44a41.85,41.85,0,0,1-10.59,1.19c-14.13-.43-17.11-10.86-17.71-18.75-6.72-6.15-7.34-15.2-6.09-22.72h0a39.3,39.3,0,0,1,4.13-12.4c-3.88-10.84.86-19.22,9.32-20.75A16.17,16.17,0,0,1,419.31,431.44Z"/><path class="cls-23" d="M780.37,337.32v4.88a27.28,27.28,0,0,1-14.64,24.19c-.23.13-.47.24-.71.36s-.49.24-.73.34a6.88,6.88,0,0,1-.74.32l-.8.33L762,368c-.58.2-1.17.39-1.76.55l-.6.15-.8.19c-.25.06-.5.1-.76.15s-.76.14-1.14.2l-.86.11a3.57,3.57,0,0,1-.46,0h-.07c-.38,0-.76.06-1.14.08s-.93,0-1.4,0H655.46q-1.29,0-2.55-.12a4.8,4.8,0,0,1-.52-.05c-.28,0-.56-.06-.84-.11l-.51-.08-1.17-.21c-.29-.06-.56-.12-.83-.2s-.5-.11-.74-.18-.58-.16-.86-.25l-.23-.07c-.36-.1-.71-.23-1.07-.36l-.33-.12c-.31-.11-.61-.24-.91-.37s-.77-.33-1.15-.5a27.48,27.48,0,0,1-7.61-5.38,27.31,27.31,0,0,1,19.32-46.63h54.65a13.66,13.66,0,0,0,13.66-13.66v-11.7a28.3,28.3,0,0,1,56.6,0v47.8Z"/><path class="cls-24" d="M780.37,440.22V633.54c13.77,1.82,7.6,19.31,6.14,36.1-1.2,13.48.65,26.5,18.26,30.58,5.79,1.35,19.52-1,17.57-13.66l0-.91c-5.42,0-7.33-1.38-8.4-3.63-1.71-3.67,3.74-8.29,1.08-14.31a10.6,10.6,0,0,0-1-1.73c-5.51-8-10.2-16.39,24.93-27.22,92.21-28.42,131.51-51.21,148.62-50C971.32,480.51,882,459.78,780.37,440.22Z"/><path class="cls-25" d="M628.13,548V426.09a23.17,23.17,0,0,1,.57-5.1,245.28,245.28,0,0,0-82.11-30.61c-55.19-9.92-106.15.92-122.42,30.84a100.42,100.42,0,0,0-4.86,10.22,18.81,18.81,0,0,1,3.89.51c16.41,3.79,112.22,25.36,130.77,29.26,18.36,3.88,6.83,6.83,11.71,12.68,3.78,4.54,4.19,6.86-.48,8C579.88,511.79,609.6,523.16,628.13,548Z"/><path class="cls-26" d="M786.51,669.64c-1.2,13.48.64,26.5,18.26,30.58,5.79,1.35,19.52-1,17.57-13.66l0-.91c3.71,0,9.08-.58,17-1.94,23.63-4.08,94.08-8.86,120.78-12,10.59-1.23,19.35-1.62,25.82-3.1-20,86.89-106.07,112.76-168.6,118.73-35.4,3.4-63.27.4-67.39-1.49-7.62-3.51-4.49-11-4.62-15s-3.44-7.72-3.77-11.74c-.42-5.06,2.39-6.68,1.82-12.51-.31-3.07-2-4.28-3.38-6.56a12.92,12.92,0,0,1-1.76-5.65c-.7-7.08,3.64-10.15,3.64-10.15s-70.24,13.17-71.68-6.06c-2.43-32.45,103.81,5.51,93.59-35.59-6.93-27.88-4.89-52,16.59-49.12C794.14,635.36,788,652.85,786.51,669.64Z"/><path class="cls-27" d="M765.73,366.39v38a10.65,10.65,0,0,0-1-.39,9.19,9.19,0,0,0-1.05-.34,10.87,10.87,0,0,0-1.08-.3c-.36-.09-.72-.17-1.09-.24a11.94,11.94,0,0,0-1.22-.21c-.69-.1-1.4-.17-2.12-.21-.39,0-.8,0-1.2,0a23.42,23.42,0,0,0-23.42,23.41v13.66a29.28,29.28,0,0,1-58.55,0V426.09a23.42,23.42,0,0,0-23.42-23.41c-.39,0-.77,0-1.15,0l-1,.07-.65.07c-.18,0-.37,0-.55.06l-.62.1-.22.05a5,5,0,0,0-.77.15l-.3.07a4,4,0,0,0-.73.17,19.08,19.08,0,0,0-1.86.57V366.89c.38.17.76.35,1.15.5s.6.26.91.37l.33.12c.35.13.71.25,1.07.36l.23.07c.28.09.56.18.86.25s.48.13.74.18.54.14.83.2l1.17.21.51.08c.28,0,.56.08.84.11a4.57,4.57,0,0,0,.52.05q1.26.12,2.55.12h97.59c.47,0,.94,0,1.4,0s.76,0,1.14-.08h.07a3.28,3.28,0,0,0,.46,0l.86-.11c.38-.06.76-.12,1.14-.2a6,6,0,0,0,.76-.15l.8-.19.6-.15c.59-.16,1.18-.35,1.76-.55.24-.07.47-.16.71-.25l.8-.33a6.88,6.88,0,0,0,.74-.32,8,8,0,0,0,.73-.34C765.26,366.63,765.5,366.52,765.73,366.39Z"/><path class="cls-18" d="M780.37,440.22V633.54c-21.48-2.84-23.52,21.24-16.59,49.12,10.22,41.1-96,3.14-93.59,35.59,1.44,19.23,71.68,6.06,71.68,6.06s-4.34,3.07-3.64,10.15a12.92,12.92,0,0,0,1.76,5.65,76.11,76.11,0,0,1-111.5-59.82q-.36-3.64-.36-7.39V639.21c8.21-3.43,18.7-17.39,15.62-49.23-1.76-18.16-7.65-31.31-15.62-42V426.09A23.38,23.38,0,0,1,643.75,404c.6-.22,1.23-.41,1.86-.58a7,7,0,0,1,.73-.17l.3-.07c.25-.06.51-.11.77-.15l.22-.05.62-.1c.18,0,.37,0,.55-.06l.65-.07,1-.07c.38,0,.76,0,1.15,0A23.42,23.42,0,0,1,675,426.09v13.66a29.28,29.28,0,0,0,58.55,0V426.09A23.42,23.42,0,0,1,757,402.68c.4,0,.81,0,1.2,0,.71,0,1.43.11,2.12.21a11.94,11.94,0,0,1,1.22.21c.37.07.73.15,1.09.24s.72.19,1.08.3.7.21,1.05.34l1,.39a23.39,23.39,0,0,1,14.64,21.69Z"/><path class="cls-28" d="M780.37,440.22V633.54c-21.48-2.84-23.52,21.24-16.59,49.12,10.22,41.1-96,3.14-93.59,35.59,1.44,19.23,71.68,6.06,71.68,6.06s-4.34,3.07-3.64,10.15a12.92,12.92,0,0,0,1.76,5.65,76.11,76.11,0,0,1-111.5-59.82q-.36-3.64-.36-7.39V639.21c8.21-3.43,18.7-17.39,15.62-49.23-1.76-18.16-7.65-31.31-15.62-42V426.09A23.38,23.38,0,0,1,643.75,404c.6-.22,1.23-.41,1.86-.58a7,7,0,0,1,.73-.17l.3-.07c.25-.06.51-.11.77-.15l.22-.05.62-.1c.18,0,.37,0,.55-.06l.65-.07,1-.07c.38,0,.76,0,1.15,0A23.42,23.42,0,0,1,675,426.09v13.66a29.28,29.28,0,0,0,58.55,0V426.09A23.42,23.42,0,0,1,757,402.68c.4,0,.81,0,1.2,0,.71,0,1.43.11,2.12.21a11.94,11.94,0,0,1,1.22.21c.37.07.73.15,1.09.24s.72.19,1.08.3.7.21,1.05.34l1,.39a23.39,23.39,0,0,1,14.64,21.69Z"/><path class="cls-29" d="M780.37,440.22V633.54c-21.48-2.84-23.52,21.24-16.59,49.12,10.22,41.1-96,3.14-93.59,35.59,1.44,19.23,71.68,6.06,71.68,6.06s-4.34,3.07-3.64,10.15a12.92,12.92,0,0,0,1.76,5.65,76.11,76.11,0,0,1-111.5-59.82q-.36-3.64-.36-7.39V639.21c8.21-3.43,18.7-17.39,15.62-49.23-1.76-18.16-7.65-31.31-15.62-42V426.09A23.38,23.38,0,0,1,643.75,404c.6-.22,1.23-.41,1.86-.58a7,7,0,0,1,.73-.17l.3-.07c.25-.06.51-.11.77-.15l.22-.05.62-.1c.18,0,.37,0,.55-.06l.65-.07,1-.07c.38,0,.76,0,1.15,0A23.42,23.42,0,0,1,675,426.09v13.66a29.28,29.28,0,0,0,58.55,0V426.09A23.42,23.42,0,0,1,757,402.68c.4,0,.81,0,1.2,0,.71,0,1.43.11,2.12.21a11.94,11.94,0,0,1,1.22.21c.37.07.73.15,1.09.24s.72.19,1.08.3.7.21,1.05.34l1,.39a23.39,23.39,0,0,1,14.64,21.69Z"/><path class="cls-30" d="M999.26,602c3.33,16.57-6,16.87-1.25,45.41,2.35,14.16-2.22,19-12.08,21.22h0c-6.47,1.48-15.23,1.87-25.82,3.1-26.7,3.1-97.15,7.88-120.78,12-7.89,1.36-13.26,2-17,1.94-5.42,0-7.33-1.38-8.4-3.63-1.71-3.67,3.74-8.29,1.08-14.31a10.6,10.6,0,0,0-1-1.73c-5.51-8-10.2-16.39,24.93-27.22,92.21-28.42,131.52-51.21,148.62-50C994.22,589.25,997.52,593.31,999.26,602Z"/><path class="cls-31" d="M419.31,431.44a18.81,18.81,0,0,1,3.89.51c16.41,3.79,112.22,25.36,130.77,29.26,18.36,3.88,6.83,6.83,11.71,12.68,3.78,4.54,4.19,6.86-.48,8a33.18,33.18,0,0,1-5.38.75c-12.68,1-101.49,17.56-123,22.44a41.85,41.85,0,0,1-10.59,1.19c-14.13-.43-17.11-10.86-17.71-18.75-6.72-6.15-7.34-15.2-6.09-22.72h0a39.3,39.3,0,0,1,4.13-12.4c-3.88-10.84.86-19.22,9.32-20.75A16.17,16.17,0,0,1,419.31,431.44Z"/></g></g></svg>