<svg xmlns="http://www.w3.org/2000/svg" viewBox="0 0 1000 1028"><defs><style>.cls-1{fill:#c5cdd0}.cls-2{fill:#e6eaed}.cls-4{fill:#dee2e5}.cls-6{fill:#c6cdd0}.cls-9{fill:#b4bdc2}.cls-11{fill:#dfe3e6}.cls-12{fill:#d0d5da}.cls-13{fill:#97a4ac}.cls-14{fill:#e7e8ea}.cls-16{fill:none;stroke:#d1d7d7;stroke-linecap:round;stroke-linejoin:round;stroke-width:6px}</style></defs><g><g><path d="M817.71 791.37l-.76-8c53.38-5.1 146-27.23 166.44-118.22l7.81 1.75c-9.19 40.9-33.06 72.66-71 94.4-34.94 20.1-75.02 27.44-102.49 30.07z" class="cls-1"/><rect width="311.91" height="311.8" y="672.5" class="cls-2" rx="17.72"/><rect width="140.53" height="130.72" x="93.57" y="541.78" fill="#e2e6e9" rx="10.63"/><path d="M863.17 109.26H462.23c12.66-39.5 47.49-67.89 88.48-67.89a87.87 87.87 0 0139.71 9.5C596.31 21.94 624.69 0 658.8 0c38.39 0 69.52 27.78 69.52 62.06 0 1.33-.06 2.65-.15 4C742.55 55.92 761 49.86 781 49.86c41.36 0 75.65 25.71 82.17 59.4z" class="cls-4"/><path d="M550.58 266.56H38.38C54.55 223.17 99.05 192 151.41 192a127.33 127.33 0 0150.73 10.42c7.53-31.77 43.78-55.87 87.36-55.87 49.05 0 88.81 30.52 88.81 68.16 0 1.46-.07 2.9-.19 4.35 18.37-11.1 41.89-17.75 67.52-17.75 52.8.01 96.61 28.24 104.94 65.25z" class="cls-2"/><rect width="333.17" height="269.28" x="209.92" y="757.02" fill="#d0d5d9" rx="17.72"/><path d="M360.56 757.02v95.66l4.41-6.5 4.64 5.97 5.01-6.8 4.71 4.46 3.49-4.99 4.56 7.41 4.33-6.96 4.29 6.35v-94.6h-35.44z" class="cls-6"/><path fill="#d1d7d7" d="M146.12 541.78v44l4.41-6.5 4.64 5.97 5.01-6.8 4.71 4.46 3.49-4.99 4.56 7.41 4.33-6.95 4.29 6.35v-42.95h-35.44z"/><path d="M293 1004h-50a4.95 4.95 0 110-9.89h50a4.95 4.95 0 110 9.89zM257.06 920.36a4.68 4.68 0 00-7.79 0l-8.4 13a4.43 4.43 0 003.89 6.79h3.83V987a4.58 4.58 0 009.15 0v-46.88h3.83a4.44 4.44 0 003.9-6.79zM295.55 933.12l-8.41-13a4.76 4.76 0 00-7.9 0l-8.41 13a4.42 4.42 0 003.95 6.73h3.83V987a4.58 4.58 0 009.15 0v-47.15h3.84a4.42 4.42 0 003.95-6.73z" class="cls-6"/><path fill="#dadfe1" d="M80.26 726.27H68.82a19.69 19.69 0 00-1.57-5.49 3.08 3.08 0 00-5.61 2.53 14 14 0 011 3H52v-10.79a13.77 13.77 0 012.72.9 3.22 3.22 0 001.27.27 3.07 3.07 0 001.28-5.86 19.88 19.88 0 00-5.27-1.52V692a3 3 0 00-6 0v17.33a19.88 19.88 0 00-5.27 1.52 3.05 3.05 0 00-1.53 4.06 3.09 3.09 0 004.08 1.53 13.77 13.77 0 012.72-.9v10.75H35.41a14 14 0 011-3 3.08 3.08 0 00-5.61-2.53 19.59 19.59 0 00-1.57 5.49H17.74a2.73 2.73 0 100 5.46h11.44a19.59 19.59 0 001.57 5.49 3.07 3.07 0 002.81 1.8 3 3 0 001.26-.27 3.07 3.07 0 001.54-4.06 14 14 0 01-1-3H46v10.75a14.08 14.08 0 01-2.73-.9 3.07 3.07 0 10-2.54 5.59 20 20 0 005.27 1.58V766a3 3 0 006 0v-17.31a20 20 0 005.27-1.52 3.05 3.05 0 001.53-4.06 3.09 3.09 0 00-4.07-1.53 14.08 14.08 0 01-2.73.9v-10.75h10.6a14 14 0 01-1 3 3.06 3.06 0 001.54 4.06 3 3 0 001.26.27 3.07 3.07 0 002.81-1.8 19.69 19.69 0 001.57-5.49h11.48a2.73 2.73 0 100-5.46z"/><path d="M823.48 879.47c.53-4.27 2.14-8.38 2.47-12.68.78-10.24-5.78-19.94-5.24-30.2.27-5.33 2.34-11.19-.62-15.63-.64-1-1.5-1.79-2.24-2.71a14.11 14.11 0 01-2.41-12.94 48.31 48.31 0 001.85-5.26c.73-3.74-1-7.73.17-11.35l-.13-1.32c-35.4 3.4-63.27.4-67.39-1.49-7.62-3.51-4.49-11-4.62-15s-3.44-7.72-3.77-11.74c-.42-5.06 2.39-6.68 1.82-12.51-.31-3.07-2-4.28-3.38-6.56a76.2 76.2 0 01-99.42-25.5l-32.78 2.21-4.15.28c.72 2.64 1.43 5.59 2 8.95-.5 17.21-3.56 42.17-1.59 55.48a17.86 17.86 0 001.27 4.78c.77 1.65 2 3.07 2.78 4.69 4.19 8.28-2.28 18.34-.37 27.42 1 4.82 4.3 8.83 6.27 13.35 2.74 6.3 2.91 13.51 5.86 19.71 3.11 6.54 9 11.28 14.65 15.79l22 17.48c4.83 3.84 9.74 7.73 15.45 10.08 3.89 1.59 8.21 2.52 11.38 5.28 1.38 1.19 3.82 4.6 5.18 5.8 5.4 5 11.51 9.22 17.58 13.41 3 2.08 6.36 4.27 10 4.25.65 3.37 1.63 6.72 1.77 10.14.12 3.18-.46 6.46.45 9.51 1 3.21 3.56 6.55 2 9.51l.13.22a7.17 7.17 0 013.74-1h96.71a7.19 7.19 0 013.07.68l.32-.68c-.18-2.6-.52-7.86-.82-12.66-.22-3.39-.42-6.53-.54-8.35a32.73 32.73 0 00-1-7c-.52-1.74-1.34-3.42-1.43-5.23-.14-2.95 1.67-5.59 2.77-8.33 3.61-9-.5-19.18 0-28.9q.09-.99.21-1.98z" class="cls-9"/><path d="M857.11 902.81a5.26 5.26 0 00-.7.64l-32.94 35.8c-.22-3.39-.42-6.53-.54-8.35a32.11 32.11 0 00-1-7c-.52-1.74-1.34-3.42-1.43-5.23-.14-2.95 1.67-5.59 2.77-8.33 3.61-9-.5-19.18 0-28.9A6 6 0 00829 884c1-.13 2-.49 2.81 0a3.87 3.87 0 011.32 1.56c5.24 8.52 19.6 8.36 23.98 17.25z" class="cls-9"/><path d="M816 807.12a10.93 10.93 0 00-.42 4.16c.51 3.05 3.51 5 5.22 7.54 4 6.14.07 14.27.42 21.62.3 6.38 3.94 12.16 4.89 18.47 1.4 9.28-3.12 18.59-2.36 27.94.54 6.8 3.86 13.53 2.35 20.18-.63 2.78-2.07 5.31-2.81 8.06-1 3.67-.68 7.54-.36 11.33l1.14 13.74c.46 5.5.87 11.31-1.49 16.31-2.93 6.23-9.6 9.9-16.29 11.57s-13.66 1.75-20.43 3.06c-6 1.15-11.8 3.26-17.88 3.41-7 .16-13.86-2.33-20.47-4.78l-24.47-9.09a6 6 0 01-2.72-1.6 6.06 6.06 0 01-1-3l-2.73-18c-1.87-12.29-3.74-24.77-2.05-37.08.78-5.65 2.3-11.33 1.47-17-.89-6-4.4-11.42-5.2-17.44-1-7.4 2.17-14.66 3.16-22.06 2.24-16.67-6.59-33.71-2.78-50.09 1.48-6.4 4.85-12.41 5-19 .19-9.26-6.13-18-4.73-27.16 1.46-9.51 11-15.95 20.47-17.67s19.17.07 28.78.51c5.83.26 11.72 0 17.43 1.27 15.23 3.28 26.21 16.08 36.84 27.47 2 2.14 4.24 4.48 4.71 7.49.4 2.58-.93 4.35-1.28 6.74-.47 3.21.28 6.84.26 10.1a102.37 102.37 0 01-.6 10.79 104 104 0 01-2.07 12.21z" class="cls-9"/><path fill="#adb6bc" d="M714.8 902.06a2.5 2.5 0 01-2.5-2.5c0-2.3.14-4.41.28-6.45a44.23 44.23 0 000-9.76 39.42 39.42 0 00-2.45-8.06 42.13 42.13 0 01-2.76-9.41c-.72-5.31.49-10.41 1.67-15.35a74.62 74.62 0 001.49-7.37c1-7.42-.17-13.54-1.41-20-1.4-7.35-2.86-14.95-.72-24.16 1.41-6.06 1.66-17.75.95-24.16a2.5 2.5 0 115-.55c.76 6.82.51 19.11-1 25.84-1.9 8.18-.61 14.94.76 22.09 1.26 6.58 2.56 13.39 1.46 21.62-.36 2.67-1 5.3-1.59 7.85-1.11 4.7-2.17 9.15-1.58 13.53a37.75 37.75 0 002.48 8.29 43.38 43.38 0 012.72 9.12 48 48 0 01.09 10.84c-.14 1.95-.27 4-.27 6.1a2.5 2.5 0 01-2.62 2.49z"/><path d="M901.28 937.46a7.16 7.16 0 016.23 1.77l5.23 4.81a7.15 7.15 0 01.42 10.13l-65.6 71.28a7.18 7.18 0 01-10.15.42l-5.22-4.81a7.18 7.18 0 01-.43-10.14l65.6-71.27a7.17 7.17 0 013.92-2.19z" class="cls-11"/><path d="M829.17 1015.78v5.05A7.18 7.18 0 01822 1028h-96.9a7.17 7.17 0 01-7.18-7.17v-7.11a7.18 7.18 0 017.18-7.18H822a7.19 7.19 0 017.19 7.18z" class="cls-11"/><path d="M857.11 902.81a7.28 7.28 0 019.61.21l19.43 17.88a7.27 7.27 0 011.66 8.46 30.81 30.81 0 00-31.42 8.7l-28.2 30.64v-9.49a7.28 7.28 0 00-4.22-6.62l.32-.68c-.18-2.6-.52-7.86-.82-12.66l32.94-35.8a5.26 5.26 0 01.7-.64z" class="cls-12"/><path d="M828.19 968.7v16.89a7.3 7.3 0 01-5.1 7 30.81 30.81 0 00-27.67-17.24h-43.75a30.82 30.82 0 00-27.82 17.55 7.28 7.28 0 01-6.9-7.28v-26.41a7.26 7.26 0 013.55-6.26 7.17 7.17 0 013.74-1h96.66a7.19 7.19 0 013.07.68 7.28 7.28 0 014.22 6.62z" class="cls-12"/><path d="M900 936.25l1.32 1.21a7.17 7.17 0 00-3.92 2.19l-65.6 71.27a7.12 7.12 0 00-1.89 4.86h-.7v-2.06a7.14 7.14 0 00-2.93-5.78v-1.79a30.52 30.52 0 00-3.16-13.59 7.3 7.3 0 005.1-7V968.7l28.2-30.64a30.82 30.82 0 0143.58-1.81z" class="cls-13"/><path d="M826.24 1006.15v1.79a7.13 7.13 0 00-4.26-1.4H725.1a7.13 7.13 0 00-4.26 1.4v-1.79a30.84 30.84 0 0130.83-30.83h43.74a30.84 30.84 0 0130.83 30.83z" class="cls-13"/><path d="M999.26 602c3.33 16.57-6 16.87-1.25 45.41 2.35 14.16-2.22 19-12.08 21.22-6.47 1.48-15.23 1.87-25.82 3.1-26.7 3.1-97.15 7.88-120.78 12-7.89 1.36-13.26 2-17 1.94-5.42 0-7.33-1.38-8.4-3.63-1.71-3.67 3.74-8.29 1.08-14.31a10.6 10.6 0 00-1-1.73c-5.51-8-10.2-16.39 24.93-27.22 92.21-28.42 131.52-51.21 148.62-50 6.66.47 9.96 4.53 11.7 13.22z" class="cls-1"/><path d="M628.49 680.29q-.36-3.64-.36-7.39v-33.69c-4.37 1.82-8.1.65-8.78-2.4-6.83 8.78-16.59 9.75-20.49 2-4.16 2.23-7.59 2.69-10.2 2.09v.21c.67 10.14 1 19 1 26.17a20.58 20.58 0 0110.37 15 32.63 32.63 0 01-.5 11.86c-1.35 6.33.3 51.23 2.15 70.23.27 2.8 3 3.65 4.55 1.31 7.81-11.66 32.79-31 54.26-34 16.23-2.24-30.79-38.8-32-51.39zM780.37 440.22v193.32c13.77 1.82 7.6 19.31 6.14 36.1-1.2 13.48.65 26.5 18.26 30.58 5.79 1.35 19.52-1 17.57-13.66v-.91c-5.42 0-7.33-1.38-8.4-3.63-1.71-3.67 3.74-8.29 1.08-14.31a10.6 10.6 0 00-1-1.73c-5.51-8-10.2-16.39 24.93-27.22 92.21-28.42 131.51-51.21 148.62-50C971.32 480.51 882 459.78 780.37 440.22zM628.13 548V426.09a23.17 23.17 0 01.57-5.1 245.28 245.28 0 00-82.11-30.61c-55.19-9.92-106.15.92-122.42 30.84a100.42 100.42 0 00-4.86 10.22 18.81 18.81 0 013.89.51c16.41 3.79 112.22 25.36 130.77 29.26 18.36 3.88 6.83 6.83 11.71 12.68 3.78 4.54 4.19 6.86-.48 8 14.68 29.9 44.4 41.27 62.93 66.11z" class="cls-13"/><path d="M780.37 337.32v4.88a27.28 27.28 0 01-14.64 24.19c-.23.13-.47.24-.71.36s-.49.24-.73.34a6.88 6.88 0 01-.74.32l-.8.33-.75.26c-.58.2-1.17.39-1.76.55l-.6.15-.8.19c-.25.06-.5.1-.76.15s-.76.14-1.14.2l-.86.11a3.57 3.57 0 01-.46 0h-.07c-.38 0-.76.06-1.14.08s-.93 0-1.4 0h-97.55q-1.29 0-2.55-.12a4.8 4.8 0 01-.52-.05c-.28 0-.56-.06-.84-.11l-.51-.08-1.17-.21c-.29-.06-.56-.12-.83-.2s-.5-.11-.74-.18-.58-.16-.86-.25l-.23-.07c-.36-.1-.71-.23-1.07-.36l-.33-.12c-.31-.11-.61-.24-.91-.37s-.77-.33-1.15-.5a27.48 27.48 0 01-7.61-5.38 27.31 27.31 0 0119.32-46.63h54.65a13.66 13.66 0 0013.66-13.66v-11.7a28.3 28.3 0 0156.6 0v47.8z" class="cls-1"/><path d="M786.51 669.64c-1.2 13.48.64 26.5 18.26 30.58 5.79 1.35 19.52-1 17.57-13.66v-.91c3.71 0 9.08-.58 17-1.94 23.63-4.08 94.08-8.86 120.78-12 10.59-1.23 19.35-1.62 25.82-3.1-20 86.89-106.07 112.76-168.6 118.73-35.4 3.4-63.27.4-67.39-1.49-7.62-3.51-4.49-11-4.62-15s-3.44-7.72-3.77-11.74c-.42-5.06 2.39-6.68 1.82-12.51-.31-3.07-2-4.28-3.38-6.56a12.92 12.92 0 01-1.76-5.65c-.7-7.08 3.64-10.15 3.64-10.15s-70.24 13.17-71.68-6.06c-2.43-32.45 103.81 5.51 93.59-35.59-6.93-27.88-4.89-52 16.59-49.12 13.76 1.89 7.62 19.38 6.13 36.17zM765.73 366.39v38a10.65 10.65 0 00-1-.39 9.19 9.19 0 00-1.05-.34 10.87 10.87 0 00-1.08-.3c-.36-.09-.72-.17-1.09-.24a11.94 11.94 0 00-1.22-.21c-.69-.1-1.4-.17-2.12-.21h-1.2a23.42 23.42 0 00-23.42 23.41v13.66a29.28 29.28 0 01-58.55 0v-13.68a23.42 23.42 0 00-23.42-23.41h-1.15l-1 .07-.65.07c-.18 0-.37 0-.55.06l-.62.1-.22.05a5 5 0 00-.77.15l-.3.07a4 4 0 00-.73.17 19.08 19.08 0 00-1.86.57v-37.1c.38.17.76.35 1.15.5s.6.26.91.37l.33.12c.35.13.71.25 1.07.36l.23.07c.28.09.56.18.86.25s.48.13.74.18.54.14.83.2l1.17.21.51.08c.28 0 .56.08.84.11a4.57 4.57 0 00.52.05q1.26.12 2.55.12H754.43c.46 0 .76 0 1.14-.08h.07a3.28 3.28 0 00.46 0l.86-.11c.38-.06.76-.12 1.14-.2a6 6 0 00.76-.15l.8-.19.6-.15c.59-.16 1.18-.35 1.76-.55.24-.07.47-.16.71-.25l.8-.33a6.88 6.88 0 00.74-.32 8 8 0 00.73-.34c.26-.21.5-.32.73-.45z" class="cls-14"/><path d="M590.07 757H293.71A17.72 17.72 0 01276 739.3v-267a17.72 17.72 0 0117.72-17.72h171.61a17.76 17.76 0 0111.23 4l76.09 62.3c.27.22.54.43.82.63l47 34.09a17.71 17.71 0 017.32 14.4v169.3a17.72 17.72 0 01-17.72 17.7z" class="cls-4"/><path d="M607 648.05a12.63 12.63 0 01-9.56-4.26 16.75 16.75 0 01-9.7 1 11.82 11.82 0 01-9.25-12.1 10.3 10.3 0 01-4.28-4.14c-2.15-3.82-2-9 .46-14.74 3.77-8.81 4.41-15.62 1.95-20.82-4.53-9.57-20-14.71-38.16-20-2.41-.7-4.88-1.4-7.41-2.12-30.8-8.75-69.13-19.63-98.41-50.75a132.36 132.36 0 01-9.59-11.41l-5-6.67 8.32.27a38.24 38.24 0 009.58-1.09c21-4.78 110.61-21.53 123.53-22.52a31.45 31.45 0 004.71-.64l2 7.75a36.64 36.64 0 01-6 .86c-12.72 1-101.49 17.6-122.38 22.35-1.25.28-2.46.52-3.64.71 1.42 1.68 2.88 3.32 4.37 4.9 27.77 29.51 64.93 40.07 94.78 48.55 2.54.72 5 1.42 7.44 2.12 20.1 5.82 37.22 11.65 43.18 24.24 3.49 7.39 2.89 16.35-1.84 27.39-1.64 3.83-1.51 6.48-.84 7.67.28.5.85 1.18 2.61 1.43l5.5.79-2.49 5a3.57 3.57 0 00.06 3.09 3.71 3.71 0 002.67 2.09c1.91.44 4.54-.17 7.41-1.71l3.63-2 1.84 3.68a4.92 4.92 0 005.19 3l.77 8c-.52.03-.98.08-1.45.08z" class="cls-1"/><path d="M628.13 639.21c-4.37 1.82-8.1.65-8.78-2.4-6.83 8.78-16.59 9.75-20.49 2-4.16 2.23-7.59 2.69-10.2 2.09a7.76 7.76 0 01-5.42-10.9c-6.83-1-8-7.4-4.88-14.63 12.49-29.15-7.71-37.23-38.77-46.21s-73.09-18.91-104-51.78a127.44 127.44 0 01-9.3-11.06 41.85 41.85 0 0010.59-1.19c21.47-4.88 110.28-21.46 123-22.44a33.18 33.18 0 005.38-.75c14.68 29.87 44.4 41.24 62.93 66.09 8 10.66 13.86 23.81 15.62 42 3.02 31.79-7.47 45.75-15.68 49.18z" class="cls-14"/><path d="M491.42 494.33c-2.07 7.58 1.42 15.93 3.18 19.45l-19.05-2.32c-1.14-2.48-3.89-9.2-2.48-13.64l-2.11.41c-.89 4.42 1.05 10 2.33 13l-11.49-1.4c-1.48-1.7-4.28-5.66-4.37-8.93l-1.93.38c.2 3.09 2.12 6.26 3.55 8.21l-11.05-1.4c-.83-.84-2.6-2.84-2.62-4.8l-1.95.41a8.33 8.33 0 001.7 4l-13.73-1.68a35.09 35.09 0 01-5.09.24c.58.77 1.16 1.52 1.75 2.27l15.29 6.74a38.72 38.72 0 00-5.95 3.9l1.38 1.4a30.62 30.62 0 017-4.23l9.48 4.17c-4 1.83-7.82 4-9.15 6.76.52.45 1 .9 1.56 1.33.92-3 7.19-5.82 10-7l10.33 4.57c-4.9 2.71-7.19 7-8.76 11l1.66 1.09v-.08c1.65-4.32 3.94-8.63 9.39-11l19.24 8.48c-5.68 4.23-7.17 6.68-9.79 13l1.77.83c2.71-6.6 4-8.64 10.53-13.28 0 0 0-.06.08-.09l.09-.06s0-.06.05-.08l.07-.11a.83.83 0 00.08-.22v-.1a1.29 1.29 0 000-.34 1 1 0 00-.12-.29c-2.77-4.61-.71-12.93 4.78-19.34a1 1 0 00.21-.65.38.38 0 000-.1 1 1 0 00-.14-.37c-.28-.47-6.69-11.58-3.59-20.54zm-46.59 19.51l-13.1-5.77 14.1 1.72a9.44 9.44 0 00-1 4.05zm12.36.13a14.47 14.47 0 00-.83 5l-9.61-4.24c0-1.58.32-4.08 1.4-4.57h.05l10.49 1.28a8.29 8.29 0 00-1.5 2.56zm12.26 10.72l-11-4.86a11.16 11.16 0 01.8-5.65 4.39 4.39 0 012.23-2.48l12.17 1.49a23.63 23.63 0 00-4.2 11.5zm20.18 8.9l-18.3-8.07c.8-8.18 4.46-11.92 4.49-12l.08-.09 18.6 2.27c-4.41 5.86-6.27 12.87-4.87 17.89zM888.47 684.7c-33 6.4-37.13 15.35-45.43 33.18-.67 1.43-1.36 2.92-2.1 4.47-3.19 6.69-14.47 12.54-22.08 9.57-3.77-1.47-5-4.87-3.43-9.84 1.31-4.26 4.26-5 8.35-6.12 6.88-1.81 16.3-4.29 21.91-26.11a1 1 0 00-1.81-.7 27.91 27.91 0 01-25.53 15.4c-4.5-.19-8.23-1.64-10.61-4a15.13 15.13 0 01-2.78-.29c2.55 3.69 7.34 6 13.31 6.24a29.62 29.62 0 0023.62-10.82c-5.29 14.89-12.6 16.82-18.61 18.4-4.16 1.09-8.09 2.13-9.72 7.43-1.82 5.92-.15 10.38 4.59 12.23 8.72 3.39 21-3.07 24.55-10.55.74-1.55 1.44-3.05 2.11-4.48 6.45-13.86 10.32-22.17 28.22-28.12-11.86 6.91-15.62 16.92-19.28 26.69-4.21 11.23-8.19 21.85-24 28-11.12 4.32-13.36 10.14-13.71 13.22a9.9 9.9 0 004.57 9.31c4.52 3.07 10.89 3.08 16.61 0 6-3.21 8.27-8.71 10.44-14 3-7.21 6-14.65 18.59-17.47-8.58 5.61-10.47 12.68-12.3 19.55s-3.52 13.25-11.82 18a40.46 40.46 0 01-7 3c-5.18 1.82-10.09 3.55-10.14 9.67l2-.24c.17-4.31 3.4-5.68 8.84-7.59a42.29 42.29 0 007.32-3.11c9-5.21 10.89-12.34 12.73-19.24 2.12-8 4.12-15.46 16.2-21a1 1 0 00-.5-1.85c-18.45 1.84-22.3 11.24-25.68 19.53-2.14 5.23-4.16 10.17-9.55 13.05-6.08 3.24-11.53 2.16-14.6.08a8 8 0 01-3.74-7.48c.52-4.5 5.06-8.73 12.48-11.62 16.62-6.46 20.94-18 25.12-29.13 5-13.22 9.64-25.7 33.31-31.36a1 1 0 00-.42-1.9z" class="cls-1"/><path d="M943.18 686.29c-16.55-4.61-34.66-2.16-47.26 6.41-27.75 18.86-18.51 36-13.55 45.27 1.06 1.95 2.36 4.38 2 5-.07.12-.49.33-1.58.33-4.29 0-9.09 2.77-11.66 6.74a11.43 11.43 0 00-.94 11.21c1.43 3.24 3.59 5.27 6.42 6.06a11.53 11.53 0 006-.11 7.75 7.75 0 00-1.56 4.16 6.05 6.05 0 00.59 2.86l1.88-.63a4.1 4.1 0 01-.52-2.15c.09-2.16 1.9-4.53 5.23-6.86a1 1 0 10-1.12-1.6c-2.46 1.73-6.55 3.4-10 2.45-2.24-.62-4-2.3-5.16-5a9.47 9.47 0 01.79-9.36c2.24-3.44 6.36-5.85 10-5.85 1.07 0 2.57-.13 3.26-1.28.91-1.53-.24-3.66-2-6.89-4.67-8.68-13.37-24.85 12.93-42.73 12.14-8.25 29.63-10.6 45.64-6.14 12.79 3.56 22.71 10.88 27.48 20.18.39-.65.77-1.32 1.15-2-5.12-9.25-15.2-16.5-28.02-20.07z" class="cls-1"/><path d="M901.77 737.63a4.53 4.53 0 01-1.62-.28c-1.76-.63-3.21-2.35-4.57-5.4-3.34-7.49-5.32-18.54.09-25 4.3-5.16 12.2-6.38 23.48-3.63 11.49 2.8 16.14 12.5 14.7 20.21-1.19 6.3-6 9.84-12.14 9s-10.51 1.36-14.05 3.11c-2.14 1.05-4.06 1.99-5.89 1.99zm6.87-33.82c-5.2 0-9 1.45-11.47 4.36-4.84 5.8-2.92 16 .19 23 1.12 2.51 2.25 3.93 3.45 4.37 1.54.55 3.5-.42 6-1.64 3.58-1.77 8.48-4.19 15.18-3.3 6.16.83 9.18-3.31 10-7.44 1.28-6.83-2.92-15.44-13.24-18a43 43 0 00-10.11-1.35zM914.64 746.93c-7.1.52-11.39 2.27-12.75 5.2s.35 6.87 5.38 11.64l1.87-.92c-4.63-4.25-6.52-7.66-5.48-9.89 2.07-4.46 15.1-5.05 27.74-3.38l2.27-1.64a90.06 90.06 0 00-19.03-1.01zM619.35 636.81a4 4 0 001 1.86 1.22 1.22 0 00.33-.27c6.28-8.38 13.86-29 9-51.54a1 1 0 00-2 .42c4.66 21.41-2.56 41.56-8.35 49.57zM615.71 591.85a1 1 0 00-2 .22c2.36 21.28-5.85 41.32-15 46.77l.17-.08a11.14 11.14 0 001 1.68c11.92-7.27 17.8-30.88 15.83-48.59zM601.37 595.85a1 1 0 00-1-1 1 1 0 00-1 1c.11 12.46-4.51 26.12-10.77 31.77a7.61 7.61 0 01-5.37 2.36 7 7 0 00-.61 2h.07a7 7 0 00.8 0 9.7 9.7 0 006.45-2.9c6.64-5.95 11.55-20.26 11.43-33.23zM590.21 540.33a1 1 0 00-1.09-.5 57.5 57.5 0 01-10.55 1.56c5.79-4 9-11.83 9.14-12.21a1 1 0 00-1.61-1 18.59 18.59 0 01-6.88 5c1.63-3.92 2-7.36.92-10-2.91-7.49-9.87-9.93-15.42-9.7-5.86.23-10.89 3.29-13.14 7.79-4-6.06-10.24-9.92-16.5-10h-.17a13.68 13.68 0 00-12.24 7.35 14.73 14.73 0 00-1.53 9.57c-9.44 6-13.7 17.42-13.76 17.58a1 1 0 001.74.87 21.73 21.73 0 0110.88-8.35c-4.24 5.9-1.74 15-1.61 15.45a1 1 0 00.94.71 1 1 0 00.92-.78 13.13 13.13 0 018.75-10.25 58.35 58.35 0 0021.49 14.86 2.79 2.79 0 001.15.24 4.35 4.35 0 001-.15c3.81-1 8.51-3.77 13.26-7.93.8.13 1.58.23 2.32.3 10.22 1 21.3-8.82 21.77-9.24a1 1 0 00.22-1.17zm-65.85-20.76a11.85 11.85 0 0110.7-6.37c6.14.07 12.35 4.27 15.83 10.71a1 1 0 001.79-.19c1.64-5.48 7.27-8.13 12.12-8.32s11 1.92 13.52 8.46c1 2.5.43 6-1.56 10-2.87.55-6.28.4-11-.12-5.62-.62-11.1-2.76-16.4-4.82-4.77-1.86-9.28-3.61-13.52-4.11a21.88 21.88 0 00-12.89 2.3 12.54 12.54 0 011.41-7.54zm27.81 36.91a1.33 1.33 0 01-1 0 56.85 56.85 0 01-20.13-13.67 17.89 17.89 0 016-.35c2.36.3 6.38 1.6 11 3.11a155.14 155.14 0 0015.4 4.43c-4.07 3.34-8.11 5.68-11.27 6.48zm16.25-7.68c-5.68-.53-13.14-2.95-19.72-5.09-4.75-1.54-8.84-2.87-11.39-3.19-4.83-.6-13.91.69-17.67 8.88-.35-3.78 0-9.41 4.33-12.21a1 1 0 00-.53-1.8h-.12a24.38 24.38 0 00-11 4.9c3.86-6.28 11.43-14.94 23.33-13.53 4 .47 8.39 2.18 13 4 5.42 2.11 11 4.29 16.89 4.94 5.11.57 8.85.7 12 0h.1a15.45 15.45 0 005.73-2.57c-1.8 2.88-4.54 6.3-8 7.79a1 1 0 00-.55.62 1.16 1.16 0 00.28 1.15c1.08 1.16 6.22.58 10.34-.14-3.89 2.79-10.79 6.83-17.02 6.25zM557.41 501.32l5-4.13a1 1 0 10-1.24-1.49l-4.63 3.85-1.6-7.22a1 1 0 10-1.91.43l1.65 7.42-6.43-.8a1 1 0 00-.24 1.94l6.24.78-3 4.53a1 1 0 00.81 1.52 1 1 0 00.81-.43l3.3-5 5 4.18a1 1 0 001.37-.12 1 1 0 00-.13-1.38zM517.61 511.68l-6.29-.23 2.62-4.79a1 1 0 10-1.71-.93l-2.85 5.27-5.38-3.78a1 1 0 00-1.12 1.6l5.3 3.68-4.57 4.55a1 1 0 001.37 1.38l4.27-4.24 2.23 7a1 1 0 00.93.68.79.79 0 00.3 0 1 1 0 00.63-1.22l-2.29-7.26 6.48.24a1 1 0 000-1.95zM584.36 566.07l-7.35-2 3.71-5.31a1 1 0 00-1.6-1.12l-3.6 5.16-2.61-4.8a1 1 0 10-1.71.94l2.85 5.22-6 2.5a1 1 0 00.38 1.88 1 1 0 00.37-.08l6-2.46 1.35 6.31a1 1 0 001 .77h.21a1 1 0 00.75-1.16l-1.4-5.92 7.14 1.94a.73.73 0 00.25 0 1 1 0 00.26-1.92zM419.31 431.44a18.81 18.81 0 013.89.51c16.41 3.79 112.22 25.36 130.77 29.26 18.36 3.88 6.83 6.83 11.71 12.68 3.78 4.54 4.19 6.86-.48 8a33.18 33.18 0 01-5.38.75c-12.68 1-101.49 17.56-123 22.44a41.85 41.85 0 01-10.59 1.19c-14.13-.43-17.11-10.86-17.71-18.75-6.72-6.15-7.34-15.2-6.09-22.72a39.3 39.3 0 014.13-12.4c-3.88-10.84.86-19.22 9.32-20.75a16.17 16.17 0 013.43-.21z" class="cls-1"/><path d="M780.37 440.22v193.32c-21.48-2.84-23.52 21.24-16.59 49.12 10.22 41.1-96 3.14-93.59 35.59 1.44 19.23 71.68 6.06 71.68 6.06s-4.34 3.07-3.64 10.15a12.92 12.92 0 001.76 5.65 76.11 76.11 0 01-111.5-59.82q-.36-3.64-.36-7.39v-33.69c8.21-3.43 18.7-17.39 15.62-49.23-1.76-18.16-7.65-31.31-15.62-42V426.09A23.38 23.38 0 01643.75 404c.6-.22 1.23-.41 1.86-.58a7 7 0 01.73-.17l.3-.07c.25-.06.51-.11.77-.15l.22-.05.62-.1c.18 0 .37 0 .55-.06l.65-.07 1-.07h1.15a23.42 23.42 0 0123.4 23.41v13.66a29.28 29.28 0 0058.55 0v-13.66A23.42 23.42 0 01757 402.68h1.2c.71 0 1.43.11 2.12.21a11.94 11.94 0 011.22.21c.37.07.73.15 1.09.24s.72.19 1.08.3.7.21 1.05.34l1 .39a23.39 23.39 0 0114.64 21.69z" class="cls-1"/><g opacity=".9"><path d="M364 689.2a10 10 0 00-20 0M344 689.2a10 10 0 00-20 0M324 689.2a10 10 0 00-20 0M364 689.2a30 30 0 00-60 0M324 725.45a5 5 0 005 5 5 5 0 005-5V697.2" class="cls-16"/></g></g></g></svg>