<svg xmlns="http://www.w3.org/2000/svg" viewBox="0 0 1025.25 1032.92"><defs><radialGradient id="id1" cx="456.89" cy="753.03" r="260" gradientUnits="userSpaceOnUse"><stop offset="0" stop-color="#e6eaff" stop-opacity="0"/><stop offset=".01" stop-color="#e6eaff" stop-opacity=".01"/><stop offset=".11" stop-color="#eaeefd" stop-opacity=".17"/><stop offset=".21" stop-color="#eef1fb" stop-opacity=".3"/><stop offset=".33" stop-color="#f0f3fa" stop-opacity=".41"/><stop offset=".45" stop-color="#f2f5f9" stop-opacity=".49"/><stop offset=".59" stop-color="#f4f6f9" stop-opacity=".55"/><stop offset=".75" stop-color="#f5f7f8" stop-opacity=".59"/><stop offset="1" stop-color="#f5f7f8" stop-opacity=".6"/></radialGradient><style>.cls-1{fill:#dee2e5}.cls-2,.cls-3{fill:#e6eaed}.cls-3{opacity:.58}.cls-12,.cls-5{fill:none}.cls-5{stroke:#c5cdd0;stroke-miterlimit:10;stroke-width:8px}.cls-6{fill:#e7e8ea}.cls-8{fill:#c5cdd0}.cls-9{fill:#97a4ac}.cls-10{fill:#b4bdc2}.cls-13{fill:#dfe3e6}.cls-14{fill:#d0d5da}.cls-15{fill:#c6cdd0}</style></defs><g><g><path d="M848.7 223.63H57.41A57.41 57.41 0 000 281v571.53a57.41 57.41 0 0057.41 57.41H848.7a57.41 57.41 0 0057.41-57.41V281a57.41 57.41 0 00-57.41-57.37zm32.78 568.8a27.7 27.7 0 01-27.71 27.71H52.34a27.71 27.71 0 01-27.71-27.71V287.82a27.71 27.71 0 0127.71-27.71h801.43a27.71 27.71 0 0127.71 27.71z" class="cls-1"/><path d="M762.86 290.88H249.64c-9.19 0-16.63 6.72-16.63 15v318.41c52.14-77.14 116.05-126.12 253.86-128.65 131.85-2.42 243.65 77.46 282.46 184.65 6-2.27 10.17-7.6 10.17-13.82V305.88c0-8.28-7.45-15-16.64-15zM410 332.63a9 9 0 01-8.54-6.17L396.94 313a15 15 0 00-5.24-7.28h101a12 12 0 0111.39 8.22l6.21 18.7z" class="cls-2"/><path d="M688.32 348.81H81.2a15 15 0 00-15 15v406a15 15 0 0015 15h110c-.17-3.89-.28-7.8-.28-11.74H95.25A17.21 17.21 0 0178 755.82V411a17.22 17.22 0 0117.22-17.22H635A17.22 17.22 0 01652.23 411v185.85a264.37 264.37 0 0151.09 84.89V363.81a15 15 0 00-15-15z" class="cls-3"/><path d="M285.6 555.93H124.81a18.18 18.18 0 00-18.18 18.18V623a18.17 18.17 0 0018.18 18.17h101.35c-1.04-31.43 64.17-85.24 59.44-85.24zM218.28 655.93h-93.47a18.18 18.18 0 00-18.18 18.18V723a18.17 18.17 0 0018.18 18.17h68.07a262.59 262.59 0 0125.4-85.24z" class="cls-3"/><rect width="197.14" height="85.24" x="106.63" y="455.93" class="cls-3" rx="18.18"/><rect width="197.14" height="20.3" x="96.63" y="410.93" class="cls-3" rx="10.15"/><path fill="#f5f7f8" d="M456.89 491.14c111.49 0 206.86 69 245.75 166.63a12.21 12.21 0 00.25-2.43V347.63a12 12 0 00-12-12H410a12 12 0 01-11.38-8.22l-4.48-13.48a12 12 0 00-11.39-8.22h-126a12 12 0 00-12 12v280.08a264.07 264.07 0 01212.14-106.65z"/><rect width="282.66" height="8.9" x="377.26" y="419.78" class="cls-2" rx="4.45"/><rect width="282.66" height="8.9" x="377.26" y="432.78" class="cls-2" rx="4.45"/><path d="M204.84 809.2H681v85.54a30.62 30.62 0 01-30.62 30.62H257.19A52.34 52.34 0 01204.84 873v-63.8z" class="cls-1"/><rect width="133.54" height="13.62" x="376.26" y="469.05" class="cls-2" rx="6.81"/><path d="M304.88 463.92a36.31 36.31 0 1036.3 36.31 36.31 36.31 0 00-36.3-36.31zm16 45.17a16 16 0 01-16.56 16 16.24 16.24 0 01-15.4-16.36v-25.14a6.19 6.19 0 016.2-6.2 6.2 6.2 0 016.19 6.58l-1 15.68a4.57 4.57 0 005 4.83 4.7 4.7 0 004.14-5l-.98-15.48a6.2 6.2 0 1112.39-.38z" class="cls-2"/><rect width="267.15" height="8.9" x="395.26" y="406.78" class="cls-2" rx="4.45"/><path d="M627.75 607.72c.4 21.33 1.72 80 4.93 113.76.78 8.12 6.72 16.23 6.49 20.54-.24 4.63.07 8.9.06 13.51 0 5.11-1.94 12.79-1.2 17.8 8.22 56 19.45 108.6 48.85 121.61 23.21-49.68 57.53-250.71-6.9-289.45s-52.23 2.23-52.23 2.23z" class="cls-5"/><path d="M627.75 607.72c.4 21.33 1.72 80 4.93 113.76.78 8.12 6.72 16.23 6.49 20.54-.24 4.63.07 8.9.06 13.51 0 5.11-1.94 12.79-1.2 17.8 8.22 56 19.45 108.6 48.85 121.61 23.21-49.68 57.53-250.71-6.9-289.45s-52.23 2.23-52.23 2.23z" class="cls-6"/><circle cx="456.89" cy="753.03" r="260" fill="url(#id1)" opacity=".6"/><path d="M799.69 803.63c-16-.8-28.07-2.63-31.6-4.39-8.49-4.26-7.27-12.12-6.61-16.34a20.16 20.16 0 00.28-2.36 13.47 13.47 0 00-1.38-4.6 20.76 20.76 0 01-2-7.06 15.75 15.75 0 01.92-6.41 9.32 9.32 0 00.55-4.29 10 10 0 00-.79-1.18 18.47 18.47 0 01-4-11.82 12.77 12.77 0 012.71-8.44 4.63 4.63 0 001.18-2.93 6.66 6.66 0 00-.9-4 15.85 15.85 0 01-1.8-8.81c.27-5 2.12-9.11 5.35-11.82 3.46-2.91 8.28-4.1 14-3.41 7.25.86 7.81.27 9.48-1.51a25.54 25.54 0 015.83-4.82c8.91-5.42 15.57-1.53 22.63 2.59 4.19 2.45 8.94 5.23 15.24 6.91a13.27 13.27 0 0010.43-2.49c2-1.71 2.75-4.06 2.38-7.19a3.28 3.28 0 010-.7l.05-.9a4 4 0 014.14-3.78c3.52.13 8.71-.29 16.33-1.34 14.81-2.06 47.53-3.77 76.4-5.29 17.85-.94 34.72-1.82 44.94-2.66 3.61-.3 6.94-.5 10.16-.7a128.77 128.77 0 0015.31-1.48 4 4 0 014.63 5c-10.56 39.66-35.23 69.9-73.33 89.89-35.28 18.51-75.36 24.42-102.76 26.11a344.7 344.7 0 01-37.77.22zm-26.35-90c-2.2-.11-4.79.18-6.59 1.7-1.52 1.27-2.36 3.33-2.51 6.13a8.12 8.12 0 001 4.88 14.28 14.28 0 011.7 7.85 12.27 12.27 0 01-2.62 7.15 5 5 0 00-1.26 3.73 10.78 10.78 0 002.48 7.24 9.84 9.84 0 012.3 5.26 17.36 17.36 0 01-.93 7.42 7.87 7.87 0 00-.53 3.51 14.62 14.62 0 001.37 4.35 19.41 19.41 0 012 7.71 22.84 22.84 0 01-.38 3.58c-.69 4.48-.68 6.46 2.3 8 3.19 1.52 29.78 5.53 65.25 3.32 51.81-3.21 141.26-21.11 167.17-104.24-3.05.3-6.4.5-10 .73-3.18.19-6.46.39-10 .68-10.34.85-27.26 1.74-45.17 2.68-28.71 1.51-61.25 3.22-75.72 5.22-5.6.78-10 1.23-13.54 1.38a14.93 14.93 0 01-5.2 10.66 21.13 21.13 0 01-17.74 4.17 67 67 0 01-17.24-7.74c-6.83-4-9.79-5.5-14.44-2.67a17.86 17.86 0 00-4.16 3.48c-3.39 3.6-6.11 5.17-16.25 4-.41-.13-.84-.17-1.29-.19z" class="cls-8"/><path d="M635.64 758.76c28.65-1 72.54 13.31 89.91 28.67-3.07-47.78 6.26-47.07-8.5-46.67-42.32 1.13-73.56-1.5-82-1.21-2.06.07-3.39 2.29-3.23 4.35l1 12.27a2.81 2.81 0 002.82 2.59z" class="cls-9"/><path d="M673 643.46c-4.37 1.83-8.1.66-8.78-2.4-6.83 8.78-16.59 9.76-20.49 2-4.16 2.24-7.59 2.7-10.2 2.09a7.76 7.76 0 01-5.42-10.87c-6.83-1-8-7.4-4.88-14.63 12.49-29.15-7.71-37.23-38.77-46.21s-73.09-18.91-104-51.77a127.6 127.6 0 01-9.3-11.07 41.85 41.85 0 0010.59-1.19c21.47-4.87 110.27-21.46 123-22.43a34.34 34.34 0 005.38-.75c14.68 29.87 44.4 41.23 62.93 66.08 8 10.66 13.86 23.81 15.62 42 2.99 31.76-7.5 45.69-15.68 49.15z" class="cls-5"/><path d="M868.32 883.73c.53-4.28 2.14-8.38 2.47-12.68.78-10.25-5.78-19.94-5.24-30.21.27-5.32 2.34-11.19-.62-15.63-.64-1-1.5-1.79-2.24-2.71a14.09 14.09 0 01-2.41-12.93 49.23 49.23 0 001.85-5.27c.73-3.74-1-7.73.17-11.35l-.13-1.31c-35.4 3.39-63.27.4-67.39-1.5-7.62-3.51-4.5-11-4.62-15s-3.44-7.72-3.77-11.74c-.42-5.06 2.39-6.68 1.82-12.5-.31-3.08-2-4.29-3.38-6.57-5.34 2.84-9.18 2.47-15.17 4s-14.11-.68-20.57-.68c-26.64 0-.46 20-14.06-.69 0 0-52.12 124.61-46.44 129.12 7.34 5.83 5.45 7.09 12.78 12.91 4.84 3.84 9.75 7.73 15.46 10.08 3.89 1.6 8.21 2.52 11.38 5.28 1.37 1.2 3.82 4.6 5.18 5.8 5.4 5 11.51 9.22 17.58 13.41 3 2.09 6.36 4.27 10 4.25.65 3.38 1.63 6.72 1.76 10.15.13 3.18-.45 6.46.46 9.5 1 3.21 3.56 6.55 2 9.51l.14.22a7.14 7.14 0 013.74-1h96.67a7.11 7.11 0 013.06.68l.33-.68c-.18-2.59-.52-7.86-.82-12.66-.22-3.39-.42-6.53-.54-8.34a32.91 32.91 0 00-1-7c-.52-1.73-1.34-3.42-1.43-5.23-.14-2.95 1.67-5.59 2.77-8.33 3.61-9-.5-19.18 0-28.89q.09-1.03.21-2.01z" class="cls-10"/><path d="M902 907.06a5.34 5.34 0 00-.7.65l-32.99 35.79c-.22-3.39-.42-6.53-.54-8.34a32.3 32.3 0 00-1-7c-.51-1.73-1.33-3.42-1.42-5.23-.14-2.95 1.67-5.59 2.77-8.33 3.61-9-.5-19.18 0-28.89a6 6 0 005.68 2.52c.95-.12 2-.48 2.81 0a3.8 3.8 0 011.32 1.56c5.28 8.54 19.64 8.38 24.07 17.27z" class="cls-10"/><path fill="#adb6bc" d="M759.64 906.31a2.49 2.49 0 01-2.5-2.5c0-2.29.14-4.4.28-6.44a44.94 44.94 0 000-9.77 39.42 39.42 0 00-2.45-8.06 42 42 0 01-2.76-9.41c-.72-5.3.49-10.41 1.66-15.35a74.72 74.72 0 001.5-7.37c1-7.42-.17-13.53-1.41-20-1.41-7.35-2.86-14.94-.72-24.16 1.41-6.06 1.66-17.75.95-24.16a2.5 2.5 0 115-.55c.76 6.82.51 19.11-1 25.84-1.9 8.19-.61 14.94.76 22.09 1.26 6.58 2.56 13.39 1.46 21.62-.36 2.67-1 5.31-1.59 7.85-1.11 4.71-2.17 9.15-1.58 13.54a37.91 37.91 0 002.48 8.29 43.11 43.11 0 012.72 9.11 48 48 0 01.09 10.84c-.14 2-.27 4-.27 6.1a2.5 2.5 0 01-2.62 2.49z"/><path d="M758.85 795.2c0 2.92.24 10.43-.93 14.06a20.45 20.45 0 00-1.17 3.84c-.36 3.31 2.13 6.15 3.46 9.21 1.81 4.18 1.45 8.94 1 13.49q-1.41 16.37-2.85 32.73a15.66 15.66 0 00.09 4.93 18.45 18.45 0 001.75 4.06 44.07 44.07 0 013.59 29.18c-1.21 5.42-3.48 10.69-3.4 16.24a28.71 28.71 0 00.55 4.88c.65 3.38 1.63 6.72 1.76 10.15.13 3.18-.45 6.46.46 9.5 1 3.21 3.56 6.55 2 9.51M868.31 943.5l32.94-35.79a5.34 5.34 0 01.7-.65 7.27 7.27 0 019.61.22L931 925.15a7.3 7.3 0 011.66 8.47" class="cls-12"/><path d="M946.11 941.71a7.17 7.17 0 016.24 1.77l5.23 4.81a7.16 7.16 0 01.42 10.13l-65.6 71.29a7.2 7.2 0 01-10.15.42l-5.22-4.81a7.19 7.19 0 01-.43-10.15l65.6-71.27a7.27 7.27 0 013.91-2.19zM874 1020v5a7.18 7.18 0 01-7.19 7.17h-96.87a7.18 7.18 0 01-7.19-7.17v-7a7.21 7.21 0 017.19-7.18h96.88A7.21 7.21 0 01874 1018z" class="cls-13"/><path d="M902 907.06a7.27 7.27 0 019.61.22L931 925.15a7.3 7.3 0 011.66 8.47 30.81 30.81 0 00-31.42 8.69L873 973v-9.49a7.27 7.27 0 00-4.23-6.62l.33-.68c-.18-2.59-.52-7.86-.82-12.66l32.94-35.79a5.34 5.34 0 01.78-.7z" class="cls-14"/><path d="M873 973v16.9a7.3 7.3 0 01-5.1 6.95 30.83 30.83 0 00-27.67-17.24h-43.72a30.82 30.82 0 00-27.82 17.55 7.28 7.28 0 01-6.9-7.27v-26.43a7.26 7.26 0 013.55-6.26 7.14 7.14 0 013.74-1h96.67a7.11 7.11 0 013.06.68 7.27 7.27 0 014.23 6.62z" class="cls-14"/><path d="M944.8 940.5l1.31 1.21a7.27 7.27 0 00-3.91 2.19l-65.6 71.27a7.14 7.14 0 00-1.89 4.86H874V1018a7.14 7.14 0 00-2.93-5.77v-1.8a30.52 30.52 0 00-3.16-13.59 7.3 7.3 0 005.1-6.95V973l28.2-30.64a30.85 30.85 0 0143.57-1.81z" class="cls-9"/><path d="M871.08 1010.4v1.8a7.1 7.1 0 00-4.26-1.41h-96.88a7.07 7.07 0 00-4.26 1.41v-1.8a30.84 30.84 0 0130.83-30.83h43.74a30.84 30.84 0 0130.83 30.83zM814.22 451.87s-3 212.74-5.25 229.44c-1.87 13.4-7.86 34.43 9.53 39.37 5.72 1.64 46.75-13.5 45.43-26.27 0 0-27.2 2.93-28.16.62-1.53-3.74 4.15-8.08 1.79-14.23a10.94 10.94 0 00-.89-1.78c-5.11-8.28-9.38-16.87 26.25-25.95 93.5-23.81 133.89-44.62 150.91-42.54-10.89-108.95-99.05-134.08-199.61-158.66zM673 552.26V430.35a23.2 23.2 0 01.57-5.11 245.5 245.5 0 00-82.11-30.61c-55.19-9.92-106.15.92-122.42 30.84a101.44 101.44 0 00-4.86 10.22 19.52 19.52 0 013.89.51c16.41 3.79 112.22 25.36 130.77 29.27 18.36 3.87 6.83 6.82 11.71 12.68 3.78 4.53 4.19 6.86-.48 8 14.65 29.9 44.37 41.26 62.93 66.11z" class="cls-9"/><path d="M825.21 341.57v4.88a27.26 27.26 0 01-14.64 24.19c-.23.13-.47.25-.71.36l-.73.35-.74.32-.8.32-.72.25c-.57.21-1.16.39-1.75.55l-.6.16-.8.18-.76.16-1.14.19-.86.11-.46.05h-.07c-.38 0-.76.06-1.14.08s-.93 0-1.4 0H700.3c-.86 0-1.71 0-2.55-.11l-.52-.06c-.28 0-.56-.06-.85-.11l-.5-.08q-.58-.07-1.17-.21c-.29-.06-.56-.12-.83-.2a4.82 4.82 0 01-.75-.18c-.29-.07-.57-.16-.85-.25a1 1 0 01-.23-.06c-.36-.11-.71-.24-1.07-.36a3.24 3.24 0 01-.33-.13c-.31-.11-.61-.24-.91-.36s-.77-.33-1.15-.51a27.66 27.66 0 01-7.61-5.37 27.32 27.32 0 0119.32-46.64H755a13.65 13.65 0 0013.66-13.65v-11.67a28.3 28.3 0 0156.6 0v47.8z" class="cls-8"/><path d="M810.57 370.64v38c-.34-.15-.68-.27-1-.39a11 11 0 00-1.06-.34 8.06 8.06 0 00-1.07-.29c-.36-.1-.72-.18-1.09-.25a11.94 11.94 0 00-1.22-.2A20.83 20.83 0 00803 407h-1.2a23.42 23.42 0 00-23.42 23.42V444a29.28 29.28 0 01-58.55 0v-13.65a23.43 23.43 0 00-23.43-23.42h-1.14l-1 .07-.65.07-.55.07-.62.09-.22.05a5 5 0 00-.77.15l-.3.07a7 7 0 00-.73.17 19.08 19.08 0 00-1.86.57v-37.1c.38.18.76.35 1.15.51s.6.25.91.36a3.24 3.24 0 00.33.13l1.07.36a1 1 0 00.23.06c.28.09.56.18.85.25a4.82 4.82 0 00.75.18c.27.08.54.14.83.2s.78.16 1.17.21l.5.08c.29 0 .57.08.85.11s.35 0 .52.06c.84.08 1.69.11 2.55.11H799.26c.46 0 .76 0 1.14-.08h.07l.46-.05.86-.11 1.14-.19a6 6 0 00.76-.16l.8-.18c.2 0 .4-.1.6-.16.59-.16 1.18-.34 1.75-.55a6.13 6.13 0 00.72-.25l.8-.32.74-.32c.24-.11.49-.22.73-.35s.51-.27.74-.4z" class="cls-6"/><path d="M215.08 866l-10.54 6.94a40.57 40.57 0 00-17.81 27.66l-112.3 64.12a35.65 35.65 0 00-12.09 50.55 35.64 35.64 0 0051.21 8.86l103.27-77.82a40.57 40.57 0 0032.46-5.44l10.53-6.93z" class="cls-15"/><path fill="#d0d5d9" d="M686.85 603.08C602.62 475.17 430.65 439.75 302.74 524s-163.33 256.2-79.1 384.11 256.2 163.32 384.11 79.1S771.07 731 686.85 603.08zm-443.41 292c-77-117-44.64-274.24 72.34-351.27S590 499.14 667 616.12s44.64 274.24-72.33 351.26-274.2 44.62-351.23-72.33z"/><path d="M810.57 408.65l-1-.39c-.35-.13-.7-.23-1.06-.34s-.71-.21-1.07-.29-.72-.18-1.09-.25a11.94 11.94 0 00-1.22-.2A21.14 21.14 0 00803 407h-1.2a23.42 23.42 0 00-23.42 23.42V444a29.28 29.28 0 01-58.55 0v-13.65a23.43 23.43 0 00-23.43-23.42h-1.14l-1 .07-.65.07-.55.07-.62.09-.22.05c-.26 0-.52.09-.77.15l-.3.07-.73.17c-.63.17-1.26.36-1.86.58a23.44 23.44 0 00-15.56 22.1v306.81c0 1.3 0 2.58.1 3.86v.29c.06 1.08.13 2.16.23 3.23a76.32 76.32 0 001.2 7.92 75.73 75.73 0 0010.89 26.38 76.52 76.52 0 0018.1 19.24l.08.06q2.86 2.13 5.94 4l.16.1c1 .61 2 1.21 3.09 1.78h.09c1 .56 2.07 1.09 3.13 1.61l.13.06c1 .5 2.1 1 3.17 1.43l.39.17c2.12.88 4.28 1.68 6.48 2.37l.55.17c1.09.34 2.19.65 3.29.94h.23c1 .27 2.09.51 3.15.73l.59.12c1.1.22 2.2.42 3.31.59l.6.09c1 .15 2.05.28 3.08.39l.47.06c1.13.11 2.26.19 3.39.25h.76c1.16.05 2.33.09 3.5.09 1.19 0 2.36 0 3.53-.09h.67c1.15-.06 2.29-.15 3.42-.26h.46c1.16-.12 2.32-.27 3.47-.44h.06c1.2-.18 2.38-.4 3.56-.64l.33-.06c1.08-.23 2.16-.47 3.22-.73a76.26 76.26 0 007.39-2.29h.15q3.38-1.25 6.6-2.79l.24-.12c.89-.43 1.77-.87 2.64-1.33a76.1 76.1 0 0040.39-67.22V430.35a23.39 23.39 0 00-14.66-21.7z" class="cls-8"/><path d="M827.73 712.83c5.74 1.54 19.35-1.29 17.82-14l.05-.9c3.72.14 9.1-.29 17-1.38 23.75-3.29 94.32-5.72 121.11-7.92 10.63-.88 19.4-1 25.91-2.24-22.94 86.17-109.77 109.16-172.47 113-35.49 2.21-63.24-1.71-67.29-3.74-7.5-3.76-4.13-11.16-4.13-15.12s-3.17-7.83-3.37-11.85c-.25-5.08 1.84-5 1.46-10.87-.2-3.09-4.66-4.47-4.79-12.7-.09-6 3.65-5.86 3.89-11.13.28-6.12-3.07-5.83-2.7-12.76.46-8.59 6.28-12.49 14.86-11.47 13.62 1.63 9.94-2.07 17.86-6.89 11.31-6.86 17.32 5.3 34.79 9.97z" class="cls-6"/><path d="M1024.82 624.32c2.5 16.71-6.83 16.55-3.51 45.29 1.64 14.26-3.16 18.82-13.11 20.6-6.54 1.16-15.31 1.12-26 1.82-26.82 1.77-97.42 3.05-121.23 6-7.94 1-13.33 1.3-17 1.1-5.41-.3-7.25-1.75-8.21-4.06-1.53-3.74 4.15-8.08 1.79-14.23a10.94 10.94 0 00-.89-1.78c-5.11-8.28-9.38-16.87 26.25-25.95 93.5-23.81 133.89-44.62 150.91-42.54 6.59.75 9.68 4.97 11 13.75z" class="cls-8"/><path d="M673 643.46c-4.37 1.83-8.1.66-8.78-2.4-6.83 8.78-16.59 9.76-20.49 2-4.16 2.24-7.59 2.7-10.2 2.09a7.76 7.76 0 01-5.42-10.87c-6.83-1-8-7.4-4.88-14.63 12.49-29.15-7.71-37.23-38.77-46.21s-73.09-18.91-104-51.77a127.6 127.6 0 01-9.3-11.07 41.85 41.85 0 0010.59-1.19c21.47-4.87 110.27-21.46 123-22.43a34.34 34.34 0 005.38-.75c14.68 29.87 44.4 41.23 62.93 66.08 8 10.66 13.86 23.81 15.62 42 2.99 31.76-7.5 45.69-15.68 49.15z" class="cls-6"/><path d="M536.26 498.58c-2.07 7.58 1.41 15.94 3.18 19.46l-19.05-2.33c-1.14-2.47-3.89-9.2-2.48-13.64l-2.11.41c-.89 4.42 1.05 10 2.33 13L506.64 514c-1.48-1.7-4.29-5.65-4.37-8.93l-1.93.39c.2 3.08 2.12 6.25 3.55 8.21l-11.09-1.36c-.83-.83-2.6-2.84-2.62-4.8l-1.95.41a8.42 8.42 0 001.69 4l-13.72-1.68a32.52 32.52 0 01-5.09.24c.58.77 1.16 1.52 1.75 2.27l15.29 6.74a39.54 39.54 0 00-5.95 3.9l1.38 1.4a30.62 30.62 0 017-4.23l9.48 4.18c-4 1.82-7.82 4-9.16 6.76l1.56 1.32c.93-3 7.2-5.82 10-7l10.32 4.55c-4.9 2.71-7.2 7-8.76 11 .55.37 1.1.74 1.66 1.09v-.07c1.65-4.33 3.94-8.64 9.39-11l19.24 8.48c-5.68 4.23-7.18 6.68-9.79 13l1.76.83c2.72-6.6 4-8.63 10.54-13.28 0 0 0-.06.08-.08l.09-.06.05-.09.07-.11a.83.83 0 00.08-.22v-.1a1.22 1.22 0 000-.33 1 1 0 00-.12-.28c-2.77-4.62-.71-12.93 4.78-19.35a1 1 0 00.21-.65v-.09a.93.93 0 00-.14-.36c-.28-.48-6.69-11.59-3.6-20.55zm-46.59 19.52l-13.1-5.77 14.1 1.72a9.37 9.37 0 00-1 4.05zm12.36.13a14.41 14.41 0 00-.83 4.95l-9.61-4.24c0-1.58.32-4.08 1.4-4.57h.05l10.48 1.28a8.47 8.47 0 00-1.52 2.58zM514.29 529l-11-4.87a11.13 11.13 0 01.8-5.64 4.4 4.4 0 012.22-2.49l12.17 1.49a23.76 23.76 0 00-4.19 11.51zm20.18 8.89l-18.3-8.06c.8-8.19 4.46-11.93 4.49-12l.08-.1 18.59 2.27c-4.4 5.81-6.26 12.82-4.86 17.84zM664.19 641.06a3.82 3.82 0 001 1.86 1.06 1.06 0 00.33-.27c6.28-8.38 13.86-29 9-51.54a1 1 0 00-1.19-.77 1 1 0 00-.77 1.19c4.66 21.41-2.56 41.56-8.35 49.57zM660.55 596.1a1 1 0 00-1.1-.88 1 1 0 00-.88 1.11c2.36 21.28-5.85 41.31-15 46.76l.17-.08a11.14 11.14 0 001 1.68c11.9-7.27 17.78-30.87 15.81-48.59zM646.2 600.1a1 1 0 00-1-1 1 1 0 00-1 1c.12 12.46-4.5 26.12-10.76 31.77a7.61 7.61 0 01-5.37 2.36 7.51 7.51 0 00-.62 2h.08a7 7 0 00.79 0 9.7 9.7 0 006.46-2.9c6.64-5.95 11.55-20.25 11.42-33.23zM635.05 544.58a1 1 0 00-1.09-.5 56.75 56.75 0 01-10.55 1.56c5.79-4 9-11.83 9.14-12.21a1 1 0 00-.38-1.18 1 1 0 00-1.23.15 18.67 18.67 0 01-6.88 5c1.63-3.92 2-7.36.92-10-2.92-7.49-9.87-9.92-15.42-9.7-5.86.24-10.89 3.29-13.15 7.79-3.94-6.06-10.23-9.92-16.49-10h-.17a13.7 13.7 0 00-12.24 7.35 14.75 14.75 0 00-1.53 9.57c-9.44 6-13.7 17.42-13.76 17.59a1 1 0 001.74.86 21.78 21.78 0 0110.89-8.35c-4.24 5.9-1.74 15-1.61 15.45a1 1 0 00.94.71 1 1 0 00.92-.78 13.13 13.13 0 018.66-10.25 58.21 58.21 0 0021.48 14.87 3 3 0 001.16.23 3.9 3.9 0 001-.15c3.81-1 8.51-3.77 13.26-7.92.8.12 1.58.23 2.32.3 10.22 1 21.3-8.83 21.77-9.24a1 1 0 00.3-1.15zm-65.85-20.76a11.84 11.84 0 0110.7-6.37c6.14.07 12.35 4.27 15.83 10.71a1 1 0 001.79-.19c1.64-5.47 7.27-8.12 12.12-8.32s11 1.92 13.52 8.46c1 2.51.43 6-1.56 10-2.87.54-6.28.39-11-.13-5.62-.62-11.1-2.75-16.4-4.82-4.77-1.86-9.28-3.61-13.52-4.11a22 22 0 00-12.89 2.3 12.54 12.54 0 011.41-7.53zm27.8 36.91a1.39 1.39 0 01-1 0 56.91 56.91 0 01-20.13-13.68 17.89 17.89 0 016-.35c2.36.3 6.38 1.6 11 3.11a155.23 155.23 0 0015.34 4.42c-4 3.36-8.04 5.71-11.21 6.5zm16.24-7.68c-5.67-.53-13.13-2.95-19.71-5.08-4.75-1.54-8.84-2.87-11.39-3.19-4.83-.61-13.91.68-17.67 8.87-.35-3.78 0-9.41 4.33-12.21a1 1 0 00-.53-1.79h-.12a24.3 24.3 0 00-11 4.89c3.86-6.28 11.43-14.94 23.33-13.53 4 .47 8.39 2.18 13 4 5.42 2.11 11 4.29 16.89 4.94 5.11.57 8.85.71 12 0h.1a15.43 15.43 0 005.73-2.56c-1.8 2.88-4.54 6.29-8 7.79a1 1 0 00-.55.61 1.18 1.18 0 00.27 1.15c1.09 1.16 6.23.58 10.35-.14-3.88 2.79-10.78 6.83-17.02 6.25zM602.25 505.58l5-4.13A1 1 0 10606 500l-4.62 3.85-1.61-7.22a1 1 0 10-1.9.43l1.65 7.43-6.43-.81a1 1 0 00-.24 1.94l6.24.78-3 4.54a1 1 0 001.62 1.08l3.3-5 5 4.18a1 1 0 001.38-.12 1 1 0 00-.13-1.38zM562.45 515.94l-6.29-.24 2.62-4.78a1 1 0 10-1.71-.94l-2.86 5.22-5.36-3.73a1 1 0 00-1.12 1.6l5.3 3.68-4.57 4.55a1 1 0 101.37 1.38l4.27-4.24 2.23 7a1 1 0 00.93.68 1 1 0 00.3 0 1 1 0 00.63-1.23l-2.29-7.25 6.48.24a1 1 0 000-1.95zM629.2 570.32l-7.35-2 3.71-5.32a1 1 0 10-1.6-1.12l-3.6 5.16-2.61-4.79a1 1 0 10-1.71.93l2.84 5.23-6 2.49a1 1 0 10.75 1.8l6-2.46 1.35 6.31a1 1 0 001 .77h.21a1 1 0 00.75-1.16l-1.26-5.89 7.14 2a1.07 1.07 0 00.25 0 1 1 0 00.26-1.92z" class="cls-8"/><path d="M464.15 435.69a19.52 19.52 0 013.89.51c16.41 3.79 112.22 25.36 130.77 29.27 18.36 3.87 6.83 6.82 11.71 12.68 3.78 4.53 4.19 6.86-.48 8a34.34 34.34 0 01-5.38.75c-12.69 1-101.49 17.56-123 22.43a41.85 41.85 0 01-10.59 1.19C457 510.13 454 499.7 453.4 491.8c-6.72-6.15-7.34-15.19-6.09-22.72a39.12 39.12 0 014.13-12.39c-3.88-10.84.85-19.22 9.32-20.75a15.51 15.51 0 013.39-.25zM915.94 696.94c-33 6.41-37.13 15.36-45.44 33.19-.67 1.43-1.36 2.92-2.1 4.47-3.18 6.69-14.46 12.53-22.08 9.57-3.77-1.47-5-4.88-3.43-9.84 1.31-4.26 4.27-5 8.35-6.12 6.88-1.81 16.3-4.29 21.92-26.12a1 1 0 00-.6-1.15 1 1 0 00-1.21.46 28 28 0 01-25.54 15.4c-4.5-.2-8.22-1.64-10.6-4h-.3c-.68.14-1.35.25-2 .32 2.64 3.33 7.19 5.41 12.82 5.65a29.67 29.67 0 0023.63-10.82c-5.3 14.89-12.61 16.81-18.61 18.39-4.16 1.1-8.09 2.13-9.72 7.43-1.83 5.93-.16 10.39 4.58 12.23 8.72 3.4 21-3.07 24.55-10.54.75-1.56 1.44-3.05 2.11-4.49 6.45-13.85 10.32-22.16 28.23-28.11-11.87 6.91-15.62 16.92-19.28 26.68-4.22 11.24-8.19 21.86-24 28-11.11 4.32-13.36 10.13-13.71 13.22a9.89 9.89 0 004.58 9.31c4.52 3.07 10.88 3.08 16.61 0 6-3.2 8.26-8.7 10.43-14 3-7.22 6-14.65 18.59-17.47-8.58 5.6-10.46 12.68-12.29 19.55s-3.53 13.24-11.82 18a40.16 40.16 0 01-7 3c-5 1.74-9.68 3.42-10.1 9l2-.22c.47-3.76 3.64-5.09 8.77-6.89a41.59 41.59 0 007.32-3.12c9-5.2 10.9-12.33 12.73-19.23 2.12-8 4.12-15.46 16.2-21a1 1 0 00-.5-1.86c-18.45 1.85-22.29 11.25-25.68 19.54-2.14 5.23-4.16 10.17-9.55 13-6.08 3.24-11.53 2.17-14.6.08a8 8 0 01-3.73-7.47c.51-4.5 5.06-8.74 12.48-11.62 16.62-6.46 20.94-18 25.12-29.13 5-13.22 9.63-25.7 33.3-31.36a1 1 0 00-.41-1.91z" class="cls-8"/><path d="M972.36 698.54c-16.55-4.62-34.66-2.16-47.26 6.4-27.76 18.87-18.51 36-13.55 45.27 1.05 2 2.36 4.39 2 5-.07.13-.49.33-1.58.33-4.29 0-9.09 2.78-11.67 6.75a11.45 11.45 0 00-.94 11.21c1.44 3.23 3.6 5.27 6.43 6a11.52 11.52 0 006-.1 7.72 7.72 0 00-1.56 4.15 6.07 6.07 0 00.59 2.87l1.88-.64a4 4 0 01-.52-2.15c.09-2.15 1.9-4.52 5.22-6.85a1 1 0 00-1.11-1.6c-2.47 1.72-6.56 3.39-10 2.44-2.24-.62-4-2.29-5.16-5a9.46 9.46 0 01.79-9.36c2.24-3.45 6.36-5.86 10-5.86 1.07 0 2.57-.13 3.25-1.27.91-1.53-.23-3.66-2-6.89-4.67-8.69-13.37-24.86 12.93-42.73 12.14-8.26 29.63-10.61 45.64-6.14 12.78 3.56 22.71 10.88 27.48 20.18.39-.66.77-1.32 1.15-2-5.12-9.2-15.2-16.44-28.01-20.01z" class="cls-8"/><path d="M931 749.88a4.76 4.76 0 01-1.62-.28c-1.76-.63-3.21-2.35-4.57-5.41-3.34-7.48-5.32-18.53.09-25 4.3-5.16 12.2-6.38 23.47-3.64 11.49 2.8 16.15 12.51 14.7 20.21-1.18 6.31-5.94 9.85-12.13 9s-10.52 1.37-14.06 3.11c-2.19 1.06-4.11 2.01-5.88 2.01zm6.87-33.83c-5.21 0-9.05 1.46-11.47 4.37-4.84 5.8-2.92 16 .19 23 1.12 2.5 2.24 3.93 3.45 4.37 1.53.55 3.5-.42 6-1.65 3.58-1.76 8.48-4.18 15.18-3.29 6.16.82 9.18-3.31 10-7.45 1.28-6.82-2.93-15.44-13.25-18a43 43 0 00-10.15-1.35zM943.82 759.18c-7.1.51-11.39 2.26-12.76 5.2s.36 6.87 5.39 11.64l1.86-.92c-4.62-4.26-6.52-7.66-5.48-9.9 2.08-4.45 15.1-5.05 27.75-3.37l2.27-1.64a90.06 90.06 0 00-19.03-1.01z" class="cls-8"/><circle cx="453.06" cy="242.13" r="8.82" class="cls-15"/><circle cx="473.06" cy="242.13" r="4.66" class="cls-15"/><path d="M384.35 324.66l-3.64-3.66 3.64-3.64a1.41 1.41 0 00-2-2l-3.64 3.64-3.63-3.64a1.42 1.42 0 00-2 0 1.4 1.4 0 000 2l3.63 3.64-3.63 3.63a1.41 1.41 0 002 2l3.63-3.63 3.64 3.63a1.4 1.4 0 002 0 1.42 1.42 0 000-1.97zM494.35 324.66l-3.64-3.66 3.64-3.64a1.41 1.41 0 00-2-2l-3.64 3.64-3.63-3.64a1.42 1.42 0 00-2 0 1.4 1.4 0 000 2l3.63 3.64-3.63 3.63a1.41 1.41 0 002 2l3.63-3.63 3.64 3.63a1.4 1.4 0 002 0 1.42 1.42 0 000-1.97z" class="cls-2"/><rect width="133.54" height="13.62" x="376.26" y="379.05" class="cls-2" rx="6.81"/><path d="M100.11 375.73l-4.68-4.67 4.68-4.67a1.84 1.84 0 000-2.57 1.82 1.82 0 00-2.57 0l-4.67 4.67-4.68-4.67a1.81 1.81 0 00-2.56 2.57l4.67 4.67-4.67 4.67a1.81 1.81 0 002.56 2.57l4.68-4.67 4.67 4.67a1.82 1.82 0 002.57 0 1.84 1.84 0 000-2.57zM119.09 363.28h-8a3.8 3.8 0 00-3.79 3.8V375a3.8 3.8 0 003.79 3.8h8a3.8 3.8 0 003.8-3.8v-7.95a3.8 3.8 0 00-3.8-3.77zm.61 10.12a2.24 2.24 0 01-2.24 2.24h-4.68a2.24 2.24 0 01-2.24-2.24v-4.69a2.24 2.24 0 012.24-2.24h4.68a2.24 2.24 0 012.24 2.24zM146.47 375.11l-6.17-10.69a2.48 2.48 0 00-4.29 0l-6.17 10.69a2.48 2.48 0 002.14 3.72h12.34a2.48 2.48 0 002.15-3.72zm-5.41.53h-5.82a1.17 1.17 0 01-1-1.76l2.91-5a1.17 1.17 0 012 0l2.91 5a1.18 1.18 0 01-1 1.76zM160.12 363.23a7.78 7.78 0 107.77 7.78 7.77 7.77 0 00-7.77-7.78zm0 12.31a4.54 4.54 0 114.53-4.53 4.53 4.53 0 01-4.53 4.53z" class="cls-1"/><path d="M304.88 373.92a36.31 36.31 0 1036.3 36.31 36.31 36.31 0 00-36.3-36.31zm21 38a21 21 0 01-21.72 21c-11.41-.38-20.29-10.12-20.29-21.54v-16.09a1.8 1.8 0 013.07-1.27l10.2 10.21a4.82 4.82 0 003.42 1.42h8.63a4.84 4.84 0 003.43-1.42l10.2-10.23a1.79 1.79 0 013.06 1.27zM806.4 101.42H434.24c11.75-36.67 44.08-63 82.12-63a81.47 81.47 0 0136.86 8.82C558.69 20.37 585 0 616.69 0c35.64 0 64.54 25.79 64.54 57.61 0 1.23-.06 2.45-.14 3.67a85.3 85.3 0 0149.06-15c38.36 0 70.2 23.86 76.25 55.14z" class="cls-2"/><path d="M224.54 178.52h233.29c-7.37-19.56-27.63-33.61-51.48-33.61a58.5 58.5 0 00-23.11 4.7c-3.43-14.32-19.94-25.19-39.79-25.19-22.33 0-40.45 13.76-40.45 30.73 0 .66 0 1.31.09 2a60.31 60.31 0 00-30.76-8c-24.04-.04-44 12.68-47.79 29.37z" class="cls-1"/></g></g></svg>