<svg xmlns="http://www.w3.org/2000/svg" viewBox="0 0 1279.97 908.8"><defs><clipPath id="id1"><path d="M1078.37 545.94c5.68 1.73 19.54.35 18.45-12.44l.08-.9c3.71.27 9.11 0 17.07-.79 23.86-2.47 94.47-2.47 121.32-3.74 10.64-.51 19.41-.3 26-1.34-25.9 85.33-113.91 106.11-176.73 106-20.72 0-74.14-6.62-83.91-8.23-19.25-3.18-36.21-4.17-37-10.15-2.71-19.68 48.65-1.28 49.48-6 .48-2.76-3.44-4.37-3.09-11.23.26-5.07 3.72-5.53 3.9-10.07.11-3.09-4.48-6-4.2-11.51.36-7.11 3.92-6.23 4.32-9.89 1.15-10.52-62-22.3-59-35.75 5.62-24.53 69 21.35 82.76 6 13.37-14.96 23.25 4.77 40.55 10.04z" class="cls-1"/></clipPath><style>.cls-1{fill:#e8e9ea}.cls-2{fill:#e6eaed}.cls-3{fill:#f5f7f8}.cls-4{fill:#d0d5da}.cls-13,.cls-18,.cls-20{fill:none;stroke-linecap:round;stroke-linejoin:round}.cls-6{fill:#e2e6e9}.cls-8{fill:#c5cdd0}.cls-9{fill:#d0d5d9}.cls-11{fill:#d1d7d7}.cls-13{stroke:#adb6bc;stroke-width:5px}.cls-14{fill:#97a4ac}.cls-15{fill:#e7e8ea}.cls-16{fill:#dfe3e6}.cls-17{fill:#d7dbdb}.cls-18,.cls-20{stroke:#dee2e5}.cls-18{stroke-width:6px}.cls-19{fill:#dee2e5}.cls-20{stroke-width:2px}</style></defs><g><g><rect width="201.05" height="154.62" x="9.47" y="622.02" class="cls-2" rx="10.37"/><rect width="220" height="22" y="615.86" class="cls-2" rx="10.1"/><rect width="62.66" height="62.66" x="78.67" y="668.71" class="cls-3" rx="7.19"/><path d="M100.5 676.16a3.08 3.08 0 013.08 3.08v11.3a3.08 3.08 0 01-3.08 3.08H89.2a3.08 3.08 0 01-3.08-3.08v-11.3a3.08 3.08 0 013.08-3.08h11.3m0-3.09H89.2a6.16 6.16 0 00-6.2 6.17v11.3a6.16 6.16 0 006.16 6.16h11.3a6.16 6.16 0 006.16-6.16v-11.3a6.16 6.16 0 00-6.16-6.17zM130.8 676.16a3.08 3.08 0 013.08 3.08v11.3a3.08 3.08 0 01-3.08 3.08h-11.3a3.08 3.08 0 01-3.08-3.08v-11.3a3.08 3.08 0 013.08-3.08h11.3m0-3.09h-11.3a6.16 6.16 0 00-6.16 6.17v11.3a6.16 6.16 0 006.16 6.16h11.3a6.16 6.16 0 006.16-6.16v-11.3a6.16 6.16 0 00-6.16-6.17zM100.5 706.46a3.08 3.08 0 013.08 3.08v11.3a3.08 3.08 0 01-3.08 3.08H89.2a3.08 3.08 0 01-3.08-3.08v-11.3a3.08 3.08 0 013.08-3.08h11.3m0-3.08H89.2a6.16 6.16 0 00-6.2 6.16v11.3a6.16 6.16 0 006.2 6.16h11.3a6.16 6.16 0 006.16-6.16v-11.3a6.16 6.16 0 00-6.16-6.16z" class="cls-4"/><rect width="10.27" height="10.27" x="89.71" y="679.75" class="cls-4" rx="2.05"/><rect width="10.27" height="10.27" x="89.71" y="710.05" class="cls-4" rx="2.05"/><rect width="6.16" height="6.16" x="113.34" y="703.38" class="cls-4" rx="2.05"/><rect width="6.16" height="6.16" x="130.8" y="703.38" class="cls-4" rx="2.05"/><rect width="6.16" height="6.16" x="122.07" y="712.11" class="cls-4" rx="2.05"/><rect width="6.16" height="6.16" x="130.8" y="720.84" class="cls-4" rx="2.05"/><rect width="6.16" height="6.16" x="113.34" y="720.84" class="cls-4" rx="2.05"/><rect width="10.27" height="10.27" x="120.02" y="679.75" class="cls-4" rx="2.05"/><path d="M673.42 19.72h8V337.8h-8zM824.64 167.14h8v149.51h-8zM1106.47 203.43h8v238.46h-8zM520.19 62.17h8v318.08h-8z" class="cls-2"/><path d="M401.5 492.62C397.86 284.54 437.79 128.41 514 53 550.12 17.17 594-.31 644.23 1.06c94.26 2.57 148.41 90.18 196.19 167.48 38 61.54 74 119.66 122.55 123.29 38.51 2.87 84.51-27.94 140.63-94.22l13.74 11.64c-31.18 36.82-59.08 62.78-85.3 79.36-25.14 15.9-48.17 22.82-70.41 21.17-57.74-4.31-96-66.23-136.53-131.78-23.66-38.28-48.1-77.86-77.5-108-32.38-33.25-66.35-49.9-103.86-50.92-45.17-1.23-84.58 14.49-117.13 46.72-37 36.61-65 93.76-83.37 169.86-17.47 72.43-25.46 158.78-23.74 256.66z" class="cls-2"/><circle cx="1110.47" cy="203.43" r="15.55" class="cls-2"/><circle cx="828.64" cy="167.14" r="15.55" class="cls-2"/><circle cx="524.19" cy="56.57" r="15.55" class="cls-2"/><circle cx="677.42" cy="15.55" r="15.55" class="cls-2"/><path d="M1110.47 212.43a9 9 0 01-6.89-14.78l39.23-46.77a9 9 0 0113.79 11.57l-39.23 46.77a9 9 0 01-6.9 3.21z" class="cls-2"/><path fill="none" stroke="#e2e6e9" stroke-linecap="round" stroke-linejoin="round" stroke-width="10" d="M297.81 855.71V224.13a5 5 0 015-5h600a5 5 0 015 5v617.52z"/><rect width="201.05" height="154.62" x="1064.79" y="624.65" class="cls-6" rx="10.37"/><rect width="220" height="22" x="1055.31" y="618.49" class="cls-6" rx="10.1"/><rect width="311.91" height="311.8" x="120.44" y="497.65" fill="#dadfe1" rx="17.72"/><path d="M1085 636.75h-.45c-21.2 0-74.55-6.64-84.55-8.29-3.83-.63-7.55-1.17-11.15-1.69-16.94-2.47-28.13-4.1-29.2-11.85-.68-4.94 1.24-8 3-9.66 7-6.73 23.78-3.86 37.3-1.55 2.46.42 5.26.9 7.5 1.2A16.68 16.68 0 011006 597a12.93 12.93 0 012.77-7.42 4.36 4.36 0 001.13-2.5 14 14 0 00-1.07-1.91c-1.42-2.26-3.35-5.36-3.13-9.76.27-5.23 2-7.49 3.76-9.35a6.93 6.93 0 00.56-.64 1.11 1.11 0 000-.13 4 4 0 018 .88 8.73 8.73 0 01-2.7 5.37c-.88.93-1.46 1.55-1.6 4.28-.1 1.89.84 3.38 1.92 5.11s2.38 3.81 2.28 6.35a11.93 11.93 0 01-2.57 6.89 5.33 5.33 0 00-1.33 3.23 9.14 9.14 0 001.53 5.78 8.42 8.42 0 011.5 6c-.82 4.67-6.56 4.16-8.44 4-2.63-.23-6-.82-10-1.49-9.21-1.57-26.35-4.5-30.39-.59-.26.25-.85.82-.64 2.64 1.79 2.2 13.72 3.93 22.45 5.2 3.63.53 7.39 1.08 11.3 1.72 9.54 1.57 62.86 8.15 83.26 8.18 26.12 0 64.81-3.5 100.48-20.59 34.84-16.68 58.54-42.51 70.54-76.82-3.07.2-6.42.29-10 .38-3.19.09-6.48.18-10 .35a4 4 0 11-.38-8c3.62-.17 7-.26 10.18-.34a128.2 128.2 0 0015.35-1 4 4 0 014.46 5.11c-12 39.43-37.75 68.87-76.63 87.49-36.95 17.58-76.65 21.33-103.59 21.33z" class="cls-8"/><path d="M203.66 553.68a3 3 0 01-3-3 7 7 0 00-14 0 3 3 0 01-6 0 13 13 0 0126 0 3 3 0 01-3 3z" class="cls-9"/><path d="M183.66 553.68a3 3 0 01-3-3 7 7 0 00-14 0 3 3 0 01-6 0 13 13 0 0126 0 3 3 0 01-3 3z" class="cls-9"/><path d="M163.66 553.68a3 3 0 01-3-3 7 7 0 00-14 0 3 3 0 01-6 0 13 13 0 0126 0 3 3 0 01-3 3z" class="cls-9"/><path d="M203.66 553.68a3 3 0 01-3-3 27 27 0 00-54 0 3 3 0 01-6 0 33 33 0 0166 0 3 3 0 01-3 3zM168.66 594.93a8 8 0 01-8-8 3 3 0 016 0 2 2 0 004 0v-28.25a3 3 0 016 0v28.25a8 8 0 01-8 8z" class="cls-9"/><rect width="140.53" height="130.72" x="224.02" y="366.93" class="cls-6" rx="10.63"/><path fill="#c6cdd0" d="M351 654.85v95.67l4.42-6.51 4.63 5.98 5.01-6.81 4.71 4.46 3.49-4.99 4.56 7.41 4.33-6.95 4.29 6.35v-94.61H351z"/><path d="M276.56 366.93v44l4.42-6.5 4.63 5.97 5.01-6.8 4.71 4.46 3.5-4.99 4.55 7.41 4.33-6.96 4.29 6.35v-42.94h-35.44z" class="cls-11"/><rect width="62.66" height="62.66" x="1133.98" y="671.34" class="cls-3" rx="7.19"/><path d="M1155.81 678.79a3.08 3.08 0 013.08 3.08v11.3a3.08 3.08 0 01-3.08 3.08h-11.3a3.08 3.08 0 01-3.08-3.08v-11.3a3.08 3.08 0 013.08-3.08h11.3m0-3.09h-11.3a6.16 6.16 0 00-6.16 6.17v11.3a6.16 6.16 0 006.16 6.16h11.3a6.16 6.16 0 006.16-6.16v-11.3a6.16 6.16 0 00-6.16-6.17zM1186.11 678.79a3.09 3.09 0 013.09 3.08v11.3a3.09 3.09 0 01-3.09 3.08h-11.3a3.08 3.08 0 01-3.08-3.08v-11.3a3.08 3.08 0 013.08-3.08h11.3m0-3.09h-11.3a6.16 6.16 0 00-6.16 6.17v11.3a6.16 6.16 0 006.16 6.16h11.3a6.16 6.16 0 006.17-6.16v-11.3a6.17 6.17 0 00-6.17-6.17zM1155.81 709.09a3.08 3.08 0 013.08 3.08v11.3a3.08 3.08 0 01-3.08 3.08h-11.3a3.08 3.08 0 01-3.08-3.08v-11.3a3.08 3.08 0 013.08-3.08h11.3m0-3.08h-11.3a6.16 6.16 0 00-6.16 6.16v11.3a6.16 6.16 0 006.16 6.16h11.3a6.16 6.16 0 006.16-6.16v-11.3a6.16 6.16 0 00-6.16-6.16z" class="cls-4"/><rect width="10.27" height="10.27" x="1145.02" y="682.38" class="cls-4" rx="2.05"/><rect width="10.27" height="10.27" x="1145.02" y="712.68" class="cls-4" rx="2.05"/><rect width="6.16" height="6.16" x="1168.65" y="706.01" class="cls-4" rx="2.05"/><rect width="6.16" height="6.16" x="1186.11" y="706.01" class="cls-4" rx="2.05"/><rect width="6.16" height="6.16" x="1177.38" y="714.74" class="cls-4" rx="2.05"/><rect width="6.16" height="6.16" x="1186.11" y="723.47" class="cls-4" rx="2.05"/><rect width="6.16" height="6.16" x="1168.65" y="723.47" class="cls-4" rx="2.05"/><rect width="10.27" height="10.27" x="1175.33" y="682.38" class="cls-4" rx="2.05"/><path fill="#b4bdc2" d="M1137 827.68l-2.34-13.59c-.65-3.74-1.29-7.57-.63-11.31.49-2.8 1.71-5.45 2.09-8.28.92-6.76-3-13.17-4.11-19.89-1.56-9.25 2.12-18.92-.08-28-1.5-6.21-5.63-11.64-6.49-18-1-7.29 2.26-15.74-2.32-21.5-1.92-2.43-2.73-8.12-3.5-11.12a70 70 0 01-1.34-12.4 105.22 105.22 0 00-.34-10.8c-.27-3.25-214.5-37.83-226.08-27.42-2.18 2-8.67 30.85-8.94 34.1a105.22 105.22 0 00-.34 10.8 71 71 0 01-1.34 12.4c-.77 3-1.58 8.69-3.5 11.12-4.58 5.76-1.33 14.21-2.32 21.5-.86 6.33-5 11.76-6.49 18-2.2 9.13 1.48 18.79-.09 28-1.14 6.72-5 13.14-4.1 19.89.38 2.83 1.6 5.48 2.09 8.28.66 3.74 0 7.57-.63 11.32l-2.34 13.58c-.94 5.45-1.85 11.19 0 16.38 2.38 6.46 8.71 10.71 15.22 13s13.46 2.94 20.08 4.83c5.85 1.67 11.48 4.28 17.52 5 7 .78 14-1.1 20.81-3l25.17-6.91a6 6 0 002.85-1.36 6.16 6.16 0 001.29-2.91q2.14-8.85 4.3-17.69c2.93-12.07 5.89-24.35 5.28-36.76-.28-5.69-1.31-11.48 0-17 1.41-5.91 5.38-11 6.71-16.91 1.64-7.28-.88-14.79-1.22-22.25v-2.92c.78-2.62 1.9-5.21 2.89-8.82s4.22-10.16 7.72-11.18c2.16-.64 5.8-1.31 8-.94 5.65.95 12.48 3 15.21 8 3.1 5.74 2.43 15.17 2 18.91-.08.53-.15 1.06-.21 1.58a31.24 31.24 0 00.15 10.87c1.33 5.93 5.3 11 6.71 16.91 1.32 5.55.3 11.34 0 17-.61 12.41 2.35 24.69 5.28 36.76q2.15 8.84 4.3 17.69a4.57 4.57 0 004.14 4.27l25.17 6.91c6.8 1.87 13.8 3.75 20.81 3 6-.68 11.67-3.29 17.52-5 6.62-1.89 13.57-2.58 20.08-4.83s12.84-6.5 15.22-13c1.98-5.12 1.07-10.86.14-16.31z"/><path d="M1013.81 647.64v55.29h-18.39V666a18.39 18.39 0 0118.39-18.36z" class="cls-13" transform="rotate(180 1004.62 675.28)"/><path d="M995.42 695.36v16.72" class="cls-13"/><path d="M1049.33 299.26l-97 188.09c-14.72-5.35-17.33 14.84-24.25 31.93-5.56 13.74-13.94 25.46-33.69 20.3-6.49-1.69-19.12-11.07-10.8-22.39 0 0-99.23-173.1-117-180.77 70.64-96.9 170.77-70.8 282.74-37.16zM1072.22 286.12L1059.1 479c-29.81 92.49 23.21 98 59 89.61 93.9-22.1 133.82-122.61 150.8-120.21-8.9-109.13-96.59-135.87-196.68-162.28z" class="cls-14"/><path d="M1074.94 168.18v4.88a27.29 27.29 0 01-14.63 24.19l-.72.36c-.24.12-.48.24-.73.34a6.88 6.88 0 01-.74.32c-.26.12-.54.22-.8.33l-.71.25c-.58.2-1.16.39-1.76.55l-.59.15-.81.19c-.25.06-.5.1-.76.15s-.76.14-1.14.2l-.86.11a3.57 3.57 0 01-.46 0h-.06c-.38 0-.76.06-1.15.08s-.93 0-1.4 0H950q-1.29 0-2.55-.12a4.4 4.4 0 01-.51-.05c-.29 0-.57-.06-.85-.11l-.51-.08-1.17-.21c-.28-.06-.56-.12-.83-.2s-.5-.11-.74-.18-.58-.16-.86-.25l-.23-.07c-.36-.1-.71-.23-1.07-.36l-.33-.12c-.3-.11-.61-.24-.91-.37s-.77-.33-1.15-.5a27.48 27.48 0 01-7.61-5.38A27.32 27.32 0 01950 145.74h54.65a13.66 13.66 0 0013.66-13.66v-11.7a28.3 28.3 0 0156.6 0v47.8z" class="cls-8"/><path d="M1060.31 197.25v38c-.35-.15-.69-.28-1-.39a9.19 9.19 0 00-1-.34 10.17 10.17 0 00-1.08-.3c-.36-.09-.72-.17-1.09-.24a11.94 11.94 0 00-1.22-.21c-.69-.1-1.39-.17-2.12-.21h-1.2a23.42 23.42 0 00-23.5 23.44v13.66a29.28 29.28 0 01-58.55 0V257a23.42 23.42 0 00-23.42-23.41h-1.15l-1 .07-.65.07c-.18 0-.37 0-.55.06l-.62.1h-.22a5.23 5.23 0 00-.77.15l-.29.07a4 4 0 00-.74.17 19.08 19.08 0 00-1.86.57v-37.1c.38.17.76.35 1.15.5s.61.26.91.37l.33.12c.35.13.71.25 1.07.36l.23.07c.28.09.56.18.86.25s.49.13.74.18.55.14.83.2l1.17.21.51.08c.28 0 .56.08.85.11a4.2 4.2 0 00.51.05q1.26.12 2.55.12H1048.98c.4 0 .77 0 1.15-.08h.06a3.28 3.28 0 00.46 0l.86-.11c.38-.06.76-.12 1.14-.2a6 6 0 00.76-.15l.81-.19.59-.15c.6-.16 1.18-.35 1.76-.55.24-.07.48-.16.71-.25s.54-.21.8-.33a29.06 29.06 0 001.47-.66z" class="cls-15"/><path d="M859.27 896.58v5a7.18 7.18 0 007.18 7.17h96.89a7.17 7.17 0 007.18-7.17v-7.11a7.14 7.14 0 00-2.93-5.78 7 7 0 00-4.25-1.4h-96.89a7.06 7.06 0 00-4.25 1.4 7.14 7.14 0 00-2.93 5.78z" class="cls-16"/><path d="M861.24 855.5v16.89a7.3 7.3 0 005.11 7A30.78 30.78 0 01894 862.12h43.74a30.83 30.83 0 0127.83 17.55 7.29 7.29 0 006.9-7.28V846a7.27 7.27 0 00-3.56-6.25 7.13 7.13 0 00-3.73-1h-96.65a7.14 7.14 0 00-3.06.68 7.27 7.27 0 00-4.23 6.61z" class="cls-17"/><path d="M862.2 887v1.79a7.06 7.06 0 014.25-1.4h96.89a7 7 0 014.25 1.4V887a30.81 30.81 0 00-30.83-30.83H893A30.84 30.84 0 00862.2 887z" class="cls-14"/><path d="M1143.06 896.58v5a7.18 7.18 0 01-7.18 7.17H1039a7.17 7.17 0 01-7.19-7.17v-7.11a7.14 7.14 0 012.93-5.78 7.07 7.07 0 014.26-1.4h96.88a7.09 7.09 0 014.26 1.4 7.16 7.16 0 012.92 5.78z" class="cls-16"/><path d="M1141.09 855.5v16.89a7.3 7.3 0 01-5.11 7 30.78 30.78 0 00-27.66-17.24h-43.74a30.81 30.81 0 00-27.82 17.55 7.28 7.28 0 01-6.9-7.28V846a7.26 7.26 0 013.55-6.25 7.14 7.14 0 013.74-1h96.67a7.11 7.11 0 013.06.68 7.27 7.27 0 014.23 6.61z" class="cls-17"/><path d="M1140.14 887v1.79a7.09 7.09 0 00-4.26-1.4H1039a7.07 7.07 0 00-4.26 1.4V887a30.84 30.84 0 0130.83-30.83h43.74a30.86 30.86 0 0130.83 30.83zM894.26 531.17c15.6 46.12-7.79 117.74-8 141.38-.17 16.11 19 .2 45.77-4.61 27.33-4.92 85-21.49 144.5 2.38 42.7 17.14 55.82 46.46 40.13-21.69-9.91-43.07-4.63-130.83-4.63-130.83l-214.57-13.71z" class="cls-14"/><path d="M1060.31 235.26l-1-.39c-.35-.13-.7-.24-1-.34s-.72-.21-1.08-.3-.72-.17-1.09-.24a11.94 11.94 0 00-1.22-.21c-.69-.1-1.4-.17-2.12-.21h-1.2a23.42 23.42 0 00-23.5 23.43v13.66a29.28 29.28 0 01-58.55 0V257a23.42 23.42 0 00-23.42-23.41h-1.15l-1 .07-.65.07c-.18 0-.37 0-.55.06l-.62.1h-.22c-.25 0-.52.09-.77.15l-.29.07a6.58 6.58 0 00-.74.17c-.63.17-1.26.36-1.86.58A23.37 23.37 0 00922.71 257v346.76q0 1.95.09 3.87a2.83 2.83 0 010 .29c.06 1.08.13 2.16.24 3.23a74.09 74.09 0 001.19 7.92 75.52 75.52 0 0010.88 26.38 76.31 76.31 0 0018.1 19.23l.08.06q2.86 2.15 5.94 4l.16.1q1.53.92 3.09 1.77l.09.05c1 .56 2.08 1.09 3.13 1.6l.14.07c1 .5 2.1 1 3.16 1.43l.39.16q3.18 1.34 6.49 2.38l.55.17c1.08.33 2.18.65 3.29.93l.22.06c1 .26 2.09.5 3.15.73l.59.12c1.1.22 2.2.42 3.31.59l.6.09c1 .15 2 .28 3.08.39l.48.05c1.12.12 2.25.2 3.38.26h.77c1.16.05 2.32.09 3.49.09 1.19 0 2.36 0 3.54-.09h.66c1.15-.07 2.29-.15 3.43-.26l.45-.05c1.16-.13 2.32-.27 3.47-.45h.06c1.2-.19 2.39-.4 3.56-.64l.34-.07c1.08-.22 2.15-.46 3.21-.73a73.72 73.72 0 007.4-2.28h.14c2.25-.83 4.45-1.77 6.61-2.8l.23-.11c.89-.43 1.77-.87 2.64-1.33a76.09 76.09 0 0040.39-67.21V257a23.4 23.4 0 00-14.61-21.74z" class="cls-8"/><path d="M1066.21 635.74c-3.66-.06-8-.2-11.7-.47-1.84-.14-3.67-.31-5.52-.57-.93-.13-1.85-.28-2.82-.51a9.34 9.34 0 01-1.55-.48 13 13 0 01-1.4-.69 9.55 9.55 0 01-4.27-4.94 15.48 15.48 0 01-.73-6.18 29.67 29.67 0 00.16-5 17.62 17.62 0 00-1.7-4.38 22.55 22.55 0 01-2.14-5.71 13.33 13.33 0 01-.14-3.38 15.54 15.54 0 01.63-3.19 21.24 21.24 0 001.26-4.75 12.07 12.07 0 000-2.25 5 5 0 00-.46-1.78 13.52 13.52 0 00-1.26-2 17.89 17.89 0 01-1.61-2.65 16.93 16.93 0 01-.59-12.33 12.49 12.49 0 011.49-2.85 15.32 15.32 0 011-1.27c.2-.19.38-.39.6-.58a2.17 2.17 0 01.77-.54l1.41 3.35c-10 1.8-20.16 3-30.33 3.78-5.08.38-10.18.62-15.31.57a76.15 76.15 0 01-15.47-1.5 25.75 25.75 0 01-7.65-2.86 12.14 12.14 0 01-3.38-2.94 9.16 9.16 0 01-1.81-4.4 14.78 14.78 0 01.16-4.4 11.64 11.64 0 011.73-4.19 15.19 15.19 0 016.8-5.24 35.93 35.93 0 017.71-2.19 76.44 76.44 0 017.73-.93c5.14-.38 10.24-.42 15.32-.41 10.15 0 20.25.43 30.19-.19a62 62 0 0014.42-2.33 19.54 19.54 0 006.08-3 9.49 9.49 0 003.45-5 14.47 14.47 0 000-6.52c-.22-1.08-.56-2.36-.86-3.61l-.87-3.75a85.26 85.26 0 01-2.27-15.33 51.59 51.59 0 01.25-7.85 37.42 37.42 0 011.63-7.78 21.6 21.6 0 013.79-7.07 13.08 13.08 0 016.49-4.33 14.89 14.89 0 00-4.84 5.45 23.13 23.13 0 00-2.17 6.79 46.62 46.62 0 00-.59 7.2c0 2.43.12 4.87.3 7.31a145.05 145.05 0 001.85 14.7c.22 1.23.47 2.45.74 3.66s.58 2.38.86 3.78a18.59 18.59 0 01-.15 8.51 13.81 13.81 0 01-5 7.26 23.83 23.83 0 01-7.43 3.7 66.54 66.54 0 01-15.46 2.45c-10.26.59-20.4.13-30.47.06-5 0-10 0-15 .33s-9.91 1-14.19 2.75a11.27 11.27 0 00-5.11 3.8 7.54 7.54 0 00-1.15 2.77 10.08 10.08 0 00-.19 1.56 11.63 11.63 0 00.06 1.59 6.27 6.27 0 003.34 4.54 22.32 22.32 0 006.5 2.43 72.56 72.56 0 0014.67 1.47c5 .07 10-.13 15-.49 10-.75 20-2 29.89-3.77l1.35 3.18c0 .12-.16.22-.26.35s-.24.26-.35.39a9.82 9.82 0 00-.65.9 8.66 8.66 0 00-.92 2 12.47 12.47 0 00.9 8.93 16.33 16.33 0 001.35 1.93 18 18 0 011.77 2.57 10.07 10.07 0 011.07 3.43 17 17 0 01.11 3.2 24.32 24.32 0 01-1.37 5.82 9.44 9.44 0 00-.37 4.22 20.67 20.67 0 001.61 4.51 19.45 19.45 0 011.77 5.92 11.16 11.16 0 010 1.73c0 .54-.11 1-.18 1.51l-.42 2.66a11.3 11.3 0 00.07 4.62 5.9 5.9 0 002.48 3.36 10 10 0 001 .61 5.29 5.29 0 001 .4 25.73 25.73 0 002.52.65c1.73.38 3.51.69 5.29 1 3.57.54 7.82 1 11.44 1.31z" class="cls-8"/><path d="M302.81 219.13h600a5 5 0 015 5v625a30 30 0 01-30 30h-580v-655a5 5 0 015-5z" class="cls-3"/><path d="M574.43 232.6a10.8 10.8 0 003.28 5.79 10 10 0 005.71 2.59 9.5 9.5 0 005.76-1.2 9 9 0 003.67-4.12 2.81 2.81 0 015.16 0l.35.81a8.6 8.6 0 008.06 6.55 8.47 8.47 0 005.24-1.6 8.69 8.69 0 003.21-4.46 3 3 0 015.51-.53l.07.13a8.58 8.58 0 0010.84 4.37 8.62 8.62 0 004.62-4.25 8.46 8.46 0 00.84-3.08V231.87l-.15-2.16a3 3 0 015.4-2l.09.12a8.9 8.9 0 008 4.36 9.49 9.49 0 008.13-5.42 9.59 9.59 0 00.81-2.53 12.77 12.77 0 00.14-2.83l-.1-6.26-.19-12.52 1.18-.07 1.4 12.44.69 6.22a16.26 16.26 0 01.15 3.41 13.44 13.44 0 01-4.94 9.37 13.77 13.77 0 01-6.76 3 14.18 14.18 0 01-7.48-1 14.48 14.48 0 01-6-4.79l5.48-1.87.14 2.16V234.1a14.45 14.45 0 01-1.43 5.24 14.56 14.56 0 01-26.28-.21l5.58-.4a14.69 14.69 0 01-5.43 7.59 14.57 14.57 0 01-22.65-8.44l5.51.81a14.4 14.4 0 01-6.92 5.44 13.58 13.58 0 01-8.42.29 12.93 12.93 0 01-6.65-4.5 12.49 12.49 0 01-2.61-7.19z" class="cls-8"/><path d="M639.76 232.16l-.17-2.64a11.57 11.57 0 0021.15-7.21L659 196.65a11.57 11.57 0 00-23.1.17 11.56 11.56 0 00-10.47-5.25 11.57 11.57 0 00-10.78 10.94 11.56 11.56 0 00-21 4 11.56 11.56 0 00-8.82-3.81 11.57 11.57 0 00-11.32 11.82l.36 17.15a11.57 11.57 0 0011.82 11.32 11.53 11.53 0 009.76-5.78 11.56 11.56 0 0022.3.68 11.56 11.56 0 0022-5.68z" class="cls-15"/><path d="M341.62 793.14h483.65" class="cls-18"/><path d="M823.17 800.32l12.43-7.18-12.43-7.18v14.36z" class="cls-19"/><path d="M446.29 782.84v20.6M526.29 782.84v20.6M606.29 782.84v20.6M686.29 782.84v20.6M766.29 782.84v20.6" class="cls-20"/><path d="M359.29 291.09v523.62" class="cls-18"/><path d="M350.32 293.71l8.97-15.54 8.98 15.54h-17.95z" class="cls-19"/><path d="M348.99 713.14h20.61M348.99 633.14h20.61M348.99 553.14h20.61M348.99 473.14h20.61M348.99 393.14h20.61M348.99 313.14h20.61" class="cls-20"/><rect width="69.29" height="309.7" x="451.65" y="473.14" class="cls-9" rx="10"/><rect width="69.29" height="55.64" x="371.65" y="727.2" class="cls-9" rx="10"/><rect width="69.29" height="469.7" x="531.65" y="313.14" class="cls-9" rx="10"/><rect width="69.29" height="229.7" x="691.65" y="553.14" class="cls-9" rx="10"/><rect width="69.29" height="389.7" x="611.65" y="393.14" class="cls-9" rx="10"/><path d="M777.29 348.56l74.3 17.44c-9.57 40.76-51 66.43-91.73 56.86s-66.43-51-56.87-91.73a76.48 76.48 0 0170.58-58.79z" class="cls-2"/><path d="M785.48 339l-3.72-76.23a76.34 76.34 0 0173.55 45.44z" class="cls-9"/><path d="M793.73 344.49l69.83-30.79a76.34 76.34 0 014.44 48.22z" class="cls-19"/><path d="M847.54 849.13v-.52a5 5 0 00-5-5H246.62a5 5 0 00-5 5v.52a30 30 0 0030 30h606.19a30.13 30.13 0 01-30.27-30z" class="cls-9"/><path d="M1078.37 545.94c5.68 1.73 19.54.35 18.45-12.44l.08-.9c3.71.27 9.11 0 17.07-.79 23.86-2.47 94.47-2.47 121.32-3.74 10.64-.51 19.41-.3 26-1.34-25.9 85.33-113.91 106.11-176.73 106-20.72 0-74.14-6.62-83.91-8.23-19.25-3.18-36.21-4.17-37-10.15-2.71-19.68 48.65-1.28 49.48-6 .48-2.76-3.44-4.37-3.09-11.23.26-5.07 3.72-5.53 3.9-10.07.11-3.09-4.48-6-4.2-11.51.36-7.11 3.92-6.23 4.32-9.89 1.15-10.52-62-22.3-59-35.75 5.62-24.53 69 21.35 82.76 6 13.37-14.96 23.25 4.77 40.55 10.04z" class="cls-1"/><g clip-path="url(#id1)"><path d="M1162.48 535.34c-33.7 3.86-38.63 12.62-48.44 30.07-.79 1.4-1.61 2.86-2.48 4.38-3.75 6.54-15.58 11.57-23 7.94-3.67-1.8-4.59-5.35-2.65-10.27 1.67-4.23 4.7-4.78 8.91-5.55 7.07-1.29 16.76-3 24.18-24.78a1 1 0 00-1.76-.86 28.18 28.18 0 01-27 13.61c-4.52-.57-8.15-2.34-10.36-4.93a14.7 14.7 0 01-2.77-.52c2.26 4 6.9 6.68 12.88 7.42a29.8 29.8 0 0024.67-9.1c-6.54 14.71-14 16.08-20.23 17.2-4.28.78-8.32 1.52-10.39 6.77-2.32 5.88-1 10.54 3.62 12.8 8.5 4.16 21.38-1.43 25.58-8.74.87-1.52 1.69-3 2.48-4.39 7.63-13.56 12.2-21.69 30.71-26.3-12.51 6.07-17.1 15.94-21.58 25.57-5.16 11.08-10 21.55-26.44 26.52-11.54 3.5-14.28 9.23-14.88 12.33a10.14 10.14 0 003.85 9.83c4.3 3.49 10.71 4 16.73 1.37 6.31-2.77 9-8.18 11.64-13.41 3.56-7.1 7.22-14.41 20.14-16.27-9.1 5-11.57 12.05-14 18.89s-4.63 13.18-13.37 17.39a41.29 41.29 0 01-7.28 2.45c-5.37 1.43-10.45 2.79-11 9l2-.08c.51-4.37 3.89-5.5 9.51-7a41.85 41.85 0 007.63-2.58c9.48-4.56 12-11.66 14.38-18.52 2.78-7.91 5.4-15.39 18-20a1 1 0 00.63-1.12 1 1 0 00-1-.81c-18.72.39-23.36 9.63-27.44 17.79-2.58 5.14-5 10-10.68 12.49-6.38 2.8-11.78 1.27-14.7-1.1a8.13 8.13 0 01-3.15-7.9c.88-4.53 5.8-8.47 13.5-10.8 17.26-5.23 22.55-16.6 27.66-27.59 6.07-13 11.79-25.34 36.09-29.19a1 1 0 00-.27-2z" class="cls-11"/><path d="M1217.44 541.37c-16.29-6-34.72-5-48.11 2.7-29.47 16.93-21.57 35.15-17.33 44.93.9 2.08 2 4.66 1.63 5.21-.08.12-.52.3-1.62.21-4.32-.35-9.37 2.08-12.29 5.91a11.77 11.77 0 00-1.86 11.32c1.18 3.41 3.19 5.65 6 6.67a11.45 11.45 0 006.06.38 7.89 7.89 0 00-1.91 4.1 6.26 6.26 0 00.36 3l1.94-.5a4.24 4.24 0 01-.31-2.3c.26-2.19 2.27-4.45 5.81-6.55a1 1 0 00.36-1.36 1 1 0 00-1.35-.35c-2.62 1.55-6.87 2.92-10.25 1.68-2.2-.82-3.81-2.65-4.79-5.47a9.74 9.74 0 011.56-9.45c2.54-3.32 6.88-5.43 10.57-5.14 1.08.09 2.6.07 3.39-1 1-1.47 0-3.73-1.43-7.16-4-9.2-11.45-26.34 16.49-42.39 12.89-7.41 30.69-8.39 46.45-2.57 12.58 4.66 22 12.9 26 22.73.45-.63.88-1.28 1.32-1.92-4.52-9.84-14.08-18.05-26.69-22.68z" class="cls-11"/><path d="M1171.57 590.22a5.09 5.09 0 01-1.61-.41c-1.72-.79-3-2.65-4.16-5.87-2.76-7.88-3.85-19.27 2.13-25.43 4.75-4.9 12.8-5.5 23.93-1.8 11.34 3.77 15.24 14 13.15 21.72-1.7 6.32-6.78 9.53-12.94 8.2s-10.7.53-14.41 2c-2.24.93-4.25 1.74-6.09 1.59zm9.67-33.83c-5.24-.42-9.23.75-11.91 3.51-5.34 5.51-4.24 16-1.67 23.38.92 2.63 1.94 4.17 3.12 4.71 1.5.69 3.55-.14 6.15-1.18 3.75-1.51 8.88-3.57 15.55-2.13 6.14 1.33 9.51-2.62 10.63-6.77 1.85-6.83-1.68-15.92-11.87-19.31a42.68 42.68 0 00-10-2.21zM1183.77 600.71c-7.18-.05-11.65 1.38-13.26 4.26s-.21 7 4.47 12.26l2-.79c-4.31-4.69-6-8.31-4.72-10.49 2.45-4.36 15.62-3.92 28.21-1.2.81-.49 1.62-1 2.42-1.48a89.91 89.91 0 00-19.12-2.56z" class="cls-11"/></g><path d="M1279.63 462.39c2.2 16.75-7.12 16.42-4.33 45.22 1.38 14.28-3.5 18.76-13.49 20.35-6.55 1-15.32.84-26 1.34-26.85 1.28-97.46 1.27-121.32 3.75-8 .81-13.35 1.05-17.06.78-5.4-.4-7.22-1.88-8.13-4.2-1.46-3.77 4.29-8 2-14.19a10.36 10.36 0 00-.85-1.8c-5-8.38-9.07-17 26.72-25.47 93.91-22.1 134.68-42.17 151.66-39.78 6.63.93 9.65 5.2 10.8 14zM1162.48 535.34c-33.7 3.86-38.63 12.62-48.44 30.07-.79 1.4-1.61 2.86-2.48 4.38-3.75 6.54-15.58 11.57-23 7.94-3.67-1.8-4.59-5.35-2.65-10.27 1.67-4.23 4.7-4.78 8.91-5.55 7.07-1.29 16.76-3 24.18-24.78a1 1 0 00-1.76-.86 28.18 28.18 0 01-27 13.61 17.44 17.44 0 01-8.74-3.39 15 15 0 01-3.16-.55l-.28-.1c2.48 3.19 6.69 5.36 11.93 6a29.8 29.8 0 0024.67-9.1c-6.54 14.71-14 16.08-20.23 17.2-4.28.78-8.32 1.52-10.39 6.77-2.32 5.88-1 10.54 3.62 12.8 8.5 4.16 21.38-1.43 25.58-8.74.87-1.52 1.69-3 2.48-4.39 7.63-13.56 12.2-21.69 30.71-26.3-12.51 6.07-17.1 15.94-21.58 25.57-5.16 11.08-10 21.55-26.44 26.52-11.54 3.5-14.28 9.23-14.88 12.33a10.14 10.14 0 003.85 9.83c4.3 3.49 10.71 4 16.73 1.37 6.31-2.77 9-8.18 11.64-13.41 3.56-7.1 7.22-14.41 20.14-16.27-9.1 5-11.57 12.05-14 18.89s-4.63 13.18-13.37 17.39a41.29 41.29 0 01-7.28 2.45c-5 1.34-9.83 2.63-10.85 7.94l2-.06c.91-3.51 4.16-4.59 9.31-6a41.85 41.85 0 007.63-2.58c9.48-4.56 12-11.66 14.38-18.52 2.78-7.91 5.4-15.39 18-20a1 1 0 00.63-1.12 1 1 0 00-1-.81c-18.72.39-23.36 9.63-27.44 17.79-2.58 5.14-5 10-10.68 12.49-6.38 2.8-11.78 1.27-14.7-1.1a8.13 8.13 0 01-3.15-7.9c.88-4.53 5.8-8.47 13.5-10.8 17.26-5.23 22.55-16.6 27.66-27.59 6.07-13 11.79-25.34 36.09-29.19a1 1 0 00-.27-2z" class="cls-8"/><path d="M1217.44 541.37c-16.29-6-34.72-5-48.11 2.7-29.47 16.93-21.57 35.15-17.33 44.93.9 2.08 2 4.66 1.63 5.21-.08.12-.52.3-1.62.21-4.32-.35-9.37 2.08-12.29 5.91a11.77 11.77 0 00-1.86 11.32c1.18 3.41 3.19 5.65 6 6.67a11.45 11.45 0 006.06.38 7.89 7.89 0 00-1.91 4.1 6.26 6.26 0 00.36 3l1.94-.5a4.24 4.24 0 01-.31-2.3c.26-2.19 2.27-4.45 5.81-6.55a1 1 0 00.36-1.36 1 1 0 00-1.35-.35c-2.62 1.55-6.87 2.92-10.25 1.68-2.2-.82-3.81-2.65-4.79-5.47a9.74 9.74 0 011.56-9.45c2.54-3.32 6.88-5.43 10.57-5.14 1.08.09 2.6.07 3.39-1 1-1.47 0-3.73-1.43-7.16-4-9.2-11.45-26.34 16.49-42.39 12.89-7.41 30.69-8.39 46.45-2.57 12.58 4.66 22 12.9 26 22.73.45-.63.88-1.28 1.32-1.92-4.52-9.84-14.08-18.05-26.69-22.68z" class="cls-8"/><path d="M1171.57 590.22a5.09 5.09 0 01-1.61-.41c-1.72-.79-3-2.65-4.16-5.87-2.76-7.88-3.85-19.27 2.13-25.43 4.75-4.9 12.8-5.5 23.93-1.8 11.34 3.77 15.24 14 13.15 21.72-1.7 6.32-6.78 9.53-12.94 8.2s-10.7.53-14.41 2c-2.24.93-4.25 1.74-6.09 1.59zm9.67-33.83c-5.24-.42-9.23.75-11.91 3.51-5.34 5.51-4.24 16-1.67 23.38.92 2.63 1.94 4.17 3.12 4.71 1.5.69 3.55-.14 6.15-1.18 3.75-1.51 8.88-3.57 15.55-2.13 6.14 1.33 9.51-2.62 10.63-6.77 1.85-6.83-1.68-15.92-11.87-19.31a42.68 42.68 0 00-10-2.21zM1183.77 600.71c-7.18-.05-11.65 1.38-13.26 4.26s-.21 7 4.47 12.26l2-.79c-4.31-4.69-6-8.31-4.72-10.49 2.45-4.36 15.62-3.92 28.21-1.2.81-.49 1.62-1 2.42-1.48a89.91 89.91 0 00-19.12-2.56z" class="cls-8"/><path fill="#e6eaed" d="M409.08 150.51H143.72c8.38-26.14 31.43-44.93 58.55-44.93a58.1 58.1 0 0126.29 6.29c3.9-19.15 22.68-33.67 45.25-33.67 25.41 0 46 18.39 46 41.08 0 .87 0 1.75-.1 2.61a60.86 60.86 0 0135-10.69c27.35 0 50.05 17.01 54.37 39.31z" opacity=".58"/></g></g></svg>