<svg xmlns="http://www.w3.org/2000/svg" viewBox="0 0 1006.95 1034.17"><defs><linearGradient id="id1" x1="568.22" x2="568.22" y1="119.71" y2="766.89" gradientUnits="userSpaceOnUse"><stop offset="0" stop-color="#e6eaed"/><stop offset=".09" stop-color="#e6eaed" stop-opacity=".86"/><stop offset=".28" stop-color="#e6eaec" stop-opacity=".6"/><stop offset=".46" stop-color="#e6eaec" stop-opacity=".39"/><stop offset=".62" stop-color="#e6eaeb" stop-opacity=".22"/><stop offset=".77" stop-color="#e6eaeb" stop-opacity=".1"/><stop offset=".9" stop-color="#e6eaeb" stop-opacity=".03"/><stop offset="1" stop-color="#e6eaeb" stop-opacity="0"/></linearGradient><style>.cls-1{fill:#c5cdd0}.cls-2{fill:#dee2e5}.cls-3{fill:#dadfe1}.cls-4{fill:#e2e6e9}.cls-5{fill:#d0d5d9}.cls-6{fill:#e6eaed}.cls-8{fill:#e7e8ea}.cls-9{fill:#97a4ac}.cls-10{fill:#b4bdc2}.cls-11{fill:#dfe3e6}.cls-12{fill:#d0d5da}.cls-14{fill:#f5f7f8}</style></defs><g><g><path d="M794.28 722.57c-16 0-28.16-1.23-31.77-2.82-8.7-3.84-7.87-11.74-7.42-16a18.05 18.05 0 00.16-2.38 13.49 13.49 0 00-1.6-4.52 20.5 20.5 0 01-2.34-7 15.65 15.65 0 01.6-6.45 9.42 9.42 0 00.34-4.31 11 11 0 00-.85-1.14 18.51 18.51 0 01-4.59-11.61 12.81 12.81 0 012.28-8.56 4.58 4.58 0 001-3 6.76 6.76 0 00-1.1-3.94 15.81 15.81 0 01-2.23-8.71c0-5 1.66-9.2 4.75-12.07 3.31-3.08 8.07-4.5 13.8-4.1 7.28.5 7.81-.12 9.39-2a25.61 25.61 0 015.59-5.11c8.63-5.85 15.47-2.29 22.72 1.47 4.31 2.24 9.19 4.78 15.58 6.15a13.26 13.26 0 0010.29-3c1.89-1.81 2.55-4.2 2-7.3a4 4 0 01-.05-.69v-.91a4 4 0 014-4c3.52 0 8.68-.72 16.24-2.15 14.69-2.79 47.28-6.12 76-9.07 17.79-1.82 34.58-3.54 44.75-4.88 3.6-.48 6.91-.85 10.12-1.21a129.43 129.43 0 0015.21-2.23 4 4 0 014.87 4.72c-8.58 40.13-31.72 71.56-68.78 93.42-34.32 20.23-74 28.12-101.34 31.17a344.37 344.37 0 01-37.62 2.23zM763.5 634c-2.2 0-4.77.41-6.5 2-1.45 1.34-2.19 3.45-2.2 6.25a8.05 8.05 0 001.24 4.82 14.37 14.37 0 012.09 7.76 12.31 12.31 0 01-2.27 7.27 5.11 5.11 0 00-1.07 3.79 10.72 10.72 0 002.84 7.1 9.92 9.92 0 012.56 5.14 17.14 17.14 0 01-.57 7.46 8 8 0 00-.35 3.53 14.59 14.59 0 001.59 4.28 19.64 19.64 0 012.39 7.6 24.69 24.69 0 01-.2 3.59c-.48 4.52-.37 6.49 2.68 7.84 3.26 1.36 30 4.05 65.34.08 51.58-5.77 140-28.09 161.8-112.4-3 .45-6.37.82-10 1.22-3.16.36-6.44.72-10 1.19-10.28 1.36-27.14 3.08-45 4.91-28.6 2.93-61 6.25-75.38 9-5.55 1.05-9.94 1.72-13.45 2.05a14.87 14.87 0 01-4.67 10.9 21.12 21.12 0 01-17.51 5 67.26 67.26 0 01-17.58-6.87c-7-3.65-10-5-14.55-1.95a18 18 0 00-4 3.68c-3.21 3.77-5.85 5.47-16 4.76h-1.23z" class="cls-1"/><rect width="233.35" height="142.39" x="62.81" y="493.79" class="cls-2" rx="12"/><rect width="172.91" height="177.33" x="329.1" y="458.86" class="cls-2" rx="12"/><path d="M255.67 886.18H73.75a12.86 12.86 0 01-12.86-12.24l-8.68-177.11h225l-8.68 177.11a12.88 12.88 0 01-12.86 12.24z" class="cls-3"/><rect width="201.05" height="154.62" x="311.36" y="731.56" class="cls-4" rx="10.37"/><path d="M538 292h23.97v679.91H538z" class="cls-5"/><path d="M269.78 628.39h23.97v539.56h-23.97z" class="cls-5" transform="rotate(-90 281.77 898.17)"/><path d="M269.78 378.39h23.97v539.56h-23.97z" class="cls-5" transform="rotate(-90 281.77 648.17)"/><path d="M632.54 723.53c-9.8 0-20.72-.43-31.85-1.48-55-5.15-150.53-27.78-172.34-121.5l-1.45-6.22 6.23 1.41a128.28 128.28 0 0015.25 2c3.21.3 6.54.61 10.15 1 10.18 1.16 27 2.58 44.82 4.08 28.81 2.43 61.46 5.17 76.2 7.7 7.58 1.28 12.75 1.89 16.28 1.85h3.93l.12 5.19v.35c-.47 3.11.23 5.49 2.16 7.26a13.2 13.2 0 0010.34 2.82c6.36-1.48 11.2-4.11 15.46-6.42 7.18-3.9 14-7.59 22.7-1.89a25.93 25.93 0 015.68 5c1.61 1.82 2.14 2.44 9.42 1.8 5.7-.5 10.5.83 13.87 3.85 3.14 2.82 4.86 7 5 12a15.92 15.92 0 01-2.07 8.74 6.63 6.63 0 00-1 4 4.61 4.61 0 001.09 3 12.81 12.81 0 012.44 8.52 18.49 18.49 0 01-4.38 11.69 11.37 11.37 0 00-.83 1.15 9.33 9.33 0 00.42 4.31 15.66 15.66 0 01.71 6.44 20.57 20.57 0 01-2.21 7 13.6 13.6 0 00-1.53 4.55 21.84 21.84 0 00.21 2.37c.53 4.24 1.5 12.13-7.12 16.12-4.12 1.71-18.84 3.31-37.7 3.31zm-194.9-118.91c23.28 83.91 112.13 104.63 163.8 109.47 35.39 3.32 62.1.15 65.34-1.27 3-1.4 3.09-3.37 2.53-7.88a23.62 23.62 0 01-.26-3.59 19.53 19.53 0 012.25-7.64 14.39 14.39 0 001.5-4.3 7.85 7.85 0 00-.41-3.53 17.32 17.32 0 01-.7-7.45 9.88 9.88 0 012.47-5.18 10.73 10.73 0 002.7-7.16 5.11 5.11 0 00-1.13-3.77 12.3 12.3 0 01-2.4-7.23 14.28 14.28 0 011.95-7.79 8.13 8.13 0 001.15-4.85c-.06-2.8-.84-4.88-2.31-6.2-2.12-1.9-5.43-2-7.83-1.84-10.18.9-12.84-.76-16.12-4.47a17.92 17.92 0 00-4-3.61c-4.56-3-7.56-1.56-14.51 2.22a67.2 67.2 0 01-17.45 7.18 21.12 21.12 0 01-17.6-4.73 14.89 14.89 0 01-4.87-10.81c-3.51-.27-7.91-.86-13.48-1.81-14.41-2.46-46.88-5.2-75.53-7.61-17.87-1.5-34.76-2.92-45.06-4.1-3.53-.4-6.81-.71-10-1-3.67-.34-6.98-.67-10.03-1.05z" class="cls-1"/><path d="M269.78 158.39h23.97v539.56h-23.97z" class="cls-5" transform="rotate(-90 281.77 428.17)"/><path d="M0 292h23.97v679.91H0z" class="cls-5"/><rect width="215.78" height="133.45" x="284.42" y="282.74" class="cls-4" rx="10"/><rect width="140.25" height="192.34" x="46.41" y="223.84" class="cls-6" rx="10"/><rect width="242.48" height="27.59" x="43.47" y="684.88" class="cls-3" rx="9.2"/><path d="M734.51 108.76a1.52 1.52 0 01-.59-.12 1.49 1.49 0 01-.79-2c2.08-4.83 4.11-10.34 1.81-14.63a16.79 16.79 0 00-1.08-1.67A12.94 12.94 0 01732 87a11.65 11.65 0 01-.21-4.92 56.61 56.61 0 012.84-12.28l.15-.45a10.54 10.54 0 00.92-4.29c-.16-1.89-1.52-3.52-3-5.25a15.92 15.92 0 01-3.46-5.62c-.95-3.32.18-6.44 1.28-9.46a22.84 22.84 0 001.48-5.24 21.37 21.37 0 00-.07-4 17.07 17.07 0 01.34-6.46 17 17 0 011.37-3 14.41 14.41 0 001.17-2.6c.86-3-.58-6.11-2.11-9.41s-3.18-6.85-2.58-10.64a3.83 3.83 0 012.29-3.27 1.49 1.49 0 011.92.89 1.49 1.49 0 01-.89 1.92 1.78 1.78 0 00-.34.91c-.45 2.9.9 5.82 2.34 8.92 1.69 3.65 3.44 7.43 2.27 11.5a15.81 15.81 0 01-1.41 3.18 14.59 14.59 0 00-1.14 2.51 14.51 14.51 0 00-.22 5.34 24.5 24.5 0 01.06 4.54 25 25 0 01-1.62 5.88c-1 2.69-1.9 5.23-1.22 7.62a13.6 13.6 0 002.89 4.52c1.66 2 3.39 4.09 3.63 6.91a13.1 13.1 0 01-1.08 5.55l-.15.44a53.91 53.91 0 00-2.69 11.64 9.06 9.06 0 00.1 3.67 9.85 9.85 0 001.47 2.61 18.79 18.79 0 011.25 2c2.94 5.47.67 11.76-1.69 17.24a1.51 1.51 0 01-1.38.86zM401.62 108.76a1.51 1.51 0 01-.5-.09 3.81 3.81 0 01-2.31-3.23c-.65-3.78.92-7.29 2.44-10.67s2.89-6.45 2-9.44a15.36 15.36 0 00-1.25-2.59 17.34 17.34 0 01-1.41-3 17 17 0 01-.42-6.45 21.18 21.18 0 000-4 22.45 22.45 0 00-1.52-5.17c-1.14-3-2.31-6.12-1.41-9.45a15.87 15.87 0 013.43-5.67c1.41-1.75 2.74-3.4 2.88-5.29a10.52 10.52 0 00-1-4.27l-.17-.45a57.29 57.29 0 01-3-12.24 11.8 11.8 0 01.14-4.93 12.84 12.84 0 011.83-3.44 17.63 17.63 0 001.05-1.68c2.25-4.33.15-9.81-2-14.61a1.5 1.5 0 112.78-1.2c2.43 5.44 4.79 11.7 1.92 17.21a20.09 20.09 0 01-1.22 2 9.75 9.75 0 00-1.44 2.62 9.1 9.1 0 00-.05 3.68 54.32 54.32 0 002.84 11.6l.16.44a13.16 13.16 0 011.16 5.56c-.21 2.83-1.91 4.93-3.55 7a13.59 13.59 0 00-2.82 4.56c-.65 2.39.3 4.92 1.32 7.6a25.3 25.3 0 011.69 5.86 23.74 23.74 0 010 4.54 14.66 14.66 0 00.29 5.34 14.72 14.72 0 001.18 2.49 16.3 16.3 0 011.45 3.16c1.22 4.06-.48 7.86-2.13 11.53-1.39 3.12-2.71 6.06-2.21 9a1.66 1.66 0 00.35.91 1.5 1.5 0 01-.5 2.91z" class="cls-2"/><rect width="11.45" height="18.51" x="398.5" y="82.46" class="cls-2" rx="5.72"/><rect width="11.45" height="18.51" x="726.5" y="82.46" class="cls-2" rx="5.72"/><rect width="200.37" height="89.73" x="119.74" y="326.62" class="cls-5" rx="6"/><rect width="120.65" height="88.4" x="243.66" y="547.75" class="cls-5" rx="6"/><path fill="url(#id1)" d="M336.16 108.08L195.21 764.54l746.03-4.36-136.84-652.1H336.16z" opacity=".4"/><path d="M788.35 321.4v4.88a27.31 27.31 0 01-14.64 24.2l-.71.36-.73.34c-.25.11-.49.22-.75.32s-.53.21-.8.32-.47.18-.71.25a17.13 17.13 0 01-1.76.55l-.59.16c-.26.07-.54.12-.8.18l-.76.16c-.38.08-.76.14-1.14.19l-.86.11-.46.05h-.07c-.38 0-.76.06-1.14.08s-.94 0-1.41 0h-97.59c-.85 0-1.7 0-2.54-.12l-.52-.06c-.28 0-.57-.06-.85-.11l-.51-.07c-.39-.06-.78-.13-1.17-.22l-.83-.19a6.7 6.7 0 01-.74-.19c-.29-.07-.57-.16-.86-.24l-.22-.07c-.36-.11-.71-.24-1.08-.36l-.33-.13q-.45-.16-.9-.36c-.4-.16-.78-.33-1.16-.51a27.6 27.6 0 01-7.61-5.37A27.32 27.32 0 01663.43 299h54.65a13.66 13.66 0 0013.67-13.66V273.6a28.3 28.3 0 0156.6 0v47.8z" class="cls-1"/><path d="M773.71 350.48v38l-1-.39c-.35-.13-.7-.24-1.06-.34a10 10 0 00-1.07-.29c-.36-.1-.72-.18-1.1-.25s-.8-.15-1.22-.2a20.64 20.64 0 00-2.11-.22h-1.2a23.4 23.4 0 00-23.42 23.41v13.66a29.28 29.28 0 01-58.56 0v-13.68a23.42 23.42 0 00-23.42-23.41h-1.14l-1 .07-.64.07-.56.07-.61.1h-.23a4.31 4.31 0 00-.77.14l-.29.07a4.86 4.86 0 00-.73.18 19.23 19.23 0 00-1.87.56V351c.38.18.76.35 1.16.51s.6.25.9.36l.33.13 1.08.36.22.07c.29.08.57.17.86.24a6.7 6.7 0 00.74.19l.83.19c.39.09.78.16 1.17.22l.51.07c.28.05.57.08.85.11s.34 0 .52.06c.84.08 1.69.12 2.54.12h98.99c.41 0 .76 0 1.14-.08h.07l.46-.05.86-.11c.38-.05.76-.11 1.14-.19a6.41 6.41 0 00.76-.16c.26-.06.54-.11.8-.18s.4-.1.59-.16a17.13 17.13 0 001.76-.55 4.26 4.26 0 00.71-.25c.27-.11.54-.2.8-.32s.5-.21.75-.32l.73-.34z" class="cls-8"/><path d="M781.77 428.2S718.55 651 807.48 639.06c167.51-22.49 185.34-49.23 189.6-89.7-8.34-118.62-143.55-130.94-215.31-121.16z" class="cls-9"/><path d="M614.56 792.57c-.44 3.07-.62 8.82-2.27 11.44-3.91 6.23.24 14.27.05 21.62-.16 6.39-3.67 12.24-4.48 18.58-1.19 9.31 3.53 18.51 3 27.88-.4 6.81-3.56 13.6-1.91 20.22.69 2.76 2.19 5.27 3 8 1.06 3.65.84 7.52.61 11.31l-.84 13.77c-.34 5.51-.62 11.32 1.84 16.27 3.07 6.17 9.83 9.69 16.55 11.21s13.7 1.45 20.49 2.61c6 1 11.87 3 17.95 3 7.05 0 13.81-2.62 20.36-5.22l24.26-9.63a4.55 4.55 0 003.65-4.69l2.34-18.06c1.6-12.32 3.19-24.84 1.23-37.11-.9-5.63-2.55-11.27-1.84-16.93.75-6 4.14-11.51 4.82-17.55.83-7.42-2.5-14.6-3.65-22-2.61-16.62 5.84-33.84 1.68-50.14-1.63-6.36-5.13-12.3-5.41-18.86-.39-9.25 5.73-18.14 4.12-27.26-1.66-9.47-11.34-15.7-20.84-17.21s-19.17.49-28.77 1.14c-5.82.39-11.72.3-17.39 1.65-15.16 3.63-23.86 6.2-34.23 17.82-2 2.18-5.24 31.61-5.16 34.87a107.75 107.75 0 00.84 10.77 69.91 69.91 0 010 12.5z" class="cls-10"/><path d="M645.74 428.92s67.26 221.62-21.89 211.3C456 620.76 437.65 594.35 432.66 554c6.19-118.79 141.16-133.55 213.08-125.08z" class="cls-9"/><path d="M605.67 999.8v5.05a7.17 7.17 0 007.19 7.17h96.88a7.17 7.17 0 007.18-7.17v-7.11a7.2 7.2 0 00-7.18-7.18h-96.88a7.21 7.21 0 00-7.19 7.18z" class="cls-11"/><path d="M607.65 952.72v16.9a7.28 7.28 0 005.1 7 30.82 30.82 0 0127.67-17.23h43.74A30.82 30.82 0 01712 976.9a7.3 7.3 0 006.9-7.28v-26.39a7.25 7.25 0 00-3.55-6.25 7.09 7.09 0 00-3.74-1.05h-96.67a7.19 7.19 0 00-3.07.69 7.27 7.27 0 00-4.22 6.61z" class="cls-12"/><path d="M608.6 990.17V992a7.07 7.07 0 014.26-1.41h96.88A7.07 7.07 0 01714 992v-1.8a30.84 30.84 0 00-30.83-30.82h-43.74a30.83 30.83 0 00-30.83 30.82zM607.66 654.4c15.6 46.11 4.54 93.38 4.29 117-.18 16.12 15.86-5.52 36.48-17.33 24.1-13.8 57.22-19.54 73-19.54s53.58 3.4 77.79 29.4 23.62 33.43 20.44-10.28-6.24-111.43-6.24-111.43l-202.55-14.91z" class="cls-9"/><path d="M773.71 388.48l-1-.39c-.36-.13-.71-.23-1.06-.34s-.71-.2-1.07-.29-.72-.18-1.1-.25-.8-.15-1.22-.2a20.94 20.94 0 00-2.11-.22h-1.2a23.4 23.4 0 00-23.42 23.41v13.66a29.28 29.28 0 01-58.56 0v-13.68a23.42 23.42 0 00-23.42-23.41h-1.14l-1 .07-.64.07-.56.07-.61.1h-.23a7.37 7.37 0 00-.77.14l-.29.07c-.24.05-.49.11-.73.18-.64.16-1.26.36-1.87.57a23.36 23.36 0 00-15 17 22.46 22.46 0 00-.57 5.1V657c0 1.3 0 2.59.1 3.86v.3c.06 1.08.13 2.15.23 3.22a75.91 75.91 0 001.19 7.92 75.66 75.66 0 0010.88 26.37 76.74 76.74 0 0018.11 19.24l.08.06c1.91 1.43 3.89 2.76 5.93 4l.17.1c1 .62 2 1.21 3.09 1.78h.09c1 .56 2.07 1.1 3.13 1.61l.13.06c1 .51 2.1 1 3.17 1.44l.39.16q3.17 1.34 6.48 2.37l.55.17c1.09.34 2.18.65 3.29.94l.22.05c1 .27 2.1.51 3.15.73l.6.13c1.09.22 2.2.41 3.31.59l.6.08c1 .15 2 .29 3.08.4l.47.05c1.12.11 2.25.19 3.39.26h.76c1.16.06 2.33.09 3.5.09 1.18 0 2.36 0 3.53-.09h.66c1.15-.06 2.3-.15 3.43-.26l.45-.05c1.17-.12 2.33-.27 3.47-.44h.07c1.19-.18 2.38-.4 3.56-.63l.33-.07c1.08-.23 2.15-.46 3.22-.73a76.26 76.26 0 007.39-2.29l.14-.05q3.39-1.24 6.61-2.79l.23-.11c.89-.43 1.78-.87 2.65-1.34A76.09 76.09 0 00788.35 657V410.18a23.4 23.4 0 00-14.64-21.7z" class="cls-1"/><path d="M831.3 877.22v5.36a7.61 7.61 0 01-7.62 7.6H720.9a7.6 7.6 0 01-7.62-7.6V875a7.57 7.57 0 013.1-6.12 7.47 7.47 0 014.52-1.49h102.78a7.44 7.44 0 014.51 1.49 7.55 7.55 0 013.11 6.12z" class="cls-11"/><path d="M723.9 704.91c35.52-29.65 97.35-18.74 105.93 13.92 1.86 7.09-.9 15.52.65 19.54 4.53 11.77-2.16 20.07 0 32.39.89 5 3 10 2.6 15.11-.6 6.81-5.74 12.48-7.56 19.09-1.29 4.63-.89 9.52-.7 14.32.36 9.43-.73 20.05-8.49 26-5.13 4-12.1 5-18.56 6.65-9.11 2.3-17.9 6-27.34 6.69a68.69 68.69 0 01-17.61-1.5c-12-2.28-24.47-6.38-31.71-15.57-5.4-6.87-7.08-15.74-6.64-24.19s2.82-16.66 4.85-24.89a10.58 10.58 0 00.44-4.59 15.18 15.18 0 00-2.12-4.41c-6.52-11.37-2.3-24-2.9-36-.25-4.92-1.87-9.67-1.58-14.63.37-6.32 1.84-18.42 10.74-27.93z" class="cls-10"/><path fill="#adb6bc" d="M767.29 861.27a80.21 80.21 0 01-14.93-1.66c-10.22-2-24.78-5.78-33.2-16.48-6.61-8.4-7.55-18.7-7.18-25.86.39-7.42 2.22-14.66 4-21.66l.93-3.7a8.93 8.93 0 00.41-3.51 9.85 9.85 0 00-1.32-2.77c-.18-.29-.35-.59-.52-.88-4.88-8.5-4.23-17.47-3.59-26.14a89.41 89.41 0 00.36-11 2.5 2.5 0 015-.25 97.47 97.47 0 01-.37 11.62c-.61 8.28-1.18 16.11 2.94 23.28.15.27.31.53.47.8a13.49 13.49 0 011.93 4.38 13 13 0 01-.46 5.67c-.31 1.24-.62 2.48-.94 3.73-1.71 6.77-3.48 13.76-3.85 20.69-.33 6.31.47 15.33 6.12 22.51s15.22 11.8 30.21 14.66a66.49 66.49 0 0017 1.47c6.14-.43 12-2.21 18.12-4.1 2.85-.87 5.81-1.77 8.78-2.52a2.5 2.5 0 011.22 4.84c-2.85.72-5.74 1.61-8.54 2.47-6.16 1.88-12.53 3.83-19.23 4.3-1.15.07-2.26.11-3.36.11z"/><rect width="118.37" height="44.29" x="709.9" y="809.46" class="cls-12" rx="8.28"/><path d="M828.19 867v1.91a7.44 7.44 0 00-4.51-1.49H720.9a7.47 7.47 0 00-4.52 1.49V867a32.71 32.71 0 0132.71-32.7h46.4a32.71 32.71 0 0132.7 32.7z" class="cls-9"/><rect width="195.93" height="144" x="670.55" y="890.17" class="cls-5" rx="9.96"/><path d="M672.1 760.48c-10-51.43-8.83-53.93-10.73-56.32-2.55-3.24-16.47-.28-16.47-.28l-19.26 54.8L641.2 753l7.67 7.52 11-8.23z" class="cls-14"/><path d="M817.79 630.49c5.81 1.25 19.25-2.24 17.1-14.89v-.91c3.72 0 9.08-.73 16.94-2.22 23.56-4.47 93.93-10.39 120.57-13.92 10.57-1.4 19.33-1.93 25.77-3.52C979.53 682.24 894 709.5 831.52 716.49c-35.34 4-63.25 1.42-67.4-.4-7.68-3.39-4.68-10.94-4.87-14.9s-3.56-7.66-4-11.67c-.5-5.06 1.59-5.12.92-10.93-.35-3.07-4.88-4.23-5.41-12.45-.39-6 3.35-6 3.33-11.3 0-6.13-3.35-5.67-3.33-12.61 0-8.6 5.66-12.79 14.27-12.2 13.69 1 9.83-2.56 17.5-7.76 10.97-7.41 17.58 4.43 35.26 8.22z" class="cls-8"/><path d="M1004.47 532.34c3.95 16.43-3.82 20.86 1.56 46.19 3 14-1.5 19-11.27 21.65a120.89 120.89 0 01-18.68 4.07c-26.57 4.09-101.83 8.73-120 10.8-38.32 4.37-23.67-6-25.16-9.41-2.5-5.78-9.23-9 24.51-23.61 87.94-38.06 117-62 134.19-61.37 6.65.23 12.78 3.05 14.85 11.68zM899.47 614.36c-33 6.41-37.12 15.36-45.43 33.19-.67 1.43-1.36 2.92-2.1 4.47-3.19 6.69-14.47 12.53-22.08 9.57-3.77-1.47-5-4.88-3.43-9.84 1.31-4.26 4.27-5 8.35-6.12 6.88-1.81 16.3-4.29 21.91-26.12a1 1 0 00-1.8-.69 28 28 0 01-25.54 15.4 16.29 16.29 0 01-10.07-3.53 10.54 10.54 0 01-1.49-.2l-1.69-.4c2.58 3.59 7.3 5.83 13.17 6.08a29.65 29.65 0 0023.62-10.82c-5.29 14.89-12.6 16.81-18.6 18.4-4.16 1.09-8.09 2.13-9.73 7.43-1.82 5.92-.15 10.38 4.59 12.23 8.72 3.39 21-3.07 24.55-10.55.74-1.56 1.44-3.05 2.11-4.49 6.45-13.85 10.32-22.16 28.22-28.11-11.86 6.91-15.61 16.92-19.27 26.68-4.22 11.24-8.2 21.86-24 28-11.12 4.32-13.36 10.14-13.71 13.22a9.89 9.89 0 004.58 9.31c4.51 3.07 10.88 3.08 16.61 0 6-3.21 8.26-8.71 10.43-14 3-7.22 6-14.65 18.59-17.47-8.58 5.61-10.46 12.68-12.29 19.55s-3.53 13.24-11.83 18a39.75 39.75 0 01-7 3c-5.1 1.79-9.92 3.5-10.13 9.39l2-.25c.3-4.08 3.5-5.44 8.81-7.3a41.59 41.59 0 007.32-3.12c9-5.2 10.89-12.33 12.73-19.23 2.12-7.95 4.12-15.46 16.2-21a1 1 0 00.54-1.14 1 1 0 00-1-.72c-18.45 1.85-22.29 11.25-25.68 19.54-2.14 5.23-4.16 10.17-9.55 13-6.08 3.25-11.53 2.17-14.6.08a8 8 0 01-3.73-7.47c.51-4.5 5.06-8.74 12.47-11.62 16.62-6.46 20.95-18 25.12-29.13 5-13.22 9.64-25.7 33.31-31.36a1 1 0 00.72-1.15 1 1 0 00-1.2-.71z" class="cls-1"/><path d="M981.14 638c.39-.65.77-1.32 1.15-2-5.21-9.25-15.29-16.5-28.11-20.07-16.54-4.62-34.65-2.16-47.26 6.4-27.75 18.87-18.51 36-13.55 45.27 1.06 2 2.37 4.39 2 5-.07.12-.49.32-1.58.32-4.29 0-9.08 2.78-11.66 6.75a11.43 11.43 0 00-.94 11.21c1.43 3.23 3.59 5.27 6.42 6a11.42 11.42 0 006-.1 7.72 7.72 0 00-1.56 4.15 5.94 5.94 0 00.38 2.36l1.86-.63a4 4 0 01-.29-1.64c.09-2.16 1.9-4.53 5.23-6.86a1 1 0 10-1.12-1.6c-2.46 1.72-6.55 3.4-10 2.44-2.23-.62-4-2.29-5.16-5a9.46 9.46 0 01.79-9.36c2.24-3.45 6.37-5.85 10-5.85 1.07 0 2.57-.14 3.26-1.28.91-1.53-.24-3.66-2-6.89-4.58-8.62-13.28-24.76 13-42.62 12.14-8.25 29.63-10.61 45.64-6.14 12.81 3.54 22.73 10.86 27.5 20.14z" class="cls-1"/><path d="M912.77 667.3a4.8 4.8 0 01-1.62-.28c-1.75-.63-3.21-2.35-4.57-5.4-3.34-7.49-5.32-18.54.09-25 4.3-5.16 12.2-6.38 23.48-3.63 11.49 2.79 16.15 12.5 14.7 20.21-1.19 6.3-5.94 9.84-12.13 9s-10.52 1.36-14.06 3.1c-2.14 1.05-4.06 2-5.89 2zm6.87-33.83c-5.2 0-9 1.46-11.47 4.37-4.84 5.8-2.92 16 .19 23 1.12 2.5 2.25 3.93 3.45 4.37 1.54.55 3.5-.42 6-1.65 3.58-1.76 8.48-4.18 15.18-3.29 6.16.82 9.18-3.31 10-7.45 1.28-6.82-2.92-15.43-13.24-17.95a43 43 0 00-10.11-1.4zM925.64 676.6c-7.09.51-11.38 2.26-12.75 5.2s.26 6.64 5 11.21l1.86-.91c-4.3-4.06-6.05-7.32-5-9.48 2-4.37 14.62-5 27-3.46l2.33-1.64a88.84 88.84 0 00-18.44-.92z" class="cls-1"/><rect width="220" height="22" x="301.89" y="725.4" class="cls-4" rx="10.1"/><rect width="250" height="24" x="54.48" y="483.12" class="cls-2" rx="9.47"/><rect width="230" height="24" x="277.31" y="268.79" class="cls-4" rx="10.05"/><path d="M227.66 1005.37l-37.44 11.47a15.86 15.86 0 01-13.08-1.74L148 996.79a3.19 3.19 0 01.63-5.7L184 978.54a10.68 10.68 0 018.88.79l35.45 20.22a3.19 3.19 0 01-.67 5.82z" class="cls-4"/><path d="M532.23 1019.93l-37.71 11.55a11.77 11.77 0 01-9.71-1.29l-29.49-18.55a3.87 3.87 0 01.76-6.92L488.94 993a13.29 13.29 0 0111 1l33 18.85a3.88 3.88 0 01-.71 7.08z" class="cls-3"/><path d="M382 979.5l-40.42 4.89a12.64 12.64 0 01-9.48-2.74l-15.74-12.84a2.29 2.29 0 011.11-4l38-5.66A10.36 10.36 0 01363 961l20 14.41a2.28 2.28 0 01-1 4.09z" class="cls-6"/><path d="M424.81 537.08c-3.65 16.5 4.21 20.78-.72 46.21-2.73 14.08 1.84 19 11.66 21.45a121.39 121.39 0 0018.75 3.73c26.64 3.61 102 6.89 120.15 8.63 38.39 3.68 23.55-6.38 25-9.86 2.39-5.82 9.07-9.17-24.93-23.16-88.62-36.47-118.15-59.84-135.28-58.94-6.63.34-12.71 3.28-14.63 11.94z" class="cls-1"/><rect width="62.66" height="62.66" x="737.19" y="930.84" class="cls-14" rx="7.19"/><path d="M759 938.29a3.09 3.09 0 013.08 3.08v11.3a3.09 3.09 0 01-3.08 3.08h-11.3a3.09 3.09 0 01-3.09-3.08v-11.3a3.09 3.09 0 013.09-3.08H759m0-3.09h-11.3a6.17 6.17 0 00-6.17 6.17v11.3a6.16 6.16 0 006.17 6.16H759a6.16 6.16 0 006.16-6.16v-11.3a6.16 6.16 0 00-6.16-6.17zM789.32 938.29a3.08 3.08 0 013.08 3.08v11.3a3.08 3.08 0 01-3.08 3.08H778a3.08 3.08 0 01-3.08-3.08v-11.3a3.08 3.08 0 013.08-3.08h11.3m0-3.09H778a6.16 6.16 0 00-6.16 6.17v11.3a6.16 6.16 0 006.16 6.16h11.3a6.16 6.16 0 006.16-6.16v-11.3a6.16 6.16 0 00-6.16-6.17zM759 968.59a3.09 3.09 0 013.08 3.08V983a3.09 3.09 0 01-3.08 3.08h-11.3a3.09 3.09 0 01-3.09-3.08v-11.3a3.09 3.09 0 013.09-3.08H759m0-3.08h-11.3a6.16 6.16 0 00-6.17 6.16V983a6.16 6.16 0 006.17 6.16H759a6.16 6.16 0 006.16-6.16v-11.3a6.16 6.16 0 00-6.16-6.16z" class="cls-12"/><rect width="10.27" height="10.27" x="748.23" y="941.88" class="cls-12" rx="2.05"/><rect width="10.27" height="10.27" x="748.23" y="972.18" class="cls-12" rx="2.05"/><rect width="6.16" height="6.16" x="771.86" y="965.51" class="cls-12" rx="2.05"/><rect width="6.16" height="6.16" x="789.32" y="965.51" class="cls-12" rx="2.05"/><rect width="6.16" height="6.16" x="780.59" y="974.24" class="cls-12" rx="2.05"/><rect width="6.16" height="6.16" x="789.32" y="982.97" class="cls-12" rx="2.05"/><rect width="6.16" height="6.16" x="771.86" y="982.97" class="cls-12" rx="2.05"/><rect width="10.27" height="10.27" x="778.53" y="941.88" class="cls-12" rx="2.05"/><rect width="62.66" height="62.66" x="365.4" y="322.27" class="cls-14" rx="7.19"/><path d="M387.23 329.71a3.09 3.09 0 013.08 3.09v11.29a3.09 3.09 0 01-3.08 3.09h-11.3a3.09 3.09 0 01-3.08-3.09V332.8a3.09 3.09 0 013.08-3.09h11.3m0-3.08h-11.3a6.16 6.16 0 00-6.16 6.17v11.29a6.16 6.16 0 006.16 6.17h11.3a6.17 6.17 0 006.17-6.17V332.8a6.17 6.17 0 00-6.17-6.17zM417.53 329.71a3.1 3.1 0 013.09 3.09v11.29a3.1 3.1 0 01-3.09 3.09h-11.29a3.1 3.1 0 01-3.09-3.09V332.8a3.1 3.1 0 013.09-3.09h11.29m0-3.08h-11.29a6.17 6.17 0 00-6.17 6.17v11.29a6.17 6.17 0 006.17 6.17h11.29a6.17 6.17 0 006.17-6.17V332.8a6.17 6.17 0 00-6.17-6.17zM387.23 360a3.08 3.08 0 013.08 3.08v11.3a3.08 3.08 0 01-3.08 3.08h-11.3a3.08 3.08 0 01-3.08-3.08V363.1a3.08 3.08 0 013.08-3.08h11.3m0-3.08h-11.3a6.16 6.16 0 00-6.16 6.16v11.3a6.16 6.16 0 006.16 6.16h11.3a6.16 6.16 0 006.17-6.16v-11.3a6.16 6.16 0 00-6.17-6.16z" class="cls-12"/><rect width="10.27" height="10.27" x="376.45" y="333.31" class="cls-12" rx="2.05"/><rect width="10.27" height="10.27" x="376.45" y="363.61" class="cls-12" rx="2.05"/><rect width="6.16" height="6.16" x="400.07" y="356.94" class="cls-12" rx="2.05"/><rect width="6.16" height="6.16" x="417.53" y="356.94" class="cls-12" rx="2.05"/><rect width="6.16" height="6.16" x="408.8" y="365.67" class="cls-12" rx="2.05"/><rect width="6.16" height="6.16" x="417.53" y="374.4" class="cls-12" rx="2.05"/><rect width="6.16" height="6.16" x="400.07" y="374.4" class="cls-12" rx="2.05"/><rect width="10.27" height="10.27" x="406.75" y="333.31" class="cls-12" rx="2.05"/><rect width="62.66" height="62.66" x="147.15" y="538.83" class="cls-14" rx="7.19"/><path d="M169 546.28a3.08 3.08 0 013.08 3.08v11.3a3.08 3.08 0 01-3.08 3.08h-11.3a3.08 3.08 0 01-3.08-3.08v-11.3a3.08 3.08 0 013.08-3.08H169m0-3.08h-11.3a6.16 6.16 0 00-6.16 6.16v11.3a6.16 6.16 0 006.16 6.16H169a6.16 6.16 0 006.16-6.16v-11.3a6.16 6.16 0 00-6.16-6.16zM199.28 546.28a3.08 3.08 0 013.08 3.08v11.3a3.08 3.08 0 01-3.08 3.08H188a3.08 3.08 0 01-3.08-3.08v-11.3a3.08 3.08 0 013.08-3.08h11.3m0-3.08H188a6.16 6.16 0 00-6.16 6.16v11.3a6.16 6.16 0 006.16 6.16h11.3a6.16 6.16 0 006.16-6.16v-11.3a6.16 6.16 0 00-6.16-6.16zM169 576.58a3.08 3.08 0 013.08 3.08V591a3.08 3.08 0 01-3.08 3h-11.3a3.08 3.08 0 01-3.1-3v-11.3a3.08 3.08 0 013.08-3.08H169m0-3.08h-11.3a6.16 6.16 0 00-6.16 6.16V591a6.16 6.16 0 006.16 6.17H169a6.16 6.16 0 006.16-6.17v-11.3a6.16 6.16 0 00-6.16-6.2z" class="cls-12"/><rect width="10.27" height="10.27" x="158.19" y="549.87" class="cls-12" rx="2.05"/><rect width="10.27" height="10.27" x="158.19" y="580.18" class="cls-12" rx="2.05"/><rect width="6.16" height="6.16" x="181.82" y="573.5" class="cls-12" rx="2.05"/><rect width="6.16" height="6.16" x="199.28" y="573.5" class="cls-12" rx="2.05"/><rect width="6.16" height="6.16" x="190.55" y="582.23" class="cls-12" rx="2.05"/><rect width="6.16" height="6.16" x="199.28" y="590.96" class="cls-12" rx="2.05"/><rect width="6.16" height="6.16" x="181.82" y="590.96" class="cls-12" rx="2.05"/><rect width="10.27" height="10.27" x="188.5" y="549.87" class="cls-12" rx="2.05"/><path d="M613.24 631.84c-5.78 1.35-19.29-1.9-17.36-14.58v-.91c-3.71 0-9.08-.57-17-1.91-23.64-4.05-94.1-8.7-120.81-11.74-10.59-1.21-19.35-1.59-25.82-3.06 20.21 86.86 106.27 112.57 168.82 118.43 35.4 3.33 63.26.28 67.38-1.62 7.61-3.52 4.48-11 4.6-15s3.42-7.72 3.74-11.74c.41-5.07-1.68-5.09-1.12-10.91.3-3.08 4.81-4.32 5.19-12.54.28-6-3.46-6-3.53-11.25-.09-6.13 3.25-5.73 3.1-12.66-.19-8.6-5.89-12.69-14.49-11.94-13.67 1.2-9.87-2.39-17.63-7.45-11.07-7.19-17.46 4.77-35.07 8.88z" class="cls-8"/><rect width="62.66" height="62.66" x="380.56" y="778.25" class="cls-14" rx="7.19"/><path d="M402.38 785.7a3.09 3.09 0 013.09 3.08v11.3a3.09 3.09 0 01-3.09 3.08h-11.3a3.08 3.08 0 01-3.08-3.08v-11.3a3.08 3.08 0 013.08-3.08h11.3m0-3.08h-11.3a6.16 6.16 0 00-6.16 6.16v11.3a6.16 6.16 0 006.16 6.16h11.3a6.16 6.16 0 006.17-6.16v-11.3a6.16 6.16 0 00-6.17-6.16zM432.69 785.7a3.08 3.08 0 013.08 3.08v11.3a3.08 3.08 0 01-3.08 3.08h-11.3a3.08 3.08 0 01-3.08-3.08v-11.3a3.08 3.08 0 013.08-3.08h11.3m0-3.08h-11.3a6.16 6.16 0 00-6.17 6.16v11.3a6.16 6.16 0 006.17 6.16h11.3a6.16 6.16 0 006.16-6.16v-11.3a6.16 6.16 0 00-6.16-6.16zM402.38 816a3.09 3.09 0 013.09 3.08v11.3a3.09 3.09 0 01-3.09 3.08h-11.3a3.08 3.08 0 01-3.08-3.08v-11.3a3.08 3.08 0 013.08-3.08h11.3m0-3.08h-11.3a6.16 6.16 0 00-6.16 6.16v11.3a6.16 6.16 0 006.16 6.17h11.3a6.17 6.17 0 006.17-6.17v-11.3a6.16 6.16 0 00-6.17-6.16z" class="cls-12"/><rect width="10.27" height="10.27" x="391.6" y="789.29" class="cls-12" rx="2.05"/><rect width="10.27" height="10.27" x="391.6" y="819.6" class="cls-12" rx="2.05"/><rect width="6.16" height="6.16" x="415.22" y="812.92" class="cls-12" rx="2.05"/><rect width="6.16" height="6.16" x="432.69" y="812.92" class="cls-12" rx="2.05"/><rect width="6.16" height="6.16" x="423.96" y="821.65" class="cls-12" rx="2.05"/><rect width="6.16" height="6.16" x="432.69" y="830.38" class="cls-12" rx="2.05"/><rect width="6.16" height="6.16" x="415.22" y="830.38" class="cls-12" rx="2.05"/><rect width="10.27" height="10.27" x="421.9" y="789.29" class="cls-12" rx="2.05"/><path d="M638.75 573.83c10 51.43 8.82 53.93 10.72 56.33 2.55 3.23 16.47.27 16.47.27l19.26-54.8-16.46 6-7.59-8.75-8.26 8.67z" class="cls-14"/><rect width="524" height="30" x="309.37" y="93.07" class="cls-2" rx="15"/><path d="M502.47 604.75c-7.86 7.51-7.58 20.7-7.1 24.61l-15.17-6.59c-.24-2.71.49-14.21 6-18l-2.12-.32c-5.4 3.75-6.09 14-5.9 17.3l-11.34-6.18c-.83-2.1-.5-8.8 2.67-12.82l-1.95-.29c-2.39 3.29-3.25 8.51-3.2 11.87l-11-6c-1.07-3.5-.57-6.13 2.36-8l-2-.27c-3 1-3.3 4.35-3 6.94 0 0-23.9-12.12-25.35-12.69.29.92 18.14 21.22 18.14 21.22a23.33 23.33 0 00-8.48 2.69c.28.59.55 1.19.83 1.78a22 22 0 019.58-2.64l8.53 8.11c-4.4.37-11.1 2.33-13.28 4.46.34.59.68 1.19 1 1.78 3.6-3 11.12-4.24 14.17-4.42l9.2 8.75c-5.52.91-13.17 4.69-16 7.94.39.53.79 1.06 1.19 1.58 0 0 .05 0 .07-.06 3-3.51 10.64-7.31 16.57-7.71l12.8 12a34 34 0 00-20.1 11.09l1.39 1.37c4.77-5.31 13.27-9.24 21.36-10.62 0 0 .06 0 .1-.06a.38.38 0 00.1 0l.08-.06.1-.08a.65.65 0 00.15-.18l.06-.09a.87.87 0 00.1-.31.76.76 0 000-.3c-1.06-5.28 5.81-15.86 14-18.62a.91.91 0 00.41-.54v-.1a1 1 0 000-.39c-.1-.54-2.48-17.33 7.07-25.77zm-57 10l-13-14.88 18.34 9.41c-2.81.58-4.88 4.33-5.35 5.43zm10.16 9.66l-8.63-8.25c.54-1.49 2.56-5.86 5.85-5.84h.07l10.43 5.68c-4.7 1.27-7.26 7-7.73 8.37zM467 635.2l-9.76-9.29c.08-.87 3.07-8.07 8.58-8.64l12 6.48c-3.96 1.03-8.07 5.9-10.82 11.45zm14 13.15l-12.53-11.74c3.5-7.44 8.56-11.24 11.24-11.76.05 0 .07 0 .11-.07l14.75 6.39c-7.73 2.99-13.17 11.98-13.57 17.18zM578.53 690a1 1 0 00-.92-.76 57.86 57.86 0 01-10.61-1.17c6.61-2.37 11.7-9.17 11.94-9.49a1 1 0 00-1.3-1.41 18.61 18.61 0 01-7.93 3.13c2.57-3.38 3.76-6.62 3.43-9.48-.92-8-7-12.1-12.46-13.29-5.73-1.26-11.36.42-14.68 4.21-2.28-6.86-7.39-12.2-13.43-13.85h-.16a13.69 13.69 0 00-13.71 4 14.74 14.74 0 00-3.9 8.87c-10.64 3.38-17.66 13.38-17.76 13.52a1 1 0 00.16 1.29 1 1 0 001.29 0 21.84 21.84 0 0112.66-5.32c-5.6 4.64-5.48 14.08-5.47 14.54a1 1 0 00.73.93 1 1 0 001.09-.53 13.15 13.15 0 0111-7.72 58.25 58.25 0 0017 19.83 3.06 3.06 0 001.06.52 4.26 4.26 0 001 .12c3.93 0 9.19-1.5 14.84-4.31.74.33 1.47.62 2.17.88 9.65 3.51 22.84-3.14 23.4-3.42a1 1 0 00.56-1.09zm-58.43-36.78a11.84 11.84 0 0112-3.45c5.92 1.62 10.87 7.26 12.6 14.37a1 1 0 00.8.74 1 1 0 001-.46c3-4.89 9.08-6 13.83-5s10.13 4.64 10.94 11.61c.3 2.67-1.11 5.88-4.06 9.3-2.91-.2-6.17-1.21-10.57-2.9-5.28-2-10-5.48-14.64-8.82-4.15-3-8.06-5.84-12-7.4a21.92 21.92 0 00-13.06-1 12.51 12.51 0 013.16-6.99zM537.64 696a1.37 1.37 0 01-.93-.24 56.71 56.71 0 01-16-18.34 17.86 17.86 0 015.88 1.19c2.21.88 5.77 3.16 9.88 5.8a159.21 159.21 0 0013.73 8.16c-4.8 2.19-9.3 3.43-12.56 3.43zm17.66-3.31c-5.35-1.95-12-6.19-17.78-9.92-4.2-2.69-7.83-5-10.21-6-4.52-1.81-13.63-2.87-19.34 4.1.61-3.75 2.36-9.1 7.28-10.71a1 1 0 00.67-1 1 1 0 00-.73-.85h-.12a24.36 24.36 0 00-11.87 2c5.32-5.1 14.83-11.56 26-7.18 3.75 1.46 7.56 4.23 11.6 7.16 4.71 3.42 9.57 6.95 15.09 9.07 4.8 1.84 8.38 2.92 11.64 3.06h.09a15.4 15.4 0 006.2-1c-2.48 2.33-6 4.94-9.75 5.5a1 1 0 00-.69.46 1.18 1.18 0 000 1.18c.76 1.39 5.88 2.14 10 2.48-4.5 1.6-12.19 3.77-18.08 1.63zM563.34 641.69l6.06-2.23a1 1 0 10-.68-1.83l-5.65 2.08.91-7.34a1 1 0 10-1.93-.24l-.94 7.55-5.79-2.92a1 1 0 00-.88 1.75l5.62 2.82-4.38 3.26a1 1 0 00-.2 1.37 1 1 0 00.46.34 1 1 0 00.91-.14l4.77-3.56 3.33 5.63a1 1 0 00.51.42.92.92 0 00.82-.08 1 1 0 00.35-1.33zM482.93 671.66l6.06-2.22a1 1 0 00.58-1.26 1 1 0 00-1.26-.57l-5.65 2.07.91-7.33a1 1 0 00-1.93-.25l-.94 7.56-5.79-2.92a1 1 0 00-.88 1.74l5.62 2.83-4.38 3.26a1 1 0 00-.2 1.37.94.94 0 00.46.33 1 1 0 00.91-.13l4.77-3.56 3.33 5.63a1 1 0 00.51.42 1 1 0 00.82-.08 1 1 0 00.35-1.34zM593.87 705.71l-5.87-2.33 4.08-3.63a1 1 0 10-1.3-1.45l-4.44 4-3.81-5.31a1 1 0 10-1.58 1.14l3.75 5.24-5.83 2.75a1 1 0 00-.47 1.29 1 1 0 001.3.47l5.44-2.56-.26 7.39a1 1 0 00.64 1 .8.8 0 00.3.06 1 1 0 001-.94l.27-7.61 6 2.4a1 1 0 00.69-1.83zM620.57 644.59l-10.44-6.79-.15-5.69a17.84 17.84 0 01-2-.18l.17 6.44a1 1 0 00.46.82l9.18 6-10.33 3.65a1 1 0 00-.63.69L604 660.08l-6.67-8.69a1 1 0 00-.84-.39l-10.94.56 6.2-9a1 1 0 00.11-.93l-3.92-10.23 10.51 3.11a1 1 0 00.91-.18l4.35-3.52a15.16 15.16 0 01-2-1l-3.21 2.6-11.94-3.54a1 1 0 00-1.22 1.32l4.46 11.63-7.06 10.26a1 1 0 00-.05 1.06 1.56 1.56 0 00.16.2 1 1 0 00.77.31l12.44-.65 7.58 9.88a1 1 0 001 .37 1 1 0 00.77-.72l3.23-12 11.74-4.15a1 1 0 00.66-.83 1 1 0 00-.47-.96zM541.63 621.61a1.66 1.66 0 000-.22.9.9 0 000-.16c0-.07-.07-.12-.1-.19a1.7 1.7 0 01-.1-.14l-.14-.11a.88.88 0 00-.17-.12.66.66 0 00-.15 0l-.15-.05H540.39l-.13.07a.64.64 0 00-.19.13.75.75 0 00-.11.13.81.81 0 00-.12.18c-.51 1.22-1.63 1.78-2.92 2.44a7.51 7.51 0 00-3.78 3.21 1 1 0 00.45 1.34l.2.08a1 1 0 001.14-.53 5.76 5.76 0 012.89-2.32 15.17 15.17 0 001.36-.74 17.27 17.27 0 01-11.29 11.78l-5.91-22.59 5.07-1.32a1 1 0 00.71-1.22 1 1 0 00-1.22-.71l-5.06 1.32-1.3-5a5.46 5.46 0 003-6.31 5.46 5.46 0 00-10.56 2.76 5.49 5.49 0 004 3.92 5.28 5.28 0 001.69.13l1.29 5-5.06 1.32a1 1 0 00-.72 1.22 1 1 0 00.73.72.91.91 0 00.49 0l5.07-1.32 5.91 22.59a17.3 17.3 0 01-15.61-4.74h1.54a5.73 5.73 0 013.66.6 1 1 0 101.13-1.64 7.47 7.47 0 00-4.87-1c-1.45.06-2.7.11-3.75-.7a.91.91 0 00-.17-.09 1.07 1.07 0 00-.19-.07h-.53a.72.72 0 00-.2.09c-.05 0-.07.08-.11.11s-.09.06-.12.11a1 1 0 00-.09.18.61.61 0 00-.07.17 1.15 1.15 0 000 .19 1.2 1.2 0 000 .19 1.09 1.09 0 00.05.17c0 .07.05.13.08.19a19.26 19.26 0 0035.14-9.19zm-27.24-18.73a3.47 3.47 0 014.17-4.24 3.51 3.51 0 01.92.38 3.46 3.46 0 01-.87 6.33 3.46 3.46 0 01-4.22-2.47z" class="cls-1"/><rect width="62.66" height="62.66" x="132" y="758.61" class="cls-14" rx="7.19"/><path d="M153.83 766.06a3.08 3.08 0 013.08 3.08v11.3a3.08 3.08 0 01-3.08 3.08h-11.3a3.08 3.08 0 01-3.08-3.08v-11.3a3.08 3.08 0 013.08-3.08h11.3m0-3.09h-11.3a6.17 6.17 0 00-6.17 6.17v11.3a6.16 6.16 0 006.17 6.16h11.3a6.16 6.16 0 006.16-6.16v-11.3a6.16 6.16 0 00-6.16-6.17zM184.13 766.06a3.08 3.08 0 013.08 3.08v11.3a3.08 3.08 0 01-3.08 3.08h-11.3a3.08 3.08 0 01-3.08-3.08v-11.3a3.08 3.08 0 013.08-3.08h11.3m0-3.09h-11.3a6.16 6.16 0 00-6.16 6.17v11.3a6.16 6.16 0 006.16 6.16h11.3a6.16 6.16 0 006.16-6.16v-11.3a6.16 6.16 0 00-6.16-6.17zM153.83 796.36a3.08 3.08 0 013.08 3.08v11.3a3.08 3.08 0 01-3.08 3.08h-11.3a3.08 3.08 0 01-3.08-3.08v-11.3a3.08 3.08 0 013.08-3.08h11.3m0-3.08h-11.3a6.16 6.16 0 00-6.17 6.16v11.3a6.16 6.16 0 006.17 6.16h11.3a6.16 6.16 0 006.16-6.16v-11.3a6.16 6.16 0 00-6.16-6.16z" class="cls-12"/><rect width="10.27" height="10.27" x="143.04" y="769.65" class="cls-12" rx="2.05"/><rect width="10.27" height="10.27" x="143.04" y="799.95" class="cls-12" rx="2.05"/><rect width="6.16" height="6.16" x="166.67" y="793.28" class="cls-12" rx="2.05"/><rect width="6.16" height="6.16" x="184.13" y="793.28" class="cls-12" rx="2.05"/><rect width="6.16" height="6.16" x="175.4" y="802.01" class="cls-12" rx="2.05"/><rect width="6.16" height="6.16" x="184.13" y="810.74" class="cls-12" rx="2.05"/><rect width="6.16" height="6.16" x="166.67" y="810.74" class="cls-12" rx="2.05"/><rect width="10.27" height="10.27" x="173.34" y="769.65" class="cls-12" rx="2.05"/></g></g></svg>