<svg xmlns="http://www.w3.org/2000/svg" viewBox="0 0 1025.52 1038.54"><defs><style>.cls-1{fill:#e2e6e9}.cls-2{fill:#f5f7f8}.cls-3{fill:#d0d5da}.cls-4{fill:#e6eaed}.cls-5{fill:#dee2e5}.cls-6{fill:#d0d5d9}.cls-11,.cls-17,.cls-7{fill:none}.cls-7{stroke:#e6eaed}.cls-17,.cls-7{stroke-linecap:round;stroke-linejoin:round}.cls-7{stroke-width:8px}.cls-10{fill:#e7e8ea}.cls-12{fill:#c5cdd0}.cls-13{fill:#97a4ac}.cls-14{fill:#b4bdc2}.cls-15{fill:#dfe3e6}.cls-16{fill:#d7dbdb}.cls-17{stroke:#adb6bc;stroke-width:5px}</style></defs><g><g><rect width="201.05" height="154.62" x="679.88" y="729.28" class="cls-1" rx="10.37"/><rect width="220" height="22" x="670.41" y="723.12" class="cls-1" rx="10.1"/><rect width="62.66" height="62.66" x="749.08" y="775.97" class="cls-2" rx="7.19"/><path d="M770.91 783.42a3.08 3.08 0 013.09 3.08v11.3a3.08 3.08 0 01-3.08 3.08h-11.3a3.08 3.08 0 01-3.08-3.08v-11.3a3.08 3.08 0 013.08-3.08h11.3m0-3.09h-11.3a6.17 6.17 0 00-6.17 6.17v11.3a6.16 6.16 0 006.17 6.16h11.3a6.16 6.16 0 006.16-6.16v-11.3a6.16 6.16 0 00-6.16-6.17zM801.21 783.42a3.08 3.08 0 013.08 3.08v11.3a3.08 3.08 0 01-3.08 3.08h-11.3a3.08 3.08 0 01-3.08-3.08v-11.3a3.08 3.08 0 013.08-3.08h11.3m0-3.09h-11.3a6.16 6.16 0 00-6.16 6.17v11.3a6.16 6.16 0 006.16 6.16h11.3a6.16 6.16 0 006.16-6.16v-11.3a6.16 6.16 0 00-6.16-6.17zM770.91 813.72a3.08 3.08 0 013.09 3.08v11.3a3.08 3.08 0 01-3.08 3.08h-11.3a3.08 3.08 0 01-3.08-3.08v-11.3a3.08 3.08 0 013.08-3.08h11.3m0-3.08h-11.3a6.16 6.16 0 00-6.17 6.16v11.3a6.16 6.16 0 006.17 6.16h11.3a6.16 6.16 0 006.16-6.16v-11.3a6.16 6.16 0 00-6.16-6.16z" class="cls-3"/><rect width="10.27" height="10.27" x="760.12" y="787.01" class="cls-3" rx="2.05"/><rect width="10.27" height="10.27" x="760.12" y="817.31" class="cls-3" rx="2.05"/><rect width="6.16" height="6.16" x="783.75" y="810.64" class="cls-3" rx="2.05"/><rect width="6.16" height="6.16" x="801.21" y="810.64" class="cls-3" rx="2.05"/><rect width="6.16" height="6.16" x="792.48" y="819.37" class="cls-3" rx="2.05"/><rect width="6.16" height="6.16" x="801.21" y="828.1" class="cls-3" rx="2.05"/><rect width="6.16" height="6.16" x="783.75" y="828.1" class="cls-3" rx="2.05"/><rect width="10.27" height="10.27" x="790.42" y="787.01" class="cls-3" rx="2.05"/><rect width="670.37" height="863.16" x="46.07" y="61.98" class="cls-4" rx="56.33"/><path d="M671.44 874.44H327.07l-236-137.01V130.06h580.37v744.38z" class="cls-2"/><rect width="339.83" height="89.47" x="211.34" y="85.21" class="cls-5" rx="44.74"/><path d="M465.55 0H297a14.74 14.74 0 00-14.62 16.69l11 82.4a14.76 14.76 0 0014.62 12.8h146.56a14.76 14.76 0 0014.62-12.8l11-82.4A14.74 14.74 0 00465.55 0z" class="cls-5"/><rect width="140" height="14" x="311.26" y="19.4" class="cls-6" rx="6.99"/><rect width="100" height="14" x="331.26" y="48.94" class="cls-6" rx="6.9"/><rect width="60" height="14" x="351.26" y="78.94" class="cls-6" rx="7"/><rect width="100" height="100" x="151.26" y="242.25" class="cls-7" rx="20"/><rect width="100" height="100" x="151.26" y="412.25" class="cls-7" rx="20"/><rect width="100" height="100" x="151.26" y="582.25" class="cls-7" rx="20"/><path d="M171.7 279.11l27.56 40.12 35.19-59.15M171.7 449.11l27.56 40.12 35.19-59.15M171.7 619.11l27.56 40.12 35.19-59.14" class="cls-7"/><path d="M273.49 964.83H39a16.6 16.6 0 01-16.57-15.78L11.26 720.78h290l-11.2 228.27a16.59 16.59 0 01-16.57 15.78z" class="cls-4"/><rect width="312.51" height="35.56" y="705.37" class="cls-4" rx="11.85"/><rect width="171.98" height="119.2" x="235.26" y="629.89" class="cls-5" rx="10.9"/><rect width="80.76" height="80.76" x="114.1" y="800.4" class="cls-2" rx="9.27"/><path d="M142.23 810a4 4 0 014 4v14.57a4 4 0 01-4 4h-14.56a4 4 0 01-4-4V814a4 4 0 014-4h14.56m0-4h-14.56a7.94 7.94 0 00-7.94 7.94v14.57a7.94 7.94 0 007.94 7.94h14.56a8 8 0 008-7.94V814a8 8 0 00-8-7.94zM181.29 810a4 4 0 014 4v14.57a4 4 0 01-4 4h-14.56a4 4 0 01-4-4V814a4 4 0 014-4h14.56m0-4h-14.56a8 8 0 00-7.95 7.94v14.57a8 8 0 007.95 7.94h14.56a7.94 7.94 0 007.94-7.94V814a7.94 7.94 0 00-7.94-7.94zM142.23 849.06a4 4 0 014 4v14.56a4 4 0 01-4 4h-14.56a4 4 0 01-4-4V853a4 4 0 014-4h14.56m0-4h-14.56a7.93 7.93 0 00-7.94 7.94v14.56a7.94 7.94 0 007.94 7.95h14.56a8 8 0 008-7.95V853a7.94 7.94 0 00-8-7.94z" class="cls-3"/><rect width="13.24" height="13.24" x="128.33" y="814.64" class="cls-3" rx="2.65"/><rect width="13.24" height="13.24" x="128.33" y="853.69" class="cls-3" rx="2.65"/><rect width="7.94" height="7.94" x="158.78" y="845.09" class="cls-3" rx="2.65"/><rect width="7.94" height="7.94" x="181.29" y="845.09" class="cls-3" rx="2.65"/><rect width="7.94" height="7.94" x="170.04" y="856.34" class="cls-3" rx="2.65"/><rect width="7.94" height="7.94" x="181.29" y="867.59" class="cls-3" rx="2.65"/><rect width="7.94" height="7.94" x="158.78" y="867.59" class="cls-3" rx="2.65"/><rect width="13.24" height="13.24" x="167.39" y="814.64" class="cls-3" rx="2.65"/><path fill="none" stroke="#c5cdd0" stroke-linecap="round" stroke-linejoin="round" stroke-width="8" d="M753 800.91c-7.49-48.29-16.11-124.79 85.84-198.31 85.55-61.7 92.39-112.37 74.48-212.91-8.49-47.66-72.2-21.46-73.74-21.46s-120.45 5.14-120.45 5.14l-41.19 8.23 7.35 387.26z"/><path fill="none" stroke="#c5cdd0" stroke-miterlimit="10" stroke-width="8" d="M567.71 631.81c1.2 13.48-.65 26.51-18.26 30.59-5.79 1.34-19.52-1-17.57-13.66v-.91c-3.72 0-9.08-.58-17-1.94-23.63-4.09-94.08-8.87-120.78-12-10.59-1.23-19.36-1.62-25.83-3.1 20.06 86.89 106.07 112.76 168.61 118.73 35.39 3.39 63.26.4 67.38-1.49 7.62-3.51 4.5-11 4.63-15s3.43-7.71 3.77-11.73c.42-5.07-2.4-6.69-1.82-12.51.3-3.07 2-4.28 3.38-6.56a12.8 12.8 0 001.75-5.65c.71-7.09-3.64-10.16-3.64-10.16s70.25 13.18 71.68-6.06c2.43-32.44-103.8 5.52-93.58-35.58 6.92-27.89 4.88-52-16.6-49.12-13.75 1.87-7.59 19.34-6.12 36.15z"/><path d="M753 800.91c-7.49-48.29-15.4-124.27 86.55-197.8 85.56-61.7 91.68-112.88 73.77-213.42-8.49-47.66-72.2-21.46-73.74-21.46s-120.45 5.14-120.45 5.14l-41.19 8.23 7.35 387.26z" class="cls-10"/><path d="M812.17 503.86a25.62 25.62 0 01-3-4.67L798 504.25a1.73 1.73 0 01-1 1.4 1.75 1.75 0 01-1.44-3.2 1.73 1.73 0 011.72.16l11.2-5.05a26.59 26.59 0 01-1.56-5.33L784 495.52A48.81 48.81 0 00794.72 519zM783.35 487.68a48.57 48.57 0 00.39 6.06l22.85-3.29c-.09-.91-.15-1.83-.15-2.77s.06-1.86.15-2.77l-12.41-1.74a1.76 1.76 0 11.25-1.79l12.42 1.74a26 26 0 011.57-5.33l-21-9.59a48.52 48.52 0 00-4.07 19.48zM817.58 534.31l6.52-22.17a25.71 25.71 0 01-5.05-2.32L812.49 520a1.73 1.73 0 01-.09 1.73 1.76 1.76 0 01-3-1.9 1.79 1.79 0 011.54-.81l6.56-10.21a26.38 26.38 0 01-4.19-3.63l-17.41 15.16a49 49 0 0021.68 13.97zM788.15 466.56l21 9.6a25.76 25.76 0 013.1-4.78l-9.25-7.85a1.76 1.76 0 11.58-3 1.74 1.74 0 01.59 1.63l9.27 7.87a25.86 25.86 0 014.08-3.52l-12.49-19.44a49.26 49.26 0 00-16.88 19.49zM845.12 534.81l-6.52-22.16a25.41 25.41 0 01-5.48.78v12.13a1.74 1.74 0 01.86 1.5 1.76 1.76 0 01-3.52 0 1.74 1.74 0 01.86-1.5v-12.13a25.6 25.6 0 01-5.5-.78l-6.51 22.16a48.73 48.73 0 0025.81 0zM872 456.28a51.05 51.05 0 016.19 10 .47.47 0 01.06.09.61.61 0 010 .13 50 50 0 013.69 11.32l8.85-16.89zM890.45 459a65.36 65.36 0 00-21.6-24.89l1.55 19.94zM880.45 495.52l-22.87-3.29a25.17 25.17 0 01-1.56 5.33l11 5a1.75 1.75 0 11-.75 1.64l-11-5.05a26.22 26.22 0 01-3 4.67L869.72 519a48.7 48.7 0 0010.73-23.48zM868.54 520.34l-17.46-15.12a26 26 0 01-4.19 3.63l6.57 10.21a1.77 1.77 0 11-1.52 1l-6.56-10.21a25.68 25.68 0 01-5 2.31l6.52 22.17a49 49 0 0021.64-13.99zM819.05 465.53a25.68 25.68 0 015.05-2.31l-3.42-11.64a1.76 1.76 0 111.73-.51l3.41 11.64a25 25 0 015.5-.78v-23.1a48.52 48.52 0 00-24.75 7.27zM880.7 493.74a48.34 48.34 0 00-3.78-25.74L856 477.79a25.77 25.77 0 011.56 5.33l12-1.72a1.73 1.73 0 011.36-1.07 1.76 1.76 0 11.5 3.48 1.74 1.74 0 01-1.61-.63l-12 1.72a25.74 25.74 0 010 5.55zM882.38 494.89v.05a50.68 50.68 0 01-3 11.34l16.58-9.44-13.25-13.73c.14 1.5.22 3 .22 4.57a49.63 49.63 0 01-.52 7.15s-.03.04-.03.06zM859.37 447.07l-12.7 19.28a26 26 0 014.27 3.64l9.3-7.84a1.76 1.76 0 112.86 1.06 1.73 1.73 0 01-1.7.31l-9.27 7.81a25.53 25.53 0 013.13 4.82l20.91-9.82a49.12 49.12 0 00-16.8-19.26z" class="cls-11"/><circle cx="832.22" cy="487.68" r="7.33" class="cls-11"/><path d="M814.55 471.49a.87.87 0 01-.19.48 1 1 0 01-.46.27 24 24 0 1031.47-4.59.91.91 0 01-.5-.15.86.86 0 01-.31-.4 23.92 23.92 0 00-30 4.38zm35 16.19a17.36 17.36 0 11-17.36-17.36 17.38 17.38 0 0117.39 17.36zM833.12 461.93a25.59 25.59 0 015.49.77l3.39-11.63a1.75 1.75 0 111.72.51l-3.42 11.64a25.83 25.83 0 014.82 2.17l12.71-19.29a48.49 48.49 0 00-24.74-7.27z" class="cls-11"/><path d="M816.66 487.68a15.56 15.56 0 1015.56-15.56 15.57 15.57 0 00-15.56 15.56zm24.69 0a9.13 9.13 0 11-9.13-9.13 9.15 9.15 0 019.13 9.13zM784.43 531.58a65.11 65.11 0 0027.71 17.84l-7.43-18.94zM846.58 536.26H846.36a51 51 0 01-11.46 1.95l15.45 11.15 7-17.77a50 50 0 01-10.77 4.67zM865.72 432.08a64.6 64.6 0 00-31.63-9.28l12.47 16.05zM818.08 536.33H817.85a50.26 50.26 0 01-10.75-4.6l7 17.77 15.44-11.15a50.42 50.42 0 01-11.46-2.02zM815.72 550.47a64.68 64.68 0 0033 0l-16.5-11.91zM882.59 480.42l14.12 14.64a64.28 64.28 0 00-4.71-32.65zM852.29 549.42A65 65 0 00880 531.58l-20.27-1.09zM882.48 528.73a64.68 64.68 0 0013.7-30l-17.67 10.06zM870.6 520.71a1.19 1.19 0 01-.09.15l-.13.1a50.72 50.72 0 01-8.6 7.83l19.08 1-3.73-18.73a51 51 0 01-6.53 9.65zM795.56 434.12A65.33 65.33 0 00774 459l19.79-4.66zM804.82 445.05a.94.94 0 01.18-.05 51.05 51.05 0 0110.44-5.11l-18-6.35-1.69 19a51 51 0 019-7.41.63.63 0 01.07-.08zM786.09 466.75a.79.79 0 010-.13s0-.06.07-.1a51 51 0 016.08-10l-18.6 4.38 8.84 16.89a50.19 50.19 0 013.61-11.04zM832.22 437a50.7 50.7 0 0111.7 1.37l-11.7-15.06-11.7 15.06a50.7 50.7 0 0111.7-1.37zM830.34 422.8a64.53 64.53 0 00-31.62 9.28l19.16 6.77zM772.41 462.41a64.49 64.49 0 00-5.12 25.27 66.48 66.48 0 00.43 7.38l14.13-14.62z" class="cls-11"/><path d="M899 487.68a66.4 66.4 0 00-6-27.62v-.1l-.06-.07a67.1 67.1 0 00-24.45-28.23.57.57 0 00-.11-.11.52.52 0 00-.16-.06 66.48 66.48 0 00-71.84 0 1 1 0 00-.16.05s-.07.08-.11.12a67.13 67.13 0 00-24.45 28.22s-.05.05-.06.08 0 .06 0 .09a66.33 66.33 0 00-6 27.63 67.09 67.09 0 00.68 9.46v.06a66.42 66.42 0 0015.51 34 .75.75 0 00.1.2c.05 0 .12.08.18.13a66.76 66.76 0 0031.41 20.17h.05a66.47 66.47 0 0037.47 0h.08a66.86 66.86 0 0031.41-20.17.47.47 0 00.28-.33 66.42 66.42 0 0015.51-34v-.06a67.09 67.09 0 00.72-9.46zm-16.28-4.57l13.25 13.73-16.58 9.44a50.68 50.68 0 003-11.34v-.05-.06a49.63 49.63 0 00.52-7.15c-.02-1.54-.1-3.07-.24-4.57zm-100.66 11.73v.05a50.11 50.11 0 003 11.35l-16.59-9.44 13.25-13.72c-.13 1.5-.21 3-.21 4.56a51.24 51.24 0 00.55 7.2zm75.78-9.94l12-1.72a1.74 1.74 0 001.61.63 1.76 1.76 0 10-.5-3.48 1.73 1.73 0 00-1.36 1.07l-12 1.72a25.77 25.77 0 00-1.56-5.33l20.9-9.82a48.34 48.34 0 013.78 25.77l-22.86-3.29a25.74 25.74 0 000-5.55zm-2.58-8.75a25.53 25.53 0 00-3.13-4.82l9.27-7.81a1.73 1.73 0 001.7-.31 1.76 1.76 0 10-2.86-1.06l-9.3 7.84a26 26 0 00-4.27-3.64l12.7-19.28a49.12 49.12 0 0116.8 19.26zm-10.11-10.76a25.83 25.83 0 00-4.82-2.17l3.42-11.64a1.76 1.76 0 10-1.72-.51l-3.42 11.63a25.59 25.59 0 00-5.49-.77v-23.1a48.49 48.49 0 0124.74 7.27zm-.63 1.72a.86.86 0 00.31.4.91.91 0 00.5.15 24 24 0 11-31.47 4.59 1 1 0 00.46-.27.87.87 0 00.19-.48 23.92 23.92 0 0130-4.38zm-13.2-5.18a25 25 0 00-5.5.78l-3.41-11.64a1.76 1.76 0 10-1.73.51l3.42 11.64a25.68 25.68 0 00-5.05 2.31l-12.48-19.43a48.52 48.52 0 0124.75-7.27zm-13.78 4.58a25.86 25.86 0 00-4.08 3.52l-9.27-7.87a1.74 1.74 0 00-.59-1.63 1.76 1.76 0 10-.58 3l9.25 7.85a25.76 25.76 0 00-3.1 4.78l-21-9.6a49.26 49.26 0 0116.9-19.49zm-9.12 11.28a26 26 0 00-1.57 5.33l-12.42-1.74a1.76 1.76 0 10-.25 1.79l12.41 1.74c-.09.91-.15 1.83-.15 2.77s.06 1.86.15 2.77l-22.85 3.29a48.41 48.41 0 013.67-25.54zM784 495.52l22.87-3.29a26.59 26.59 0 001.56 5.33l-11.2 5.05a1.73 1.73 0 00-1.72-.16 1.75 1.75 0 001.44 3.2 1.73 1.73 0 001-1.4l11.22-5.06a25.62 25.62 0 003 4.67L794.72 519A48.81 48.81 0 01784 495.52zm29.37 9.7a26.38 26.38 0 004.19 3.63L811 519.06a1.79 1.79 0 00-1.54.81 1.76 1.76 0 003 1.9 1.73 1.73 0 00.09-1.73l6.56-10.22a25.71 25.71 0 005.05 2.32l-6.52 22.17a49 49 0 01-21.68-14zm12.47 7.43a25.6 25.6 0 005.5.78v12.13a1.74 1.74 0 00-.86 1.5 1.76 1.76 0 003.52 0 1.74 1.74 0 00-.86-1.5v-12.13a25.41 25.41 0 005.48-.78l6.52 22.16a48.73 48.73 0 01-25.81 0zm14.51-.51a25.68 25.68 0 005-2.31l6.59 10.17a1.76 1.76 0 101.52-1l-6.57-10.21a26 26 0 004.19-3.63l17.46 15.12a49 49 0 01-21.69 14zm11.93-8.28a26.22 26.22 0 003-4.67l11 5.05a1.76 1.76 0 10.75-1.64l-11-5a25.17 25.17 0 001.56-5.33l22.87 3.29A48.7 48.7 0 01869.72 519zm29.66-26a50 50 0 00-3.69-11.32.61.61 0 000-.13.47.47 0 00-.06-.09 51.05 51.05 0 00-6.19-10l18.82 4.65zm8.51-18.86l-20.05-4.95-1.55-19.94a65.36 65.36 0 0121.6 24.89zm-22-6.69a51.32 51.32 0 00-8.73-7.15.57.57 0 00-.11-.11.76.76 0 00-.16-.06 50.72 50.72 0 00-10.45-5.11l18-6.34zm-2.74-20.23l-19.16 6.77-12.46-16.05a64.6 64.6 0 0131.63 9.28zm-21.8 6.3a50.64 50.64 0 00-23.4 0l11.7-15.06zm-13.57-15.58l-12.46 16.05-19.16-6.77a64.53 64.53 0 0131.62-9.28zm-32.92 10.73l18 6.35A51.05 51.05 0 00805 445a.94.94 0 00-.15.06.63.63 0 00-.12.11 51 51 0 00-9 7.41zm-1.86.59l-1.79 20.24L774 459a65.33 65.33 0 0121.56-24.88zm-3.29 22.44a51 51 0 00-6.08 10s-.05.06-.07.1a.79.79 0 000 .13 50.19 50.19 0 00-3.58 11.08l-8.84-16.89zm-25 31.12a64.49 64.49 0 015.12-25.27l9.44 18-14.13 14.62a66.48 66.48 0 01-.41-7.35zM782 528.73a64.58 64.58 0 01-13.7-30l17.67 10.06zm5.35-17.63a50.53 50.53 0 006.53 9.61l.08.15a1 1 0 00.13.09 51.2 51.2 0 008.6 7.84l-19.07 1zm-2.88 20.48l20.28-1.1 7.43 18.94a65.11 65.11 0 01-27.75-17.84zm22.67.08a50.26 50.26 0 0010.75 4.6H818.12a50.42 50.42 0 0011.45 1.95l-15.44 11.15zm25.12 21a64.62 64.62 0 01-16.5-2.14l16.5-11.91 16.5 11.91a64.62 64.62 0 01-16.54 2.09zm18.13-3.18l-15.49-11.2a51 51 0 0011.46-1.95H846.58a50 50 0 0010.75-4.6zm1.94 0l7.44-18.93 20.23 1.03a65 65 0 01-27.71 17.84zm9.49-20.63a50.72 50.72 0 008.6-7.83l.13-.1a1.19 1.19 0 00.09-.15 51 51 0 006.53-9.61l3.73 18.73zm20.7-.06l-4-19.91 17.67-10.06a64.68 64.68 0 01-13.71 29.91zm14.23-33.67l-14.12-14.64 9.44-18a64.28 64.28 0 014.68 32.65z" class="cls-12"/><path d="M814.86 487.68a17.36 17.36 0 1017.36-17.36 17.38 17.38 0 00-17.36 17.36zm32.91 0a15.56 15.56 0 11-15.55-15.56 15.56 15.56 0 0115.55 15.56z" class="cls-12"/><path d="M823.09 487.68a9.13 9.13 0 109.13-9.13 9.14 9.14 0 00-9.13 9.13zm16.46 0a7.33 7.33 0 11-7.33-7.33 7.34 7.34 0 017.33 7.33z" class="cls-12"/><path d="M767.35 790.13c-10.13-48.16-21-108.75 80.92-189.8 12.36-9.83-20.26-47.9-61.48-96.47-42.5-50.08-67.68-130.49-67.68-130.49l-41.19 8.23 7.35 387.26z" class="cls-13"/><path d="M741.65 440.47c15.57 75.39 55.57 124.19 78.14 145 25.91 23.87 31.8 29.31 42.08 7.37 5.49-11.7 31-13.91 19.28-21.86-40-27.09-92-67.11-115.76-125.57-6.58-16.17-25.46-13.28-23.74-4.94z" class="cls-12"/><path d="M1008.4 328l-23.69 34.76-556.3-56.36L395 265.88l-157.55 45.45a9.59 9.59 0 00-1.79 17.67l145.2 76.12 40.85-32.58L978 428.94l16.31 38.37 24.91-36.14 6.3-62.25zm-31 96.82l-555.69-56.3-33.75-33 39.64-25.16 555.69 56.3z" class="cls-14"/><path d="M394.96 265.88l33.45 40.55 556.3 56.36 23.69-34.76-613.44-62.15zM977.35 424.85l5.89-58.19-555.69-56.3-39.64 25.16 33.75 33.03 555.69 56.3zM978 428.94l-556.29-56.36-40.85 32.58 613.45 62.15L978 428.94z" class="cls-6"/><path d="M235.66 329l49.27 25.83a77 77 0 006-59l-53.45 15.42a9.59 9.59 0 00-1.82 17.75z" class="cls-5"/><ellipse cx="1001.35" cy="397.67" class="cls-5" rx="29.63" ry="7.9" transform="rotate(-84.22 1001.37259638 397.66712146)"/><path d="M785.09 957.43l-2.34-13.59c-.64-3.74-1.29-7.58-.63-11.32.5-2.8 1.71-5.45 2.09-8.27.93-6.76-3-13.17-4.1-19.9-1.57-9.25 2.12-18.91-.09-28-1.5-6.21-5.63-11.65-6.49-18-1-7.29 2.26-15.74-2.31-21.5-1.93-2.43-2.74-8.12-3.51-11.12a70.18 70.18 0 01-1.33-12.4 105.22 105.22 0 00-.35-10.8c-.27-3.25-6.76-32.14-8.94-34.09-11.58-10.42-20.51-12-36-14-5.79-.73-11.65 0-17.47.26-9.62.41-19.44-.52-28.72 2s-18.22 9.79-18.84 19.39v.18c-4.66-.32-9.45 0-13.86-1.08-.79-.2-1.58.87-2.36 2.69-2.74-7.14-10.13-12.42-17.76-14.5-9.28-2.54-19.1-1.61-28.71-2-5.83-.24-11.68-1-17.47-.26-15.46 2-24.39 3.55-36 14-2.18 1.95-8.66 30.84-8.94 34.09-.29 3.59-.41 7.2-.34 10.8a70 70 0 01-1.34 12.4c-.77 3-1.58 8.69-3.5 11.12-4.58 5.76-1.33 14.21-2.32 21.5-.86 6.33-5 11.77-6.49 18-2.2 9.12 1.49 18.78-.08 28-1.14 6.73-5 13.14-4.11 19.9.39 2.82 1.6 5.47 2.09 8.27.66 3.74 0 7.58-.63 11.32L512 964.11c-.93 5.44-1.85 11.19.06 16.37 2.37 6.47 8.7 10.71 15.21 13s13.46 2.94 20.08 4.83c5.85 1.67 11.48 4.29 17.52 5 7 .78 14-1.1 20.81-3l25.17-6.91a4.57 4.57 0 004.14-4.27q2.14-8.85 4.3-17.69c2.93-12.07 5.89-24.35 5.28-36.76-.28-5.69-1.3-11.48 0-17 1.41-5.92 5.38-11 6.71-16.92 1.64-7.28-.88-14.79-1.22-22.25v-2.92c.78-2.61 1.9-5.21 2.89-8.82s4.22-10.16 7.71-11.18c2.16-.64 5.8-1.31 8-.94 5.65.95 12.48 3 15.21 8 3.11 5.74 2.43 15.17 2 18.91l-.21 1.59a31.72 31.72 0 00.15 10.87c1.34 5.93 5.3 11 6.71 16.92 1.33 5.54.31 11.33 0 17-.61 12.41 2.34 24.69 5.27 36.76q2.16 8.85 4.3 17.69a6.12 6.12 0 001.29 2.91 6.06 6.06 0 002.85 1.36l25.17 6.91c6.8 1.87 13.8 3.75 20.81 3 6-.67 11.67-3.29 17.52-5 6.62-1.89 13.57-2.58 20.08-4.83s12.84-6.49 15.22-13c1.91-5.12.97-10.87.06-16.31z" class="cls-14"/><path d="M725.05 297.92v4.88a27.28 27.28 0 01-14.64 24.2c-.23.13-.48.25-.71.36s-.49.24-.74.34-.48.23-.74.33l-.8.32-.71.25c-.58.21-1.16.39-1.76.55a5.66 5.66 0 01-.59.15l-.8.19-.76.16-1.14.19-.86.11-.46.05h-.07c-.38 0-.76.06-1.14.08s-.94 0-1.41 0h-97.59c-.85 0-1.7 0-2.54-.11l-.52-.06c-.28 0-.57-.06-.85-.11l-.51-.08c-.39-.06-.78-.12-1.17-.21s-.55-.12-.83-.2a6.14 6.14 0 01-.74-.18c-.29-.07-.57-.16-.86-.25l-.22-.06c-.36-.11-.71-.24-1.08-.37l-.33-.12-.91-.36c-.39-.16-.77-.33-1.15-.51a27.63 27.63 0 01-7.61-5.38 27.32 27.32 0 0119.32-46.63h54.65a13.65 13.65 0 0013.67-13.65v-11.68a28.3 28.3 0 0156.6 0v47.8z" class="cls-12"/><path d="M710.41 327v38c-.34-.15-.68-.27-1-.39s-.69-.24-1-.34a10 10 0 00-1.07-.3c-.36-.09-.72-.17-1.1-.24a11.94 11.94 0 00-1.22-.2 20.64 20.64 0 00-2.11-.22h-1.2a23.44 23.44 0 00-23.51 23.39v13.65a29.28 29.28 0 01-58.55 0V386.7a23.43 23.43 0 00-23.42-23.42h-1.14l-1 .07-.64.07-.56.07-.61.09-.23.05a5.5 5.5 0 00-.77.15l-.29.07a4.81 4.81 0 00-.73.17 19.27 19.27 0 00-1.87.57v-37.1c.38.18.76.35 1.15.51l.91.36.33.12 1.08.37.22.06c.29.09.57.18.86.25a6.14 6.14 0 00.74.18c.28.08.55.14.83.2s.78.15 1.17.21l.51.08c.28.05.57.08.85.11s.34 0 .52.06c.84.08 1.69.11 2.54.11h99c.46 0 .76 0 1.14-.08h.07l.46-.05.86-.11 1.14-.19a6.85 6.85 0 00.76-.16l.8-.19a4.25 4.25 0 00.59-.15c.6-.16 1.18-.34 1.76-.55a6 6 0 00.71-.25l.8-.32c.26-.1.5-.21.74-.33a8.11 8.11 0 00.74-.34c.26-.15.51-.27.74-.39z" class="cls-10"/><path d="M507.37 1026.32v5a7.18 7.18 0 007.19 7.17h96.88a7.17 7.17 0 007.18-7.17v-7.11a7.18 7.18 0 00-7.18-7.18h-96.88a7.19 7.19 0 00-7.19 7.18z" class="cls-15"/><path d="M509.35 985.24v16.9a7.3 7.3 0 005.1 7 30.83 30.83 0 0127.67-17.24h43.74a30.83 30.83 0 0127.82 17.55 7.28 7.28 0 006.9-7.27v-26.43a7.28 7.28 0 00-3.55-6.26 7.17 7.17 0 00-3.74-1h-96.65a7.19 7.19 0 00-3.07.68 7.28 7.28 0 00-4.22 6.62z" class="cls-16"/><path d="M510.3 1016.69v1.79a7.13 7.13 0 014.26-1.4h96.88a7.13 7.13 0 014.26 1.4v-1.79a30.84 30.84 0 00-30.83-30.83h-43.74a30.84 30.84 0 00-30.83 30.83z" class="cls-13"/><path d="M791.17 1026.32v5a7.18 7.18 0 01-7.18 7.17H687.1a7.17 7.17 0 01-7.18-7.17v-7.11a7.18 7.18 0 017.18-7.18H784a7.19 7.19 0 017.18 7.18z" class="cls-15"/><path d="M789.19 985.24v16.9a7.28 7.28 0 01-5.1 7 30.83 30.83 0 00-27.67-17.24h-43.75a30.83 30.83 0 00-27.82 17.55 7.29 7.29 0 01-6.9-7.27v-26.43a7.28 7.28 0 013.55-6.26 7.17 7.17 0 013.74-1h96.66a7.15 7.15 0 013.07.68 7.28 7.28 0 014.22 6.62z" class="cls-16"/><path d="M664.57 770.1v55.29h-18.38v-36.9a18.39 18.39 0 0118.38-18.39z" class="cls-17" transform="rotate(-180 655.38 797.745)"/><path d="M788.24 1016.69v1.79a7.12 7.12 0 00-4.25-1.4H687.1a7.13 7.13 0 00-4.26 1.4v-1.79a30.84 30.84 0 0130.83-30.83h43.74a30.84 30.84 0 0130.83 30.83zM573.85 405.69S584.5 615 586 631.74c1.2 13.48-18.9 26.58-36.51 30.66-5.79 1.34-19.52-1-17.57-13.66v-.91c5.42 0 7.33-1.38 8.4-3.64 1.71-3.67-3.74-8.28-1.08-14.3a10.67 10.67 0 011-1.74c5.51-8 10.2-16.39-24.94-27.21C423 572.52 383.71 549.73 366.6 551c16.29-108.32 105.59-125.76 207.25-145.31z" class="cls-13"/><path d="M542.36 660.92c4.92 46.45-8 110.19-13.83 145.85-2.6 15.9 23.21-5.4 49.72-11.37 30.37-6.85 86.88-19.2 146.34 4.66 42.71 17.14 55.82 46.46 40.14-21.69-9.92-43.07-4.63-130.82-4.63-130.82l-214.53-13.72z" class="cls-13"/><path d="M710.41 365c-.34-.14-.68-.26-1-.39s-.7-.24-1-.34-.71-.21-1.07-.3-.73-.17-1.1-.24a11.94 11.94 0 00-1.22-.2 20.94 20.94 0 00-2.11-.22h-1.2a23.44 23.44 0 00-23.51 23.39v13.65a29.28 29.28 0 01-58.55 0V386.7a23.43 23.43 0 00-23.42-23.42h-1.14l-1 .07-.64.07-.56.07-.61.09-.23.05-.77.15-.29.07c-.24.05-.49.1-.73.17-.64.17-1.26.36-1.87.58a23.36 23.36 0 00-15 17 22.61 22.61 0 00-.57 5.11v306.8c0 1.3 0 2.58.1 3.86a2.64 2.64 0 000 .29c.06 1.08.13 2.16.23 3.23a76.72 76.72 0 001.19 7.92 75.71 75.71 0 0010.88 26.38 76.56 76.56 0 0018.11 19.24l.08.06q2.87 2.13 5.93 4l.17.1c1 .61 2 1.21 3.09 1.78h.09c1 .56 2.07 1.09 3.13 1.61l.13.06c1 .5 2.1 1 3.17 1.43l.39.17c2.11.88 4.27 1.68 6.48 2.37l.55.17c1.09.34 2.18.65 3.29.94h.22c1 .27 2.1.51 3.15.73l.6.12c1.09.22 2.19.42 3.31.59l.6.09c1 .15 2 .28 3.08.39l.47.06c1.12.11 2.25.19 3.39.25h.76c1.16 0 2.32.09 3.5.09 1.18 0 2.36 0 3.53-.09h.66c1.15-.06 2.29-.15 3.43-.26l.45-.05c1.17-.12 2.32-.27 3.47-.44h.07c1.19-.18 2.38-.4 3.56-.64l.33-.07c1.08-.22 2.15-.46 3.22-.72A76.26 76.26 0 00675 765h.14q3.39-1.25 6.61-2.79l.25-.21c.89-.43 1.78-.87 2.65-1.33a76.12 76.12 0 0040.39-67.22V386.7a23.39 23.39 0 00-14.63-21.7z" class="cls-12"/><path d="M355 564.19c-3.32 16.56 6 16.86 1.26 45.41-2.35 14.15 2.22 18.95 12.07 21.22 6.47 1.48 15.24 1.87 25.83 3.1 26.7 3.09 97.15 7.87 120.78 12 7.89 1.36 13.25 2 17 1.94 5.42 0 7.33-1.38 8.39-3.64 1.72-3.67-3.73-8.28-1.07-14.3a10.67 10.67 0 011-1.74c5.51-8 10.2-16.39-24.94-27.21-92.2-28.42-131.51-51.21-148.61-50-6.71.46-10.01 4.52-11.71 13.22z" class="cls-12"/><path d="M846 298.21a11.29 11.29 0 00-16-.85l-1.16 1.05a11.13 11.13 0 00-1.83-2.76 11.29 11.29 0 00-15.95-.84l-2.51 2.25a11.25 11.25 0 00-17.55-3.18l-1.68 1.52a11 11 0 00-1.48-2.09 11.28 11.28 0 00-16-.84l-17.62 15.85a11.29 11.29 0 1015.11 16.79l1.69-1.51a11.23 11.23 0 001.47 2.08 11.29 11.29 0 0016 .85l2.51-2.26a11.35 11.35 0 001.61 2.34 11.29 11.29 0 0015.95.84l1.16-1a11.42 11.42 0 001.83 2.76 11.3 11.3 0 0016 .84l17.62-15.85a11.29 11.29 0 00.83-15.99z" class="cls-10"/><path d="M646.19 817.83v16.71" class="cls-17"/><path d="M442.28 1008.54H207.82a16.59 16.59 0 01-16.58-15.78L180.05 764.5H470l-11.14 228.26a16.6 16.6 0 01-16.58 15.78z" class="cls-6"/><rect width="312.51" height="35.56" x="168.79" y="749.09" class="cls-6" rx="11.85"/><rect width="80.76" height="80.76" x="282.89" y="844.12" class="cls-2" rx="9.27"/><path d="M311 853.72a4 4 0 014 4v14.56a4 4 0 01-4 4h-14.54a4 4 0 01-4-4v-14.59a4 4 0 014-4H311m0-4h-14.54a7.94 7.94 0 00-7.94 8v14.56a7.93 7.93 0 007.94 7.94H311a7.94 7.94 0 008-7.94v-14.56a8 8 0 00-8-8zM350.08 853.72a4 4 0 014 4v14.56a4 4 0 01-4 4h-14.56a4 4 0 01-4-4v-14.59a4 4 0 014-4h14.56m0-4h-14.56a8 8 0 00-7.95 8v14.56a7.94 7.94 0 007.95 7.94h14.56a7.93 7.93 0 007.94-7.94v-14.56a7.94 7.94 0 00-7.94-8zM311 892.77a4 4 0 014 4v14.57a4 4 0 01-4 4h-14.54a4 4 0 01-4-4v-14.6a4 4 0 014-4H311m0-4h-14.54a7.94 7.94 0 00-7.94 7.94v14.57a7.94 7.94 0 007.94 7.94H311a8 8 0 008-7.94v-14.51a8 8 0 00-8-7.94z" class="cls-3"/><rect width="13.24" height="13.24" x="297.12" y="858.35" class="cls-3" rx="2.65"/><rect width="13.24" height="13.24" x="297.12" y="897.4" class="cls-3" rx="2.65"/><rect width="7.94" height="7.94" x="327.57" y="888.8" class="cls-3" rx="2.65"/><rect width="7.94" height="7.94" x="350.08" y="888.8" class="cls-3" rx="2.65"/><rect width="7.94" height="7.94" x="338.83" y="900.05" class="cls-3" rx="2.65"/><rect width="7.94" height="7.94" x="350.08" y="911.31" class="cls-3" rx="2.65"/><rect width="7.94" height="7.94" x="327.57" y="911.31" class="cls-3" rx="2.65"/><rect width="13.24" height="13.24" x="336.18" y="858.35" class="cls-3" rx="2.65"/><rect width="62.66" height="62.66" x="289.92" y="658.16" class="cls-2" rx="7.19"/><path d="M311.75 665.61a3.08 3.08 0 013.08 3.08V680a3.08 3.08 0 01-3.08 3.08h-11.3a3.08 3.08 0 01-3.08-3.08v-11.3a3.08 3.08 0 013.08-3.08h11.3m0-3.09h-11.3a6.16 6.16 0 00-6.16 6.17V680a6.16 6.16 0 006.16 6.16h11.3a6.16 6.16 0 006.17-6.16v-11.3a6.17 6.17 0 00-6.17-6.17zM342.05 665.61a3.09 3.09 0 013.09 3.08V680a3.09 3.09 0 01-3.09 3.08h-11.29a3.09 3.09 0 01-3.09-3.08v-11.3a3.09 3.09 0 013.09-3.08h11.29m0-3.09h-11.29a6.17 6.17 0 00-6.17 6.17V680a6.16 6.16 0 006.17 6.16h11.29a6.16 6.16 0 006.17-6.16v-11.3a6.17 6.17 0 00-6.17-6.17zM311.75 695.91a3.08 3.08 0 013.08 3.08v11.3a3.08 3.08 0 01-3.08 3.08h-11.3a3.08 3.08 0 01-3.08-3.08V699a3.08 3.08 0 013.08-3.08h11.3m0-3.08h-11.3a6.16 6.16 0 00-6.16 6.16v11.3a6.16 6.16 0 006.16 6.16h11.3a6.16 6.16 0 006.17-6.16V699a6.16 6.16 0 00-6.17-6.16z" class="cls-3"/><rect width="10.27" height="10.27" x="300.97" y="669.2" class="cls-3" rx="2.05"/><rect width="10.27" height="10.27" x="300.97" y="699.5" class="cls-3" rx="2.05"/><rect width="6.16" height="6.16" x="324.59" y="692.83" class="cls-3" rx="2.05"/><rect width="6.16" height="6.16" x="342.05" y="692.83" class="cls-3" rx="2.05"/><rect width="6.16" height="6.16" x="333.32" y="701.56" class="cls-3" rx="2.05"/><rect width="6.16" height="6.16" x="342.05" y="710.29" class="cls-3" rx="2.05"/><rect width="6.16" height="6.16" x="324.59" y="710.29" class="cls-3" rx="2.05"/><rect width="10.27" height="10.27" x="331.27" y="669.2" class="cls-3" rx="2.05"/><path d="M613.28 689.06a1.22 1.22 0 00-.11-.32c-1.15-2.12-1.43-4.11-.19-6.15 1.71-2.79 4.82-16.61-5.61-16.86-10.23-.25-19.4 1.34-18.33-13.27a74 74 0 011.4-7.62c4.09-17.56-2.44-31.41-9.28-33.16-6.66-1.69-16.63 1.89-13.45 20.13 2.32 13.34-.65 26.51-18.26 30.59-5.79 1.34-19.52-1-17.57-13.66v-.91c-3.72 0-9.08-.59-17-1.94-23.63-4.09-94.08-8.87-120.78-12-10.59-1.23-19.36-1.62-25.83-3.1 20.06 86.89 106.07 112.76 168.61 118.73 35.39 3.39 63.26.4 67.38-1.49 7.62-3.51 4.5-11 4.63-15s2.68-5.64 3-12c.36-6.51-1.76-6.48-1.08-12.29.13-1.06.44-1.6 1.83-3.88a17.58 17.58 0 002-6.59 16.17 16.17 0 00-1.36-9.21z" class="cls-10"/><path d="M440.2 636.32c-7.85 7.5-7.58 20.7-7.1 24.61l-15.16-6.59c-.24-2.71.49-14.21 6-18l-2.14-.34c-5.41 3.76-6.1 14.05-5.9 17.3l-11.35-6.17c-.82-2.1-.49-8.8 2.68-12.83l-2-.29c-2.4 3.29-3.26 8.52-3.21 11.88l-11-6c-1.07-3.5-.58-6.14 2.36-8l-2-.27c-3 1-3.3 4.34-3 6.93 0 0-23.91-12.11-25.35-12.68.28.92 18.14 21.22 18.14 21.22a23.46 23.46 0 00-8.48 2.68c.27.6.54 1.2.82 1.78a22.36 22.36 0 019.59-2.64l8.52 8.12c-4.4.37-11.1 2.32-13.28 4.46.35.59.68 1.19 1 1.77 3.6-3 11.12-4.23 14.17-4.42l9.2 8.76c-5.52.9-13.16 4.68-16 7.93.4.53.79 1.07 1.19 1.59l.07-.06c3-3.52 10.64-7.31 16.57-7.71l12.81 12a34.11 34.11 0 00-20.1 11.09l1.38 1.37c4.78-5.3 13.28-9.24 21.36-10.62h.11a.29.29 0 01.1 0l.08-.07.09-.07.16-.18.06-.09a1.19 1.19 0 00.1-.32 1.08 1.08 0 000-.31c-1.06-5.28 5.8-15.86 14-18.62a1 1 0 00.42-.54.29.29 0 000-.09.86.86 0 000-.39c-.11-.54-2.49-17.32 7.06-25.77zm-57 10l-13-14.89 18.33 9.41c-2.85.58-4.87 4.33-5.33 5.44zm10.16 9.66l-8.64-8.22c.54-1.48 2.57-5.85 5.85-5.84h.07l10.44 5.72c-4.69 1.19-7.26 6.88-7.72 8.3zm11.39 10.82l-9.75-9.33c.09-.87 3.08-8.07 8.58-8.64l12 6.49c-3.99 1.03-8.09 5.89-10.83 11.44zm14 13.15l-12.53-11.73c3.5-7.44 8.57-11.24 11.25-11.76 0 0 .07 0 .1-.07l14.76 6.38c-7.76 2.95-13.2 11.95-13.56 17.14zM515.31 714.31a1 1 0 00-1-.65 57.61 57.61 0 01-10.67 0c6.3-3.1 10.59-10.43 10.8-10.78a1 1 0 00-.21-1.23 1 1 0 00-1.25 0 18.65 18.65 0 01-7.52 4c2.17-3.64 3-7 2.34-9.8-1.82-7.83-8.35-11.23-13.88-11.8-5.84-.61-11.25 1.7-14.12 5.83-3-6.56-8.72-11.28-14.9-12.24h-.17a13.69 13.69 0 00-13.17 5.54 14.72 14.72 0 00-2.87 9.25c-10.19 4.56-16 15.29-16.12 15.44a1 1 0 00.3 1.26 1 1 0 001.29-.15 21.73 21.73 0 0112-6.71c-5 5.23-3.86 14.6-3.8 15.06a1 1 0 00.83.84 1 1 0 001-.64 13.16 13.16 0 0110.05-8.91 58.16 58.16 0 0019.14 17.78 2.88 2.88 0 001.11.4 4.52 4.52 0 001 0c3.91-.41 9-2.53 14.26-6 .77.24 1.53.46 2.26.63 10 2.41 22.34-5.69 22.86-6a1 1 0 00.44-1.12zm-62.22-29.95a11.86 11.86 0 0111.5-4.77c6.07.94 11.62 6 14.14 12.85a1 1 0 00.88.64 1 1 0 00.92-.56c2.4-5.19 8.35-7 13.18-6.51s10.59 3.47 12.18 10.3c.61 2.62-.43 6-3 9.7-2.91.13-6.27-.5-10.83-1.68-5.47-1.42-10.59-4.32-15.54-7.12-4.46-2.52-8.67-4.9-12.79-6a22 22 0 00-13.1.43 12.66 12.66 0 012.46-7.28zm22.26 40.51a1.29 1.29 0 01-1-.14 56.79 56.79 0 01-18-16.4 17.72 17.72 0 016 .51c2.3.63 6.09 2.49 10.48 4.65a156.76 156.76 0 0014.55 6.56c-4.46 2.74-8.79 4.48-12.03 4.82zm17.18-5.29c-5.54-1.33-12.58-4.79-18.79-7.84-4.48-2.2-8.35-4.1-10.82-4.78-4.7-1.29-13.87-1.31-18.76 6.26.19-3.8 1.32-9.32 6-11.47a1 1 0 00-.27-1.85h-.12a24.41 24.41 0 00-11.58 3.28c4.71-5.67 13.44-13.16 25-10.07 3.89 1 8 3.36 12.34 5.81 5.06 2.86 10.29 5.82 16 7.3 5 1.29 8.66 2 11.91 1.73h.09a15.35 15.35 0 006-1.72c-2.19 2.59-5.39 5.59-9.06 6.57a1 1 0 00-.63.53 1.15 1.15 0 00.11 1.17c.91 1.3 6.08 1.47 10.25 1.34-4.2 2.16-11.59 5.21-17.67 3.74zM490.78 668.46l6.05-2.23a1 1 0 00-.67-1.83l-5.65 2.08.91-7.34a1 1 0 10-1.94-.24l-.93 7.55-5.79-2.92a1 1 0 00-.88 1.75l5.62 2.83-4.38 3.26a1 1 0 00-.2 1.36 1 1 0 00.46.34 1 1 0 00.91-.14l4.77-3.55 3.32 5.62a1 1 0 00.52.42.92.92 0 00.82-.08 1 1 0 00.34-1.33zM419.28 703.86l6.06-2.23a1 1 0 10-.68-1.83l-5.66 2.08.91-7.34a1 1 0 10-1.93-.24l-.94 7.55-5.79-2.92a1 1 0 00-.88 1.75l5.62 2.83-4.38 3.26a1 1 0 00-.2 1.36 1 1 0 00.46.34 1 1 0 00.91-.14l4.77-3.56 3.33 5.63a1 1 0 00.51.42.92.92 0 00.82-.08 1 1 0 00.35-1.33zM452.91 672l-5.85-2.32 4.08-3.63a1 1 0 00.08-1.38 1 1 0 00-1.38-.08l-4.44 4-3.81-5.32a1 1 0 00-1.59 1.14l3.76 5.24-5.84 2.75a1 1 0 00-.46 1.3 1 1 0 001.29.46l5.45-2.56-.26 7.39a1 1 0 00.64 1 1 1 0 00.3 0 1 1 0 001-.94l.27-7.6 6 2.4a1 1 0 00.69-1.83zM542.13 714.13l-5.84-2.32 4.07-3.63a1 1 0 10-1.3-1.46l-4.44 4-3.81-5.32a1 1 0 00-1.36-.22 1 1 0 00-.22 1.36l3.75 5.24-5.83 2.75a1 1 0 00-.47 1.3 1 1 0 00.55.5 1 1 0 00.75 0l5.45-2.57-.27 7.39a1 1 0 00.65 1 .93.93 0 00.29.05 1 1 0 001-.94l.27-7.6 6 2.4a1 1 0 00.69-1.83zM504.27 744.62a1 1 0 00-.24-1.36l-6.25-4.35 5.27-3.76a1 1 0 10-1.13-1.59l-5.12 3.65-.85-5.39a1 1 0 00-1.93.31L495 738l-6.53.33a1 1 0 00-.92 1 1 1 0 00.64.87 1.21 1.21 0 00.38.06L495 740l-.35 2.68 1.91.45.32-2.45 5.3 3.68 2 .42a1.31 1.31 0 00.09-.16zM463.25 661.73a1.07 1.07 0 01-.25 0 1 1 0 01-.73-.77l-2.45-12.21-11.45-4.9a1 1 0 01-.61-.86 1 1 0 01.51-.93l10.85-6.1 1.12-12.41a1 1 0 011.68-.64l9.16 8.43 12.14-2.77a1 1 0 011 .35 1 1 0 01.13 1l-5.19 11.33 6.39 10.75a1 1 0 010 1 1 1 0 01-1 .45L472.2 652l-8.2 9.37a1 1 0 01-.75.36zm-12.23-19l10.07 4.31a1 1 0 01.58.72l2.16 10.74 7.17-8.2a1 1 0 01.87-.33l10.88 1.26-5.61-9.4a1 1 0 01-.05-.93l4.56-10-10.65 2.48a1 1 0 01-.9-.24l-8.06-7.42-1 10.91a1 1 0 01-.51.78zM540.81 665a1.31 1.31 0 00-.08-.21 1 1 0 00-.07-.15.67.67 0 00-.14-.15 1.42 1.42 0 00-.13-.12l-.17-.08a.62.62 0 00-.19-.07h-.39l-.17.07a.72.72 0 00-.2.09l-.11.1a1.14 1.14 0 00-.15.16 1 1 0 00-.07.15 1.8 1.8 0 00-.08.21c-.21 1.3-1.16 2.12-2.25 3.07a7.5 7.5 0 00-2.9 4 1 1 0 00.76 1.19h.22a1 1 0 001-.78 5.72 5.72 0 012.25-3c.38-.32.77-.67 1.15-1a17.31 17.31 0 01-8.13 14.15l-11.17-20.5 4.6-2.51a1 1 0 10-1-1.75l-4.6 2.5-2.44-4.49a5.48 5.48 0 001.35-6.84 5.49 5.49 0 10-3.11 7.79l2.45 4.5-4.6 2.5a1 1 0 00.48 1.88 1.07 1.07 0 00.48-.12l4.59-2.51 11.17 20.5a17.26 17.26 0 01-16.29-.84c.52-.11 1-.25 1.5-.39a5.69 5.69 0 013.69-.3 1 1 0 001.29-.59 1 1 0 00-.59-1.28 7.45 7.45 0 00-5 .25c-1.39.41-2.59.76-3.8.22h-.19a1.38 1.38 0 00-.2 0h-.15l-.22.05-.13.09a.83.83 0 00-.18.13l-.08.13a1 1 0 00-.09.13 1.55 1.55 0 000 .21 1.13 1.13 0 000 .18.58.58 0 000 .18 1.29 1.29 0 000 .19l.1.15a1 1 0 00.12.17A19.26 19.26 0 00540.81 665zm-30.95-11.63a3.47 3.47 0 013-5.12 3.28 3.28 0 011 .15 3.42 3.42 0 012.06 1.66 3.47 3.47 0 01-1.38 4.69 3.47 3.47 0 01-4.68-1.4z" class="cls-12"/></g></g></svg>
