<svg xmlns="http://www.w3.org/2000/svg" viewBox="0 0 987 1052.78"><defs><linearGradient id="id1" x1="580.51" x2="361.88" y1="910.52" y2="352.44" gradientUnits="userSpaceOnUse"><stop offset="0" stop-color="#f5f7f8"/><stop offset="1" stop-color="#f5f7f8" stop-opacity="0"/></linearGradient><clipPath id="id2"><path d="M785.41 702.14c5.68 1.74 19.54.35 18.45-12.43l.08-.91c3.71.27 9.1 0 17.06-.78 23.86-2.48 94.47-2.47 121.32-3.74 10.65-.51 19.42-.31 26-1.35-25.9 85.33-113.91 106.12-176.73 106-20.72 0-74.14-6.62-83.9-8.23-19.25-3.17-36.22-4.16-37-10.14-2.71-19.68 48.64-1.28 49.47-6 .49-2.76-3.44-4.38-3.09-11.23.26-5.08 3.73-5.54 3.9-10.07.12-3.09-4.48-6-4.2-11.52.36-7.11 3.92-6.23 4.32-9.88 1.16-10.53-62-22.31-58.94-35.76 5.62-24.53 69 21.36 82.75 6 13.33-14.95 23.21 4.78 40.51 10.04z" class="cls-1"/></clipPath><style>.cls-1{fill:#e8e9ea}.cls-2{fill:#c5cdd0}.cls-3{fill:#b4bdc2}.cls-4{fill:#dfe3e6}.cls-5{fill:#d7dbdb}.cls-6{fill:#97a4ac}.cls-10{fill:#e6eaed}.cls-11{fill:#dee2e5}.cls-12{fill:#d0d5d9}.cls-13{fill:#d1d7d7}.cls-17{fill:#e7e8ea}</style></defs><g><g><path d="M792 793h-.44c-21.21 0-74.56-6.63-84.55-8.28-3.84-.63-7.56-1.17-11.16-1.7-16.93-2.46-28.12-4.09-29.19-11.85-.68-4.94 1.24-8 3-9.65 7-6.73 23.78-3.86 37.3-1.55 2.46.42 5.25.89 7.49 1.19a16.64 16.64 0 01-1.41-7.94 13 13 0 012.76-7.42 4.27 4.27 0 001.13-2.5 12.11 12.11 0 00-1.07-1.9c-1.41-2.26-3.35-5.36-3.12-9.76.26-5.23 2-7.49 3.76-9.36a5.81 5.81 0 00.56-.64 1.13 1.13 0 000-.12 4 4 0 118 .87 8.71 8.71 0 01-2.71 5.38c-.87.93-1.45 1.54-1.59 4.28-.1 1.88.83 3.38 1.92 5.11s2.38 3.8 2.28 6.35a11.82 11.82 0 01-2.58 6.88 5.34 5.34 0 00-1.32 3.24 9 9 0 001.53 5.77 8.55 8.55 0 011.5 6c-.83 4.66-6.56 4.16-8.45 4-2.62-.24-6-.82-10-1.5-9.2-1.57-26.34-4.5-30.39-.58-.25.25-.84.82-.63 2.64 1.79 2.19 13.71 3.93 22.44 5.2 3.64.52 7.4 1.07 11.31 1.72 9.54 1.57 62.85 8.14 83.26 8.17 26.11.06 64.81-3.5 100.47-20.58 34.84-16.69 58.55-42.51 70.54-76.83-3.06.2-6.41.29-10.05.39-3.18.08-6.47.17-10 .34a4 4 0 01-.38-8c3.63-.17 7-.26 10.19-.35a128.34 128.34 0 0015.35-.95 4 4 0 014.45 5.11c-12 39.44-37.75 68.88-76.62 87.5C858.68 789.22 819 793 792 793z" class="cls-2"/><path d="M624.2 811c-.46 3.06-.68 8.81-2.35 11.42-4 6.2.14 14.27-.09 21.63-.21 6.38-3.76 12.21-4.61 18.54-1.26 9.3 3.4 18.53 2.79 27.9-.44 6.8-3.65 13.58-2 20.21.67 2.77 2.15 5.28 2.93 8 1 3.65.79 7.53.54 11.31l-.93 13.76c-.38 5.51-.7 11.32 1.73 16.29 3 6.18 9.76 9.75 16.47 11.32s13.69 1.54 20.47 2.75c6 1.06 11.85 3.08 17.93 3.13 7.06.06 13.83-2.54 20.4-5.09l24.32-9.46a6.12 6.12 0 002.7-1.64 6 6 0 001-3l2.46-18c1.68-12.31 3.36-24.83 1.48-37.11-.86-5.63-2.47-11.28-1.73-16.93.8-6 4.22-11.48 4.94-17.52.88-7.41-2.39-14.62-3.5-22-2.49-16.64 6.07-33.81 2-50.14-1.59-6.37-5.05-12.33-5.29-18.89-.33-9.25 5.86-18.1 4.31-27.23-1.6-9.48-11.23-15.78-20.73-17.35s-19.16.36-28.77.95c-5.82.35-11.72.21-17.4 1.53-15.18 3.52-23.9 6-34.36 17.59-2 2.17-5.45 31.57-5.38 34.83a105.14 105.14 0 00.76 10.78 70.18 70.18 0 01-.09 12.42z" class="cls-3"/><path d="M615.22 1015.75v4.79a6.8 6.8 0 006.81 6.79h91.78a6.79 6.79 0 006.81-6.79v-6.74a6.81 6.81 0 00-6.81-6.8H622a6.83 6.83 0 00-6.81 6.8z" class="cls-4"/><path d="M615.27 971.42v16.89a7.3 7.3 0 005.1 7A30.83 30.83 0 01648.05 978h43.74c12.27 0 .66 7.62 5.61 18l22.22-.45a7.28 7.28 0 006.9-7.28v-26.34a7.26 7.26 0 00-3.55-6.26 7.14 7.14 0 00-3.74-1h-96.67a7.11 7.11 0 00-3.06.68 7.27 7.27 0 00-4.23 6.62z" class="cls-5"/><path d="M618 1006.63v1.7a6.7 6.7 0 014-1.33h91.78a6.73 6.73 0 014 1.33v-1.7a29.2 29.2 0 00-29.21-29.2H647.2a29.2 29.2 0 00-29.2 29.2z" class="cls-6"/><path fill="#cacdcd" d="M383.56 756.77v95.67l4.41-6.51 4.64 5.98 5.01-6.81 4.71 4.46 3.49-4.99 4.56 7.41 4.33-6.95 4.29 6.35v-94.61h-35.44z"/><path d="M817.35 839.31a10.88 10.88 0 00-.55 4.14c.42 3.07 2.37 5.06 4 7.69 3.87 6.27-.34 14.27-.21 21.63.11 6.39 3.58 12.27 4.34 18.61 1.12 9.32-3.67 18.48-3.2 27.85.35 6.82 3.46 13.64 1.75 20.24-.71 2.76-2.22 5.25-3 8-1.09 3.64.1 7.52.3 11.31l.73 13.77c.3 5.52.53 11.33-2 16.25-3.11 6.15-9.89 9.62-16.62 11.09s-13.71 1.35-20.51 2.45c-6 1-11.9 2.91-18 2.88-7-.05-13.79-2.74-20.32-5.39L719.87 990a6.11 6.11 0 01-2.67-1.69 6 6 0 01-.94-3l-2.2-18.07c-1.5-12.34 4.73-20.38 6.79-32.63.95-5.62-5.09-15.75-5.76-21.41-.71-6-4.06-11.54-4.69-17.58-.77-7.43 2.61-14.59 3.82-22 2.74-16.61-5.58-33.89-1.29-50.16 1.67-6.35 5.22-12.26 5.55-18.81.47-9.25-5.59-18.19-3.92-27.29 1.74-9.46 11.47-15.62 21-17s19.16.63 28.76 1.36c5.81.43 11.72.38 17.38 1.78 15.13 3.74 30.2 21 30.58 24 .33 2.58 5.2 23.1 6.17 38.83a43.89 43.89 0 01-1.1 12.98z" class="cls-3"/><path d="M809.25 683.33c-15.6 46.11 9.9 100.56 10.16 124.2.17 16.11-15.65-11.15-44.82-19.37-26.73-7.54-48.68-24.73-64.49-24.73s-53.58 3.39-77.79 29.4-23.62 33.43-20.44-10.29 6.24-111.42 6.24-111.42L820.7 656.2z" class="cls-6"/><path fill="#e2e6e9" d="M244.61 648.73c-7.12-17.13-14.37-34.15-19.52-52-5-17.47-9.06-35.24-15.38-52.32a22.54 22.54 0 01-.82-2.87h-67.68a10.63 10.63 0 00-10.64 10.63v109.46a10.63 10.63 0 0010.64 10.63h113.7c-3.91-7.64-7.01-15.63-10.3-23.53z"/><path fill="#f5f7f8" d="M792.72 864.47l-381.27 171.61-265.32-629.96 393.3-165.65 253.29 624z"/><rect width="348.98" height="311.8" y="672.26" class="cls-10" rx="18.74"/><path d="M558.94 946.19c.09 0-.88.39-1.75.74-1.67.85-3.35 1.65-5 2.55-1.91 1.07-3.77 2.21-5.6 3.42l-2.27 1.62c-1 .81-2.65 2.15-3 2.46-1.52 1.33-3 2.71-4.47 4.11-7.21 6.91-15 13.49-24 17.88-17.85 8.66-37.85 12.47-57.29 15.87s-41 5.38-60.69 1.11C382.1 993.17 372 984 369.22 971c-.4-1.83-.64-3.68-.9-5.53-.22-1.57-.42-3.13-.62-4.7v-.14a61.93 61.93 0 00-3.2-10.58c-7.26-20-15.39-39.6-23.19-59.35s-15-39.92-23-59.69q-1.1-2.7-2.21-5.39l-.08-.12c-.54-.56-1.18-1.24-1.56-1.65-8.46-6-16.56-12-21.45-21.46-5.24-10.13-3.95-21.51 3.56-30a24.06 24.06 0 01-5.3-15.62h-40.63a17.72 17.72 0 00-17.72 17.72v233.84a17.72 17.72 0 0017.72 17.72h297.73a17.72 17.72 0 0017.72-17.72v-64.25c-2.38.65-4.78 1.26-7.15 2.11z" class="cls-11"/><path d="M530.49 756.62h-232.3a34.37 34.37 0 00-14.66 3.27c3.05 7.75 5.65 15.62 8.5 23.55 3.73 10.44 9.4 20.68 14.37 30.95a16.89 16.89 0 011.72 8.12c6.2 13.93 10.33 28.81 15.77 43 5.72 15 11.95 29.56 16.85 44.82 2.12 6.58 5.47 12.65 8.74 19.13a231.34 231.34 0 0110 23.25c5.21 13.83 9.53 28 16.9 40.89 5.49 9.57 12.37 18.54 17.74 28.24.44 0 .9-.05 1.36 0a101 101 0 0114.18 1.65 41.63 41.63 0 007.94.93c7 .06 13.72-1.45 20.55-2.94 15.67-3.4 31.42-6.39 47.08-9.82 15.33-3.35 30.63-7 45.4-12.33 11.72-4.27 23.09-9.36 34.48-14.42V791.22a34.6 34.6 0 00-34.62-34.6z" class="cls-12"/><path d="M368.62 777.63h-54.37a29.55 29.55 0 00-21.08 8.82c2.08 5.29 4.57 10.53 7.17 15.76a14.83 14.83 0 0113.91-9.75h54.37a14.84 14.84 0 0114.83 14.83v54.36a14.84 14.84 0 01-14.83 14.83h-40.46c1.95 4.94 3.9 9.88 5.8 14.83h34.66a29.66 29.66 0 0029.66-29.66v-54.36a29.66 29.66 0 00-29.66-29.66zM514.43 792.46a14.84 14.84 0 0114.83 14.83v54.36a14.84 14.84 0 01-14.83 14.83h-54.37a14.84 14.84 0 01-14.83-14.83v-54.36a14.84 14.84 0 0114.83-14.83h54.37m0-14.83h-54.37a29.66 29.66 0 00-29.66 29.66v54.36a29.66 29.66 0 0029.66 29.66h54.37a29.66 29.66 0 0029.66-29.66v-54.36a29.66 29.66 0 00-29.66-29.66zM383.45 953.09v51.84c3.68 5.57 7.42 11.12 10.64 16.93h.45a29.49 29.49 0 003.74-14.38v-54.39a29.65 29.65 0 00-29.66-29.65H346.4c1 2 2.05 4 3.08 6 1.47 2.89 2.84 5.82 4.14 8.79h15a14.84 14.84 0 0114.83 14.86z" class="cls-2"/><path d="M320.91 857.36a9.75 9.75 0 005.7 1.82h29.66a9.88 9.88 0 009.88-9.88v-29.66a9.88 9.88 0 00-9.88-9.88h-29.66a9.88 9.88 0 00-9.89 9.88v25.54c1.39 4.07 2.77 8.14 4.19 12.18z" class="cls-2"/><rect width="29.66" height="29.66" x="430.4" y="923.44" class="cls-2" rx="9.89"/><rect width="49.43" height="49.43" x="462.53" y="809.76" class="cls-2" rx="9.89"/><path d="M183.12 541.54v44l4.41-6.5 4.64 5.97 5.01-6.8 4.71 4.45 3.49-4.98 4.56 7.41 4.33-6.96 4.29 6.35v-42.94h-35.44zM316 1003.75h-50a4.95 4.95 0 110-9.89h50a4.95 4.95 0 110 9.89zM280.06 920.11a4.69 4.69 0 00-7.79 0l-8.4 13a4.43 4.43 0 003.89 6.79h3.83v46.86a4.58 4.58 0 009.15 0v-46.88h3.83a4.44 4.44 0 003.9-6.79zM318.55 932.88l-8.41-13a4.76 4.76 0 00-7.9 0l-8.41 13a4.41 4.41 0 003.95 6.72h3.83v47.14a4.58 4.58 0 009.15 0V939.6h3.84a4.41 4.41 0 003.95-6.72z" class="cls-13"/><path fill="#dadfe1" d="M80.26 726H68.82a19.69 19.69 0 00-1.57-5.49 3.08 3.08 0 00-5.61 2.54 14.1 14.1 0 011 2.95H52v-10.72a13.74 13.74 0 012.72.89 3.07 3.07 0 102.55-5.59 19.86 19.86 0 00-5.27-1.51v-17.34a3 3 0 00-6 0v17.34a19.86 19.86 0 00-5.27 1.51 3.07 3.07 0 102.55 5.59 13.74 13.74 0 012.72-.89V726H35.41a14.37 14.37 0 011-3 3.08 3.08 0 00-5.61-2.53 19.69 19.69 0 00-1.62 5.53H17.74a2.73 2.73 0 100 5.46h11.44a19.66 19.66 0 001.57 5.5 3.07 3.07 0 002.81 1.8 3 3 0 001.26-.28 3.06 3.06 0 001.54-4.06 14 14 0 01-1-3H46v10.75a14 14 0 01-2.73-.89 3.07 3.07 0 10-2.54 5.59 20 20 0 005.27 1.58v17.33a3 3 0 006 0v-17.33a20 20 0 005.27-1.52 3.07 3.07 0 10-2.54-5.59 14 14 0 01-2.73.89v-10.75h10.6a14 14 0 01-1 3 3.06 3.06 0 001.54 4.06 3 3 0 001.26.28 3.07 3.07 0 002.81-1.8 19.66 19.66 0 001.57-5.5h11.48a2.73 2.73 0 100-5.46z"/><path fill="none" d="M714 815.7c0 2.93.24 10.43-.93 14.07a20.88 20.88 0 00-1.17 3.83c-.36 3.32 2.13 6.16 3.46 9.21 1.81 4.18 1.45 8.94 1 13.49q-1.36 16.37-2.79 32.7a15.73 15.73 0 00.09 4.94 18.58 18.58 0 001.75 4A44.07 44.07 0 01719 927.2c-1.21 5.42-3.48 10.69-3.4 16.25a28.71 28.71 0 00.55 4.87c.65 3.38 1.63 6.72 1.77 10.15.12 3.18-.46 6.46.45 9.5 1 3.21 3.56 6.56 2 9.51"/><path d="M826.17 1040.53v5a7.18 7.18 0 01-7.19 7.17H722.1a7.17 7.17 0 01-7.18-7.17v-7.11a7.18 7.18 0 017.18-7.18H819a7.19 7.19 0 017.19 7.18z" class="cls-4"/><path d="M825.19 999.45v16.9a7.3 7.3 0 01-5.1 6.95 30.83 30.83 0 00-27.67-17.24h-43.75a30.82 30.82 0 00-27.82 17.55 7.28 7.28 0 01-6.9-7.27V990a7.26 7.26 0 013.55-6.26 7.17 7.17 0 013.74-1h96.66a7.19 7.19 0 013.07.68 7.28 7.28 0 014.22 6.62z" class="cls-5"/><path d="M823.24 1030.9v1.79a7.13 7.13 0 00-4.26-1.4H722.1a7.13 7.13 0 00-4.26 1.4v-1.79a30.84 30.84 0 0130.83-30.83h43.74a30.84 30.84 0 0130.83 30.83zM779.25 442.33l-13.11 192.88c-29.81 92.48 23.21 98 59 89.61 93.92-22.1 133.82-122.6 150.81-120.21-8.95-109.13-96.6-135.87-196.7-162.28z" class="cls-6"/><path fill="#e2e6e6" d="M255.09 541.54H194.4c6 7.58 9.66 16.39 13.35 25.14 4.64 11 9.37 22.75 13.4 34.3 3.92 11.23 6.36 22.9 9.26 34.42 1.41 5.6 2.92 11.2 4.65 16.71s4.62 10.09 6.43 15.56a12 12 0 01.55 4.59h13.05a15 15 0 0015-15V556.54a15 15 0 00-15-15z"/><path d="M780.37 337.07V342a27.26 27.26 0 01-14.64 24.19c-.23.13-.47.25-.71.37l-.73.34-.74.32c-.27.12-.54.21-.8.32s-.48.18-.71.25c-.58.21-1.17.39-1.76.55l-.6.16-.8.18-.76.16c-.38.08-.76.13-1.14.19l-.86.11-.46.05h-.07c-.38 0-.76.06-1.14.08s-.93 0-1.4 0h-97.59q-1.29 0-2.55-.12l-.52-.06c-.28 0-.56-.06-.84-.11l-.51-.07c-.39-.06-.78-.13-1.17-.22l-.83-.19a5.72 5.72 0 01-.74-.19c-.3-.07-.58-.16-.86-.24l-.23-.07c-.36-.11-.71-.24-1.07-.36a3.24 3.24 0 01-.33-.13c-.31-.11-.61-.23-.91-.36s-.77-.33-1.15-.51a27.32 27.32 0 0111.71-52h54.65A13.66 13.66 0 00723.77 301v-11.73a28.3 28.3 0 0156.6 0v47.8z" class="cls-2"/><path d="M765.73 366.14v38l-1-.39c-.34-.13-.69-.24-1.05-.34a10.8 10.8 0 00-1.08-.29c-.36-.1-.72-.18-1.09-.25s-.8-.15-1.22-.2a20.83 20.83 0 00-2.12-.22h-1.2a23.42 23.42 0 00-23.42 23.42v13.63a29.28 29.28 0 11-58.55 0v-13.65a23.43 23.43 0 00-23.42-23.42h-1.15l-1 .07-.65.07-.55.07-.62.1h-.22a5 5 0 00-.77.15l-.3.07a5.18 5.18 0 00-.73.18 19 19 0 00-1.86.56v-37.06c.38.18.76.35 1.15.51s.6.25.91.36a3.24 3.24 0 00.33.13l1.07.36.23.07c.28.08.56.17.86.24a5.72 5.72 0 00.74.19l.83.19c.39.09.78.16 1.17.22l.51.07c.28 0 .56.08.84.11s.35 0 .52.06q1.26.12 2.55.12H754.43c.46 0 .76 0 1.14-.08h.07l.46-.05.9-.14c.38-.06.76-.11 1.14-.19a6 6 0 00.76-.16l.8-.18c.2 0 .4-.1.6-.16.59-.16 1.18-.34 1.76-.55a5 5 0 00.71-.25c.26-.11.53-.2.8-.32l.74-.32.73-.34c.22-.14.46-.26.69-.39z" class="cls-17"/><rect width="317.23" height="317.23" x="294.07" y="439.55" class="cls-11" rx="36.4"/><path d="M404.58 477.25a15.62 15.62 0 0115.6 15.6v57.21a15.62 15.62 0 01-15.6 15.6h-57.2a15.61 15.61 0 01-15.6-15.6v-57.21a15.61 15.61 0 0115.6-15.6h57.2m0-15.6h-57.2a31.2 31.2 0 00-31.21 31.2v57.21a31.2 31.2 0 0031.21 31.2h57.2a31.2 31.2 0 0031.2-31.2v-57.21a31.2 31.2 0 00-31.2-31.2zM558 477.25a15.61 15.61 0 0115.6 15.6v57.21a15.61 15.61 0 01-15.6 15.6h-57.2a15.62 15.62 0 01-15.6-15.6v-57.21a15.62 15.62 0 0115.6-15.6H558m0-15.6h-57.2a31.2 31.2 0 00-31.2 31.2v57.21a31.2 31.2 0 0031.2 31.2H558a31.2 31.2 0 0031.21-31.2v-57.21a31.2 31.2 0 00-31.21-31.2zM404.58 630.66a15.62 15.62 0 0115.6 15.6v57.21a15.62 15.62 0 01-15.6 15.6h-57.2a15.61 15.61 0 01-15.6-15.6v-57.21a15.61 15.61 0 0115.6-15.6h57.2m0-15.6h-57.2a31.2 31.2 0 00-31.21 31.2v57.21a31.2 31.2 0 0031.21 31.2h57.2a31.2 31.2 0 0031.2-31.2v-57.21a31.2 31.2 0 00-31.2-31.2z" class="cls-12"/><rect width="52" height="52" x="349.98" y="495.45" class="cls-12" rx="10.4"/><rect width="52" height="52" x="349.98" y="648.86" class="cls-12" rx="10.4"/><rect width="31.2" height="31.2" x="469.59" y="615.06" class="cls-12" rx="10.4"/><rect width="31.2" height="31.2" x="557.99" y="615.06" class="cls-12" rx="10.4"/><rect width="31.2" height="31.2" x="513.79" y="659.26" class="cls-12" rx="10.4"/><rect width="31.2" height="31.2" x="557.99" y="703.47" class="cls-12" rx="10.4"/><rect width="31.2" height="31.2" x="469.59" y="703.47" class="cls-12" rx="10.4"/><rect width="52" height="52" x="503.39" y="495.45" class="cls-12" rx="10.4"/><path fill="url(#id1)" d="M387.98 998.81l392.39-159.76-231.66-584.18-393.08 152.74 232.35 591.2z" opacity=".6"/><path d="M491.52 221.21L170.8 348.41a54.49 54.49 0 00-30.55 70.73l237.67 599.23a54.46 54.46 0 0070.72 30.55l320.72-127.2A54.48 54.48 0 00799.91 851L562.24 251.77a54.47 54.47 0 00-70.72-30.56zm267.21 587.52a18.17 18.17 0 01-10.19 23.57l-346 137.25a18.17 18.17 0 01-23.58-10.19L174.74 444.53A18.16 18.16 0 01184.92 421L531 283.71a18.15 18.15 0 0123.57 10.18z" class="cls-12"/><circle cx="592.26" cy="943.12" r="33.59" class="cls-3"/><rect width="108.95" height="21.79" x="291.75" y="311.9" class="cls-3" rx="10.9" transform="rotate(-21.63 346.28992204 322.84543705)"/><circle cx="262.89" cy="355.84" r="10.9" class="cls-3"/><path d="M765.73 404.15l-1-.39c-.35-.13-.7-.23-1.05-.34s-.72-.21-1.08-.29-.72-.18-1.09-.25-.8-.15-1.22-.2a21.14 21.14 0 00-2.12-.22h-1.2a23.42 23.42 0 00-23.42 23.42v13.62a29.28 29.28 0 11-58.55 0v-13.65a23.43 23.43 0 00-23.42-23.42h-1.15l-1 .07-.65.07-.55.07-.62.1h-.22c-.26 0-.52.09-.77.15l-.3.07-.73.18c-.63.16-1.26.36-1.86.57a23.46 23.46 0 00-15.62 22.07v306.88c0 1.3 0 2.59.1 3.86v.3c.06 1.08.13 2.15.24 3.22a73.34 73.34 0 001.19 7.92 75.68 75.68 0 0010.89 26.37 76.52 76.52 0 0018.1 19.24l.08.06q2.87 2.13 5.94 4l.16.1c1 .62 2 1.21 3.09 1.78h.09c1 .56 2.07 1.1 3.13 1.61l.14.06c1 .51 2.09 1 3.16 1.44l.39.16c2.12.88 4.28 1.68 6.48 2.37l.56.17c1.08.34 2.18.65 3.28.94h.23c1 .27 2.09.51 3.15.73l.59.12c1.1.23 2.2.42 3.31.6l.6.08c1 .15 2.05.28 3.08.39l.47.06c1.13.11 2.26.19 3.39.26h.77c1.16.05 2.32.09 3.49.09 1.19 0 2.36 0 3.53-.09h.67c1.15-.06 2.29-.15 3.43-.26h.45c1.16-.12 2.32-.27 3.47-.44h.06c1.2-.18 2.38-.4 3.56-.64l.33-.06c1.08-.23 2.16-.46 3.22-.73a76.26 76.26 0 007.39-2.29h.15q3.38-1.25 6.6-2.79l.24-.11c.89-.43 1.77-.87 2.64-1.34a76.09 76.09 0 0040.39-67.22V425.85a23.39 23.39 0 00-14.61-21.7z" class="cls-2"/><path d="M785.41 702.14c5.68 1.74 19.54.35 18.45-12.43l.08-.91c3.71.27 9.1 0 17.06-.78 23.86-2.48 94.47-2.47 121.32-3.74 10.65-.51 19.42-.31 26-1.35-25.9 85.33-113.91 106.12-176.73 106-20.72 0-74.14-6.62-83.9-8.23-19.25-3.17-36.22-4.16-37-10.14-2.71-19.68 48.64-1.28 49.47-6 .49-2.76-3.44-4.38-3.09-11.23.26-5.08 3.73-5.54 3.9-10.07.12-3.09-4.48-6-4.2-11.52.36-7.11 3.92-6.23 4.32-9.88 1.16-10.53-62-22.31-58.94-35.76 5.62-24.53 69 21.36 82.75 6 13.33-14.95 23.21 4.78 40.51 10.04z" class="cls-1"/><g clip-path="url(#id2)"><path d="M869.52 691.55c-33.71 3.85-38.63 12.61-48.44 30.07-.79 1.4-1.61 2.86-2.48 4.37-3.75 6.55-15.59 11.58-23 8-3.68-1.8-4.6-5.35-2.66-10.28 1.67-4.22 4.71-4.78 8.91-5.54 7.07-1.29 16.76-3 24.19-24.79a1 1 0 00-.51-1.22 1 1 0 00-1.26.37 28.19 28.19 0 01-27 13.6c-4.51-.56-8.15-2.33-10.35-4.92a14.66 14.66 0 01-2.78-.52c2.27 4 6.91 6.67 12.89 7.42a29.86 29.86 0 0024.67-9.1c-6.54 14.71-14.06 16.08-20.23 17.2-4.28.78-8.32 1.51-10.4 6.77-2.31 5.87-1 10.54 3.63 12.8 8.5 4.15 21.38-1.43 25.58-8.74.87-1.52 1.69-3 2.48-4.39 7.63-13.57 12.2-21.7 30.7-26.31-12.5 6.07-17.1 16-21.58 25.57-5.15 11.09-10 21.56-26.43 26.53-11.55 3.5-14.28 9.23-14.88 12.33a10.1 10.1 0 003.85 9.83c4.3 3.49 10.71 4 16.72 1.37 6.32-2.78 9-8.19 11.65-13.42 3.56-7.09 7.22-14.41 20.13-16.26-9.09 5-11.56 12-14 18.88s-4.63 13.18-13.37 17.39a40 40 0 01-7.28 2.45c-5.37 1.43-10.45 2.8-11 9l2-.08c.51-4.37 3.88-5.5 9.51-7a42.53 42.53 0 007.62-2.58c9.48-4.57 12-11.66 14.38-18.53 2.78-7.91 5.41-15.38 18-20a1 1 0 00-.35-1.92c-18.73.38-23.36 9.63-27.45 17.79-2.58 5.14-5 10-10.67 12.48-6.39 2.81-11.78 1.28-14.71-1.09a8.18 8.18 0 01-3.15-7.9c.88-4.53 5.8-8.47 13.51-10.8 17.26-5.23 22.55-16.6 27.66-27.59 6.06-13 11.79-25.35 36.08-29.19a1 1 0 00.83-1.12 1 1 0 00-1.01-.93z" class="cls-13"/><path d="M924.48 697.57c-16.29-6-34.72-5-48.11 2.71-29.48 16.94-21.57 35.14-17.32 44.92.9 2.07 2 4.65 1.63 5.21-.09.11-.52.29-1.63.2-4.31-.34-9.37 2.09-12.29 5.92a11.79 11.79 0 00-1.85 11.32c1.18 3.4 3.19 5.65 6 6.67a11.62 11.62 0 006 .38A8 8 0 00855 779a6.11 6.11 0 00.37 3l1.94-.49a4.17 4.17 0 01-.35-2.23c.27-2.18 2.28-4.44 5.82-6.54a1 1 0 00.35-1.36 1 1 0 00-1.35-.36c-2.61 1.55-6.87 2.93-10.24 1.68-2.2-.81-3.81-2.65-4.79-5.46a9.74 9.74 0 011.55-9.45c2.54-3.32 6.89-5.44 10.58-5.14 1.07.08 2.6.07 3.38-1 1-1.48.06-3.74-1.43-7.16-4-9.21-11.44-26.34 16.49-42.39 12.9-7.41 30.7-8.4 46.46-2.57 12.58 4.65 22 12.89 26 22.73.44-.63.88-1.28 1.32-1.93-4.45-9.92-14.01-18.09-26.62-22.76z" class="cls-13"/><path d="M878.6 746.42a4.56 4.56 0 01-1.6-.42c-1.72-.78-3-2.65-4.17-5.86-2.75-7.88-3.85-19.27 2.13-25.44 4.75-4.89 12.8-5.5 23.93-1.8 11.34 3.77 15.25 14 13.16 21.73-1.71 6.31-6.78 9.53-12.95 8.19s-10.7.54-14.41 2c-2.24.94-4.25 1.75-6.09 1.6zm9.67-33.83c-5.24-.42-9.22.76-11.9 3.52-5.34 5.5-4.24 16-1.68 23.37.92 2.64 1.94 4.18 3.12 4.72 1.5.68 3.56-.14 6.16-1.19 3.74-1.51 8.87-3.57 15.55-2.12 6.13 1.33 9.51-2.63 10.63-6.77 1.84-6.84-1.69-15.93-11.88-19.32a43.72 43.72 0 00-10-2.21zM890.81 756.91c-7.19 0-11.65 1.39-13.27 4.26s-.2 7 4.47 12.27l2-.79c-4.31-4.7-5.94-8.31-4.71-10.5 2.45-4.36 15.61-3.91 28.21-1.19l2.42-1.49a90.64 90.64 0 00-19.12-2.56z" class="cls-13"/></g><path d="M986.67 618.59c2.19 16.76-7.13 16.43-4.34 45.23 1.39 14.28-3.5 18.76-13.48 20.35-6.56 1-15.33.83-26 1.34-26.84 1.27-97.46 1.27-121.31 3.74-8 .82-13.36 1.06-17.07.79-5.4-.4-7.22-1.88-8.12-4.2-1.47-3.78 4.29-8 2-14.2a10.8 10.8 0 00-.86-1.8c-5-8.37-9.06-17 26.72-25.46 93.92-22.1 134.68-42.17 151.67-39.78 6.62.92 9.63 5.19 10.79 13.99z" class="cls-2"/><path d="M438.15 242.27l-8.57-9.94a10 10 0 00-14.15-1l-2.2 1.89a10 10 0 00-3.46 7.08 11 11 0 00-14.31.08l-.66.58a11 11 0 00-3.83 8.46 11.46 11.46 0 00-18.78 7.2 11.48 11.48 0 00-15.87 16.47l14.1 16.36a11.48 11.48 0 0020.07-6 11.48 11.48 0 0014.67-.27 11.47 11.47 0 003.92-9.86 11 11 0 0012.55-1.32l.66-.58a11 11 0 003.5-11 10 10 0 009.13-2.1l2.19-1.89a10 10 0 001.04-14.16z" class="cls-1"/><path d="M438.15 242.27l-8.57-9.94a10 10 0 00-14.15-1l-2.2 1.89a10 10 0 00-3.46 7.08 11 11 0 00-14.31.08l-.66.58a11 11 0 00-3.83 8.46 11.46 11.46 0 00-18.78 7.2 11.48 11.48 0 00-15.87 16.47l14.1 16.36a11.48 11.48 0 0020.07-6 11.48 11.48 0 0014.67-.27 11.47 11.47 0 003.92-9.86 11 11 0 0012.55-1.32l.66-.58a11 11 0 003.5-11 10 10 0 009.13-2.1l2.19-1.89a10 10 0 001.04-14.16z" class="cls-17"/><path d="M889.88 124.47H433.14c14.41-45 54.09-77.34 100.79-77.34A99.89 99.89 0 01579.16 58c6.72-33 39.05-58 77.9-58 43.74 0 79.2 31.65 79.2 70.7 0 1.51-.07 3-.17 4.5 16.38-11.5 37.35-18.4 60.22-18.4 47.08 0 86.14 29.28 93.57 67.67z" class="cls-10"/><path d="M44.71 209.8h280.46c-8.85-23.51-33.21-40.41-61.89-40.41a70.29 70.29 0 00-27.77 5.61c-4.13-17.22-24-30.28-47.84-30.28-26.85 0-48.63 16.54-48.63 36.94 0 .79 0 1.58.1 2.36-10-6-22.93-9.62-37-9.62-28.88.04-52.87 15.34-57.43 35.4z" class="cls-11"/><path d="M869.52 691.55c-33.71 3.85-38.63 12.61-48.44 30.07-.79 1.4-1.61 2.86-2.48 4.37-3.75 6.55-15.59 11.58-23 8-3.68-1.8-4.6-5.35-2.66-10.28 1.67-4.22 4.71-4.78 8.91-5.54 7.07-1.29 16.76-3 24.19-24.79a1 1 0 00-.51-1.22 1 1 0 00-1.26.37 28.19 28.19 0 01-27 13.6 17.39 17.39 0 01-8.74-3.39 14.16 14.16 0 01-3.15-.55l-.29-.09c2.49 3.19 6.7 5.35 11.94 6a29.86 29.86 0 0024.67-9.1c-6.54 14.71-14.06 16.08-20.23 17.2-4.28.78-8.32 1.51-10.4 6.77-2.31 5.87-1 10.54 3.63 12.8 8.5 4.15 21.38-1.43 25.58-8.74.87-1.53 1.69-3 2.48-4.39 7.63-13.57 12.2-21.7 30.7-26.31-12.5 6.07-17.1 16-21.58 25.57-5.15 11.09-10 21.56-26.43 26.53-11.55 3.5-14.28 9.23-14.88 12.33a10.1 10.1 0 003.85 9.83c4.3 3.49 10.71 4 16.72 1.37 6.32-2.78 9-8.19 11.65-13.42 3.56-7.1 7.22-14.41 20.13-16.26-9.09 5-11.56 12-14 18.88s-4.63 13.18-13.37 17.39a40 40 0 01-7.28 2.45c-5.05 1.35-9.84 2.64-10.86 7.94h2c.91-3.52 4.16-4.59 9.31-6a42.53 42.53 0 007.62-2.58c9.48-4.57 12-11.66 14.38-18.53 2.78-7.91 5.41-15.38 18-20a1 1 0 00-.35-1.92c-18.73.38-23.36 9.63-27.45 17.79-2.58 5.14-5 10-10.67 12.48-6.39 2.81-11.78 1.28-14.71-1.09a8.18 8.18 0 01-3.15-7.9c.88-4.53 5.8-8.47 13.51-10.8 17.26-5.23 22.55-16.6 27.66-27.59 6.06-13 11.79-25.35 36.08-29.19a1 1 0 00.83-1.12 1 1 0 00-.95-.94z" class="cls-2"/><path d="M924.48 697.57c-16.29-6-34.72-5-48.11 2.71-29.48 16.94-21.57 35.14-17.32 44.92.9 2.07 2 4.65 1.63 5.21-.09.11-.52.29-1.63.2-4.31-.34-9.37 2.09-12.29 5.92a11.79 11.79 0 00-1.85 11.32c1.18 3.4 3.19 5.65 6 6.67a11.62 11.62 0 006 .38A8 8 0 00855 779a6.11 6.11 0 00.37 3l1.94-.49a4.17 4.17 0 01-.35-2.23c.27-2.18 2.28-4.44 5.82-6.54a1 1 0 00.35-1.36 1 1 0 00-1.35-.36c-2.61 1.55-6.87 2.93-10.24 1.68-2.2-.81-3.81-2.65-4.79-5.46a9.74 9.74 0 011.55-9.45c2.54-3.32 6.89-5.44 10.58-5.14 1.07.08 2.6.07 3.38-1 1-1.48.06-3.74-1.43-7.16-4-9.21-11.44-26.34 16.49-42.39 12.9-7.41 30.7-8.4 46.46-2.57 12.58 4.65 22 12.89 26 22.73.44-.63.88-1.28 1.32-1.93-4.45-9.92-14.01-18.09-26.62-22.76z" class="cls-2"/><path d="M878.6 746.42a4.56 4.56 0 01-1.6-.42c-1.72-.78-3-2.65-4.17-5.86-2.75-7.88-3.85-19.27 2.13-25.44 4.75-4.89 12.8-5.5 23.93-1.8 11.34 3.77 15.25 14 13.16 21.73-1.71 6.31-6.78 9.53-12.95 8.19s-10.7.54-14.41 2c-2.24.94-4.25 1.75-6.09 1.6zm9.67-33.83c-5.24-.42-9.22.76-11.9 3.52-5.34 5.5-4.24 16-1.68 23.37.92 2.64 1.94 4.18 3.12 4.72 1.5.68 3.56-.14 6.16-1.19 3.74-1.51 8.87-3.57 15.55-2.12 6.13 1.33 9.51-2.63 10.63-6.77 1.84-6.84-1.69-15.93-11.88-19.32a43.72 43.72 0 00-10-2.21zM890.81 756.91c-7.19 0-11.65 1.39-13.27 4.26s-.2 7 4.47 12.27l2-.79c-4.31-4.7-5.94-8.31-4.71-10.5 2.45-4.36 15.61-3.91 28.21-1.19l2.42-1.49a90.64 90.64 0 00-19.12-2.56z" class="cls-2"/></g></g></svg>