<?xml version="1.0" encoding="UTF-8"?>
<svg width="87px" height="18px" viewBox="0 0 87 18" version="1.1" xmlns="http://www.w3.org/2000/svg" xmlns:xlink="http://www.w3.org/1999/xlink">
    <!-- Generator: Sketch 54.1 (76490) - https://sketchapp.com -->
    <title>Shape</title>
    <desc>Created with Sketch.</desc>
    <g id="Page-1" stroke="none" stroke-width="1" fill="none" fill-rule="evenodd">
        <g id="logo_original" transform="translate(-43.000000, -7.000000)" fill="#00BFA5">
            <path d="M123.916934,24.975246 C122.083124,24.975246 120.562256,24.3952253 119.356352,23.2351839 C118.149774,22.0751425 117.546823,20.5576465 117.546823,18.6820215 C117.546823,16.8232575 118.145728,15.3098081 119.344212,14.140999 C120.542023,12.9728643 122.041983,12.3887969 123.842745,12.3887969 C125.594273,12.3887969 127.040278,12.940491 128.18076,14.0425304 C129.321243,15.1452441 129.891147,16.5925981 129.891147,18.3859411 C129.891147,18.6166005 129.866192,18.9781018 129.816958,19.4717938 L120.96827,19.4717938 C121.0836,20.3768959 121.41003,21.0756185 121.947561,21.5693105 C122.484417,22.0630026 123.141325,22.3098486 123.918283,22.3098486 C124.546189,22.3098486 125.091138,22.1533779 125.55448,21.8411109 C126.017148,21.528844 126.306484,21.0843863 126.421814,20.5084122 L129.396106,21.323139 C129.081816,22.5243214 128.424908,23.4327956 127.425384,24.0499107 C126.424512,24.6663513 125.255702,24.975246 123.916934,24.975246 Z M121.091693,17.2009454 L126.619425,17.2009454 C126.520282,16.6087847 126.222853,16.111046 125.727138,15.7077293 C125.231422,15.305087 124.61161,15.1027542 123.868374,15.1027542 C122.445974,15.1034287 121.521313,15.8028257 121.091693,17.2009454 Z M112.311799,13.8260343 L112.311799,7.30619697 L115.731223,7.30619697 L115.731223,24.7324467 L112.311799,24.7324467 L112.311799,23.4071668 C111.391859,24.4525529 110.043648,24.975246 108.403403,24.975246 C106.696389,24.975246 105.31513,24.3776898 104.160485,23.1832518 C103.005839,21.9888139 102.419074,20.50504 102.419074,18.6631371 C102.419074,16.8050475 103.009885,15.2484338 104.173299,14.0620892 C105.336713,12.876419 106.819138,12.2296285 108.526152,12.2296285 C110.132674,12.2303029 111.374998,12.7975092 112.311799,13.8260343 Z M112.292914,18.6294149 C112.292914,17.6177509 111.996159,16.8003264 111.401976,16.1784903 C110.808466,15.5566541 110.040276,15.2652949 109.136523,15.2652949 C108.232769,15.2652949 107.540791,15.5013498 106.938514,16.1150927 C106.336237,16.7288355 105.961246,17.6352864 105.961246,18.6638115 C105.961246,19.67615 106.213488,20.4692945 106.81644,21.0911307 C107.418717,21.7129668 108.233444,21.9409284 109.137197,21.9409284 C110.04095,21.9409284 110.80914,21.7028502 111.40265,21.081014 C111.996159,20.4585035 112.292914,19.6410789 112.292914,18.6294149 Z M96.7314986,12.6309218 L100.119899,12.6309218 L100.119899,24.7331211 L96.7314986,24.7331211 L96.7314986,12.6309218 Z M99.7934683,10.3695156 C99.4137571,10.7478779 98.9544616,10.9373963 98.4149075,10.9373963 C97.8753533,10.9373963 97.4194301,10.7478779 97.0471377,10.3695156 C96.6755198,9.99115324 96.4893736,9.53522999 96.4893736,9.0010714 C96.4893736,8.46691281 96.6755198,8.01098956 97.0471377,7.63262722 C97.4187556,7.25426489 97.8746789,7.06542094 98.4149075,7.06542094 C98.9544616,7.06542094 99.4137571,7.25426489 99.7934683,7.63262722 C100.172505,8.01098956 100.362023,8.46758725 100.362023,9.0010714 C100.362023,9.53455555 100.172505,9.99115324 99.7934683,10.3695156 Z M89.3281414,24.975246 C87.9448595,24.975246 86.7659337,24.6832123 85.7906896,24.099145 C84.8161199,23.5150776 84.2030515,22.6801176 83.9535078,21.5942649 L86.8037025,20.8537269 C86.9534287,21.3143712 87.2414158,21.6684536 87.6663146,21.9146252 C88.0912135,22.1614712 88.5950222,22.2848942 89.1790896,22.2848942 C89.7287603,22.2848942 90.1745669,22.1783323 90.5165094,21.9638595 C90.8577774,21.7500612 91.0270625,21.4236309 91.0290858,21.0998984 C91.0311091,20.7707704 90.8827317,20.5367388 90.5913725,20.3964547 C90.2993388,20.2568451 89.8292523,20.1374688 89.1790896,20.0383257 C88.5788356,19.9560437 88.1283079,19.8885994 87.8288553,19.828574 C86.9291488,19.6491723 86.0550711,19.3922096 85.3563485,18.9227975 C85.032616,18.705627 84.5497151,18.2362149 84.2914035,17.7924316 C84.033092,17.3479739 83.9042734,16.8300019 83.9042734,16.2378412 C83.9042734,15.0204722 84.3831277,14.0749036 85.3415108,13.3997865 C86.2998938,12.7253438 87.5125417,12.3881225 88.9787801,12.3881225 C90.2784311,12.3881225 91.3872149,12.6680162 92.3037824,13.2271292 C93.22035,13.7869166 93.8118363,14.6259233 94.0789155,15.7441492 L91.1788121,16.5089672 C91.0621335,16.0321362 90.7910075,15.6740072 90.3661087,15.4352545 C89.9412098,15.1971762 89.461681,15.0771254 88.9288713,15.0771254 C87.9286728,15.0771254 87.3931654,15.475721 87.391142,16.1575826 C87.3897932,16.4867106 87.5543572,16.7308588 87.803901,16.8785618 C88.0541192,17.0269392 89.0388055,17.2184809 89.6410828,17.3230195 C90.0464228,17.3931615 91.0864134,17.5671677 91.5706633,17.687893 C92.9242697,18.0251143 93.9359337,18.6806726 94.3655537,19.8771339 C94.4869534,20.2157041 94.5530487,20.5805776 94.5530487,20.9751265 C94.5530487,22.2255433 94.044519,23.204834 93.0281339,23.9116499 C92.0117488,24.6211636 90.7781931,24.975246 89.3281414,24.975246 Z M71.5599493,24.7331211 L71.5599493,7.30619697 L74.9503726,7.30619697 L74.9503726,17.1645255 L79.4543007,12.5338021 L83.2655762,12.5338021 L78.9100255,17.1395711 L83.6614741,24.7324467 L79.8751529,24.7324467 L76.5589183,19.8029452 L74.9503726,21.5207507 L74.9503726,24.7324467 L71.5599493,24.7324467 L71.5599493,24.7331211 Z M64.7824749,12.6309218 L68.1708749,12.6309218 L68.1708749,24.7331211 L64.7824749,24.7331211 L64.7824749,12.6309218 Z M67.8444446,10.3695156 C67.4647334,10.7478779 67.0054379,10.9373963 66.4658838,10.9373963 C65.9263297,10.9373963 65.4704064,10.7478779 65.0981141,10.3695156 C64.7264961,9.99115324 64.54035,9.53522999 64.54035,9.0010714 C64.54035,8.46691281 64.7264961,8.01098956 65.0981141,7.63262722 C65.469732,7.25426489 65.9256552,7.06542094 66.4658838,7.06542094 C67.0054379,7.06542094 67.4647334,7.25426489 67.8444446,7.63262722 C68.2234814,8.01098956 68.4129998,8.46758725 68.4129998,9.0010714 C68.4129998,9.53455555 68.2234814,9.99115324 67.8444446,10.3695156 Z M58.3685251,24.7331211 L58.3685251,7.30619697 L61.7569251,7.30619697 L61.7569251,24.7331211 L58.3685251,24.7331211 Z M50.205071,12.2303029 C51.9120854,12.2303029 53.3945104,12.876419 54.557924,14.0627636 C55.7206632,15.2491083 56.3121494,16.805722 56.3121494,18.6638115 C56.3121494,20.50504 55.7253843,21.9888139 54.5707384,23.1839263 C53.4160926,24.3790387 52.034834,24.9759205 50.3278196,24.9759205 C48.687575,24.9759205 47.3400386,24.4532274 46.4194243,23.4078413 L46.4194243,24.7331211 L43,24.7331211 L43,7.30619697 L46.4194243,7.30619697 L46.4194243,13.8260343 C47.3555508,12.7975092 48.5985486,12.2303029 50.205071,12.2303029 Z M47.3285731,21.0803396 C47.9220826,21.7021757 48.6902728,21.940254 49.594026,21.940254 C50.4977792,21.940254 51.3118315,21.7129668 51.9147832,21.0904562 C52.5170605,20.4686201 52.7699765,19.6748011 52.7699765,18.6631371 C52.7699765,17.634612 52.3949864,16.7281611 51.7927091,16.1144182 C51.1904318,15.5006754 50.4977792,15.2646205 49.5947004,15.2646205 C48.6909472,15.2646205 47.9234315,15.5553053 47.3292475,16.1778158 C46.7350635,16.799652 46.4383087,17.6170765 46.4383087,18.6287405 C46.4376343,19.6410789 46.7343891,20.4585035 47.3285731,21.0803396 Z" id="Shape"></path>
        </g>
    </g>
</svg>