<svg viewBox="0 0 33 32" version="1.1" xmlns="http://www.w3.org/2000/svg" xmlns:xlink="http://www.w3.org/1999/xlink">
  <path d="M19.8692496,31.8535515 C12.7155012,31.8535515 6.89591875,26.033969 6.89591875,18.8802207 L6.89591875,3.70374271 C6.89591875,1.67589242 8.53975299,0.0320581782 10.5676033,0.0320581782 C12.5954536,0.0320581782 14.2392878,1.67589242 14.2392878,3.70374271 L14.2392878,18.8802207 C14.2392878,21.9844072 16.765063,24.5101824 19.8692496,24.5101824 C22.9734361,24.5101824 25.4992113,21.9844072 25.4992113,18.8802207 L25.4992113,14.2290565 C25.4992113,12.2012062 27.1430456,10.557372 29.1708959,10.557372 C31.1987462,10.557372 32.8425804,12.2012062 32.8425804,14.2290565 L32.8425804,18.8802207 C32.8425804,26.033969 27.0229979,31.8535515 19.8692496,31.8535515 Z M3.83606796,31.8535515 C1.74044527,31.8535515 0.0416074227,30.1547137 0.0416074227,28.059091 C0.0416074227,25.9634683 1.74044527,24.2646304 3.83606796,24.2646304 C5.93169065,24.2646304 7.63052849,25.9634683 7.63052849,28.059091 C7.63052849,30.1547137 5.93169065,31.8535515 3.83606796,31.8535515 Z M19.8692496,4.92741019 C21.8970999,4.92741019 23.5409341,6.57124444 23.5409341,8.59909473 L23.5409341,18.8802207 C23.5409341,20.908071 21.8970999,22.5519052 19.8692496,22.5519052 C17.8413993,22.5519052 16.197565,20.908071 16.197565,18.8802207 L16.197565,8.59909473 C16.197565,6.57124444 17.8413993,4.92741019 19.8692496,4.92741019 Z"
        fill="#808DA2" fill-rule="evenodd"></path>
</svg>
