<?xml version="1.0" encoding="UTF-8"?>
<svg width="33px" height="32px" viewBox="0 0 33 32" version="1.1" xmlns="http://www.w3.org/2000/svg" xmlns:xlink="http://www.w3.org/1999/xlink">
    <!-- Generator: Sketch 54.1 (76490) - https://sketchapp.com -->
    <title>Shape</title>
    <desc>Created with Sketch.</desc>
    <g id="Page-1" stroke="none" stroke-width="1" fill="none" fill-rule="evenodd">
        <g id="logo_sg" fill="#808DA2">
            <path d="M3.8537045,32 C1.74844707,32 0.0417987152,30.2933516 0.0417987152,28.1880942 C0.0417987152,26.0828368 1.74844707,24.3761884 3.8537045,24.3761884 C5.95896193,24.3761884 7.66561028,26.0828368 7.66561028,28.1880942 C7.66561028,30.2933516 5.95896193,32 3.8537045,32 Z M19.9585655,4.95 C21.9957391,4.95 23.647131,6.60139186 23.647131,8.63856531 L23.647131,18.9669593 C23.647131,21.0041328 21.9957391,22.6555246 19.9585655,22.6555246 C17.9213919,22.6555246 16.27,21.0041328 16.27,18.9669593 L16.27,8.63856531 C16.27,6.60139186 17.9213919,4.95 19.9585655,4.95 Z M19.9605996,32 C12.7739615,32 6.92762313,26.1536617 6.92762313,18.9670236 L6.92762313,3.72077088 C6.92762313,1.68359743 8.57901499,0.0322055675 10.6161884,0.0322055675 C12.6533619,0.0322055675 14.3047537,1.68359743 14.3047537,3.72077088 L14.3047537,18.9670236 C14.3047537,22.0854818 16.8421413,24.6228694 19.9605996,24.6228694 C23.0790578,24.6228694 25.6164454,22.0854818 25.6164454,18.9670236 L25.6164454,14.2944754 C25.6164454,12.2573019 27.2678373,10.6059101 29.3050107,10.6059101 C31.3421842,10.6059101 32.993576,12.2573019 32.993576,14.2944754 L32.993576,18.9670236 C32.993576,26.1536617 27.1472377,32 19.9605996,32 Z" id="Shape"></path>
        </g>
    </g>
</svg>