<svg viewBox="0 0 98 20" version="1.1" xmlns="http://www.w3.org/2000/svg" xmlns:xlink="http://www.w3.org/1999/xlink">
  <path d="M90.3569815,19.9992469 C88.3092333,19.9992469 86.6109354,19.351559 85.264347,18.0561832 C83.9170056,16.7608074 83.2437114,15.066275 83.2437114,12.9718331 C83.2437114,10.8962193 83.9124868,9.20620575 85.2507908,7.90103931 C86.5883416,6.596626 88.2632927,5.94441934 90.2741377,5.94441934 C92.2300045,5.94441934 93.8447055,6.56047598 95.1182407,7.79108299 C96.3917759,9.02244314 97.0281669,10.6386504 97.0281669,12.641211 C97.0281669,12.8987799 97.0003013,13.3024552 96.9453231,13.853743 L87.0643169,13.853743 C87.1931014,14.8644374 87.5576141,15.6446754 88.1578551,16.1959632 C88.757343,16.7472511 89.4908872,17.022895 90.3584877,17.022895 C91.0596475,17.022895 91.6681729,16.8481699 92.1855701,16.4994728 C92.7022142,16.1507757 93.025305,15.654466 93.1540895,15.0112969 L96.4753728,15.9210725 C96.1244163,17.2623889 95.3908721,18.2768489 94.2747402,18.9659587 C93.157102,19.6543154 91.8519355,19.9992469 90.3569815,19.9992469 Z M87.2021389,11.3179696 L93.3747552,11.3179696 C93.2640458,10.6567254 92.9319175,10.1009188 92.3783702,9.65054978 C91.824823,9.20093388 91.1327007,8.97499623 90.3027564,8.97499623 C88.7144148,8.97574936 87.6818798,9.75674047 87.2021389,11.3179696 Z M77.3979515,7.54932972 L77.3979515,0.268865793 L81.2162976,0.268865793 L81.2162976,19.7281217 L77.3979515,19.7281217 L77.3979515,18.2482302 C76.3706884,19.4155746 74.8651905,19.9992469 73.0335894,19.9992469 C71.1274288,19.9992469 69.5850279,19.3319777 68.2956771,17.9981925 C67.0063263,16.6644073 66.3511071,15.0075313 66.3511071,12.9507456 C66.3511071,10.8758849 67.010845,9.13767134 68.3099864,7.81292363 C69.6091279,6.48892906 71.2644977,5.76668173 73.1706582,5.76668173 C74.9646031,5.76743485 76.3518602,6.40081338 77.3979515,7.54932972 Z M77.376864,12.9130893 C77.376864,11.7834011 77.0454888,10.870613 76.3819852,10.1762314 C75.7192348,9.48184968 74.8614249,9.15649947 73.8522368,9.15649947 C72.8430487,9.15649947 72.0703419,9.42009339 71.3978009,10.1054376 C70.7252598,10.7907817 70.3065221,11.8029824 70.3065221,12.9514987 C70.3065221,14.0819401 70.588191,14.9676156 71.2614852,15.6619973 C71.9340262,16.356379 72.8438018,16.6109354 73.8529899,16.6109354 C74.862178,16.6109354 75.7199879,16.3450821 76.3827384,15.6507004 C77.0454888,14.9555656 77.376864,14.0427775 77.376864,12.9130893 Z M60,6.21479138 L63.7837024,6.21479138 L63.7837024,19.7288748 L60,19.7288748 L60,6.21479138 Z M63.4191896,3.68956168 C62.99518,4.11206507 62.4823016,4.32369333 61.8798012,4.32369333 C61.2773008,4.32369333 60.768188,4.11206507 60.3524627,3.68956168 C59.9374906,3.26705829 59.729628,2.75794547 59.729628,2.1614701 C59.729628,1.56499473 59.9374906,1.05588191 60.3524627,0.633378521 C60.7674349,0.210875132 61.2765477,0 61.8798012,0 C62.4823016,0 62.99518,0.210875132 63.4191896,0.633378521 C63.8424462,1.05588191 64.0540744,1.56574785 64.0540744,2.1614701 C64.0540744,2.75719235 63.8424462,3.26705829 63.4191896,3.68956168 Z M51.7329417,19.9992469 C50.1882814,19.9992469 48.871818,19.6731435 47.7827986,19.0209369 C46.6945323,18.3687302 46.0099413,17.4363609 45.7312848,16.2238289 L48.9139931,15.3968971 C49.0811869,15.9112818 49.4027715,16.3066727 49.8772405,16.5815635 C50.3517096,16.8572074 50.9142943,16.9950294 51.566501,16.9950294 C52.1802982,16.9950294 52.6781142,16.8760355 53.0599488,16.6365416 C53.4410303,16.3978009 53.6300648,16.0332881 53.6323241,15.6717879 C53.6345835,15.3042627 53.4688959,15.0429282 53.1435457,14.8862781 C52.8174424,14.7303811 52.2925139,14.5970779 51.566501,14.4863684 C50.8962193,14.3944871 50.3931315,14.3191746 50.0587438,14.2521464 C49.0540744,14.051815 48.0780238,13.7648742 47.2977858,13.2406989 C46.9362856,12.9981925 46.3970477,12.4740172 46.1086007,11.9784606 C45.8201536,11.4821509 45.6763067,10.9037506 45.6763067,10.2425064 C45.6763067,8.88311493 46.2110258,7.82723302 47.2812171,7.07335442 C48.3514083,6.32022895 49.7055279,5.94366621 51.3428227,5.94366621 C52.7940955,5.94366621 54.0322338,6.25621329 55.0557313,6.8805543 C56.0792288,7.50564844 56.7397198,8.44253653 57.0379575,9.69121856 L53.799518,10.5452628 C53.6692273,10.0128031 53.3664709,9.61289351 52.8920018,9.34628709 C52.4175328,9.0804338 51.8820606,8.94637747 51.2870914,8.94637747 C50.1702064,8.94637747 49.5722247,9.39147462 49.5699654,10.1528845 C49.5684591,10.5204097 49.7522217,10.7930411 50.0308781,10.9579756 C50.3102877,11.1236632 51.4098509,11.3375508 52.0823919,11.4542853 C52.5350203,11.5326103 53.6963398,11.7269167 54.2370839,11.8617262 C55.7486067,12.2382889 56.8782949,12.9703269 57.3580358,14.3063714 C57.4935984,14.6844404 57.5674047,15.0918813 57.5674047,15.5324597 C57.5674047,16.9287543 56.9995481,18.0222925 55.864588,18.811568 C54.729628,19.603856 53.3521615,19.9992469 51.7329417,19.9992469 Z M31.8918512,19.7288748 L31.8918512,0.268865793 L35.6778129,0.268865793 L35.6778129,11.2773008 L40.7071848,6.10634132 L44.9630969,6.10634132 L40.0994126,11.2494352 L45.4051815,19.7281217 L41.1771351,19.7281217 L37.4740172,14.2235276 L35.6778129,16.1417382 L35.6778129,19.7281217 L31.8918512,19.7281217 L31.8918512,19.7288748 Z M24.3236933,6.21479138 L28.1073957,6.21479138 L28.1073957,19.7288748 L24.3236933,19.7288748 L24.3236933,6.21479138 Z M27.742883,3.68956168 C27.3188733,4.11206507 26.8059949,4.32369333 26.2034945,4.32369333 C25.6009941,4.32369333 25.0918813,4.11206507 24.676156,3.68956168 C24.2611839,3.26705829 24.0533213,2.75794547 24.0533213,2.1614701 C24.0533213,1.56499473 24.2611839,1.05588191 24.676156,0.633378521 C25.0911282,0.210875132 25.600241,0 26.2034945,0 C26.8059949,0 27.3188733,0.210875132 27.742883,0.633378521 C28.1661395,1.05588191 28.3777677,1.56574785 28.3777677,2.1614701 C28.3777677,2.75719235 28.1661395,3.26705829 27.742883,3.68956168 Z M17.1614701,19.7288748 L17.1614701,0.268865793 L20.9451725,0.268865793 L20.9451725,19.7288748 L17.1614701,19.7288748 Z M8.0456394,5.76743485 C9.95179997,5.76743485 11.6071698,6.48892906 12.9063112,7.81367676 C14.2046995,9.13842446 14.8651905,10.876638 14.8651905,12.9514987 C14.8651905,15.0075313 14.2099714,16.6644073 12.9206206,17.9989456 C11.6312698,19.333484 10.0888688,20 8.18270824,20 C6.35110709,20 4.8463624,19.4163278 3.81834614,18.2489833 L3.81834614,19.7288748 L0,19.7288748 L0,0.268865793 L3.81834614,0.268865793 L3.81834614,7.54932972 C4.86368429,6.40081338 6.25169453,5.76743485 8.0456394,5.76743485 Z M4.83355927,15.6499473 C5.49630969,16.344329 6.3541196,16.6101823 7.36330773,16.6101823 C8.37249586,16.6101823 9.2815183,16.356379 9.95481247,15.6612442 C10.6273535,14.9668625 10.9097756,14.0804338 10.9097756,12.9507456 C10.9097756,11.8022293 10.4910378,10.7900286 9.81849676,10.1046844 C9.14595572,9.41934026 8.37249586,9.15574635 7.36406085,9.15574635 C6.35487272,9.15574635 5.49781594,9.48034343 4.8343124,10.1754782 C4.17080886,10.8698599 3.83943365,11.782648 3.83943365,12.9123362 C3.83868052,14.0427775 4.17005573,14.9555656 4.83355927,15.6499473 Z"
        fill="#808DA2" fill-rule="evenodd"></path>
</svg>
