<svg viewBox="0 0 140 33" version="1.1" xmlns="http://www.w3.org/2000/svg">
  <g id="logo-original" stroke="none" stroke-width="1" fill="none">
    <rect x="0" y="0" width="33" height="33"/>
    <path fill="#00BFA5" d="M20,33 C12.8690768,33 7,27.1466679 7,19.9527897 L7,3.70815451 C7,1.66892873 8.65361991,0 10.675,0 C12.6963801,0 14.3507854,1.66892873 14.3507854,3.70815451 L14.3507854,19.9527897 C14.3507854,23.0743896 16.9057178,25.583691 20,25.583691 C23.0942821,25.583691 25.6492147,23.0743896 25.6492147,19.9527897 L25.6492147,15.2832618 C25.6492147,13.244036 27.3036199,11.5751073 29.325,11.5751073 C31.3463802,11.5751073 33,13.244036 33,15.2832618 L33,19.9527897 C33,27.1466679 27.1309231,33 20,33 Z"/>
    <path fill="#FFC74A" d="M20.005,5.55 C17.9753186,5.55 16.33,7.22885754 16.33,9.29991292 L16.33,19.8000871 C16.33,21.8711424 17.9753186,23.55 20.005,23.55 C22.0346815,23.55 23.68,21.8711424 23.68,19.8000871 L23.68,9.29991292 C23.68,7.22885754 22.0346815,5.55 20.005,5.55 Z"/>
    <circle fill="#DD5B5B" cx="3.5" cy="29.5" r="3.5"/>
  </g>
  <path fill="#00BFA5" transform="translate(0, 2)" d="M133.069418,26 C131.034294,26 129.346465,25.3273408 128.008179,24.0389513 C126.669143,22.7505618 126,21.0651685 126,18.9820225 C126,16.917603 126.664653,15.2367041 127.994706,13.9385768 C129.324011,12.6411985 130.988636,11.9925094 132.987085,11.9925094 C134.930894,11.9925094 136.53564,12.6052434 137.801324,13.8292135 C139.067008,15.0539326 139.697231,16.6614232 139.697231,18.6531835 C139.697231,18.9093633 139.671782,19.3108614 139.617143,19.859176 L129.797052,19.859176 C129.925042,20.8644195 130.287308,21.6404494 130.883849,22.188764 C131.479641,22.7370787 132.208663,23.011236 133.070915,23.011236 C133.767752,23.011236 134.372526,22.8374532 134.886733,22.4906367 C135.400192,22.1438202 135.721291,21.6501873 135.849282,21.0104869 L139.15009,21.9153558 C138.801297,23.2494382 138.072275,24.258427 136.963024,24.9438202 C135.852276,25.6284644 134.555156,26 133.069418,26 Z M129.934024,17.3370787 L136.068587,17.3370787 C135.95856,16.6794007 135.62848,16.1265918 135.078345,15.6786517 C134.52821,15.2314607 133.840355,15.0067416 133.015527,15.0067416 C131.436977,15.0074906 130.410808,15.7842697 129.934024,17.3370787 Z M115.555296,11.7601826 C117.338182,11.7601826 118.857601,12.4155697 119.896495,13.5579354 L119.896495,6.36692416 L123.638908,6.36692416 L123.638908,25.6927669 L119.896495,25.6927669 L119.896495,24.1946395 C118.874816,25.3557325 117.375606,25.9923923 115.555296,25.9923923 C113.660887,25.9923923 112.196107,25.3722183 110.914704,24.0448268 C109.633302,22.7174353 108.96865,20.9962157 108.96865,18.9511938 C108.96865,16.8874446 109.624321,15.1752141 110.914704,13.8575609 C112.205837,12.5399076 113.660887,11.7601826 115.555296,11.7601826 Z M118.907234,21.5821387 C119.56749,20.8843849 119.897243,20.0420704 119.896494,18.9061394 C119.896494,17.7709651 119.566741,16.8537443 118.906485,16.1559905 C118.246229,15.4574799 117.393367,15.1313065 116.389119,15.1313065 C115.38562,15.1313065 114.615946,15.3961805 113.946696,16.0848529 C113.277447,16.7735253 112.860759,17.7906414 112.860759,18.9447353 C112.860759,20.0799096 113.141799,20.970643 113.811048,21.6683968 C114.481047,22.3669074 115.38562,22.6219432 116.389868,22.6219432 C117.394117,22.6219432 118.247728,22.2798925 118.907234,21.5821387 Z M102.579211,12.3670412 L106.321624,12.3670412 L106.321624,25.7003745 L102.579211,25.7003745 L102.579211,12.3670412 Z M105.983673,9.78228225 C105.55802,10.2068256 105.043155,10.4194757 104.438321,10.4194757 C103.833486,10.4194757 103.322401,10.2068256 102.905066,9.78228225 C102.488486,9.3577389 102.279818,8.84616795 102.279818,8.24681263 C102.279818,7.64745731 102.488486,7.13588636 102.905066,6.71134301 C103.321645,6.28679966 103.83273,6.07490637 104.438321,6.07490637 C105.043155,6.07490637 105.55802,6.28679966 105.983673,6.71134301 C106.408569,7.13588636 106.621017,7.64821407 106.621017,8.24681263 C106.621017,8.84541119 106.408569,9.3577389 105.983673,9.78228225 Z M94.3773392,25.9722846 C92.8422015,25.9722846 91.533854,25.6479401 90.4515482,24.9992509 C89.369991,24.3505618 88.6349811,23.423221 88.3580426,22.2172285 L91.575769,21.3947566 C91.7419322,21.906367 92.0615342,22.2996255 92.5330782,22.5730337 C93.0046222,22.847191 93.5637387,22.9842697 94.2119246,22.9842697 C94.8219379,22.9842697 95.3166848,22.8659176 95.6961655,22.6277154 C96.0748977,22.3902622 96.2627668,22.0277154 96.2650122,21.6681648 C96.2672577,21.3026217 96.1025915,21.0426966 95.779247,20.8868914 C95.4551541,20.7318352 94.9334618,20.5992509 94.2119246,20.4891386 C93.5457751,20.3977528 93.0457888,20.3228464 92.7134625,20.2561798 C91.7149868,20.0569288 90.7449534,19.7715356 89.9695255,19.2501873 C89.6102539,19.0089888 89.0743404,18.4876404 88.7876715,17.9947566 C88.5010027,17.5011236 88.3580426,16.9258427 88.3580426,16.2681648 C88.3580426,14.9161049 88.8662622,13.8659176 89.9298559,13.1161049 C90.9934496,12.3670412 92.2696124,11.9925094 93.8968134,11.9925094 C95.3391393,11.9925094 96.6220384,12.3033708 97.6392262,12.9243446 C98.656414,13.5460674 99.4385782,14.4779026 99.7349773,15.7198502 L96.4416541,16.5692884 C96.3121666,16.0397004 96.015019,15.6419476 95.543475,15.376779 C95.071931,15.1123596 94.4881146,14.9790262 93.8968134,14.9790262 C92.7868138,14.9790262 92.1027008,15.4217228 92.1004553,16.1790262 C92.0989583,16.5445693 92.4088301,16.8157303 92.6857687,16.9797753 C92.9634557,17.1445693 94.0562402,17.3573034 94.7246351,17.4734082 C95.1744731,17.5513109 96.3286332,17.7445693 96.8660437,17.8786517 C98.3682482,18.2531835 99.490972,18.9812734 99.9677554,20.3101124 C100.102482,20.6861423 100.175834,21.0913858 100.175834,21.529588 C100.175834,22.9183521 99.6114777,24.0059925 98.4835145,24.7910112 C97.3555513,25.5790262 95.9865767,25.9722846 94.3773392,25.9722846 Z M74.7356601,6.29962547 L78.4780729,6.29962547 L78.4780729,17.2359551 L83.4180577,11.9925094 L87.7592565,11.9925094 L82.8192717,17.2359551 L88.3580426,25.6254682 L84.0168438,25.6254682 L80.274431,20.2322097 L78.4780729,22.0299625 L78.4780729,25.6254682 L74.7356601,25.6254682 L74.7356601,6.29962547 Z M67.2508346,12.2921348 L70.9932474,12.2921348 L70.9932474,25.6254682 L67.2508346,25.6254682 L67.2508346,12.2921348 Z M70.6552962,9.70737588 C70.229644,10.1319192 69.7147787,10.3445693 69.1099443,10.3445693 C68.5051099,10.3445693 67.9940249,10.1319192 67.5766892,9.70737588 C67.1601095,9.28283253 66.9514416,8.77126158 66.9514416,8.17190626 C66.9514416,7.57255095 67.1601095,7.06097999 67.5766892,6.63643664 C67.9932688,6.21189329 68.5043539,6 69.1099443,6 C69.7147787,6 70.229644,6.21189329 70.6552962,6.63643664 C71.0801923,7.06097999 71.2926404,7.57330771 71.2926404,8.17190626 C71.2926404,8.77050482 71.0801923,9.28283253 70.6552962,9.70737588 Z M60.0654021,25.6254682 L60.0654021,6.29962547 L63.8078149,6.29962547 L63.8078149,25.6254682 L60.0654021,25.6254682 Z M51.0836115,11.6928839 C52.9780209,11.6928839 54.433071,12.4726089 55.7242034,13.7902622 C57.0145873,15.1079155 57.670258,16.820146 57.670258,18.8838951 C57.670258,20.928917 57.0056055,22.6501366 55.7242034,23.9775281 C54.4428012,25.3049196 52.9780209,25.9250936 51.0836115,25.9250936 C49.263302,25.9250936 47.7640914,25.2884338 46.7424128,24.1273408 L46.7424128,25.6254682 L43,25.6254682 L43,6.29962547 L46.7424128,6.29962547 L46.7424128,13.4906367 C47.7813065,12.348271 49.3007261,11.6928839 51.0836115,11.6928839 Z M47.8813702,21.51484 C48.5408767,22.2125938 49.3944878,22.5546445 50.3987363,22.5546445 C51.4029848,22.5546445 52.3075578,22.2996087 52.9775564,21.6010981 C53.6468056,20.9033443 53.9278452,20.0126109 53.9278452,18.8774366 C53.9278452,17.7233427 53.5111571,16.7062266 52.8419079,16.0175542 C52.1726588,15.3288818 51.4029848,15.0640078 50.3994857,15.0640078 C49.3952373,15.0640078 48.5423755,15.3901812 47.8821196,16.0886918 C47.2218638,16.7864456 46.8921105,17.7036664 46.8921105,18.8388407 C46.8913611,19.9747717 47.2211143,20.8170862 47.8813702,21.51484 Z"/>
</svg>
