<?xml version="1.0" encoding="UTF-8"?>
<svg width="33px" height="32px" viewBox="0 0 33 32" version="1.1" xmlns="http://www.w3.org/2000/svg" xmlns:xlink="http://www.w3.org/1999/xlink">
    <!-- Generator: Sketch 54.1 (76490) - https://sketchapp.com -->
    <title>Group</title>
    <desc>Created with Sketch.</desc>
    <g id="Page-1" stroke="none" stroke-width="1" fill="none" fill-rule="evenodd">
        <g id="logo_original">
            <g id="Group">
                <path d="M19.9605996,32 C12.7739615,32 6.92762313,26.1536617 6.92762313,18.9670236 L6.92762313,3.72077088 C6.92762313,1.68359743 8.57901499,0.0322055675 10.6161884,0.0322055675 C12.6533619,0.0322055675 14.3047537,1.68359743 14.3047537,3.72077088 L14.3047537,18.9670236 C14.3047537,22.0854818 16.8421413,24.6228694 19.9605996,24.6228694 C23.0790578,24.6228694 25.6164454,22.0854818 25.6164454,18.9670236 L25.6164454,14.2944754 C25.6164454,12.2573019 27.2678373,10.6059101 29.3050107,10.6059101 C31.3421842,10.6059101 32.993576,12.2573019 32.993576,14.2944754 L32.993576,18.9670236 C32.993576,26.1536617 27.1472377,32 19.9605996,32 Z" id="Path" fill="#00BFA5"></path>
                <path d="M19.9585655,4.95 C17.9213919,4.95 16.27,6.60139186 16.27,8.63856531 L16.27,18.9669593 C16.27,21.0041328 17.9213919,22.6555246 19.9585655,22.6555246 C21.9957391,22.6555246 23.647131,21.0041328 23.647131,18.9669593 L23.647131,8.63856531 C23.647131,6.60139186 21.9957391,4.95 19.9585655,4.95 Z" id="Path" fill="#FFC74A"></path>
                <circle id="Oval" fill="#DD5B5B" cx="3.8537045" cy="28.1880942" r="3.81190578"></circle>
            </g>
        </g>
    </g>
</svg>