<svg viewBox="0 0 177 32" version="1.1" xmlns="http://www.w3.org/2000/svg" xmlns:xlink="http://www.w3.org/1999/xlink">
  <path d="M47.7719715,6 L62.5938242,6 C66.1448931,6 67.4829771,7.46571429 67.4829771,10.4785714 L67.4829771,11.7814286 C67.4829771,13.3285714 66.9168646,14.4685714 65.8361045,15.2285714 C67.0455265,15.9614286 67.611639,17.1285714 67.611639,18.73 L67.611639,20.3042857 C67.611639,23.1814286 66.4794141,25 63.0570071,25 L47.7719715,25 C47.2573238,25 47,24.7285714 47,24.1857143 L47,6.81428571 C47,6.27142857 47.2573238,6 47.7719715,6 Z M61.4873318,17 L50.9370546,17 L50.9370546,20.6790123 C50.9370546,20.9012346 51.0399842,21 51.2715756,21 L61.8218527,21 C63.1856691,21 63.7260491,20.5308642 63.7260491,19.4938272 L63.7260491,18.5555556 C63.7260491,17.5432099 63.1856691,17 61.4873318,17 Z M50.9370546,10.3398693 L50.9370546,14 L61.4873318,14 C63.1856691,14 63.7003167,13.4771242 63.7003167,12.4575163 L63.7003167,11.5686275 C63.7003167,10.496732 63.1342043,10 61.7961204,10 L51.2715756,10 C51.0399842,10 50.9370546,10.1045752 50.9370546,10.3398693 Z M71.8832146,6.05053191 L74.4049881,6.05053191 C74.7909739,6.05053191 74.9711006,6.22739362 74.9711006,6.60638298 L74.9711006,24.4441489 C74.9711006,24.8231383 74.7909739,25 74.4049881,25 L71.8832146,25 C71.4972288,25 71.3171021,24.8231383 71.3171021,24.4441489 L71.3171021,6.60638298 C71.3171021,6.22739362 71.4972288,6.05053191 71.8832146,6.05053191 Z M79.5514648,11.1289894 L82.0732383,11.1289894 C82.4592241,11.1289894 82.6393508,11.331117 82.6393508,11.7101064 L82.6393508,24.4441489 C82.6393508,24.8231383 82.4592241,25 82.0732383,25 L79.5514648,25 C79.165479,25 78.9853523,24.8231383 78.9853523,24.4441489 L78.9853523,11.7101064 C78.9853523,11.331117 79.165479,11.1289894 79.5514648,11.1289894 Z M79.5514648,6 L82.0732383,6 C82.4592241,6 82.6393508,6.1768617 82.6393508,6.55585106 L82.6393508,8.95611702 C82.6393508,9.33510638 82.4592241,9.53723404 82.0732383,9.53723404 L79.5514648,9.53723404 C79.165479,9.53723404 78.9596199,9.33510638 78.9596199,8.95611702 L78.9596199,6.55585106 C78.9596199,6.1768617 79.165479,6 79.5514648,6 Z M87.1939826,6.05053191 L89.7157561,6.05053191 C90.1017419,6.05053191 90.2818686,6.22739362 90.2818686,6.60638298 L90.2818686,16.6117021 L95.0166271,16.6117021 C96.4833729,16.6117021 96.895091,16.4853723 97.564133,15.5505319 L100.44616,11.5585106 C100.652019,11.2553191 100.832146,11.1289894 101.218131,11.1289894 L104.125891,11.1289894 C104.511876,11.1289894 104.614806,11.4827128 104.383215,11.8111702 L101.063737,16.2832447 C100.549089,16.9654255 100.034442,17.4960106 99.4683294,17.900266 C100.188836,18.3045213 100.780681,18.8351064 101.295329,19.5172872 L104.949327,24.3683511 C105.155186,24.6462766 105.026524,25 104.640538,25 L101.758511,25 C101.321061,25 101.166667,24.9242021 100.960808,24.6462766 L97.8214568,20.4015957 C97.2038796,19.5930851 96.6634996,19.3404255 95.2482185,19.3404255 L90.2818686,19.3404255 L90.2818686,24.4441489 C90.2818686,24.8231383 90.1017419,25 89.7157561,25 L87.1939826,25 C86.8079968,25 86.6021378,24.8231383 86.6021378,24.4441489 L86.6021378,6.60638298 C86.6021378,6.22739362 86.8079968,6.05053191 87.1939826,6.05053191 Z M111.511085,11.1289894 L124.068488,11.1289894 C124.377276,11.1289894 124.531671,11.2805851 124.531671,11.5837766 L124.531671,13.6050532 C124.531671,13.9082447 124.377276,14.0598404 124.068488,14.0598404 L112.463183,14.0598404 C111.408155,14.0598404 111.047902,14.4640957 111.047902,15.1968085 L111.047902,15.5757979 C111.047902,16.2579787 111.408155,16.662234 112.463183,16.662234 L121.134996,16.662234 C124.017023,16.662234 125.149248,17.875 125.149248,20.0478723 L125.149248,21.462766 C125.149248,23.6861702 124.145685,25 121.109264,25 L107.934283,25 C107.625495,25 107.471101,24.8484043 107.471101,24.5452128 L107.471101,22.5239362 C107.471101,22.2207447 107.625495,22.0691489 107.934283,22.0691489 L120.131433,22.0691489 C121.186461,22.0691489 121.572447,21.7154255 121.572447,20.856383 L121.572447,20.1742021 C121.572447,19.5172872 121.186461,19.1130319 120.131433,19.1130319 L111.485352,19.1130319 C108.603325,19.1130319 107.471101,17.9255319 107.471101,15.7021277 L107.471101,14.5904255 C107.471101,12.4933511 108.474663,11.1289894 111.511085,11.1289894 Z M129.240697,11.1289894 L131.76247,11.1289894 C132.148456,11.1289894 132.328583,11.331117 132.328583,11.7101064 L132.328583,24.4441489 C132.328583,24.8231383 132.148456,25 131.76247,25 L129.240697,25 C128.854711,25 128.674584,24.8231383 128.674584,24.4441489 L128.674584,11.7101064 C128.674584,11.331117 128.854711,11.1289894 129.240697,11.1289894 Z M129.240697,6 L131.76247,6 C132.148456,6 132.328583,6.1768617 132.328583,6.55585106 L132.328583,8.95611702 C132.328583,9.33510638 132.148456,9.53723404 131.76247,9.53723404 L129.240697,9.53723404 C128.854711,9.53723404 128.648852,9.33510638 128.648852,8.95611702 L128.648852,6.55585106 C128.648852,6.1768617 128.854711,6 129.240697,6 Z M142.209818,11.1289894 L151.885194,11.1289894 L151.885194,6.60638298 C151.885194,6.22739362 152.065321,6.05053191 152.451306,6.05053191 L154.97308,6.05053191 C155.359066,6.05053191 155.539192,6.22739362 155.539192,6.60638298 L155.539192,19.8962766 C155.539192,23.5598404 154.046714,25 149.414885,25 L142.209818,25 C137.577989,25 136.085511,23.5598404 136.085511,19.8962766 L136.085511,16.2579787 C136.085511,12.5944149 137.577989,11.1289894 142.209818,11.1289894 Z M149.054632,21.9680851 C151.293349,21.9680851 151.885194,21.3111702 151.885194,19.1888298 L151.885194,14.1609043 L142.570071,14.1609043 C140.357086,14.1609043 139.765241,14.8178191 139.765241,16.9401596 L139.765241,19.1888298 C139.765241,21.3111702 140.357086,21.9680851 142.570071,21.9680851 L149.054632,21.9680851 Z M165.008709,11.1289894 L172.548298,11.1289894 C176.073634,11.1289894 177,12.2154255 177,15.2726064 L177,17.6728723 C177,18.7593085 176.536817,19.1130319 175.533254,19.1130319 L162.538401,19.1130319 L162.538401,19.7194149 C162.538401,21.3111702 163.130245,21.9680851 165.368963,21.9680851 L176.099367,21.9680851 C176.408155,21.9680851 176.562549,22.1196809 176.562549,22.4228723 L176.562549,24.5452128 C176.562549,24.8484043 176.408155,25 176.099367,25 L165.008709,25 C160.37688,25 158.884402,23.5598404 158.884402,19.8962766 L158.884402,16.2579787 C158.884402,12.5944149 160.37688,11.1289894 165.008709,11.1289894 Z M162.538401,16.1821809 L162.538401,16.8643617 L172.960016,16.8643617 C173.268804,16.8643617 173.397466,16.7632979 173.397466,16.4348404 L173.397466,15.3736702 C173.397466,14.337766 173.011481,13.9335106 171.827791,13.9335106 L165.368963,13.9335106 C163.130245,13.9335106 162.538401,14.5651596 162.538401,16.1821809 Z"
        fill="#808DA2" fill-rule="evenodd"></path>
  <path d="M0,5.32907052e-15 L32,5.32907052e-15 L32,0.0032 C31.0272,3.824 29.3568,7.2 27.2,9.856 L27.2,4.8 L4.8,4.8 L4.8,27.2 L27.2,27.2 L27.2,22.144 C29.3568,24.8 31.0272,28.176 32,31.9968 L32,32 L0,32 L0,5.32907052e-15 Z M9.12,9.12 L22.88,9.12 L22.88,13.7664 C21.152,14.8672 19.2704,15.5936 17.2928,15.872 C17.2928,15.872 17.2928,15.872 17.2928,15.872 C16.9088,15.936 16.9088,16.064 17.2896,16.128 C19.2704,16.4032 21.152,17.1328 22.88,18.2336 L22.88,22.88 L9.12,22.88 L9.12,9.12 Z"
        fill="#808DA2" fill-rule="evenodd"></path>
</svg>
