<svg viewBox="0 0 97 20" version="1.1" xmlns="http://www.w3.org/2000/svg">
  <path fill="#808DA2" d="M90.0694177,20 C88.0342936,20 86.3464655,19.3273408 85.0081787,18.0389513 C83.6691434,16.7505618 83,15.0651685 83,12.9820225 C83,10.917603 83.6646525,9.23670412 84.994706,7.93857678 C86.324011,6.6411985 87.9886362,5.99250936 89.9870846,5.99250936 C91.9308938,5.99250936 93.5356404,6.60524345 94.8013244,7.82921348 C96.0670084,9.05393258 96.6972307,10.6614232 96.6972307,12.6531835 C96.6972307,12.9093633 96.6717823,13.3108614 96.617143,13.859176 L86.797052,13.859176 C86.9250425,14.8644195 87.287308,15.6404494 87.8838486,16.188764 C88.4796408,16.7370787 89.2086628,17.011236 90.0709147,17.011236 C90.7677519,17.011236 91.3725258,16.8374532 91.8867333,16.4906367 C92.4001924,16.1438202 92.7212914,15.6501873 92.8492819,15.0104869 L96.1500899,15.9153558 C95.8012971,17.2494382 95.0722751,18.258427 93.9630239,18.9438202 C92.8522758,19.6284644 91.5551556,20 90.0694177,20 Z M86.9340243,11.3370787 L93.0685873,11.3370787 C92.9585603,10.6794007 92.6284795,10.1265918 92.0783449,9.67865169 C91.5282102,9.23146067 90.8403547,9.00674157 90.0155269,9.00674157 C88.4369772,9.00749064 87.4108077,9.78426966 86.9340243,11.3370787 Z M72.5552963,5.76018258 C74.3381817,5.76018258 75.8576013,6.41556969 76.8964951,7.55793539 L76.8964951,0.366924157 L80.6389078,0.366924157 L80.6389078,19.6927669 L76.8964951,19.6927669 L76.8964951,18.1946395 C75.8748164,19.3557325 74.3756059,19.9923923 72.5552963,19.9923923 C70.660887,19.9923923 69.1961066,19.3722183 67.9147045,18.0448268 C66.6333024,16.7174353 65.9686498,14.9962157 65.9686498,12.9511938 C65.9686498,10.8874446 66.6243206,9.17521415 67.9147045,7.85756086 C69.2058369,6.53990757 70.660887,5.76018258 72.5552963,5.76018258 Z M75.9072341,15.5821387 C76.56749,14.8843849 76.8972432,14.0420704 76.8964938,12.9061394 C76.8964938,11.7709651 76.5667406,10.8537443 75.9064847,10.1559905 C75.2462288,9.45747989 74.3933671,9.13130648 73.3891186,9.13130648 C72.3856196,9.13130648 71.6159456,9.39618048 70.9466964,10.0848529 C70.2774473,10.7735253 69.8607591,11.7906414 69.8607591,12.9447353 C69.8607591,14.0799096 70.1417988,14.970643 70.8110479,15.6683968 C71.4810465,16.3669074 72.3856196,16.6219432 73.389868,16.6219432 C74.3941165,16.6219432 75.2477277,16.2798925 75.9072341,15.5821387 Z M59.579211,6.3670412 L63.3216238,6.3670412 L63.3216238,19.7003745 L59.579211,19.7003745 L59.579211,6.3670412 Z M62.9836726,3.78228225 C62.5580204,4.2068256 62.0431551,4.41947566 61.4383207,4.41947566 C60.8334863,4.41947566 60.3224013,4.2068256 59.9050655,3.78228225 C59.4884859,3.3577389 59.279818,2.84616795 59.279818,2.24681263 C59.279818,1.64745731 59.4884859,1.13588636 59.9050655,0.711343011 C60.3216452,0.286799661 60.8327303,0.074906367 61.4383207,0.074906367 C62.0431551,0.074906367 62.5580204,0.286799661 62.9836726,0.711343011 C63.4085687,1.13588636 63.6210168,1.64821407 63.6210168,2.24681263 C63.6210168,2.84541119 63.4085687,3.3577389 62.9836726,3.78228225 Z M51.3773392,19.9722846 C49.8422015,19.9722846 48.533854,19.6479401 47.4515482,18.9992509 C46.369991,18.3505618 45.6349811,17.423221 45.3580426,16.2172285 L48.575769,15.3947566 C48.7419322,15.906367 49.0615342,16.2996255 49.5330782,16.5730337 C50.0046222,16.847191 50.5637387,16.9842697 51.2119246,16.9842697 C51.8219379,16.9842697 52.3166848,16.8659176 52.6961655,16.6277154 C53.0748977,16.3902622 53.2627668,16.0277154 53.2650122,15.6681648 C53.2672577,15.3026217 53.1025915,15.0426966 52.779247,14.8868914 C52.4551541,14.7318352 51.9334618,14.5992509 51.2119246,14.4891386 C50.5457751,14.3977528 50.0457888,14.3228464 49.7134625,14.2561798 C48.7149868,14.0569288 47.7449534,13.7715356 46.9695255,13.2501873 C46.6102539,13.0089888 46.0743404,12.4876404 45.7876715,11.9947566 C45.5010027,11.5011236 45.3580426,10.9258427 45.3580426,10.2681648 C45.3580426,8.91610487 45.8662622,7.8659176 46.9298559,7.11610487 C47.9934496,6.3670412 49.2696124,5.99250936 50.8968134,5.99250936 C52.3391393,5.99250936 53.6220384,6.30337079 54.6392262,6.92434457 C55.656414,7.54606742 56.4385782,8.47790262 56.7349773,9.71985019 L53.4416541,10.5692884 C53.3121666,10.0397004 53.015019,9.64194757 52.543475,9.37677903 C52.071931,9.11235955 51.4881146,8.97902622 50.8968134,8.97902622 C49.7868138,8.97902622 49.1027008,9.42172285 49.1004553,10.1790262 C49.0989583,10.5445693 49.4088301,10.8157303 49.6857687,10.9797753 C49.9634557,11.1445693 51.0562402,11.3573034 51.7246351,11.4734082 C52.1744731,11.5513109 53.3286332,11.7445693 53.8660437,11.8786517 C55.3682482,12.2531835 56.490972,12.9812734 56.9677554,14.3101124 C57.1024823,14.6861423 57.1758335,15.0913858 57.1758335,15.529588 C57.1758335,16.9183521 56.6114777,18.0059925 55.4835145,18.7910112 C54.3555513,19.5790262 52.9865767,19.9722846 51.3773392,19.9722846 Z M31.7356601,0.299625468 L35.4780729,0.299625468 L35.4780729,11.2359551 L40.4180577,5.99250936 L44.7592565,5.99250936 L39.8192717,11.2359551 L45.3580426,19.6254682 L41.0168438,19.6254682 L37.274431,14.2322097 L35.4780729,16.0299625 L35.4780729,19.6254682 L31.7356601,19.6254682 L31.7356601,0.299625468 Z M24.2508346,6.29213483 L27.9932474,6.29213483 L27.9932474,19.6254682 L24.2508346,19.6254682 L24.2508346,6.29213483 Z M27.6552962,3.70737588 C27.229644,4.13191923 26.7147787,4.34456929 26.1099443,4.34456929 C25.5051099,4.34456929 24.9940249,4.13191923 24.5766892,3.70737588 C24.1601095,3.28283253 23.9514416,2.77126158 23.9514416,2.17190626 C23.9514416,1.57255095 24.1601095,1.06097999 24.5766892,0.636436644 C24.9932688,0.211893294 25.5043539,0 26.1099443,0 C26.7147787,0 27.229644,0.211893294 27.6552962,0.636436644 C28.0801923,1.06097999 28.2926404,1.57330771 28.2926404,2.17190626 C28.2926404,2.77050482 28.0801923,3.28283253 27.6552962,3.70737588 Z M17.0654021,19.6254682 L17.0654021,0.299625468 L20.8078149,0.299625468 L20.8078149,19.6254682 L17.0654021,19.6254682 Z M8.08361154,5.6928839 C9.97802088,5.6928839 11.433071,6.47260888 12.7242034,7.79026217 C14.0145873,9.10791546 14.670258,10.820146 14.670258,12.8838951 C14.670258,14.928917 14.0056055,16.6501366 12.7242034,17.9775281 C11.4428012,19.3049196 9.97802088,19.9250936 8.08361154,19.9250936 C6.26330198,19.9250936 4.76409143,19.2884338 3.74241275,18.1273408 L3.74241275,19.6254682 L0,19.6254682 L0,0.299625468 L3.74241275,0.299625468 L3.74241275,7.4906367 C4.78130653,6.348271 6.30072611,5.6928839 8.08361154,5.6928839 Z M4.88137021,15.51484 C5.54087666,16.2125938 6.39448784,16.5546445 7.3987363,16.5546445 C8.40298475,16.5546445 9.3075578,16.2996087 9.9775564,15.6010981 C10.6468056,14.9033443 10.9278452,14.0126109 10.9278452,12.8774366 C10.9278452,11.7233427 10.5111571,10.7062266 9.84190791,10.0175542 C9.17265876,9.32888179 8.40298475,9.06400779 7.39948574,9.06400779 C6.39523728,9.06400779 5.54237554,9.3901812 4.88211965,10.0886918 C4.22186376,10.7864456 3.89211054,11.7036664 3.89211054,12.8388407 C3.8913611,13.9747717 4.22111432,14.8170862 4.88137021,15.51484 Z"/>
</svg>
