<svg viewBox="0 0 34 32" version="1.1" xmlns="http://www.w3.org/2000/svg" xmlns:xlink="http://www.w3.org/1999/xlink">
  <path d="M19.9141631,32 C12.7196761,32 6.86695279,26.1466679 6.86695279,18.9527897 L6.86695279,3.70815451 C6.86695279,1.66892873 8.53570897,0 10.5751073,0 C12.6145056,0 14.2832618,1.66892873 14.2832618,3.70815451 L14.2832618,18.9527897 C14.2832618,22.0743896 16.792299,24.583691 19.9141631,24.583691 C23.0360271,24.583691 25.6824034,22.0743896 25.6824034,18.9527897 L25.6824034,14.2832618 C25.6824034,12.244036 27.3511596,10.5751073 29.3905579,10.5751073 C31.4299563,10.5751073 33.0987124,12.244036 33.0987124,14.2832618 L33.0987124,18.9527897 C33.0987124,26.1466679 27.10865,32 19.9141631,32 Z"
        fill="#00BFA5" fill-rule="evenodd"></path>
  <path d="M19.9828326,4.87553648 C17.9348402,4.87553648 16.2746781,6.52797423 16.2746781,8.5664379 L16.2746781,18.9013733 C16.2746781,20.9398369 17.9348402,22.5922747 19.9828326,22.5922747 C22.0308251,22.5922747 23.6909871,20.9398369 23.6909871,18.9013733 L23.6909871,8.5664379 C23.6909871,6.52797423 22.0308251,4.87553648 19.9828326,4.87553648 Z"
        fill="#FFC74A" fill-rule="evenodd"></path>
  <circle cx="3.77682403" cy="28.223176" r="3.77682403"
          fill="#DD5B5B" fill-rule="evenodd"></circle>
</svg>
