<svg viewBox="0 0 33 33" version="1.1" xmlns="http://www.w3.org/2000/svg">
  <g id="logo-sg" stroke="none" stroke-width="1" fill="none">
    <rect x="0" y="0" width="33" height="33"/>
    <path fill="#96A5BD" d="M20,33 C12.8690768,33 7,27.1466679 7,19.9527897 L7,3.70815451 C7,1.66892873 8.65361991,0 10.675,0 C12.6963801,0 14.3507854,1.66892873 14.3507854,3.70815451 L14.3507854,19.9527897 C14.3507854,23.0743896 16.9057178,25.583691 20,25.583691 C23.0942821,25.583691 25.6492147,23.0743896 25.6492147,19.9527897 L25.6492147,15.2832618 C25.6492147,13.244036 27.3036199,11.5751073 29.325,11.5751073 C31.3463802,11.5751073 33,13.244036 33,15.2832618 L33,19.9527897 C33,27.1466679 27.1309231,33 20,33 Z"/>
    <path fill="#808DA2" d="M20.005,5.55 C17.9753186,5.55 16.33,7.22885754 16.33,9.29991292 L16.33,19.8000871 C16.33,21.8711424 17.9753186,23.55 20.005,23.55 C22.0346815,23.55 23.68,21.8711424 23.68,19.8000871 L23.68,9.29991292 C23.68,7.22885754 22.0346815,5.55 20.005,5.55 Z"/>
    <circle fill="#96A5BD" cx="3.5" cy="29.5" r="3.5"/>
  </g>
</svg>
