<svg viewBox="0 0 141 32" version="1.1" xmlns="http://www.w3.org/2000/svg" xmlns:xlink="http://www.w3.org/1999/xlink">
  <path d="M133.356981,25.9992469 C131.309233,25.9992469 129.610935,25.351559 128.264347,24.0561832 C126.917006,22.7608074 126.243711,21.066275 126.243711,18.9718331 C126.243711,16.8962193 126.912487,15.2062058 128.250791,13.9010393 C129.588342,12.596626 131.263293,11.9444193 133.274138,11.9444193 C135.230005,11.9444193 136.844706,12.560476 138.118241,13.791083 C139.391776,15.0224431 140.028167,16.6386504 140.028167,18.641211 C140.028167,18.8987799 140.000301,19.3024552 139.945323,19.853743 L130.064317,19.853743 C130.193101,20.8644374 130.557614,21.6446754 131.157855,22.1959632 C131.757343,22.7472511 132.490887,23.022895 133.358488,23.022895 C134.059648,23.022895 134.668173,22.8481699 135.18557,22.4994728 C135.702214,22.1507757 136.025305,21.654466 136.154089,21.0112969 L139.475373,21.9210725 C139.124416,23.2623889 138.390872,24.2768489 137.27474,24.9659587 C136.157102,25.6543154 134.851936,25.9992469 133.356981,25.9992469 Z M130.202139,17.3179696 L136.374755,17.3179696 C136.264046,16.6567254 135.931917,16.1009188 135.37837,15.6505498 C134.824823,15.2009339 134.132701,14.9749962 133.302756,14.9749962 C131.714415,14.9757494 130.68188,15.7567405 130.202139,17.3179696 Z M120.397951,13.5493297 L120.397951,6.26886579 L124.216298,6.26886579 L124.216298,25.7281217 L120.397951,25.7281217 L120.397951,24.2482302 C119.370688,25.4155746 117.865191,25.9992469 116.033589,25.9992469 C114.127429,25.9992469 112.585028,25.3319777 111.295677,23.9981925 C110.006326,22.6644073 109.351107,21.0075313 109.351107,18.9507456 C109.351107,16.8758849 110.010845,15.1376713 111.309986,13.8129236 C112.609128,12.4889291 114.264498,11.7666817 116.170658,11.7666817 C117.964603,11.7674349 119.35186,12.4008134 120.397951,13.5493297 Z M120.376864,18.9130893 C120.376864,17.7834011 120.045489,16.870613 119.381985,16.1762314 C118.719235,15.4818497 117.861425,15.1564995 116.852237,15.1564995 C115.843049,15.1564995 115.070342,15.4200934 114.397801,16.1054376 C113.72526,16.7907817 113.306522,17.8029824 113.306522,18.9514987 C113.306522,20.0819401 113.588191,20.9676156 114.261485,21.6619973 C114.934026,22.356379 115.843802,22.6109354 116.85299,22.6109354 C117.862178,22.6109354 118.719988,22.3450821 119.382738,21.6507004 C120.045489,20.9555656 120.376864,20.0427775 120.376864,18.9130893 Z M103,12.2147914 L106.783702,12.2147914 L106.783702,25.7288748 L103,25.7288748 L103,12.2147914 Z M106.41919,9.68956168 C105.99518,10.1120651 105.482302,10.3236933 104.879801,10.3236933 C104.277301,10.3236933 103.768188,10.1120651 103.352463,9.68956168 C102.937491,9.26705829 102.729628,8.75794547 102.729628,8.1614701 C102.729628,7.56499473 102.937491,7.05588191 103.352463,6.63337852 C103.767435,6.21087513 104.276548,6 104.879801,6 C105.482302,6 105.99518,6.21087513 106.41919,6.63337852 C106.842446,7.05588191 107.054074,7.56574785 107.054074,8.1614701 C107.054074,8.75719235 106.842446,9.26705829 106.41919,9.68956168 Z M94.7329417,25.9992469 C93.1882814,25.9992469 91.871818,25.6731435 90.7827986,25.0209369 C89.6945323,24.3687302 89.0099413,23.4363609 88.7312848,22.2238289 L91.9139931,21.3968971 C92.0811869,21.9112818 92.4027715,22.3066727 92.8772405,22.5815635 C93.3517096,22.8572074 93.9142943,22.9950294 94.566501,22.9950294 C95.1802982,22.9950294 95.6781142,22.8760355 96.0599488,22.6365416 C96.4410303,22.3978009 96.6300648,22.0332881 96.6323241,21.6717879 C96.6345835,21.3042627 96.4688959,21.0429282 96.1435457,20.8862781 C95.8174424,20.7303811 95.2925139,20.5970779 94.566501,20.4863684 C93.8962193,20.3944871 93.3931315,20.3191746 93.0587438,20.2521464 C92.0540744,20.051815 91.0780238,19.7648742 90.2977858,19.2406989 C89.9362856,18.9981925 89.3970477,18.4740172 89.1086007,17.9784606 C88.8201536,17.4821509 88.6763067,16.9037506 88.6763067,16.2425064 C88.6763067,14.8831149 89.2110258,13.827233 90.2812171,13.0733544 C91.3514083,12.320229 92.7055279,11.9436662 94.3428227,11.9436662 C95.7940955,11.9436662 97.0322338,12.2562133 98.0557313,12.8805543 C99.0792288,13.5056484 99.7397198,14.4425365 100.037958,15.6912186 L96.799518,16.5452628 C96.6692273,16.0128031 96.3664709,15.6128935 95.8920018,15.3462871 C95.4175328,15.0804338 94.8820606,14.9463775 94.2870914,14.9463775 C93.1702064,14.9463775 92.5722247,15.3914746 92.5699654,16.1528845 C92.5684591,16.5204097 92.7522217,16.7930411 93.0308781,16.9579756 C93.3102877,17.1236632 94.4098509,17.3375508 95.0823919,17.4542853 C95.5350203,17.5326103 96.6963398,17.7269167 97.2370839,17.8617262 C98.7486067,18.2382889 99.8782949,18.9703269 100.358036,20.3063714 C100.493598,20.6844404 100.567405,21.0918813 100.567405,21.5324597 C100.567405,22.9287543 99.9995481,24.0222925 98.864588,24.811568 C97.729628,25.603856 96.3521615,25.9992469 94.7329417,25.9992469 Z M74.8918512,25.7288748 L74.8918512,6.26886579 L78.6778129,6.26886579 L78.6778129,17.2773008 L83.7071848,12.1063413 L87.9630969,12.1063413 L83.0994126,17.2494352 L88.4051815,25.7281217 L84.1771351,25.7281217 L80.4740172,20.2235276 L78.6778129,22.1417382 L78.6778129,25.7281217 L74.8918512,25.7281217 L74.8918512,25.7288748 Z M67.3236933,12.2147914 L71.1073957,12.2147914 L71.1073957,25.7288748 L67.3236933,25.7288748 L67.3236933,12.2147914 Z M70.742883,9.68956168 C70.3188733,10.1120651 69.8059949,10.3236933 69.2034945,10.3236933 C68.6009941,10.3236933 68.0918813,10.1120651 67.676156,9.68956168 C67.2611839,9.26705829 67.0533213,8.75794547 67.0533213,8.1614701 C67.0533213,7.56499473 67.2611839,7.05588191 67.676156,6.63337852 C68.0911282,6.21087513 68.600241,6 69.2034945,6 C69.8059949,6 70.3188733,6.21087513 70.742883,6.63337852 C71.1661395,7.05588191 71.3777677,7.56574785 71.3777677,8.1614701 C71.3777677,8.75719235 71.1661395,9.26705829 70.742883,9.68956168 Z M60.1614701,25.7288748 L60.1614701,6.26886579 L63.9451725,6.26886579 L63.9451725,25.7288748 L60.1614701,25.7288748 Z M51.0456394,11.7674349 C52.9518,11.7674349 54.6071698,12.4889291 55.9063112,13.8136768 C57.2046995,15.1384245 57.8651905,16.876638 57.8651905,18.9514987 C57.8651905,21.0075313 57.2099714,22.6644073 55.9206206,23.9989456 C54.6312698,25.333484 53.0888688,26 51.1827082,26 C49.3511071,26 47.8463624,25.4163278 46.8183461,24.2489833 L46.8183461,25.7288748 L43,25.7288748 L43,6.26886579 L46.8183461,6.26886579 L46.8183461,13.5493297 C47.8636843,12.4008134 49.2516945,11.7674349 51.0456394,11.7674349 Z M47.8335593,21.6499473 C48.4963097,22.344329 49.3541196,22.6101823 50.3633077,22.6101823 C51.3724959,22.6101823 52.2815183,22.356379 52.9548125,21.6612442 C53.6273535,20.9668625 53.9097756,20.0804338 53.9097756,18.9507456 C53.9097756,17.8022293 53.4910378,16.7900286 52.8184968,16.1046844 C52.1459557,15.4193403 51.3724959,15.1557463 50.3640609,15.1557463 C49.3548727,15.1557463 48.4978159,15.4803434 47.8343124,16.1754782 C47.1708089,16.8698599 46.8394336,17.782648 46.8394336,18.9123362 C46.8386805,20.0427775 47.1700557,20.9555656 47.8335593,21.6499473 Z"
        fill="#808DA2" fill-rule="evenodd"></path>
  <path d="M19.8692496,31.8535515 C12.7155012,31.8535515 6.89591875,26.033969 6.89591875,18.8802207 L6.89591875,3.70374271 C6.89591875,1.67589242 8.53975299,0.0320581782 10.5676033,0.0320581782 C12.5954536,0.0320581782 14.2392878,1.67589242 14.2392878,3.70374271 L14.2392878,18.8802207 C14.2392878,21.9844072 16.765063,24.5101824 19.8692496,24.5101824 C22.9734361,24.5101824 25.4992113,21.9844072 25.4992113,18.8802207 L25.4992113,14.2290565 C25.4992113,12.2012062 27.1430456,10.557372 29.1708959,10.557372 C31.1987462,10.557372 32.8425804,12.2012062 32.8425804,14.2290565 L32.8425804,18.8802207 C32.8425804,26.033969 27.0229979,31.8535515 19.8692496,31.8535515 Z M3.83606796,31.8535515 C1.74044527,31.8535515 0.0416074227,30.1547137 0.0416074227,28.059091 C0.0416074227,25.9634683 1.74044527,24.2646304 3.83606796,24.2646304 C5.93169065,24.2646304 7.63052849,25.9634683 7.63052849,28.059091 C7.63052849,30.1547137 5.93169065,31.8535515 3.83606796,31.8535515 Z M19.8692496,4.92741019 C21.8970999,4.92741019 23.5409341,6.57124444 23.5409341,8.59909473 L23.5409341,18.8802207 C23.5409341,20.908071 21.8970999,22.5519052 19.8692496,22.5519052 C17.8413993,22.5519052 16.197565,20.908071 16.197565,18.8802207 L16.197565,8.59909473 C16.197565,6.57124444 17.8413993,4.92741019 19.8692496,4.92741019 Z"
        fill="#808DA2" fill-rule="evenodd"></path>
</svg>
