<svg xmlns="http://www.w3.org/2000/svg" viewBox="0 0 64 64">
  <g fill="currentColor">
    <path d="M22.34375,56.969375 C22.34375,56.62375 22.6234702,56.34375 22.96875,56.34375 L23.9040645,56.34375 C24.2493445,56.34375 24.5290647,56.6215625 24.53125,56.969375 L24.53125,57.905625 C24.53125,58.25125 24.253715,58.53125 23.90625,58.53125 L22.96875,58.53125 C22.6234702,58.53125 22.34375,58.2534375 22.34375,57.9078125 L22.34375,56.969375 Z M16.71875,51.344375 C16.71875,50.9987501 16.9984701,50.71875 17.34375,50.71875 L18.2790646,50.71875 C18.6243445,50.71875 18.9040646,50.9965625 18.90625,51.344375 L18.90625,52.280625 C18.90625,52.6262499 18.628715,52.90625 18.28125,52.90625 L17.34375,52.90625 C16.9984701,52.90625 16.71875,52.6284375 16.71875,52.2828126 L16.71875,51.344375 Z M19.53125,54.156875 C19.53125,53.8112501 19.8109701,53.53125 20.15625,53.53125 L21.0915645,53.53125 C21.4368445,53.53125 21.7165647,53.8090625 21.71875,54.156875 L21.71875,55.093125 C21.71875,55.43875 21.441215,55.71875 21.09375,55.71875 L20.15625,55.71875 C19.8109701,55.71875 19.53125,55.4409375 19.53125,55.0953125 L19.53125,54.156875 Z M22.34375,51.344375 C22.34375,50.9987501 22.6234702,50.71875 22.96875,50.71875 L23.9040645,50.71875 C24.2493445,50.71875 24.5290647,50.9965625 24.53125,51.344375 L24.53125,52.280625 C24.53125,52.6262499 24.253715,52.90625 23.90625,52.90625 L22.96875,52.90625 C22.6234702,52.90625 22.34375,52.6284375 22.34375,52.2828126 L22.34375,51.344375 Z M16.71875,56.969375 C16.71875,56.62375 16.9984701,56.34375 17.34375,56.34375 L18.2790646,56.34375 C18.6243445,56.34375 18.9040646,56.6215625 18.90625,56.969375 L18.90625,57.905625 C18.90625,58.25125 18.628715,58.53125 18.28125,58.53125 L17.34375,58.53125 C16.9984701,58.53125 16.71875,58.2534375 16.71875,57.9078125 L16.71875,56.969375 Z M23.775532,44.599951 L23.775532,41.9713245 C23.775532,40.8045596 23.6168105,40.5198708 23.5485464,40.4514537 C23.4801292,40.3831896 23.1954405,40.2244679 22.0285225,40.2244679 L19.400049,40.2244679 C18.233131,40.2244679 17.9484423,40.3831896 17.8801782,40.4514537 C17.8119141,40.5198708 17.6530394,40.8045596 17.6530394,41.9713245 L17.6530394,44.599951 C17.6530394,45.766869 17.8119141,46.0515578 17.8801782,46.1199749 C17.9484423,46.1880859 18.233131,46.3469606 19.400049,46.3469606 L22.0285225,46.3469606 C23.1954405,46.3469606 23.4801292,46.1880859 23.5485464,46.1199749 C23.6168105,46.0515578 23.775532,45.766869 23.775532,44.599951 Z M22.0285225,39 C24.4286327,39 25,39.5713673 25,41.9713245 C25,44.3714347 25,42.1999939 25,44.599951 C25,47.0000612 24.4286327,47.5714286 22.0285225,47.5714286 C19.6285653,47.5714286 21.8000061,47.5714286 19.400049,47.5714286 C16.9999388,47.5714286 16.4285714,47.0000612 16.4285714,44.599951 C16.4285714,42.1999939 16.4285714,43.3116577 16.4285714,41.9713245 C16.4285714,39.5713673 16.9999388,39 19.400049,39 C21.8000061,39 19.6285653,39 22.0285225,39 Z M21.2775102,41.4489796 C22.3061734,41.4489796 22.5510205,41.6939796 22.5510205,42.7223367 C22.5510205,43.751 22.5510205,42.8204286 22.5510205,43.8489388 C22.5510205,44.877449 22.3061734,45.122449 21.2775102,45.122449 C20.249,45.122449 21.1795714,45.122449 20.1510612,45.122449 C19.122551,45.122449 18.877551,44.877449 18.877551,43.8489388 C18.877551,42.8204286 18.877551,43.2968089 18.877551,42.7223367 C18.877551,41.6939796 19.122551,41.4489796 20.1510612,41.4489796 C21.1795714,41.4489796 20.249,41.4489796 21.2775102,41.4489796 Z M12.3469606,56.0285225 L12.3469606,53.3998959 C12.3469606,52.233131 12.188239,51.9484422 12.1199749,51.8800251 C12.0515578,51.811761 11.766869,51.6530394 10.599951,51.6530394 L7.97147756,51.6530394 C6.80455961,51.6530394 6.51987082,51.811761 6.45160673,51.8800251 C6.38334265,51.9484422 6.22446793,52.233131 6.22446793,53.3998959 L6.22446793,56.0285225 C6.22446793,57.1954405 6.38334265,57.4801292 6.45160673,57.5485464 C6.51987082,57.6166573 6.80455961,57.775532 7.97147756,57.775532 L10.599951,57.775532 C11.766869,57.775532 12.0515578,57.6166573 12.1199749,57.5485464 C12.188239,57.4801292 12.3469606,57.1954405 12.3469606,56.0285225 Z M10.599951,50.4285714 C13.0000612,50.4285714 13.5714286,50.9999388 13.5714286,53.3998959 C13.5714286,55.8000061 13.5714286,53.6285653 13.5714286,56.0285225 C13.5714286,58.4286327 13.0000612,59 10.599951,59 C8.19999388,59 10.3714347,59 7.97147756,59 C5.57136735,59 5,58.4286327 5,56.0285225 C5,53.6285653 5,54.7402291 5,53.3998959 C5,50.9999388 5.57136735,50.4285714 7.97147756,50.4285714 C10.3714347,50.4285714 8.19999388,50.4285714 10.599951,50.4285714 Z M9.84893878,52.877551 C10.877602,52.877551 11.122449,53.122551 11.122449,54.1509082 C11.122449,55.1795714 11.122449,54.249 11.122449,55.2775102 C11.122449,56.3060205 10.877602,56.5510205 9.84893878,56.5510205 C8.82042856,56.5510205 9.75100002,56.5510205 8.7224898,56.5510205 C7.69397958,56.5510205 7.44897959,56.3060205 7.44897959,55.2775102 C7.44897959,54.249 7.44897959,54.7253803 7.44897959,54.1509082 C7.44897959,53.122551 7.69397958,52.877551 8.7224898,52.877551 C9.75100002,52.877551 8.82042856,52.877551 9.84893878,52.877551 Z M12.3469606,44.599951 L12.3469606,41.9713245 C12.3469606,40.8045596 12.188239,40.5198708 12.1199749,40.4514537 C12.0515578,40.3831896 11.766869,40.2244679 10.599951,40.2244679 L7.97147756,40.2244679 C6.80455961,40.2244679 6.51987082,40.3831896 6.45160673,40.4514537 C6.38334265,40.5198708 6.22446793,40.8045596 6.22446793,41.9713245 L6.22446793,44.599951 C6.22446793,45.766869 6.38334265,46.0515578 6.45160673,46.1199749 C6.51987082,46.1880859 6.80455961,46.3469606 7.97147756,46.3469606 L10.599951,46.3469606 C11.766869,46.3469606 12.0515578,46.1880859 12.1199749,46.1199749 C12.188239,46.0515578 12.3469606,45.766869 12.3469606,44.599951 Z M10.599951,39 C13.0000612,39 13.5714286,39.5713673 13.5714286,41.9713245 C13.5714286,44.3714347 13.5714286,42.1999939 13.5714286,44.599951 C13.5714286,47.0000612 13.0000612,47.5714286 10.599951,47.5714286 C8.19999388,47.5714286 10.3714347,47.5714286 7.97147756,47.5714286 C5.57136735,47.5714286 5,47.0000612 5,44.599951 C5,42.1999939 5,43.3116577 5,41.9713245 C5,39.5713673 5.57136735,39 7.97147756,39 C10.3714347,39 8.19999388,39 10.599951,39 Z M9.84893878,41.4489796 C10.877602,41.4489796 11.122449,41.6939796 11.122449,42.7223367 C11.122449,43.751 11.122449,42.8204286 11.122449,43.8489388 C11.122449,44.877449 10.877602,45.122449 9.84893878,45.122449 C8.82042856,45.122449 9.75100002,45.122449 8.7224898,45.122449 C7.69397958,45.122449 7.44897959,44.877449 7.44897959,43.8489388 C7.44897959,42.8204286 7.44897959,43.2968089 7.44897959,42.7223367 C7.44897959,41.6939796 7.69397958,41.4489796 8.7224898,41.4489796 C9.75100002,41.4489796 8.82042856,41.4489796 9.84893878,41.4489796 Z M7,36 C4.23857625,36 2,38.2385763 2,41 L2,57 C2,58.3260824 2.5267842,59.597852 3.46446609,60.5355339 C4.40214799,61.4732158 5.67391755,62 7,62 L23,62 C25.7614237,62 28,59.7614237 28,57 L28,41 C28,39.6739176 27.4732158,38.402148 26.5355339,37.4644661 C25.597852,36.5267842 24.3260824,36 23,36 L7,36 Z M23,64 L7,64 C3.13400675,64 4.73447626e-16,60.8659932 0,57 L0,41 C-4.73447626e-16,37.1340068 3.13400675,34 7,34 L23,34 C26.8659932,34 30,37.1340068 30,41 L30,57 C30,60.8659932 26.8659932,64 23,64 Z"/>
    <path d="M56.34375,56.969375 C56.34375,56.62375 56.6234702,56.34375 56.96875,56.34375 L57.9040645,56.34375 C58.2493445,56.34375 58.5290647,56.6215625 58.53125,56.969375 L58.53125,57.905625 C58.53125,58.25125 58.253715,58.53125 57.90625,58.53125 L56.96875,58.53125 C56.6234702,58.53125 56.34375,58.2534375 56.34375,57.9078125 L56.34375,56.969375 Z M50.71875,51.344375 C50.71875,50.9987501 50.9984701,50.71875 51.34375,50.71875 L52.2790646,50.71875 C52.6243445,50.71875 52.9040646,50.9965625 52.90625,51.344375 L52.90625,52.280625 C52.90625,52.6262499 52.628715,52.90625 52.28125,52.90625 L51.34375,52.90625 C50.9984701,52.90625 50.71875,52.6284375 50.71875,52.2828126 L50.71875,51.344375 Z M53.53125,54.156875 C53.53125,53.8112501 53.8109701,53.53125 54.15625,53.53125 L55.0915645,53.53125 C55.4368445,53.53125 55.7165647,53.8090625 55.71875,54.156875 L55.71875,55.093125 C55.71875,55.43875 55.441215,55.71875 55.09375,55.71875 L54.15625,55.71875 C53.8109701,55.71875 53.53125,55.4409375 53.53125,55.0953125 L53.53125,54.156875 Z M56.34375,51.344375 C56.34375,50.9987501 56.6234702,50.71875 56.96875,50.71875 L57.9040645,50.71875 C58.2493445,50.71875 58.5290647,50.9965625 58.53125,51.344375 L58.53125,52.280625 C58.53125,52.6262499 58.253715,52.90625 57.90625,52.90625 L56.96875,52.90625 C56.6234702,52.90625 56.34375,52.6284375 56.34375,52.2828126 L56.34375,51.344375 Z M50.71875,56.969375 C50.71875,56.62375 50.9984701,56.34375 51.34375,56.34375 L52.2790646,56.34375 C52.6243445,56.34375 52.9040646,56.6215625 52.90625,56.969375 L52.90625,57.905625 C52.90625,58.25125 52.628715,58.53125 52.28125,58.53125 L51.34375,58.53125 C50.9984701,58.53125 50.71875,58.2534375 50.71875,57.9078125 L50.71875,56.969375 Z M57.775532,44.599951 L57.775532,41.9713245 C57.775532,40.8045596 57.6168105,40.5198708 57.5485464,40.4514537 C57.4801292,40.3831896 57.1954405,40.2244679 56.0285225,40.2244679 L53.400049,40.2244679 C52.233131,40.2244679 51.9484423,40.3831896 51.8801782,40.4514537 C51.8119141,40.5198708 51.6530394,40.8045596 51.6530394,41.9713245 L51.6530394,44.599951 C51.6530394,45.766869 51.8119141,46.0515578 51.8801782,46.1199749 C51.9484423,46.1880859 52.233131,46.3469606 53.400049,46.3469606 L56.0285225,46.3469606 C57.1954405,46.3469606 57.4801292,46.1880859 57.5485464,46.1199749 C57.6168105,46.0515578 57.775532,45.766869 57.775532,44.599951 Z M56.0285225,39 C58.4286327,39 59,39.5713673 59,41.9713245 C59,44.3714347 59,42.1999939 59,44.599951 C59,47.0000612 58.4286327,47.5714286 56.0285225,47.5714286 C53.6285653,47.5714286 55.8000061,47.5714286 53.400049,47.5714286 C50.9999388,47.5714286 50.4285714,47.0000612 50.4285714,44.599951 C50.4285714,42.1999939 50.4285714,43.3116577 50.4285714,41.9713245 C50.4285714,39.5713673 50.9999388,39 53.400049,39 C55.8000061,39 53.6285653,39 56.0285225,39 Z M55.2775102,41.4489796 C56.3061734,41.4489796 56.5510205,41.6939796 56.5510205,42.7223367 C56.5510205,43.751 56.5510205,42.8204286 56.5510205,43.8489388 C56.5510205,44.877449 56.3061734,45.122449 55.2775102,45.122449 C54.249,45.122449 55.1795714,45.122449 54.1510612,45.122449 C53.122551,45.122449 52.877551,44.877449 52.877551,43.8489388 C52.877551,42.8204286 52.877551,43.2968089 52.877551,42.7223367 C52.877551,41.6939796 53.122551,41.4489796 54.1510612,41.4489796 C55.1795714,41.4489796 54.249,41.4489796 55.2775102,41.4489796 Z M46.3469606,56.0285225 L46.3469606,53.3998959 C46.3469606,52.233131 46.188239,51.9484422 46.1199749,51.8800251 C46.0515578,51.811761 45.766869,51.6530394 44.599951,51.6530394 L41.9714776,51.6530394 C40.8045596,51.6530394 40.5198708,51.811761 40.4516067,51.8800251 C40.3833426,51.9484422 40.2244679,52.233131 40.2244679,53.3998959 L40.2244679,56.0285225 C40.2244679,57.1954405 40.3833426,57.4801292 40.4516067,57.5485464 C40.5198708,57.6166573 40.8045596,57.775532 41.9714776,57.775532 L44.599951,57.775532 C45.766869,57.775532 46.0515578,57.6166573 46.1199749,57.5485464 C46.188239,57.4801292 46.3469606,57.1954405 46.3469606,56.0285225 Z M44.599951,50.4285714 C47.0000612,50.4285714 47.5714286,50.9999388 47.5714286,53.3998959 C47.5714286,55.8000061 47.5714286,53.6285653 47.5714286,56.0285225 C47.5714286,58.4286327 47.0000612,59 44.599951,59 C42.1999939,59 44.3714347,59 41.9714776,59 C39.5713673,59 39,58.4286327 39,56.0285225 C39,53.6285653 39,54.7402291 39,53.3998959 C39,50.9999388 39.5713673,50.4285714 41.9714776,50.4285714 C44.3714347,50.4285714 42.1999939,50.4285714 44.599951,50.4285714 Z M43.8489388,52.877551 C44.877602,52.877551 45.122449,53.122551 45.122449,54.1509082 C45.122449,55.1795714 45.122449,54.249 45.122449,55.2775102 C45.122449,56.3060205 44.877602,56.5510205 43.8489388,56.5510205 C42.8204286,56.5510205 43.751,56.5510205 42.7224898,56.5510205 C41.6939796,56.5510205 41.4489796,56.3060205 41.4489796,55.2775102 C41.4489796,54.249 41.4489796,54.7253803 41.4489796,54.1509082 C41.4489796,53.122551 41.6939796,52.877551 42.7224898,52.877551 C43.751,52.877551 42.8204286,52.877551 43.8489388,52.877551 Z M46.3469606,44.599951 L46.3469606,41.9713245 C46.3469606,40.8045596 46.188239,40.5198708 46.1199749,40.4514537 C46.0515578,40.3831896 45.766869,40.2244679 44.599951,40.2244679 L41.9714776,40.2244679 C40.8045596,40.2244679 40.5198708,40.3831896 40.4516067,40.4514537 C40.3833426,40.5198708 40.2244679,40.8045596 40.2244679,41.9713245 L40.2244679,44.599951 C40.2244679,45.766869 40.3833426,46.0515578 40.4516067,46.1199749 C40.5198708,46.1880859 40.8045596,46.3469606 41.9714776,46.3469606 L44.599951,46.3469606 C45.766869,46.3469606 46.0515578,46.1880859 46.1199749,46.1199749 C46.188239,46.0515578 46.3469606,45.766869 46.3469606,44.599951 Z M44.599951,39 C47.0000612,39 47.5714286,39.5713673 47.5714286,41.9713245 C47.5714286,44.3714347 47.5714286,42.1999939 47.5714286,44.599951 C47.5714286,47.0000612 47.0000612,47.5714286 44.599951,47.5714286 C42.1999939,47.5714286 44.3714347,47.5714286 41.9714776,47.5714286 C39.5713673,47.5714286 39,47.0000612 39,44.599951 C39,42.1999939 39,43.3116577 39,41.9713245 C39,39.5713673 39.5713673,39 41.9714776,39 C44.3714347,39 42.1999939,39 44.599951,39 Z M43.8489388,41.4489796 C44.877602,41.4489796 45.122449,41.6939796 45.122449,42.7223367 C45.122449,43.751 45.122449,42.8204286 45.122449,43.8489388 C45.122449,44.877449 44.877602,45.122449 43.8489388,45.122449 C42.8204286,45.122449 43.751,45.122449 42.7224898,45.122449 C41.6939796,45.122449 41.4489796,44.877449 41.4489796,43.8489388 C41.4489796,42.8204286 41.4489796,43.2968089 41.4489796,42.7223367 C41.4489796,41.6939796 41.6939796,41.4489796 42.7224898,41.4489796 C43.751,41.4489796 42.8204286,41.4489796 43.8489388,41.4489796 Z M41,36 C38.2385763,36 36,38.2385763 36,41 L36,57 C36,58.3260824 36.5267842,59.597852 37.4644661,60.5355339 C38.402148,61.4732158 39.6739176,62 41,62 L57,62 C59.7614237,62 62,59.7614237 62,57 L62,41 C62,39.6739176 61.4732158,38.402148 60.5355339,37.4644661 C59.597852,36.5267842 58.3260824,36 57,36 L41,36 Z M57,64 L41,64 C37.1340068,64 34,60.8659932 34,57 L34,41 C34,37.1340068 37.1340068,34 41,34 L57,34 C60.8659932,34 64,37.1340068 64,41 L64,57 C64,60.8659932 60.8659932,64 57,64 Z"/>
    <path d="M56.34375,22.969375 C56.34375,22.62375 56.6234702,22.34375 56.96875,22.34375 L57.9040645,22.34375 C58.2493445,22.34375 58.5290647,22.6215625 58.53125,22.969375 L58.53125,23.905625 C58.53125,24.25125 58.253715,24.53125 57.90625,24.53125 L56.96875,24.53125 C56.6234702,24.53125 56.34375,24.2534375 56.34375,23.9078125 L56.34375,22.969375 Z M50.71875,17.344375 C50.71875,16.9987501 50.9984701,16.71875 51.34375,16.71875 L52.2790646,16.71875 C52.6243445,16.71875 52.9040646,16.9965625 52.90625,17.344375 L52.90625,18.280625 C52.90625,18.6262499 52.628715,18.90625 52.28125,18.90625 L51.34375,18.90625 C50.9984701,18.90625 50.71875,18.6284375 50.71875,18.2828126 L50.71875,17.344375 Z M53.53125,20.156875 C53.53125,19.8112501 53.8109701,19.53125 54.15625,19.53125 L55.0915645,19.53125 C55.4368445,19.53125 55.7165647,19.8090625 55.71875,20.156875 L55.71875,21.093125 C55.71875,21.43875 55.441215,21.71875 55.09375,21.71875 L54.15625,21.71875 C53.8109701,21.71875 53.53125,21.4409375 53.53125,21.0953125 L53.53125,20.156875 Z M56.34375,17.344375 C56.34375,16.9987501 56.6234702,16.71875 56.96875,16.71875 L57.9040645,16.71875 C58.2493445,16.71875 58.5290647,16.9965625 58.53125,17.344375 L58.53125,18.280625 C58.53125,18.6262499 58.253715,18.90625 57.90625,18.90625 L56.96875,18.90625 C56.6234702,18.90625 56.34375,18.6284375 56.34375,18.2828126 L56.34375,17.344375 Z M50.71875,22.969375 C50.71875,22.62375 50.9984701,22.34375 51.34375,22.34375 L52.2790646,22.34375 C52.6243445,22.34375 52.9040646,22.6215625 52.90625,22.969375 L52.90625,23.905625 C52.90625,24.25125 52.628715,24.53125 52.28125,24.53125 L51.34375,24.53125 C50.9984701,24.53125 50.71875,24.2534375 50.71875,23.9078125 L50.71875,22.969375 Z M57.775532,10.599951 L57.775532,7.9713245 C57.775532,6.80455961 57.6168105,6.51987082 57.5485464,6.45145367 C57.4801292,6.38318959 57.1954405,6.22446793 56.0285225,6.22446793 L53.400049,6.22446793 C52.233131,6.22446793 51.9484423,6.38318959 51.8801782,6.45145367 C51.8119141,6.51987082 51.6530394,6.80455961 51.6530394,7.9713245 L51.6530394,10.599951 C51.6530394,11.766869 51.8119141,12.0515578 51.8801782,12.1199749 C51.9484423,12.1880859 52.233131,12.3469606 53.400049,12.3469606 L56.0285225,12.3469606 C57.1954405,12.3469606 57.4801292,12.1880859 57.5485464,12.1199749 C57.6168105,12.0515578 57.775532,11.766869 57.775532,10.599951 Z M56.0285225,5 C58.4286327,5 59,5.57136735 59,7.9713245 C59,10.3714347 59,8.19999388 59,10.599951 C59,13.0000612 58.4286327,13.5714286 56.0285225,13.5714286 C53.6285653,13.5714286 55.8000061,13.5714286 53.400049,13.5714286 C50.9999388,13.5714286 50.4285714,13.0000612 50.4285714,10.599951 C50.4285714,8.19999388 50.4285714,9.3116577 50.4285714,7.9713245 C50.4285714,5.57136735 50.9999388,5 53.400049,5 C55.8000061,5 53.6285653,5 56.0285225,5 Z M55.2775102,7.44897959 C56.3061734,7.44897959 56.5510205,7.69397958 56.5510205,8.72233675 C56.5510205,9.75100002 56.5510205,8.82042856 56.5510205,9.84893878 C56.5510205,10.877449 56.3061734,11.122449 55.2775102,11.122449 C54.249,11.122449 55.1795714,11.122449 54.1510612,11.122449 C53.122551,11.122449 52.877551,10.877449 52.877551,9.84893878 C52.877551,8.82042856 52.877551,9.29680891 52.877551,8.72233675 C52.877551,7.69397958 53.122551,7.44897959 54.1510612,7.44897959 C55.1795714,7.44897959 54.249,7.44897959 55.2775102,7.44897959 Z M46.3469606,22.0285225 L46.3469606,19.3998959 C46.3469606,18.233131 46.188239,17.9484422 46.1199749,17.8800251 C46.0515578,17.811761 45.766869,17.6530394 44.599951,17.6530394 L41.9714776,17.6530394 C40.8045596,17.6530394 40.5198708,17.811761 40.4516067,17.8800251 C40.3833426,17.9484422 40.2244679,18.233131 40.2244679,19.3998959 L40.2244679,22.0285225 C40.2244679,23.1954405 40.3833426,23.4801292 40.4516067,23.5485464 C40.5198708,23.6166573 40.8045596,23.775532 41.9714776,23.775532 L44.599951,23.775532 C45.766869,23.775532 46.0515578,23.6166573 46.1199749,23.5485464 C46.188239,23.4801292 46.3469606,23.1954405 46.3469606,22.0285225 Z M44.599951,16.4285714 C47.0000612,16.4285714 47.5714286,16.9999388 47.5714286,19.3998959 C47.5714286,21.8000061 47.5714286,19.6285653 47.5714286,22.0285225 C47.5714286,24.4286327 47.0000612,25 44.599951,25 C42.1999939,25 44.3714347,25 41.9714776,25 C39.5713673,25 39,24.4286327 39,22.0285225 C39,19.6285653 39,20.7402291 39,19.3998959 C39,16.9999388 39.5713673,16.4285714 41.9714776,16.4285714 C44.3714347,16.4285714 42.1999939,16.4285714 44.599951,16.4285714 Z M43.8489388,18.877551 C44.877602,18.877551 45.122449,19.122551 45.122449,20.1509082 C45.122449,21.1795714 45.122449,20.249 45.122449,21.2775102 C45.122449,22.3060205 44.877602,22.5510205 43.8489388,22.5510205 C42.8204286,22.5510205 43.751,22.5510205 42.7224898,22.5510205 C41.6939796,22.5510205 41.4489796,22.3060205 41.4489796,21.2775102 C41.4489796,20.249 41.4489796,20.7253803 41.4489796,20.1509082 C41.4489796,19.122551 41.6939796,18.877551 42.7224898,18.877551 C43.751,18.877551 42.8204286,18.877551 43.8489388,18.877551 Z M46.3469606,10.599951 L46.3469606,7.9713245 C46.3469606,6.80455961 46.188239,6.51987082 46.1199749,6.45145367 C46.0515578,6.38318959 45.766869,6.22446793 44.599951,6.22446793 L41.9714776,6.22446793 C40.8045596,6.22446793 40.5198708,6.38318959 40.4516067,6.45145367 C40.3833426,6.51987082 40.2244679,6.80455961 40.2244679,7.9713245 L40.2244679,10.599951 C40.2244679,11.766869 40.3833426,12.0515578 40.4516067,12.1199749 C40.5198708,12.1880859 40.8045596,12.3469606 41.9714776,12.3469606 L44.599951,12.3469606 C45.766869,12.3469606 46.0515578,12.1880859 46.1199749,12.1199749 C46.188239,12.0515578 46.3469606,11.766869 46.3469606,10.599951 Z M44.599951,5 C47.0000612,5 47.5714286,5.57136735 47.5714286,7.9713245 C47.5714286,10.3714347 47.5714286,8.19999388 47.5714286,10.599951 C47.5714286,13.0000612 47.0000612,13.5714286 44.599951,13.5714286 C42.1999939,13.5714286 44.3714347,13.5714286 41.9714776,13.5714286 C39.5713673,13.5714286 39,13.0000612 39,10.599951 C39,8.19999388 39,9.3116577 39,7.9713245 C39,5.57136735 39.5713673,5 41.9714776,5 C44.3714347,5 42.1999939,5 44.599951,5 Z M43.8489388,7.44897959 C44.877602,7.44897959 45.122449,7.69397958 45.122449,8.72233675 C45.122449,9.75100002 45.122449,8.82042856 45.122449,9.84893878 C45.122449,10.877449 44.877602,11.122449 43.8489388,11.122449 C42.8204286,11.122449 43.751,11.122449 42.7224898,11.122449 C41.6939796,11.122449 41.4489796,10.877449 41.4489796,9.84893878 C41.4489796,8.82042856 41.4489796,9.29680891 41.4489796,8.72233675 C41.4489796,7.69397958 41.6939796,7.44897959 42.7224898,7.44897959 C43.751,7.44897959 42.8204286,7.44897959 43.8489388,7.44897959 Z M41,2 C38.2385763,2 36,4.23857625 36,7 L36,23 C36,24.3260824 36.5267842,25.597852 37.4644661,26.5355339 C38.402148,27.4732158 39.6739176,28 41,28 L57,28 C59.7614237,28 62,25.7614237 62,23 L62,7 C62,5.67391755 61.4732158,4.40214799 60.5355339,3.46446609 C59.597852,2.5267842 58.3260824,2 57,2 L41,2 Z M57,30 L41,30 C37.1340068,30 34,26.8659932 34,23 L34,7 C34,3.13400675 37.1340068,0 41,0 L57,0 C60.8659932,-7.10542736e-15 64,3.13400675 64,7 L64,23 C64,26.8659932 60.8659932,30 57,30 Z"/>
    <path d="M22.34375,22.969375 C22.34375,22.62375 22.6234702,22.34375 22.96875,22.34375 L23.9040645,22.34375 C24.2493445,22.34375 24.5290647,22.6215625 24.53125,22.969375 L24.53125,23.905625 C24.53125,24.25125 24.253715,24.53125 23.90625,24.53125 L22.96875,24.53125 C22.6234702,24.53125 22.34375,24.2534375 22.34375,23.9078125 L22.34375,22.969375 Z M16.71875,17.344375 C16.71875,16.9987501 16.9984701,16.71875 17.34375,16.71875 L18.2790646,16.71875 C18.6243445,16.71875 18.9040646,16.9965625 18.90625,17.344375 L18.90625,18.280625 C18.90625,18.6262499 18.628715,18.90625 18.28125,18.90625 L17.34375,18.90625 C16.9984701,18.90625 16.71875,18.6284375 16.71875,18.2828126 L16.71875,17.344375 Z M19.53125,20.156875 C19.53125,19.8112501 19.8109701,19.53125 20.15625,19.53125 L21.0915645,19.53125 C21.4368445,19.53125 21.7165647,19.8090625 21.71875,20.156875 L21.71875,21.093125 C21.71875,21.43875 21.441215,21.71875 21.09375,21.71875 L20.15625,21.71875 C19.8109701,21.71875 19.53125,21.4409375 19.53125,21.0953125 L19.53125,20.156875 Z M22.34375,17.344375 C22.34375,16.9987501 22.6234702,16.71875 22.96875,16.71875 L23.9040645,16.71875 C24.2493445,16.71875 24.5290647,16.9965625 24.53125,17.344375 L24.53125,18.280625 C24.53125,18.6262499 24.253715,18.90625 23.90625,18.90625 L22.96875,18.90625 C22.6234702,18.90625 22.34375,18.6284375 22.34375,18.2828126 L22.34375,17.344375 Z M16.71875,22.969375 C16.71875,22.62375 16.9984701,22.34375 17.34375,22.34375 L18.2790646,22.34375 C18.6243445,22.34375 18.9040646,22.6215625 18.90625,22.969375 L18.90625,23.905625 C18.90625,24.25125 18.628715,24.53125 18.28125,24.53125 L17.34375,24.53125 C16.9984701,24.53125 16.71875,24.2534375 16.71875,23.9078125 L16.71875,22.969375 Z M23.775532,10.599951 L23.775532,7.9713245 C23.775532,6.80455961 23.6168105,6.51987082 23.5485464,6.45145367 C23.4801292,6.38318959 23.1954405,6.22446793 22.0285225,6.22446793 L19.400049,6.22446793 C18.233131,6.22446793 17.9484423,6.38318959 17.8801782,6.45145367 C17.8119141,6.51987082 17.6530394,6.80455961 17.6530394,7.9713245 L17.6530394,10.599951 C17.6530394,11.766869 17.8119141,12.0515578 17.8801782,12.1199749 C17.9484423,12.1880859 18.233131,12.3469606 19.400049,12.3469606 L22.0285225,12.3469606 C23.1954405,12.3469606 23.4801292,12.1880859 23.5485464,12.1199749 C23.6168105,12.0515578 23.775532,11.766869 23.775532,10.599951 Z M22.0285225,5 C24.4286327,5 25,5.57136735 25,7.9713245 C25,10.3714347 25,8.19999388 25,10.599951 C25,13.0000612 24.4286327,13.5714286 22.0285225,13.5714286 C19.6285653,13.5714286 21.8000061,13.5714286 19.400049,13.5714286 C16.9999388,13.5714286 16.4285714,13.0000612 16.4285714,10.599951 C16.4285714,8.19999388 16.4285714,9.3116577 16.4285714,7.9713245 C16.4285714,5.57136735 16.9999388,5 19.400049,5 C21.8000061,5 19.6285653,5 22.0285225,5 Z M21.2775102,7.44897959 C22.3061734,7.44897959 22.5510205,7.69397958 22.5510205,8.72233675 C22.5510205,9.75100002 22.5510205,8.82042856 22.5510205,9.84893878 C22.5510205,10.877449 22.3061734,11.122449 21.2775102,11.122449 C20.249,11.122449 21.1795714,11.122449 20.1510612,11.122449 C19.122551,11.122449 18.877551,10.877449 18.877551,9.84893878 C18.877551,8.82042856 18.877551,9.29680891 18.877551,8.72233675 C18.877551,7.69397958 19.122551,7.44897959 20.1510612,7.44897959 C21.1795714,7.44897959 20.249,7.44897959 21.2775102,7.44897959 Z M12.3469606,22.0285225 L12.3469606,19.3998959 C12.3469606,18.233131 12.188239,17.9484422 12.1199749,17.8800251 C12.0515578,17.811761 11.766869,17.6530394 10.599951,17.6530394 L7.97147756,17.6530394 C6.80455961,17.6530394 6.51987082,17.811761 6.45160673,17.8800251 C6.38334265,17.9484422 6.22446793,18.233131 6.22446793,19.3998959 L6.22446793,22.0285225 C6.22446793,23.1954405 6.38334265,23.4801292 6.45160673,23.5485464 C6.51987082,23.6166573 6.80455961,23.775532 7.97147756,23.775532 L10.599951,23.775532 C11.766869,23.775532 12.0515578,23.6166573 12.1199749,23.5485464 C12.188239,23.4801292 12.3469606,23.1954405 12.3469606,22.0285225 Z M10.599951,16.4285714 C13.0000612,16.4285714 13.5714286,16.9999388 13.5714286,19.3998959 C13.5714286,21.8000061 13.5714286,19.6285653 13.5714286,22.0285225 C13.5714286,24.4286327 13.0000612,25 10.599951,25 C8.19999388,25 10.3714347,25 7.97147756,25 C5.57136735,25 5,24.4286327 5,22.0285225 C5,19.6285653 5,20.7402291 5,19.3998959 C5,16.9999388 5.57136735,16.4285714 7.97147756,16.4285714 C10.3714347,16.4285714 8.19999388,16.4285714 10.599951,16.4285714 Z M9.84893878,18.877551 C10.877602,18.877551 11.122449,19.122551 11.122449,20.1509082 C11.122449,21.1795714 11.122449,20.249 11.122449,21.2775102 C11.122449,22.3060205 10.877602,22.5510205 9.84893878,22.5510205 C8.82042856,22.5510205 9.75100002,22.5510205 8.7224898,22.5510205 C7.69397958,22.5510205 7.44897959,22.3060205 7.44897959,21.2775102 C7.44897959,20.249 7.44897959,20.7253803 7.44897959,20.1509082 C7.44897959,19.122551 7.69397958,18.877551 8.7224898,18.877551 C9.75100002,18.877551 8.82042856,18.877551 9.84893878,18.877551 Z M12.3469606,10.599951 L12.3469606,7.9713245 C12.3469606,6.80455961 12.188239,6.51987082 12.1199749,6.45145367 C12.0515578,6.38318959 11.766869,6.22446793 10.599951,6.22446793 L7.97147756,6.22446793 C6.80455961,6.22446793 6.51987082,6.38318959 6.45160673,6.45145367 C6.38334265,6.51987082 6.22446793,6.80455961 6.22446793,7.9713245 L6.22446793,10.599951 C6.22446793,11.766869 6.38334265,12.0515578 6.45160673,12.1199749 C6.51987082,12.1880859 6.80455961,12.3469606 7.97147756,12.3469606 L10.599951,12.3469606 C11.766869,12.3469606 12.0515578,12.1880859 12.1199749,12.1199749 C12.188239,12.0515578 12.3469606,11.766869 12.3469606,10.599951 Z M10.599951,5 C13.0000612,5 13.5714286,5.57136735 13.5714286,7.9713245 C13.5714286,10.3714347 13.5714286,8.19999388 13.5714286,10.599951 C13.5714286,13.0000612 13.0000612,13.5714286 10.599951,13.5714286 C8.19999388,13.5714286 10.3714347,13.5714286 7.97147756,13.5714286 C5.57136735,13.5714286 5,13.0000612 5,10.599951 C5,8.19999388 5,9.3116577 5,7.9713245 C5,5.57136735 5.57136735,5 7.97147756,5 C10.3714347,5 8.19999388,5 10.599951,5 Z M9.84893878,7.44897959 C10.877602,7.44897959 11.122449,7.69397958 11.122449,8.72233675 C11.122449,9.75100002 11.122449,8.82042856 11.122449,9.84893878 C11.122449,10.877449 10.877602,11.122449 9.84893878,11.122449 C8.82042856,11.122449 9.75100002,11.122449 8.7224898,11.122449 C7.69397958,11.122449 7.44897959,10.877449 7.44897959,9.84893878 C7.44897959,8.82042856 7.44897959,9.29680891 7.44897959,8.72233675 C7.44897959,7.69397958 7.69397958,7.44897959 8.7224898,7.44897959 C9.75100002,7.44897959 8.82042856,7.44897959 9.84893878,7.44897959 Z M7,2 C4.23857625,2 2,4.23857625 2,7 L2,23 C2,24.3260824 2.5267842,25.597852 3.46446609,26.5355339 C4.40214799,27.4732158 5.67391755,28 7,28 L23,28 C25.7614237,28 28,25.7614237 28,23 L28,7 C28,5.67391755 27.4732158,4.40214799 26.5355339,3.46446609 C25.597852,2.5267842 24.3260824,2 23,2 L7,2 Z M23,30 L7,30 C3.13400675,30 4.73447626e-16,26.8659932 0,23 L0,7 C-4.73447626e-16,3.13400675 3.13400675,0 7,0 L23,0 C26.8659932,-7.10542736e-15 30,3.13400675 30,7 L30,23 C30,26.8659932 26.8659932,30 23,30 Z"/>
  </g>
</svg>
