<svg xmlns="http://www.w3.org/2000/svg" viewBox="0 0 63 63">
  <g fill="currentColor">
    <path d="M23,30H7a7,7,0,0,1-7-7V7A7,7,0,0,1,7,0H23a7,7,0,0,1,7,7V23A7,7,0,0,1,23,30ZM7,2A5,5,0,0,0,2,7V23a5,5,0,0,0,5,5H23a5,5,0,0,0,5-5V7a5,5,0,0,0-5-5Z"/>
    <rect x="7" y="7" width="4" height="4" rx="1"/>
    <circle cx="18" cy="18" r="1"/>
    <circle cx="24" cy="18" r="1"/>
    <circle cx="21" cy="21" r="1"/>
    <circle cx="18" cy="24" r="1"/>
    <circle cx="24" cy="24" r="1"/>
    <path d="M11,5a2,2,0,0,1,2,2v4a2,2,0,0,1-2,2H7a2,2,0,0,1-2-2V7A2,2,0,0,1,7,5h4m0-1H7A3,3,0,0,0,4,7v4a3,3,0,0,0,3,3h4a3,3,0,0,0,3-3V7a3,3,0,0,0-3-3Z"/>
    <rect x="7" y="19" width="4" height="4" rx="1"/>
    <path d="M11,17a2,2,0,0,1,2,2v4a2,2,0,0,1-2,2H7a2,2,0,0,1-2-2V19a2,2,0,0,1,2-2h4m0-1H7a3,3,0,0,0-3,3v4a3,3,0,0,0,3,3h4a3,3,0,0,0,3-3V19a3,3,0,0,0-3-3Z"/>
    <rect x="19" y="7" width="4" height="4" rx="1"/>
    <path d="M23,5a2,2,0,0,1,2,2v4a2,2,0,0,1-2,2H19a2,2,0,0,1-2-2V7a2,2,0,0,1,2-2h4m0-1H19a3,3,0,0,0-3,3v4a3,3,0,0,0,3,3h4a3,3,0,0,0,3-3V7a3,3,0,0,0-3-3Z"/>
    <path d="M56,30H40a7,7,0,0,1-7-7V7a7,7,0,0,1,7-7H56a7,7,0,0,1,7,7V23A7,7,0,0,1,56,30ZM40,2a5,5,0,0,0-5,5V23a5,5,0,0,0,5,5H56a5,5,0,0,0,5-5V7a5,5,0,0,0-5-5Z"/>
    <rect x="40" y="7" width="4" height="4" rx="1"/>
    <circle cx="51" cy="18" r="1"/>
    <circle cx="57" cy="18" r="1"/>
    <circle cx="54" cy="21" r="1"/>
    <circle cx="51" cy="24" r="1"/>
    <circle cx="57" cy="24" r="1"/>
    <path d="M44,5a2,2,0,0,1,2,2v4a2,2,0,0,1-2,2H40a2,2,0,0,1-2-2V7a2,2,0,0,1,2-2h4m0-1H40a3,3,0,0,0-3,3v4a3,3,0,0,0,3,3h4a3,3,0,0,0,3-3V7a3,3,0,0,0-3-3Z"/>
    <rect x="40" y="19" width="4" height="4" rx="1"/>
    <path d="M44,17a2,2,0,0,1,2,2v4a2,2,0,0,1-2,2H40a2,2,0,0,1-2-2V19a2,2,0,0,1,2-2h4m0-1H40a3,3,0,0,0-3,3v4a3,3,0,0,0,3,3h4a3,3,0,0,0,3-3V19a3,3,0,0,0-3-3Z"/>
    <rect x="52" y="7" width="4" height="4" rx="1"/>
    <path d="M56,5a2,2,0,0,1,2,2v4a2,2,0,0,1-2,2H52a2,2,0,0,1-2-2V7a2,2,0,0,1,2-2h4m0-1H52a3,3,0,0,0-3,3v4a3,3,0,0,0,3,3h4a3,3,0,0,0,3-3V7a3,3,0,0,0-3-3Z"/>
    <path d="M23,63H7a7,7,0,0,1-7-7V40a7,7,0,0,1,7-7H23a7,7,0,0,1,7,7V56A7,7,0,0,1,23,63ZM7,35a5,5,0,0,0-5,5V56a5,5,0,0,0,5,5H23a5,5,0,0,0,5-5V40a5,5,0,0,0-5-5Z"/>
    <rect x="7" y="40" width="4" height="4" rx="1"/>
    <circle cx="18" cy="51" r="1"/>
    <circle cx="24" cy="51" r="1"/>
    <circle cx="21" cy="54" r="1"/>
    <circle cx="18" cy="57" r="1"/>
    <circle cx="24" cy="57" r="1"/>
    <path d="M11,38a2,2,0,0,1,2,2v4a2,2,0,0,1-2,2H7a2,2,0,0,1-2-2V40a2,2,0,0,1,2-2h4m0-1H7a3,3,0,0,0-3,3v4a3,3,0,0,0,3,3h4a3,3,0,0,0,3-3V40a3,3,0,0,0-3-3Z"/>
    <rect x="7" y="52" width="4" height="4" rx="1"/>
    <path d="M11,50a2,2,0,0,1,2,2v4a2,2,0,0,1-2,2H7a2,2,0,0,1-2-2V52a2,2,0,0,1,2-2h4m0-1H7a3,3,0,0,0-3,3v4a3,3,0,0,0,3,3h4a3,3,0,0,0,3-3V52a3,3,0,0,0-3-3Z"/>
    <rect x="19" y="40" width="4" height="4" rx="1"/>
    <path d="M23,38a2,2,0,0,1,2,2v4a2,2,0,0,1-2,2H19a2,2,0,0,1-2-2V40a2,2,0,0,1,2-2h4m0-1H19a3,3,0,0,0-3,3v4a3,3,0,0,0,3,3h4a3,3,0,0,0,3-3V40a3,3,0,0,0-3-3Z"/>
    <path d="M56,63H40a7,7,0,0,1-7-7V40a7,7,0,0,1,7-7H56a7,7,0,0,1,7,7V56A7,7,0,0,1,56,63ZM40,35a5,5,0,0,0-5,5V56a5,5,0,0,0,5,5H56a5,5,0,0,0,5-5V40a5,5,0,0,0-5-5Z"/>
    <rect x="40" y="40" width="4" height="4" rx="1"/>
    <circle cx="51" cy="51" r="1"/>
    <circle cx="57" cy="51" r="1"/>
    <circle cx="54" cy="54" r="1"/>
    <circle cx="51" cy="57" r="1"/>
    <circle cx="57" cy="57" r="1"/>
    <path d="M44,38a2,2,0,0,1,2,2v4a2,2,0,0,1-2,2H40a2,2,0,0,1-2-2V40a2,2,0,0,1,2-2h4m0-1H40a3,3,0,0,0-3,3v4a3,3,0,0,0,3,3h4a3,3,0,0,0,3-3V40a3,3,0,0,0-3-3Z"/>
    <rect x="40" y="52" width="4" height="4" rx="1"/>
    <path d="M44,50a2,2,0,0,1,2,2v4a2,2,0,0,1-2,2H40a2,2,0,0,1-2-2V52a2,2,0,0,1,2-2h4m0-1H40a3,3,0,0,0-3,3v4a3,3,0,0,0,3,3h4a3,3,0,0,0,3-3V52a3,3,0,0,0-3-3Z"/>
    <rect x="52" y="40" width="4" height="4" rx="1"/>
    <path d="M56,38a2,2,0,0,1,2,2v4a2,2,0,0,1-2,2H52a2,2,0,0,1-2-2V40a2,2,0,0,1,2-2h4m0-1H52a3,3,0,0,0-3,3v4a3,3,0,0,0,3,3h4a3,3,0,0,0,3-3V40a3,3,0,0,0-3-3Z"/>
  </g>
</svg>
