<svg viewBox="0 0 616 600" version="1.1" xmlns="http://www.w3.org/2000/svg" xmlns:xlink="http://www.w3.org/1999/xlink">
  <g stroke="none" stroke-width="1" fill="none" fill-rule="evenodd">
    <g fill="currentColor">
      <path d="M38.8125,6.99440507e-15 C111,0 111,0 183.1875,6.99440507e-15 C201.309344,3.66547644e-15 216,14.6906566 216,32.8125 L216,177.1875 C216,195.309344 201.309344,210 183.1875,210 L38.8125,210 C20.6906566,210 6,195.309344 6,177.1875 L6,32.8125 C6,14.6906566 20.6906566,1.03233337e-14 38.8125,6.99440507e-15 Z M40.9995,35 L40.9995,175 L180.9995,175 L180.9995,35 L40.9995,35 Z M75.9995,35 L99.3328333,35 L99.3328333,81.6666667 L122.666167,81.6666667 L122.666167,35 L145.9995,35 L145.9995,105 L75.9995,105 L75.9995,35 Z M422.8125,390 C495,390 495,390 567.1875,390 C585.309344,390 600,404.690657 600,422.8125 L600,567.1875 C600,585.309344 585.309344,600 567.1875,600 L422.8125,600 C404.690657,600 390,585.309344 390,567.1875 L390,422.8125 C390,404.690657 404.690657,390 422.8125,390 Z M424.9995,425 L424.9995,565 L564.9995,565 L564.9995,425 L424.9995,425 Z M459.9995,425 L483.332833,425 L483.332833,471.666667 L506.666167,471.666667 L506.666167,425 L529.9995,425 L529.9995,495 L459.9995,495 L459.9995,425 Z M503.485062,346.142 C498.799062,350.828 491.201062,350.828 486.514062,346.142 L388.171062,247.799 C383.485062,243.113 383.485062,235.515 388.171062,230.828 L393.827062,225.172 C398.513062,220.486 406.111062,220.486 410.798062,225.172 L479.000062,293.372 L479.000062,121 L276.024062,121 C272.841434,121.00029 269.789135,119.735843 267.539062,117.485 L259.539062,109.485 C251.979062,101.925 257.333062,89 268.024062,89 L487.000062,89 C500.255062,89 511.000062,99.745 511.000062,113 L511.000062,293.372 L579.201062,225.171 C583.887062,220.485 591.485062,220.485 596.172062,225.171 L601.828062,230.827 C606.514062,235.514 606.514062,243.112 601.828062,247.799 L503.485062,346.142 Z M101.8575,253.5145 C106.5435,248.8285 114.1415,248.8285 118.8285,253.5145 L217.1715,351.8575 C221.8575,356.5435 221.8575,364.1415 217.1715,368.8285 L211.5155,374.4845 C206.8295,379.1705 199.2315,379.1705 194.5445,374.4845 L126.3425,306.2845 L126.3425,478.6565 L329.3185,478.6565 C332.501128,478.65621 335.553427,479.920657 337.8035,482.1715 L345.8035,490.1715 C353.3635,497.7315 348.0095,510.6565 337.3185,510.6565 L118.3425,510.6565 C105.0875,510.6565 94.3425,499.9115 94.3425,486.6565 L94.3425,306.2845 L26.1415,374.4855 C21.4555,379.1715 13.8575,379.1715 9.1705,374.4855 L3.5145,368.8295 C-1.1715,364.1425 -1.1715,356.5445 3.5145,351.8575 L101.8575,253.5145 Z"/>
    </g>
  </g>
</svg>
