<svg viewBox="0 0 600 568" version="1.1" xmlns="http://www.w3.org/2000/svg">
  <g stroke="none" stroke-width="1" fill="none" fill-rule="evenodd">
    <path d="M299.933036,364.428571 C299.933036,405.008929 300,546.571429 300,546.571429 C300,558.424107 290.424107,568 278.571429,568 L21.4285714,568 C9.57589286,568 0,558.424107 0,546.571429 C0,546.571429 0.0669642857,405.008929 0,364.495536 C0,357.397321 1.74107143,350.433036 5.08928571,344.205357 L37.96875,282.665179 C40.9151786,273.892857 49.0848214,268 58.3258929,268 L241.674107,268 C250.915179,268 259.084821,273.892857 261.964286,282.598214 L294.84375,344.138393 C298.191964,350.366071 299.933036,357.330357 299.933036,364.428571 Z M73,316 L54,354 L116,354 L123,316 L73,316 Z M227,316 L177,316 L184,354 L246,354 L227,316 Z M48,520 L252,520 C251.942045,491.741071 251.942045,446.263393 251.942045,402 L187.090909,402 L187.090909,444.857143 C187.090909,450.75 182.918182,455.571429 177.818182,455.571429 L122.181818,455.571429 C117.081818,455.571429 112.909091,450.75 112.909091,444.857143 L112.909091,402 L48.0579545,402 C48.0579545,446.263393 48,491.674107 48,520 Z M599.944196,398.357143 C599.944196,432.174107 600,550.142857 600,550.142857 C600,560.020089 592.020089,568 582.142857,568 L367.857143,568 C357.979911,568 350,560.020089 350,550.142857 C350,550.142857 350.055804,432.174107 350,398.412946 C350,392.497768 351.450893,386.694196 354.241071,381.504464 L381.640625,330.220982 C384.095982,322.910714 390.904018,318 398.604911,318 L551.395089,318 C559.095982,318 565.904018,322.910714 568.303571,330.165179 L595.703125,381.448661 C598.493304,386.638393 599.944196,392.441964 599.944196,398.357143 Z M418.833333,358.333333 L403,390 L448,390 L453.833333,358.333333 L418.833333,358.333333 Z M531.166667,358.333333 L496.166667,358.333333 L502,390 L547,390 L531.166667,358.333333 Z M398,520 L552,520 C551.951705,496.450893 551.951705,474.552827 551.951705,437.666667 L505.909091,437.666667 L505.909091,465.380952 C505.909091,470.291667 502.431818,474.309524 498.181818,474.309524 L451.818182,474.309524 C447.568182,474.309524 444.090909,470.291667 444.090909,465.380952 L444.090909,437.666667 L398.048295,437.666667 C398.048295,474.552827 398,496.395089 398,520 Z M519.389977,65.0016648 C523.871588,66.2025089 526.531549,70.8096964 525.330705,75.2913074 L487.951197,214.79353 C486.750353,219.275142 482.143165,221.935103 477.661554,220.734258 L328.500073,180.76656 C324.018462,179.565716 321.358501,174.958528 322.559345,170.476917 L330.16872,142.078344 C331.39004,137.520315 336.124223,134.86249 340.651231,136.191469 L425.579175,161.128824 C417.120382,109.560101 379.433579,65.1910549 325.640044,50.7771208 C262.014963,33.7288316 196.961646,64.2286865 168.087523,120.524583 C166.274242,124.059288 162.260625,125.870072 158.423495,124.841916 L129.439275,117.075618 C124.367961,115.716764 121.749414,110.081282 124.023368,105.349394 C159.476153,31.567223 255.696303,-16.007604 337.650883,5.95205957 C395.982835,21.582059 446.439519,77.3778567 464.376223,130.614946 L480.651289,63.5267922 C481.764044,58.9411229 486.433374,56.1709697 490.990727,57.3921087 L519.389977,65.0016648 Z" fill="#000000"/>
  </g>
</svg>
