<svg viewBox="0 0 616 600" version="1.1" xmlns="http://www.w3.org/2000/svg" xmlns:xlink="http://www.w3.org/1999/xlink">
  <g stroke="none" stroke-width="1" fill="none" fill-rule="evenodd">
    <g fill="currentColor">
      <path d="M508.4845,346.4275 C503.7985,351.1135 496.2005,351.1135 491.5135,346.4275 L387.5135,242.4275 C382.8275,237.7415 382.8275,230.1435 387.5135,225.4565 L404.3905,208.5795 C409.1135,203.8565 416.7835,203.8985 421.4545,208.6735 L475.9995,264.4365 L475.9995,128.9715 L297.0235,128.9715 C293.840872,128.97179 290.788573,127.707343 288.5385,125.4565 L264.5385,101.4565 C256.9785,93.8965 262.3325,80.9715 273.0235,80.9715 L499.9995,80.9715 C513.2545,80.9715 523.9995,91.7165 523.9995,104.9715 L523.9995,264.4365 L578.5445,208.6745 C583.2155,203.8995 590.8855,203.8575 595.6085,208.5805 L612.4855,225.4575 C617.1715,230.1435 617.1715,237.7415 612.4845,242.4275 L508.4845,346.4275 Z M318.9755,470.9715 L139.9995,470.9715 L139.9995,335.5065 L194.5445,391.2685 C199.2155,396.0435 206.8855,396.0855 211.6085,391.3625 L228.4855,374.4855 C233.1715,369.7995 233.1715,362.2015 228.4855,357.5145 L124.4855,253.5145 C119.7995,248.8285 112.2015,248.8285 107.5145,253.5145 L3.5145,357.5145 C-1.1715,362.2005 -1.1715,369.7985 3.5145,374.4855 L20.3915,391.3625 C25.1145,396.0855 32.7845,396.0435 37.4555,391.2685 L91.9995,335.5065 L91.9995,494.9715 C91.9995,508.2265 102.7445,518.9715 115.9995,518.9715 L342.9755,518.9715 C353.6665,518.9715 359.0205,506.0455 351.4605,498.4865 L327.4605,474.4865 C325.210054,472.236215 322.157997,470.971869 318.9755,470.9715 Z M43.8125,6.99440507e-15 C116,0 116,0 188.1875,6.99440507e-15 C206.309344,3.66547644e-15 221,14.6906566 221,32.8125 L221,177.1875 C221,195.309344 206.309344,210 188.1875,210 L43.8125,210 C25.6906566,210 11,195.309344 11,177.1875 L11,32.8125 C11,14.6906566 25.6906566,1.03233337e-14 43.8125,6.99440507e-15 Z M50.9995,40 L50.9995,170 L180.9995,170 L180.9995,40 L50.9995,40 Z M80.9995,40 L104.332833,40 L104.332833,86.6666667 L127.666167,86.6666667 L127.666167,40 L150.9995,40 L150.9995,110 L80.9995,110 L80.9995,40 Z M427.8125,390 C500,390 500,390 572.1875,390 C590.309344,390 605,404.690657 605,422.8125 L605,567.1875 C605,585.309344 590.309344,600 572.1875,600 L427.8125,600 C409.690657,600 395,585.309344 395,567.1875 L395,422.8125 C395,404.690657 409.690657,390 427.8125,390 Z M434.9995,430 L434.9995,560 L564.9995,560 L564.9995,430 L434.9995,430 Z M464.9995,430 L488.332833,430 L488.332833,476.666667 L511.666167,476.666667 L511.666167,430 L534.9995,430 L534.9995,500 L464.9995,500 L464.9995,430 Z"/>
    </g>
  </g>
</svg>
