<svg viewBox="0 0 64 64" version="1.1" xmlns="http://www.w3.org/2000/svg">
	<g fill="currentColor">
		<path d="M54.0001674,64 C52.1363279,64 50.5702276,62.7252272 50.1261848,61 L15.8741499,61 C15.4301071,62.7252272 13.8640068,64 12.0001674,64 C10.1363279,64 8.57022764,62.7252272 8.12618485,61 L1.00016736,61 C0.447882613,61 0.000167363195,60.5522847 0.000167363195,60 L0.000167363195,56 C0.000167363195,55.4477153 0.447882613,55 1.00016736,55 L61.0001674,55 C62.6570216,55 64.0001674,56.3431458 64.0001674,58 C64.0001674,59.6568542 62.6570216,61 61.0001674,61 L57.8741499,61 C57.4301071,62.7252272 55.8640068,64 54.0001674,64 Z M2.00016736,59 L9.00016736,59 C9.55245211,59 10.0001674,59.4477153 10.0001674,60 C10.0001674,61.1045695 10.8955979,62 12.0001674,62 C13.1047369,62 14.0001674,61.1045695 14.0001674,60 C14.0001674,59.4477153 14.4478826,59 15.0001674,59 L51.0001674,59 C51.5524521,59 52.0001674,59.4477153 52.0001674,60 C52.0001674,61.1045695 52.8955979,62 54.0001674,62 C55.1047369,62 56.0001674,61.1045695 56.0001674,60 C56.0001674,59.4477153 56.4478826,59 57.0001674,59 L61.0001674,59 C61.5524521,59 62.0001674,58.5522847 62.0001674,58 C62.0001674,57.4477153 61.5524521,57 61.0001674,57 L2.00016736,57 L2.00016736,59 Z"/>
		<path d="M3.00016736,55 C3.00016736,55.5522847 3.44788261,56 4.00016736,56 C4.55245211,56 5.00016736,55.5522847 5.00016736,55 L5.00016736,27 L4.98495092,26.8262147 L1.98495092,9.82621467 C1.88897193,9.28233372 1.37026297,8.91923745 0.826382029,9.01521644 C0.282501088,9.11119543 -0.0805951853,9.62990439 0.0153838044,10.1737853 L3.00016736,27.0875588 L3.00016736,55 Z"/>
		<path d="M17.0001674,29 L13.0001674,29 C11.3433131,29 10.0001674,30.3431458 10.0001674,32 L10.0001674,47 C10.0001674,48.6568542 11.3433131,50 13.0001674,50 L28.0001674,50 C29.6570216,50 31.0001674,48.6568542 31.0001674,47 L31.0001674,32 C31.0001674,30.3431458 29.6570216,29 28.0001674,29 L24.0001674,29 L24.0001674,37 C24.0001674,37.5522847 23.5524521,38 23.0001674,38 L18.0001674,38 C17.4478826,38 17.0001674,37.5522847 17.0001674,37 L17.0001674,29 Z M13.0001674,27 L28.0001674,27 C30.7615911,27 33.0001674,29.2385763 33.0001674,32 L33.0001674,47 C33.0001674,49.7614237 30.7615911,52 28.0001674,52 L13.0001674,52 C10.2387436,52 8.00016736,49.7614237 8.00016736,47 L8.00016736,32 C8.00016736,29.2385763 10.2387436,27 13.0001674,27 Z M23.0001674,29 L18.0001674,29 L18.0001674,37 L23.0001674,37 L23.0001674,29 Z"/>
		<path d="M17.0001674,2 L13.0001674,2 C11.3433131,2 10.0001674,3.34314575 10.0001674,5 L10.0001674,20 C10.0001674,21.6568542 11.3433131,23 13.0001674,23 L28.0001674,23 C29.6570216,23 31.0001674,21.6568542 31.0001674,20 L31.0001674,5 C31.0001674,3.34314575 29.6570216,2 28.0001674,2 L24.0001674,2 L24.0001674,10 C24.0001674,10.5522847 23.5524521,11 23.0001674,11 L18.0001674,11 C17.4478826,11 17.0001674,10.5522847 17.0001674,10 L17.0001674,2 Z M13.0001674,0 L28.0001674,0 C30.7615911,-4.4408921e-16 33.0001674,2.23857625 33.0001674,5 L33.0001674,20 C33.0001674,22.7614237 30.7615911,25 28.0001674,25 L13.0001674,25 C10.2387436,25 8.00016736,22.7614237 8.00016736,20 L8.00016736,5 C8.00016736,2.23857625 10.2387436,5.55111512e-16 13.0001674,0 Z M23.0001674,2 L18.0001674,2 L18.0001674,10 L23.0001674,10 L23.0001674,2 Z"/>
		<path d="M44.0001674,29 L40.0001674,29 C38.3433131,29 37.0001674,30.3431458 37.0001674,32 L37.0001674,47 C37.0001674,48.6568542 38.3433131,50 40.0001674,50 L55.0001674,50 C56.6570216,50 58.0001674,48.6568542 58.0001674,47 L58.0001674,32 C58.0001674,30.3431458 56.6570216,29 55.0001674,29 L51.0001674,29 L51.0001674,37 C51.0001674,37.5522847 50.5524521,38 50.0001674,38 L45.0001674,38 C44.4478826,38 44.0001674,37.5522847 44.0001674,37 L44.0001674,29 Z M40.0001674,27 L55.0001674,27 C57.7615911,27 60.0001674,29.2385763 60.0001674,32 L60.0001674,47 C60.0001674,49.7614237 57.7615911,52 55.0001674,52 L40.0001674,52 C37.2387436,52 35.0001674,49.7614237 35.0001674,47 L35.0001674,32 C35.0001674,29.2385763 37.2387436,27 40.0001674,27 Z M50.0001674,29 L45.0001674,29 L45.0001674,37 L50.0001674,37 L50.0001674,29 Z"/>
		<path d="M44.0001674,2 L40.0001674,2 C38.3433131,2 37.0001674,3.34314575 37.0001674,5 L37.0001674,20 C37.0001674,21.6568542 38.3433131,23 40.0001674,23 L55.0001674,23 C56.6570216,23 58.0001674,21.6568542 58.0001674,20 L58.0001674,5 C58.0001674,3.34314575 56.6570216,2 55.0001674,2 L51.0001674,2 L51.0001674,10 C51.0001674,10.5522847 50.5524521,11 50.0001674,11 L45.0001674,11 C44.4478826,11 44.0001674,10.5522847 44.0001674,10 L44.0001674,2 Z M40.0001674,0 L55.0001674,0 C57.7615911,-4.4408921e-16 60.0001674,2.23857625 60.0001674,5 L60.0001674,20 C60.0001674,22.7614237 57.7615911,25 55.0001674,25 L40.0001674,25 C37.2387436,25 35.0001674,22.7614237 35.0001674,20 L35.0001674,5 C35.0001674,2.23857625 37.2387436,5.55111512e-16 40.0001674,0 Z M50.0001674,2 L45.0001674,2 L45.0001674,10 L50.0001674,10 L50.0001674,2 Z"/>
	</g>
</svg>
