<svg viewBox="0 0 64 64" version="1.1" xmlns="http://www.w3.org/2000/svg">
  <g fill="currentColor">
		<path d="M47.7460317,16 C51.67339,16 54.8571429,19.1340068 54.8571429,23 L54.857129,23.0052795 L54.8571403,50.5022297 C54.8550377,51.4305297 55.2287262,52.321405 55.8955542,52.9778138 C56.5623823,53.6342227 57.4673984,54.0020723 58.4149635,54.0000025 C59.3579984,54.0020723 60.2630146,53.6342227 60.9298426,52.9778138 C61.5966707,52.321405 61.9703591,51.4305297 61.968254,50.5 L61.968254,4.35506066 C60.8214453,4.01908664 59.9171183,3.12888977 59.5758114,2 L56.2337124,2 C55.7966081,3.44574447 54.436074,4.5 52.8253968,4.5 C51.2147197,4.5 49.8541856,3.44574447 49.4170812,2 L46.0749823,2 C45.6378779,3.44574447 44.2773438,4.5 42.6666667,4.5 C41.0559895,4.5 39.6954554,3.44574447 39.2583511,2 L35.9162521,2 C35.4791477,3.44574447 34.1186137,4.5 32.5079365,4.5 C30.8972594,4.5 29.5367253,3.44574447 29.0996209,2 L25.7575219,2 C25.416215,3.12888977 24.511888,4.01908664 23.3650794,4.35506066 L23.3650794,16 L47.7460317,16 Z M42.7692874,18 L8.12698413,18 C4.76067708,18 2.03174603,20.6862915 2.03174603,24 L2.03174603,59.6449393 C3.17855468,59.9809134 4.08288166,60.8711102 4.42418861,62 L7.76628758,62 C8.20339193,60.5542555 9.56392603,59.5 11.1746032,59.5 C12.7852803,59.5 14.1458144,60.5542555 14.5829188,62 L17.9250177,62 C18.3621221,60.5542555 19.7226562,59.5 21.3333333,59.5 C22.9440105,59.5 24.3045446,60.5542555 24.7416489,62 L28.0837479,62 C28.5208523,60.5542555 29.8813863,59.5 31.4920635,59.5 C33.1027406,59.5 34.4632747,60.5542555 34.9003791,62 L38.2424781,62 C38.583785,60.8711102 39.488112,59.9809134 40.6349206,59.6449393 L40.6349206,23 C40.6349206,21.0413118 41.4521572,19.270517 42.7692874,18 Z M42.6666667,60.5 C42.6666667,61.0522847 42.2118448,61.5 41.6507937,61.5 C40.8092169,61.5 40.1269841,62.1715729 40.1269841,63 C40.1269841,63.5522847 39.6721623,64 39.1111111,64 C39.0526477,64 37.359526,64 34.031746,64 C33.4706949,64 33.015873,63.5522847 33.015873,63 C33.015873,62.1715729 32.3336403,61.5 31.4920635,61.5 C30.6504867,61.5 29.968254,62.1715729 29.968254,63 C29.968254,63.5522847 29.5134321,64 28.952381,64 L23.8730159,64 C23.3119647,64 22.8571429,63.5522847 22.8571429,63 C22.8571429,62.1715729 22.1749101,61.5 21.3333333,61.5 C20.4917566,61.5 19.8095238,62.1715729 19.8095238,63 C19.8095238,63.5522847 19.354702,64 18.7936508,64 L13.7142857,64 C13.1532345,64 12.6984127,63.5522847 12.6984127,63 C12.6984127,62.1715729 12.0161799,61.5 11.1746032,61.5 C10.3330264,61.5 9.65079365,62.1715729 9.65079365,63 C9.65079365,63.5522847 9.19597181,64 8.63492063,64 L3.55555556,64 C2.99450438,64 2.53968254,63.5522847 2.53968254,63 C2.53968254,62.1715729 1.85744978,61.5 1.01587302,61.5 C0.454821841,61.5 0,61.0522847 0,60.5 L0,24 C5.63922806e-16,19.581722 3.63857473,16 8.12698413,16 L21.3333333,16 L21.3333333,3.5 C21.3333333,2.94771525 21.7881552,2.5 22.3492063,2.5 C23.1907831,2.5 23.8730159,1.82842712 23.8730159,1 C23.8730159,0.44771525 24.3278377,0 24.8888889,0 L29.968254,0 C30.5293051,0 30.984127,0.44771525 30.984127,1 C30.984127,1.82842712 31.6663597,2.5 32.5079365,2.5 C33.3495133,2.5 34.031746,1.82842712 34.031746,1 C34.031746,0.44771525 34.4865679,0 35.047619,0 L40.1269841,0 C40.6880353,0 41.1428571,0.44771525 41.1428571,1 C41.1428571,1.82842712 41.8250899,2.5 42.6666667,2.5 C43.5082434,2.5 44.1904762,1.82842712 44.1904762,1 C44.1904762,0.44771525 44.645298,0 45.2063492,0 L50.2857143,0 C50.8467655,0 51.3015873,0.44771525 51.3015873,1 C51.3015873,1.82842712 51.9838201,2.5 52.8253968,2.5 C53.6669736,2.5 54.3492063,1.82842712 54.3492063,1 C54.3492063,0.44771525 54.8040282,0 55.3650794,0 L60.4444444,0 C61.0054956,0 61.4603175,0.44771525 61.4603175,1 C61.4603175,1.82842712 62.1425502,2.5 62.984127,2.5 C63.5451782,2.5 64,2.94771525 64,3.5 L63.9999975,50.4977703 C64.0033051,51.9580474 63.4154685,53.359453 62.366504,54.3920274 C61.3175395,55.4246018 59.893893,55.9999951 58.4149635,55.9999975 C57.3975804,55.9999992 52.1481481,56 42.6666667,56 C42.6666667,58.9424501 42.6666667,60.4424501 42.6666667,60.5 Z M54.097301,54 C53.2758477,53.0181764 52.8224932,51.7809471 52.8253968,50.5000004 L52.825383,23 C52.8227519,20.2359736 50.5496564,18 47.7460317,18 C44.9407759,18 42.6666667,20.2385763 42.6666667,23 L42.6666667,54 L54.097301,54 Z"/>
		<path d="M57.3968254,10 C57.677351,10 57.9047619,10.2238576 57.9047619,10.5 C57.9047619,10.7761424 57.677351,11 57.3968254,11 L27.9365079,11 C27.6559823,11 27.4285714,10.7761424 27.4285714,10.5 C27.4285714,10.2238576 27.6559823,10 27.9365079,10 L57.3968254,10 L57.3968254,10 Z M57.3968254,9 L27.9365079,9 C27.0949312,9 26.4126984,9.67157288 26.4126984,10.5 C26.4126984,11.3284271 27.0949312,12 27.9365079,12 L57.3968254,12 C58.2384022,12 58.9206349,11.3284271 58.9206349,10.5 C58.9206349,9.67157288 58.2384022,9 57.3968254,9 Z"/>
		<path d="M36.0634921,23 C36.3440177,23 36.5714286,23.2238576 36.5714286,23.5 C36.5714286,23.7761424 36.3440177,24 36.0634921,24 L6.6031746,24 C6.32264902,24 6.0952381,23.7761424 6.0952381,23.5 C6.0952381,23.2238576 6.32264902,23 6.6031746,23 L36.0634921,23 L36.0634921,23 Z M36.0634921,22 L6.6031746,22 C5.76159784,22 5.07936508,22.6715729 5.07936508,23.5 C5.07936508,24.3284271 5.76159784,25 6.6031746,25 L36.0634921,25 C36.9050688,25 37.5873016,24.3284271 37.5873016,23.5 C37.5873016,22.6715729 36.9050688,22 36.0634921,22 Z"/>
		<path d="M36.0634921,33 C36.3440177,33 36.5714286,33.2238576 36.5714286,33.5 C36.5714286,33.7761424 36.3440177,34 36.0634921,34 L6.6031746,34 C6.32264902,34 6.0952381,33.7761424 6.0952381,33.5 C6.0952381,33.2238576 6.32264902,33 6.6031746,33 L36.0634921,33 L36.0634921,33 Z M36.0634921,32 L6.6031746,32 C5.76159784,32 5.07936508,32.6715729 5.07936508,33.5 C5.07936508,34.3284271 5.76159784,35 6.6031746,35 L36.0634921,35 C36.9050688,35 37.5873016,34.3284271 37.5873016,33.5 C37.5873016,32.6715729 36.9050688,32 36.0634921,32 L36.0634921,32 Z"/>
		<path d="M36.0634921,43 C36.3440177,43 36.5714286,43.2238576 36.5714286,43.5 C36.5714286,43.7761424 36.3440177,44 36.0634921,44 L6.6031746,44 C6.32264902,44 6.0952381,43.7761424 6.0952381,43.5 C6.0952381,43.2238576 6.32264902,43 6.6031746,43 L36.0634921,43 L36.0634921,43 Z M36.0634921,42 L6.6031746,42 C5.76159784,42 5.07936508,42.6715729 5.07936508,43.5 C5.07936508,44.3284271 5.76159784,45 6.6031746,45 L36.0634921,45 C36.9050688,45 37.5873016,44.3284271 37.5873016,43.5 C37.5873016,42.6715729 36.9050688,42 36.0634921,42 Z"/>
		<path d="M36.0634921,53 C36.3440177,53 36.5714286,53.2238576 36.5714286,53.5 C36.5714286,53.7761424 36.3440177,54 36.0634921,54 L6.6031746,54 C6.32264902,54 6.0952381,53.7761424 6.0952381,53.5 C6.0952381,53.2238576 6.32264902,53 6.6031746,53 L36.0634921,53 L36.0634921,53 Z M36.0634921,52 L6.6031746,52 C5.76159784,52 5.07936508,52.6715729 5.07936508,53.5 C5.07936508,54.3284271 5.76159784,55 6.6031746,55 L36.0634921,55 C36.9050688,55 37.5873016,54.3284271 37.5873016,53.5 C37.5873016,52.6715729 36.9050688,52 36.0634921,52 Z"/>
  </g>
</svg>
