<svg viewBox="0 0 128 128" version="1.1" xmlns="http://www.w3.org/2000/svg">
  <path fill="currentColor" d="M111,115.004 C111,112.792 112.790209,111 115,111 L120.986013,111 C123.195805,111 124.986014,112.778 125,115.004 L125,120.996 C125,123.208 123.223776,125 121,125 L115,125 C112.790209,125 111,123.222 111,121.01 L111,115.004 Z M75,79.0039998 C75,76.7920005 76.7902089,75 79,75 L84.9860133,75 C87.1958047,75 88.9860136,76.7780002 89,79.0039998 L89,84.9960002 C89,87.2079995 87.223776,89 85,89 L79,89 C76.7902089,89 75,87.2219998 75,85.0100004 L75,79.0039998 Z M93,97.0039998 C93,94.7920005 94.7902089,93 97,93 L102.986013,93 C105.195805,93 106.986014,94.7780002 107,97.0039998 L107,102.996 C107,105.208 105.223776,107 103,107 L97,107 C94.7902089,107 93,105.222 93,103.01 L93,97.0039998 Z M111,79.0039998 C111,76.7920005 112.790209,75 115,75 L120.986013,75 C123.195805,75 124.986014,76.7780002 125,79.0039998 L125,84.9960002 C125,87.2079995 123.223776,89 121,89 L115,89 C112.790209,89 111,87.2219998 111,85.0100004 L111,79.0039998 Z M75,115.004 C75,112.792 76.7902089,111 79,111 L84.9860133,111 C87.1958047,111 88.9860136,112.778 89,115.004 L89,120.996 C89,123.208 87.223776,125 85,125 L79,125 C76.7902089,125 75,123.222 75,121.01 L75,115.004 Z M120.163405,35.8396865 L120.163405,19.0164768 C120.163405,11.5491815 119.147587,9.72717328 118.710697,9.28930348 C118.272827,8.85241336 116.450819,7.83659475 108.982544,7.83659475 L92.1603135,7.83659475 C84.6920386,7.83659475 82.8700304,8.85241336 82.4331402,9.28930348 C81.9962501,9.72717328 80.9794519,11.5491815 80.9794519,19.0164768 L80.9794519,35.8396865 C80.9794519,43.3079614 81.9962501,45.1299696 82.4331402,45.5678394 C82.8700304,46.0037499 84.6920386,47.0205481 92.1603135,47.0205481 L108.982544,47.0205481 C116.450819,47.0205481 118.272827,46.0037499 118.710697,45.5678394 C119.147587,45.1299696 120.163405,43.3079614 120.163405,35.8396865 Z M108.982544,0 C124.343249,0 128,3.65675103 128,19.0164768 C128,34.3771821 128,20.4799608 128,35.8396865 C128,51.2003918 124.343249,54.8571429 108.982544,54.8571429 C93.6228179,54.8571429 107.520039,54.8571429 92.1603135,54.8571429 C76.7996082,54.8571429 73.1428571,51.2003918 73.1428571,35.8396865 C73.1428571,20.4799608 73.1428571,27.5946093 73.1428571,19.0164768 C73.1428571,3.65675103 76.7996082,0 92.1603135,0 C107.520039,0 93.6228179,0 108.982544,0 Z M104.176065,15.6734694 C110.75951,15.6734694 112.326531,17.2414693 112.326531,23.8229552 C112.326531,30.4064001 112.326531,24.4507428 112.326531,31.0332082 C112.326531,37.6156736 110.75951,39.1836735 104.176065,39.1836735 C97.5935999,39.1836735 103.549257,39.1836735 96.9667918,39.1836735 C90.3843264,39.1836735 88.8163265,37.6156736 88.8163265,31.0332082 C88.8163265,24.4507428 88.8163265,27.499577 88.8163265,23.8229552 C88.8163265,17.2414693 90.3843264,15.6734694 96.9667918,15.6734694 C103.549257,15.6734694 97.5935999,15.6734694 104.176065,15.6734694 Z M47.0205481,108.982544 L47.0205481,92.1593339 C47.0205481,84.6920386 46.0047295,82.8700304 45.5678394,82.4321606 C45.1299696,81.9952705 43.3079614,80.9794519 35.8396865,80.9794519 L19.0174564,80.9794519 C11.5491815,80.9794519 9.72717328,81.9952705 9.29028308,82.4321606 C8.85339295,82.8700304 7.83659475,84.6920386 7.83659475,92.1593339 L7.83659475,108.982544 C7.83659475,116.450819 8.85339295,118.272827 9.29028308,118.710697 C9.72717328,119.146607 11.5491815,120.163405 19.0174564,120.163405 L35.8396865,120.163405 C43.3079614,120.163405 45.1299696,119.146607 45.5678394,118.710697 C46.0047295,118.272827 47.0205481,116.450819 47.0205481,108.982544 Z M35.8396865,73.1428571 C51.2003918,73.1428571 54.8571429,76.7996082 54.8571429,92.1593339 C54.8571429,107.520039 54.8571429,93.6228179 54.8571429,108.982544 C54.8571429,124.343249 51.2003918,128 35.8396865,128 C20.4799608,128 34.3771821,128 19.0174564,128 C3.65675103,128 -7.10542736e-15,124.343249 -7.10542736e-15,108.982544 C-7.10542736e-15,93.6228179 -7.10542736e-15,100.737466 -7.10542736e-15,92.1593339 C-7.10542736e-15,76.7996082 3.65675103,73.1428571 19.0174564,73.1428571 C34.3771821,73.1428571 20.4799608,73.1428571 35.8396865,73.1428571 Z M31.0332082,88.8163265 C37.616653,88.8163265 39.1836735,90.3843264 39.1836735,96.9658124 C39.1836735,103.549257 39.1836735,97.5935999 39.1836735,104.176065 C39.1836735,110.758531 37.616653,112.326531 31.0332082,112.326531 C24.4507428,112.326531 30.4064001,112.326531 23.8239347,112.326531 C17.2414693,112.326531 15.6734694,110.758531 15.6734694,104.176065 C15.6734694,97.5935999 15.6734694,100.642434 15.6734694,96.9658124 C15.6734694,90.3843264 17.2414693,88.8163265 23.8239347,88.8163265 C30.4064001,88.8163265 24.4507428,88.8163265 31.0332082,88.8163265 Z M47.0205481,35.8396865 L47.0205481,19.0164768 C47.0205481,11.5491815 46.0047295,9.72717328 45.5678394,9.28930348 C45.1299696,8.85241336 43.3079614,7.83659475 35.8396865,7.83659475 L19.0174564,7.83659475 C11.5491815,7.83659475 9.72717328,8.85241336 9.29028308,9.28930348 C8.85339295,9.72717328 7.83659475,11.5491815 7.83659475,19.0164768 L7.83659475,35.8396865 C7.83659475,43.3079614 8.85339295,45.1299696 9.29028308,45.5678394 C9.72717328,46.0037499 11.5491815,47.0205481 19.0174564,47.0205481 L35.8396865,47.0205481 C43.3079614,47.0205481 45.1299696,46.0037499 45.5678394,45.5678394 C46.0047295,45.1299696 47.0205481,43.3079614 47.0205481,35.8396865 Z M35.8396865,0 C51.2003918,0 54.8571429,3.65675103 54.8571429,19.0164768 C54.8571429,34.3771821 54.8571429,20.4799608 54.8571429,35.8396865 C54.8571429,51.2003918 51.2003918,54.8571429 35.8396865,54.8571429 C20.4799608,54.8571429 34.3771821,54.8571429 19.0174564,54.8571429 C3.65675103,54.8571429 -2.39899859e-24,51.2003918 -2.39899859e-24,35.8396865 C-2.39899859e-24,20.4799608 -2.39899859e-24,27.5946093 -2.39899859e-24,19.0164768 C-2.39899859e-24,3.65675103 3.65675103,0 19.0174564,0 C34.3771821,0 20.4799608,0 35.8396865,0 Z M31.0332082,15.6734694 C37.616653,15.6734694 39.1836735,17.2414693 39.1836735,23.8229552 C39.1836735,30.4064001 39.1836735,24.4507428 39.1836735,31.0332082 C39.1836735,37.6156736 37.616653,39.1836735 31.0332082,39.1836735 C24.4507428,39.1836735 30.4064001,39.1836735 23.8239347,39.1836735 C17.2414693,39.1836735 15.6734694,37.6156736 15.6734694,31.0332082 C15.6734694,24.4507428 15.6734694,27.499577 15.6734694,23.8229552 C15.6734694,17.2414693 17.2414693,15.6734694 23.8239347,15.6734694 C30.4064001,15.6734694 24.4507428,15.6734694 31.0332082,15.6734694 Z"/>
</svg>
