<svg xmlns="http://www.w3.org/2000/svg" viewBox="0 0 64 63">
  <g fill="currentColor">
    <path d="M58,0H6A6,6,0,0,0,0,6v4a2,2,0,0,0,1.91,2L3.47,54.18C3.6,57.79,6.12,60.7,9.1,60.7h1.32c0,1.27.76,2.3,1.68,2.3h3.36c.93,0,1.68-1,1.67-2.3H46.87c0,1.27.74,2.3,1.67,2.3H51.9c.92,0,1.68-1,1.68-2.3H54.9c3,0,5.5-2.91,5.63-6.52L62.09,12A2,2,0,0,0,64,10V6A6,6,0,0,0,58,0ZM2,6A4,4,0,0,1,6,2H58a4,4,0,0,1,4,4v4H2ZM58.54,54.11c-.1,2.49-1.76,4.59-3.64,4.59H53.58a2,2,0,0,0-2,2,1.23,1.23,0,0,1,0,.31H48.91a.8.8,0,0,1,0-.3,2,2,0,0,0-2-2H17.13a2,2,0,0,0-2,2,.8.8,0,0,1,0,.3H12.46a1.23,1.23,0,0,1,0-.31,2,2,0,0,0-2-2H9.1c-1.88,0-3.54-2.1-3.64-4.59L3.91,12H60.09Z"/>
    <path d="M40,49H24a7,7,0,0,1-7-7V26a7,7,0,0,1,7-7H40a7,7,0,0,1,7,7V42A7,7,0,0,1,40,49ZM24,21a5,5,0,0,0-5,5V42a5,5,0,0,0,5,5H40a5,5,0,0,0,5-5V26a5,5,0,0,0-5-5Z"/>
    <rect x="24" y="26" width="4" height="4" rx="1"/>
    <circle cx="35" cy="37" r="1"/>
    <circle cx="41" cy="37" r="1"/>
    <circle cx="38" cy="40" r="1"/>
    <circle cx="35" cy="43" r="1"/>
    <circle cx="41" cy="43" r="1"/>
    <path d="M28,24a2,2,0,0,1,2,2v4a2,2,0,0,1-2,2H24a2,2,0,0,1-2-2V26a2,2,0,0,1,2-2h4m0-1H24a3,3,0,0,0-3,3v4a3,3,0,0,0,3,3h4a3,3,0,0,0,3-3V26a3,3,0,0,0-3-3Z"/>
    <rect x="24" y="38" width="4" height="4" rx="1"/>
    <path d="M28,36a2,2,0,0,1,2,2v4a2,2,0,0,1-2,2H24a2,2,0,0,1-2-2V38a2,2,0,0,1,2-2h4m0-1H24a3,3,0,0,0-3,3v4a3,3,0,0,0,3,3h4a3,3,0,0,0,3-3V38a3,3,0,0,0-3-3Z"/>
    <rect x="36" y="26" width="4" height="4" rx="1"/>
    <path d="M40,24a2,2,0,0,1,2,2v4a2,2,0,0,1-2,2H36a2,2,0,0,1-2-2V26a2,2,0,0,1,2-2h4m0-1H36a3,3,0,0,0-3,3v4a3,3,0,0,0,3,3h4a3,3,0,0,0,3-3V26a3,3,0,0,0-3-3Z"/>
  </g>
</svg>
