<svg viewBox="0 0 64 64" version="1.1" xmlns="http://www.w3.org/2000/svg">
  <g fill="currentColor">
    <path d="M39.34375,41.969375 C39.34375,41.62375 39.6234702,41.34375 39.96875,41.34375 L40.9040645,41.34375 C41.2493445,41.34375 41.5290647,41.6215625 41.53125,41.969375 L41.53125,42.905625 C41.53125,43.25125 41.253715,43.53125 40.90625,43.53125 L39.96875,43.53125 C39.6234702,43.53125 39.34375,43.2534375 39.34375,42.9078125 L39.34375,41.969375 Z M33.71875,36.344375 C33.71875,35.9987501 33.9984701,35.71875 34.34375,35.71875 L35.2790646,35.71875 C35.6243445,35.71875 35.9040646,35.9965625 35.90625,36.344375 L35.90625,37.280625 C35.90625,37.6262499 35.628715,37.90625 35.28125,37.90625 L34.34375,37.90625 C33.9984701,37.90625 33.71875,37.6284375 33.71875,37.2828126 L33.71875,36.344375 Z M36.53125,39.156875 C36.53125,38.8112501 36.8109701,38.53125 37.15625,38.53125 L38.0915645,38.53125 C38.4368445,38.53125 38.7165647,38.8090625 38.71875,39.156875 L38.71875,40.093125 C38.71875,40.43875 38.441215,40.71875 38.09375,40.71875 L37.15625,40.71875 C36.8109701,40.71875 36.53125,40.4409375 36.53125,40.0953125 L36.53125,39.156875 Z M39.34375,36.344375 C39.34375,35.9987501 39.6234702,35.71875 39.96875,35.71875 L40.9040645,35.71875 C41.2493445,35.71875 41.5290647,35.9965625 41.53125,36.344375 L41.53125,37.280625 C41.53125,37.6262499 41.253715,37.90625 40.90625,37.90625 L39.96875,37.90625 C39.6234702,37.90625 39.34375,37.6284375 39.34375,37.2828126 L39.34375,36.344375 Z M33.71875,41.969375 C33.71875,41.62375 33.9984701,41.34375 34.34375,41.34375 L35.2790646,41.34375 C35.6243445,41.34375 35.9040646,41.6215625 35.90625,41.969375 L35.90625,42.905625 C35.90625,43.25125 35.628715,43.53125 35.28125,43.53125 L34.34375,43.53125 C33.9984701,43.53125 33.71875,43.2534375 33.71875,42.9078125 L33.71875,41.969375 Z M40.775532,29.599951 L40.775532,26.9713245 C40.775532,25.8045596 40.6168105,25.5198708 40.5485464,25.4514537 C40.4801292,25.3831896 40.1954405,25.2244679 39.0285225,25.2244679 L36.400049,25.2244679 C35.233131,25.2244679 34.9484423,25.3831896 34.8801782,25.4514537 C34.8119141,25.5198708 34.6530394,25.8045596 34.6530394,26.9713245 L34.6530394,29.599951 C34.6530394,30.766869 34.8119141,31.0515577 34.8801782,31.1199749 C34.9484423,31.1880859 35.233131,31.3469606 36.400049,31.3469606 L39.0285225,31.3469606 C40.1954405,31.3469606 40.4801292,31.1880859 40.5485464,31.1199749 C40.6168105,31.0515577 40.775532,30.766869 40.775532,29.599951 Z M39.0285225,24 C41.4286327,24 42,24.5713673 42,26.9713245 C42,29.3714347 42,27.1999939 42,29.599951 C42,32.0000612 41.4286327,32.5714286 39.0285225,32.5714286 C36.6285653,32.5714286 38.8000061,32.5714286 36.400049,32.5714286 C33.9999388,32.5714286 33.4285714,32.0000612 33.4285714,29.599951 C33.4285714,27.1999939 33.4285714,28.3116577 33.4285714,26.9713245 C33.4285714,24.5713673 33.9999388,24 36.400049,24 C38.8000061,24 36.6285653,24 39.0285225,24 Z M38.2775102,26.4489796 C39.3061734,26.4489796 39.5510205,26.6939796 39.5510205,27.7223367 C39.5510205,28.751 39.5510205,27.8204286 39.5510205,28.8489388 C39.5510205,29.877449 39.3061734,30.122449 38.2775102,30.122449 C37.249,30.122449 38.1795714,30.122449 37.1510612,30.122449 C36.122551,30.122449 35.877551,29.877449 35.877551,28.8489388 C35.877551,27.8204286 35.877551,28.2968089 35.877551,27.7223367 C35.877551,26.6939796 36.122551,26.4489796 37.1510612,26.4489796 C38.1795714,26.4489796 37.249,26.4489796 38.2775102,26.4489796 Z M29.3469606,41.0285225 L29.3469606,38.3998959 C29.3469606,37.233131 29.188239,36.9484422 29.1199749,36.8800251 C29.0515577,36.811761 28.766869,36.6530394 27.599951,36.6530394 L24.9714776,36.6530394 C23.8045596,36.6530394 23.5198708,36.811761 23.4516067,36.8800251 C23.3833426,36.9484422 23.2244679,37.233131 23.2244679,38.3998959 L23.2244679,41.0285225 C23.2244679,42.1954405 23.3833426,42.4801292 23.4516067,42.5485464 C23.5198708,42.6166573 23.8045596,42.775532 24.9714776,42.775532 L27.599951,42.775532 C28.766869,42.775532 29.0515577,42.6166573 29.1199749,42.5485464 C29.188239,42.4801292 29.3469606,42.1954405 29.3469606,41.0285225 Z M27.599951,35.4285714 C30.0000612,35.4285714 30.5714286,35.9999388 30.5714286,38.3998959 C30.5714286,40.8000061 30.5714286,38.6285653 30.5714286,41.0285225 C30.5714286,43.4286327 30.0000612,44 27.599951,44 C25.1999939,44 27.3714347,44 24.9714776,44 C22.5713673,44 22,43.4286327 22,41.0285225 C22,38.6285653 22,39.7402291 22,38.3998959 C22,35.9999388 22.5713673,35.4285714 24.9714776,35.4285714 C27.3714347,35.4285714 25.1999939,35.4285714 27.599951,35.4285714 Z M26.8489388,37.877551 C27.877602,37.877551 28.122449,38.122551 28.122449,39.1509082 C28.122449,40.1795714 28.122449,39.249 28.122449,40.2775102 C28.122449,41.3060205 27.877602,41.5510205 26.8489388,41.5510205 C25.8204286,41.5510205 26.751,41.5510205 25.7224898,41.5510205 C24.6939796,41.5510205 24.4489796,41.3060205 24.4489796,40.2775102 C24.4489796,39.249 24.4489796,39.7253803 24.4489796,39.1509082 C24.4489796,38.122551 24.6939796,37.877551 25.7224898,37.877551 C26.751,37.877551 25.8204286,37.877551 26.8489388,37.877551 Z M29.3469606,29.599951 L29.3469606,26.9713245 C29.3469606,25.8045596 29.188239,25.5198708 29.1199749,25.4514537 C29.0515577,25.3831896 28.766869,25.2244679 27.599951,25.2244679 L24.9714776,25.2244679 C23.8045596,25.2244679 23.5198708,25.3831896 23.4516067,25.4514537 C23.3833426,25.5198708 23.2244679,25.8045596 23.2244679,26.9713245 L23.2244679,29.599951 C23.2244679,30.766869 23.3833426,31.0515577 23.4516067,31.1199749 C23.5198708,31.1880859 23.8045596,31.3469606 24.9714776,31.3469606 L27.599951,31.3469606 C28.766869,31.3469606 29.0515577,31.1880859 29.1199749,31.1199749 C29.188239,31.0515577 29.3469606,30.766869 29.3469606,29.599951 Z M27.599951,24 C30.0000612,24 30.5714286,24.5713673 30.5714286,26.9713245 C30.5714286,29.3714347 30.5714286,27.1999939 30.5714286,29.599951 C30.5714286,32.0000612 30.0000612,32.5714286 27.599951,32.5714286 C25.1999939,32.5714286 27.3714347,32.5714286 24.9714776,32.5714286 C22.5713673,32.5714286 22,32.0000612 22,29.599951 C22,27.1999939 22,28.3116577 22,26.9713245 C22,24.5713673 22.5713673,24 24.9714776,24 C27.3714347,24 25.1999939,24 27.599951,24 Z M26.8489388,26.4489796 C27.877602,26.4489796 28.122449,26.6939796 28.122449,27.7223367 C28.122449,28.751 28.122449,27.8204286 28.122449,28.8489388 C28.122449,29.877449 27.877602,30.122449 26.8489388,30.122449 C25.8204286,30.122449 26.751,30.122449 25.7224898,30.122449 C24.6939796,30.122449 24.4489796,29.877449 24.4489796,28.8489388 C24.4489796,27.8204286 24.4489796,28.2968089 24.4489796,27.7223367 C24.4489796,26.6939796 24.6939796,26.4489796 25.7224898,26.4489796 C26.751,26.4489796 25.8204286,26.4489796 26.8489388,26.4489796 Z M40,49 L24,49 C20.1340068,49 17,45.8659932 17,42 L17,26 C17,22.1340068 20.1340068,19 24,19 L40,19 C43.8659932,19 47,22.1340068 47,26 L47,42 C47,45.8659932 43.8659932,49 40,49 Z M24,21 C21.2385763,21 19,23.2385763 19,26 L19,42 C19,44.7614237 21.2385763,47 24,47 L40,47 C42.7614237,47 45,44.7614237 45,42 L45,26 C45,23.2385763 42.7614237,21 40,21 L24,21 Z M57.9999979,0 L5.99999791,0 C2.6862915,-2.02906125e-16 -2.1154049e-14,2.6862915 -2.09042012e-06,6 L-2.09042012e-06,10 C-0.00108426046,11.070356 0.840727712,11.9518345 1.91,12 L3.47,55.18 C3.6,58.79 6.12,61.7 9.1,61.7 L10.42,61.7 C10.42,62.97 11.18,64 12.1,64 L15.46,64 C16.39,64 17.14,63 17.13,61.7 L46.87,61.7 C46.87,62.97 47.61,64 48.54,64 L51.9,64 C52.82,64 53.58,63 53.58,61.7 L54.9,61.7 C57.9,61.7 60.4,58.79 60.53,55.18 L62.09,12 C63.1592723,11.9518345 64.0010843,11.070356 63.9999979,10 L63.9999979,6 C64,2.6862915 61.3137085,2.02906125e-16 57.9999979,0 Z M2,6 C2,3.790861 3.790861,2 6,2 L58,2 C60.209139,2 62,3.790861 62,6 L62,10 L2,10 L2,6 Z M58.54,55.11 C58.44,57.6 56.78,59.7 54.9,59.7 L53.58,59.7 C52.4754305,59.7 51.58,60.5954305 51.58,61.7 C51.5930738,61.8029198 51.5930738,61.9070802 51.58,62.01 L48.91,62.01 C48.8910822,61.9108947 48.8910822,61.8091053 48.91,61.71 C48.91,60.6054305 48.0145695,59.71 46.91,59.71 L17.13,59.71 C16.0254305,59.71 15.13,60.6054305 15.13,61.71 C15.1489178,61.8091053 15.1489178,61.9108947 15.13,62.01 L12.46,62.01 C12.4469262,61.9070802 12.4469262,61.8029198 12.46,61.7 C12.46,60.5954305 11.5645695,59.7 10.46,59.7 L9.1,59.7 C7.22,59.7 5.56,57.6 5.46,55.11 L3.91,12 L60.09,12 L58.54,55.11 Z"/>
  </g>
</svg>
