<svg viewBox="0 0 160 275" version="1.1" xmlns="http://www.w3.org/2000/svg">
  <g stroke="none" stroke-width="1" fill="none" fill-rule="evenodd">
    <path d="M160,267 L160,268 C160,271.865993 156.865993,275 153,275 L137,275 C133.134007,275 130,271.865993 130,268 L130,267 C130,263.134007 133.134007,260 137,260 L153,260 C156.865993,260 160,263.134007 160,267 Z M95,267 L95,268 C95,271.865993 91.8659932,275 88,275 L72,275 C68.1340068,275 65,271.865993 65,268 L65,267 C65,263.134007 68.1340068,260 72,260 L88,260 C91.8659932,260 95,263.134007 95,267 Z M30,267 L30,268 C30,271.865993 26.8659932,275 23,275 L7,275 C3.13400675,275 3.55271368e-15,271.865993 7.10542736e-15,268 L7.10542736e-15,267 C7.10542736e-15,263.134007 3.13400675,260 7,260 L23,260 C26.8659932,260 30,263.134007 30,267 Z M7,195 L8,195 C11.8659932,195 15,198.134007 15,202 L15,218 C15,221.865993 11.8659932,225 8,225 L7,225 C3.13400675,225 4.73447626e-16,221.865993 0,218 L0,202 C-4.73447626e-16,198.134007 3.13400675,195 7,195 Z M7,130 L8,130 C11.8659932,130 15,133.134007 15,137 L15,153 C15,156.865993 11.8659932,160 8,160 L7,160 C3.13400675,160 4.73447626e-16,156.865993 0,153 L0,137 C-4.73447626e-16,133.134007 3.13400675,130 7,130 Z M7,65 L8,65 C11.8659932,65 15,68.1340068 15,72 L15,88 C15,91.8659932 11.8659932,95 8,95 L7,95 C3.13400675,95 4.73447626e-16,91.8659932 0,88 L0,72 C-4.73447626e-16,68.1340068 3.13400675,65 7,65 Z M7,0 L8,0 C11.8659932,-7.10171439e-16 15,3.13400675 15,7 L15,23 C15,26.8659932 11.8659932,30 8,30 L7,30 C3.13400675,30 4.73447626e-16,26.8659932 0,23 L0,7 C-4.73447626e-16,3.13400675 3.13400675,7.10171439e-16 7,0 Z" fill="currentColor"/>
  </g>
</svg>
