<svg viewBox="0 0 190 255" version="1.1" xmlns="http://www.w3.org/2000/svg">
  <g stroke="none" stroke-width="1" fill="none" fill-rule="evenodd">
    <path d="M190,247 L190,248 C190,251.865993 186.865993,255 183,255 L167,255 C163.134007,255 160,251.865993 160,248 L160,247 C160,243.134007 163.134007,240 167,240 L183,240 C186.865993,240 190,243.134007 190,247 Z M125,247 L125,248 C125,251.865993 121.865993,255 118,255 L102,255 C98.1340068,255 95,251.865993 95,248 L95,247 C95,243.134007 98.1340068,240 102,240 L118,240 C121.865993,240 125,243.134007 125,247 Z M60,247 L60,248 C60,251.865993 56.8659932,255 53,255 L37,255 C33.1340067,255 30,251.865993 30,248 L30,247 C30,243.134007 33.1340067,240 37,240 L53,240 C56.8659932,240 60,243.134007 60,247 Z M7,195 L8,195 C11.8659932,195 15,198.134007 15,202 L15,218 C15,221.865993 11.8659932,225 8,225 L7,225 C3.13400675,225 4.73447626e-16,221.865993 0,218 L0,202 C-4.73447626e-16,198.134007 3.13400675,195 7,195 Z M7,130 L8,130 C11.8659932,130 15,133.134007 15,137 L15,153 C15,156.865993 11.8659932,160 8,160 L7,160 C3.13400675,160 4.73447626e-16,156.865993 0,153 L0,137 C-4.73447626e-16,133.134007 3.13400675,130 7,130 Z M7,65 L8,65 C11.8659932,65 15,68.1340068 15,72 L15,88 C15,91.8659932 11.8659932,95 8,95 L7,95 C3.13400675,95 4.73447626e-16,91.8659932 0,88 L0,72 C-4.73447626e-16,68.1340068 3.13400675,65 7,65 Z M7,0 L8,0 C11.8659932,-7.10171439e-16 15,3.13400675 15,7 L15,23 C15,26.8659932 11.8659932,30 8,30 L7,30 C3.13400675,30 4.73447626e-16,26.8659932 0,23 L0,7 C-4.73447626e-16,3.13400675 3.13400675,7.10171439e-16 7,0 Z" fill="currentColor"/>
  </g>
</svg>
