<svg viewBox="0 0 152 32" version="1.1" xmlns="http://www.w3.org/2000/svg">
  <g id="lockup">
    <g id="wordmark" transform="translate(41.000000, 4.000000)" fill="#00BFA5">
      <path d="M4.59702631,4.75592163 L4.59702631,10.479094 C4.59702631,10.8291402 4.88079481,11.1129087 5.23084099,11.1129087 L12.3705874,11.1129087 C12.7206336,11.1129087 13.0044021,11.3966772 13.0044021,11.7467234 L13.0044021,14.5859146 C13.0046853,14.7541974 12.9380336,14.9156847 12.8191396,15.0347788 C12.7002456,15.1538729 12.5388705,15.2207959 12.3705874,15.2207957 L5.23652861,15.2207957 C5.06737822,15.220788 4.90524235,15.2883936 4.78620379,15.4085672 C4.66716523,15.5287407 4.60110117,15.6915108 4.60271393,15.8606535 L4.67060995,23.0498112 C4.67212675,23.2189253 4.60603165,23.3816397 4.48701386,23.5017923 C4.36799607,23.6219448 4.20591612,23.689581 4.03679527,23.689669 L0.708823829,23.689669 C0.359332183,23.6896699 0.0757931983,23.406767 0.0750091453,23.0572762 L3.59378854e-06,0.650878457 C-0.000563321415,0.48241111 0.0659630365,0.320649388 0.184887848,0.201324381 C0.30381266,0.081999373 0.465349977,0.0149299596 0.633818278,0.0149309134 L14.3822292,0.0149309134 C14.7321941,0.0151270272 15.0158478,0.298780678 15.0160439,0.648745598 L15.0160439,3.48829226 C15.016327,3.65660776 14.9496866,3.81813161 14.8308028,3.93728209 C14.7119191,4.05643257 14.5505449,4.12343474 14.3822292,4.12352885 L5.23084099,4.12352885 C4.88134934,4.12352797 4.59781036,4.40643086 4.59702631,4.75592163 Z M18.1830016,6.69094623 L21.3442546,6.69094623 C21.6943008,6.69094623 21.9780693,6.97471473 21.9780693,7.32476092 L21.9780693,23.0796721 C21.9780693,23.2477702 21.9112926,23.4089835 21.7924292,23.5278468 C21.6735659,23.6467101 21.5123527,23.7134868 21.3442546,23.7134868 L18.1830016,23.7134868 C18.0147188,23.7137699 17.8532315,23.6471183 17.7341374,23.5282242 C17.6150434,23.4093302 17.5481203,23.2479552 17.5481205,23.0796721 L17.5481205,7.32476092 C17.5481203,7.15647788 17.6150434,6.99510281 17.7341374,6.87620879 C17.8532315,6.75731478 18.0147188,6.69066309 18.1830016,6.69094623 Z M17.598581,2.15418878 C17.598581,0.94094732 18.4666548,8.98455943e-07 19.7570346,8.98455943e-07 C21.0474145,8.98455943e-07 21.9154882,0.891536079 21.9154882,2.07989418 C21.9154882,3.36743023 21.04777,4.30837665 19.7570346,4.30837665 C18.4662993,4.30837665 17.598581,3.36743023 17.598581,2.15418878 Z M26.7624109,8.9845594e-07 L29.9236639,8.9845594e-07 C30.2737101,8.9845594e-07 30.5574786,0.283769398 30.5574786,0.633815583 L30.5574786,23.0796712 C30.5574786,23.2477693 30.4907019,23.4089826 30.3718385,23.5278459 C30.2529752,23.6467092 30.091762,23.7134859 29.9236639,23.7134859 L26.7624109,23.7134859 C26.5941281,23.713769 26.4326408,23.6471174 26.3135467,23.5282233 C26.1944527,23.4093293 26.1275296,23.2479543 26.1275298,23.0796712 L26.1275298,0.633815583 C26.1275296,0.465532543 26.1944527,0.304157473 26.3135467,0.18526346 C26.4326408,0.0663694463 26.5941281,-0.000282247433 26.7624109,8.9845594e-07 Z M35.348236,8.98455943e-07 L38.5094889,8.98455943e-07 C38.8595351,8.98455943e-07 39.1433036,0.283769398 39.1433036,0.633815583 L39.1433036,23.0796712 C39.1433036,23.4297174 38.8595351,23.7134859 38.5094889,23.7134859 L35.348236,23.7134859 C35.1801379,23.7134859 35.0189246,23.6467092 34.9000613,23.5278459 C34.781198,23.4089826 34.7144213,23.2477693 34.7144213,23.0796712 L34.7144213,0.633815583 C34.7144213,0.465717477 34.781198,0.304504232 34.9000613,0.185640921 C35.0189246,0.066777611 35.1801379,8.98455941e-07 35.348236,8.98455943e-07 Z M49.0010238,24 C47.2513682,24 45.7601441,23.5923869 44.5273514,22.7771607 C43.4713491,22.0794787 42.7516276,21.1244317 42.3681869,19.9120197 C42.3164747,19.7484914 42.3331239,19.5709978 42.4143448,19.4199389 C42.4955658,19.26888 42.634448,19.1571083 42.7993799,19.1100646 L45.2578557,18.4051546 C45.5487667,18.3205706 45.8586999,18.4549347 45.995825,18.7250835 C46.198863,19.1362955 46.5112622,19.4836245 46.8987355,19.7289493 C47.436216,20.0732876 48.0738224,20.2455752 48.8115548,20.2458122 C49.5068669,20.2458122 50.0706527,20.096512 50.5029122,19.7979117 C50.9351716,19.4993114 51.1511829,19.097149 51.1509459,18.5914243 C51.1509459,18.1323856 50.9665721,17.8051102 50.5978244,17.6095981 C50.2290767,17.414086 49.6336535,17.2476045 48.8115548,17.1101536 C48.0532048,16.9956901 47.4844423,16.8980526 47.1052673,16.8172409 C46.7260923,16.7364292 46.162188,16.5642601 45.4135544,16.3007335 C44.6651578,16.0369699 44.0963953,15.7383696 43.707267,15.4049326 C43.3181387,15.0714956 42.9598183,14.59492 42.6323059,13.9752059 C42.3052675,13.3552548 42.1419853,12.63186 42.1424592,11.8050216 C42.1424592,10.1056067 42.7484283,8.78501131 43.9603663,7.84323544 C45.1723044,6.90145958 46.7048822,6.43057164 48.5581,6.43057164 C50.2022975,6.43057164 51.60406,6.82100338 52.7633875,7.60186687 C53.7615657,8.27490246 54.4551004,9.23705898 54.8439918,10.4883364 C54.8950008,10.6509655 54.8785553,10.8272674 54.7983477,10.9776566 C54.7181402,11.1280457 54.580892,11.2399195 54.4174199,11.2881587 L51.9258848,12.0151082 C51.6224479,12.1035668 51.300275,11.9545447 51.1712081,11.6660302 C50.9920302,11.2597258 50.6926763,10.9180679 50.3134432,10.6870478 C49.7754887,10.3552697 49.1694011,10.1893807 48.4951806,10.1893807 C47.2306321,10.1893807 46.5983578,10.6946313 46.5983578,11.7051327 C46.5983578,12.1648823 46.7564263,12.4978454 47.0725635,12.7040218 C47.382539,12.9071174 47.8547304,13.0656599 48.4891375,13.1796494 C48.5067373,13.1825534 48.5241782,13.1863501 48.5413926,13.1910246 C48.6271809,13.2147231 48.9115622,13.2591576 49.3945363,13.3243283 C49.9106882,13.3932908 50.2848866,13.450641 50.5171312,13.496379 C50.7493759,13.542117 51.1285509,13.6340669 51.6546562,13.7722288 C52.1809985,13.9099167 52.5867157,14.0534107 52.8718079,14.2027109 C53.1569001,14.352011 53.499461,14.5587799 53.8994906,14.8230175 C54.2995202,15.087018 54.6051115,15.3798122 54.8162646,15.7014 C55.0274177,16.0229878 55.2126209,16.4175668 55.3718744,16.8851369 C55.5337557,17.3798999 55.6138417,17.8977573 55.6089773,18.4183073 C55.6089773,20.1636971 54.9661572,21.5301489 53.680517,22.5176628 C52.3948768,23.5051766 50.8350458,23.999289 49.0010238,24 Z M68.822396,22.4391025 C68.91969,22.721758 68.8063847,23.033977 68.5504565,23.188447 C67.6759842,23.7134859 66.534549,23.9662297 65.3724961,23.9662297 C61.7668975,23.9662297 59.6660311,21.9126417 59.6660311,17.869096 L59.6660311,11.5213513 C59.6660311,11.1713051 59.3822626,10.8875366 59.0322164,10.8875366 L57.9426808,10.8875366 C57.5926346,10.8875366 57.3088661,10.6037681 57.3088661,10.2537219 L57.3088661,7.72983842 C57.3090624,7.37993107 57.5927734,7.09637916 57.9426808,7.09637922 L59.03115,7.09637922 C59.3811962,7.09637922 59.6649647,6.81261072 59.6649647,6.46256453 L59.6649647,3.59031403 C59.6651608,3.24034911 59.9488145,2.95669546 60.2987794,2.95649934 L63.4600323,2.95649934 C63.6283151,2.9562162 63.7898025,3.02286789 63.9088965,3.14176191 C64.0279906,3.26065592 64.0949137,3.42203099 64.0949134,3.59031403 L64.0949134,6.46256453 C64.0949134,6.81261072 64.3786819,7.09637922 64.7287281,7.09637922 L67.2654088,7.09637922 C67.6153737,7.09657533 67.8990273,7.38022898 67.8992234,7.7301939 L67.8992234,10.2540774 C67.8990273,10.6040423 67.6153737,10.887696 67.2654088,10.8878921 L64.7287281,10.8878921 C64.3786819,10.8878921 64.0949134,11.1716606 64.0949134,11.5217068 L64.0949134,17.8058212 C64.0949134,19.2590093 64.8058665,20.0488782 65.9970684,20.0488782 C66.4045756,20.0491713 66.8075651,19.9635345 67.1797389,19.7975563 C67.3407226,19.7220983 67.5261252,19.7183125 67.690055,19.7871359 C67.8539848,19.8559594 67.9811202,19.9909595 68.0399922,20.1587204 L68.822396,22.4391025 Z M81.009554,6.80773226 L84.0997116,6.80773226 C84.4496765,6.80792837 84.7333302,7.09158202 84.7335263,7.44154694 L84.7335263,16.9491227 C84.7335263,20.8433683 81.5765391,24 77.6822935,24 C73.7880479,24 70.6310607,20.8433683 70.6310607,16.9491227 L70.6310607,7.44154694 C70.6310607,7.09150076 70.9148292,6.80773226 71.2648754,6.80773226 L74.3546775,6.80773226 C74.7047237,6.80773226 74.9884922,7.09150076 74.9884922,7.44154694 L74.9884922,17.186581 C74.9884922,18.6743264 76.1945481,19.8803823 77.6822935,19.8803823 C78.3967013,19.8803823 79.0818437,19.5965606 79.586973,19.0913646 C80.0921023,18.5861686 80.3758336,17.9009888 80.3757393,17.186581 L80.3757393,7.44154694 C80.3759354,7.09158202 80.6595891,6.80792837 81.009554,6.80773226 Z M94.0121751,7.09637922 L96.6622528,7.09637922 C97.012299,7.09637922 97.2960675,7.38014772 97.2960675,7.7301939 L97.2960675,10.2540774 C97.2960675,10.6041236 97.012299,10.8878921 96.6622528,10.8878921 L94.1259276,10.8878921 C93.7758815,10.8878921 93.492113,11.1716606 93.492113,11.5217068 L93.492113,23.0796712 C93.492113,23.4297174 93.2083445,23.7134859 92.8582983,23.7134859 L89.6970453,23.7134859 C89.3469992,23.7134859 89.0632307,23.4297174 89.0632307,23.0796712 L89.0632307,11.5213513 C89.0632307,11.1713051 88.7794622,10.8875366 88.429416,10.8875366 L87.3405913,10.8875366 C86.9905451,10.8875366 86.7067766,10.6037681 86.7067766,10.2537219 L86.7067766,7.72983842 C86.7069729,7.37993107 86.9906839,7.09637916 87.3405913,7.09637922 L88.4290605,7.09637922 C88.7791067,7.09637922 89.0628752,6.81261072 89.0628752,6.46256453 L89.0628752,6.33814774 C89.0628752,2.51570842 91.1637416,0.0199075851 94.9680516,0.0199075851 C96.0106643,0.0199075851 97.0930904,0.218263499 97.9010886,0.651233933 C98.1672564,0.797535016 98.2908176,1.11316958 98.1947122,1.40128945 L97.4258164,3.75916539 C97.3725342,3.92783369 97.2507526,4.06630533 97.090272,4.14069586 C96.9297913,4.21508638 96.7454187,4.21853201 96.5822706,4.15018959 C96.2070559,3.98838025 95.8025275,3.90561105 95.3939125,3.90704363 C94.0878917,3.90704363 93.378005,4.69691252 93.378005,6.37120706 L93.378005,6.46398644 C93.3787893,6.81361601 93.6625448,7.09657619 94.0121751,7.09637922 Z M106.583603,7.09637922 L109.233681,7.09637922 C109.583727,7.09637922 109.867496,7.38014772 109.867496,7.7301939 L109.867496,10.2540774 C109.867496,10.6041236 109.583727,10.8878921 109.233681,10.8878921 L106.697356,10.8878921 C106.529196,10.8877978 106.367891,10.9545328 106.248951,11.0734064 C106.130011,11.1922799 106.063186,11.353547 106.063186,11.5217068 L106.063186,23.0796712 C106.063186,23.4297174 105.779417,23.7134859 105.429371,23.7134859 L102.268473,23.7134859 C101.918427,23.7134859 101.634659,23.4297174 101.634659,23.0796712 L101.634659,11.5213513 C101.634659,11.1713051 101.35089,10.8875366 101.000844,10.8875366 L99.9120194,10.8875366 C99.5619732,10.8875366 99.2782047,10.6037681 99.2782047,10.2537219 L99.2782047,7.72983842 C99.2782047,7.37979224 99.5619732,7.09602374 99.9120194,7.09602374 L101.000844,7.09602374 C101.35089,7.09602374 101.634659,6.81225524 101.634659,6.46220905 L101.634659,6.33779226 C101.634659,2.51535295 103.735525,0.0195521086 107.53948,0.0195521086 C108.582448,0.0195521086 109.664518,0.217908022 110.472872,0.650878457 C110.73904,0.797179539 110.862601,1.11281411 110.766496,1.40093397 L109.9976,3.75880991 C109.944143,3.92743549 109.822282,4.06583342 109.661778,4.14020323 C109.501274,4.21457303 109.316905,4.21806783 109.153699,4.14983411 C108.778493,3.9879955 108.373959,3.90522504 107.965341,3.90668816 C106.659675,3.90668816 105.949789,4.69655704 105.949789,6.37085158 L105.949789,6.46363096 C105.950377,6.81326061 106.233973,7.09637971 106.583603,7.09637922 Z"/>
    </g>
    <g id="logomark">
      <path d="M6.6999003,9.25224327 C6.6999003,7.84262317 7.84262317,6.6999003 9.25224327,6.6999003 L22.8753739,6.6999003 C23.4039814,6.6999003 23.8325025,6.27137922 23.8325025,5.74277168 L23.8325025,4.14755733 C23.8325025,1.85692467 21.9755778,1.40260798e-16 19.6849452,0 L0.957128614,0 C0.428521077,-3.23678764e-17 6.47357528e-17,0.428521077 0,0.957128614 L0,19.6849452 C2.80521596e-16,21.9755778 1.85692467,23.8325025 4.14755733,23.8325025 L5.74277168,23.8325025 C6.27137922,23.8325025 6.6999003,23.4039814 6.6999003,22.8753739 L6.6999003,9.25224327 Z" fill="#00BFA5"/>
      <path d="M15.4735793,18.0259222 C15.4735793,16.6163021 16.6163021,15.4735793 18.0259222,15.4735793 L26.7996012,15.4735793 C27.0534475,15.4735793 27.2968969,15.3727392 27.4763933,15.1932428 C27.6558898,15.0137463 27.7567298,14.7702969 27.7567298,14.5164506 L27.7567298,12.9212363 C27.7567298,10.6306036 25.8998051,8.77367896 23.6091725,8.77367896 L9.73080758,8.77367896 C9.20220004,8.77367896 8.77367896,9.20220004 8.77367896,9.73080758 L8.77367896,23.6091725 C8.77367896,25.8998051 10.6306036,27.7567298 12.9212363,27.7567298 L14.5164506,27.7567298 C14.7702969,27.7567298 15.0137463,27.6558898 15.1932428,27.4763933 C15.3727392,27.2968969 15.4735793,27.0534475 15.4735793,26.7996012 L15.4735793,18.0259222 Z" fill="#FFC74A"/>
      <path d="M18.5044865,17.5473579 L27.8524427,17.5473579 C30.1430753,17.5473579 32,19.4042826 32,21.6949153 L32,27.8524427 C32,30.1430753 30.1430753,32 27.8524427,32 L21.6949153,32 C19.4042826,32 17.5473579,30.1430753 17.5473579,27.8524427 L17.5473579,18.5044865 C17.5473579,17.975879 17.975879,17.5473579 18.5044865,17.5473579 Z" fill="#DD5B5B"/>
    </g>
  </g>
</svg>
