<svg viewBox="0 0 32 32" version="1.1" xmlns="http://www.w3.org/2000/svg">
  <g id="logomark">
    <path d="M6.6999003,9.25224327 C6.6999003,7.84262317 7.84262317,6.6999003 9.25224327,6.6999003 L22.8753739,6.6999003 C23.4039814,6.6999003 23.8325025,6.27137922 23.8325025,5.74277168 L23.8325025,4.14755733 C23.8325025,1.85692467 21.9755778,1.40260798e-16 19.6849452,0 L0.957128614,0 C0.428521077,-3.23678764e-17 6.47357528e-17,0.428521077 0,0.957128614 L0,19.6849452 C2.80521596e-16,21.9755778 1.85692467,23.8325025 4.14755733,23.8325025 L5.74277168,23.8325025 C6.27137922,23.8325025 6.6999003,23.4039814 6.6999003,22.8753739 L6.6999003,9.25224327 Z" fill="#808DA2"/>
    <path d="M15.4735793,18.0259222 C15.4735793,16.6163021 16.6163021,15.4735793 18.0259222,15.4735793 L26.7996012,15.4735793 C27.0534475,15.4735793 27.2968969,15.3727392 27.4763933,15.1932428 C27.6558898,15.0137463 27.7567298,14.7702969 27.7567298,14.5164506 L27.7567298,12.9212363 C27.7567298,10.6306036 25.8998051,8.77367896 23.6091725,8.77367896 L9.73080758,8.77367896 C9.20220004,8.77367896 8.77367896,9.20220004 8.77367896,9.73080758 L8.77367896,23.6091725 C8.77367896,25.8998051 10.6306036,27.7567298 12.9212363,27.7567298 L14.5164506,27.7567298 C14.7702969,27.7567298 15.0137463,27.6558898 15.1932428,27.4763933 C15.3727392,27.2968969 15.4735793,27.0534475 15.4735793,26.7996012 L15.4735793,18.0259222 Z" fill="#667285"/>
    <path d="M18.5044865,17.5473579 L27.8524427,17.5473579 C30.1430753,17.5473579 32,19.4042826 32,21.6949153 L32,27.8524427 C32,30.1430753 30.1430753,32 27.8524427,32 L21.6949153,32 C19.4042826,32 17.5473579,30.1430753 17.5473579,27.8524427 L17.5473579,18.5044865 C17.5473579,17.975879 17.975879,17.5473579 18.5044865,17.5473579 Z" fill="#4C5769"/>
  </g>
</svg>
