<svg viewBox="0 0 50 50" version="1.1" xmlns="http://www.w3.org/2000/svg">
  <path fill="currentColor" d="M20,4.85467463e-15 C47,9.81449417e-15 50,3 50,30 C50,42.8866441 50,48.8866441 50,48 C50,49.1045695 49.1045695,50 48,50 L46,50 C44.8954305,50 44,49.1045695 44,48 L44,30 C44,6.5 43.5,6 20,6 L2,6 C0.8954305,6 1.33226763e-14,5.1045695 -8.8817842e-16,4 L-8.8817842e-16,2 C1.33226763e-14,0.8954305 0.8954305,1.48074742e-15 2,1.54812827e-15 C1.11335587,2.96096154e-15 7.11335587,4.06314366e-15 20,4.85467463e-15 Z"/>
</svg>
