<svg viewBox="0 0 50 50" version="1.1" xmlns="http://www.w3.org/2000/svg">
  <path fill="currentColor" d="M30,50 C3,50 1.96005386e-15,47 3.61332704e-15,20 C4.4024019e-15,7.11335587 4.76979594e-15,1.11335587 4.71550916e-15,2 C8.13108882e-15,0.8954305 0.8954305,1.15463195e-14 2,4.4408921e-15 L4,4.4408921e-15 C5.1045695,1.15463195e-14 6,0.8954305 6,2 L6,20 C6,43.5 6.5,44 30,44 L48,44 C49.1045695,44 50,44.8954305 50,46 L50,48 C50,49.1045695 49.1045695,50 48,50 C48.8866441,50 42.8866441,50 30,50 Z"/>
</svg>
