<svg viewBox="0 0 50 50" version="1.1" xmlns="http://www.w3.org/2000/svg">
  <path fill="currentColor" d="M-8.8817842e-16,30 C-8.8817842e-16,3 3,7.10542736e-15 30,7.10542736e-15 C42.8866441,7.10542284e-15 48.8866441,7.10542284e-15 48,7.10542736e-15 C49.1045695,1.04533716e-14 50,0.8954305 50,2 L50,4 C50,5.1045695 49.1045695,6 48,6 L30,6 C6.5,6 6,6.5 6,30 L6,48 C6,49.1045695 5.1045695,50 4,50 L2,50 C0.8954305,50 -7.52653148e-16,49.1045695 -8.8817842e-16,48 C6.87528738e-16,48.8866441 6.87528738e-16,42.8866441 -8.8817842e-16,30 Z"/>
</svg>
